<?xml version="1.0" encoding="UTF-8" standalone="no"?>
<!DOCTYPE svg PUBLIC "-//W3C//DTD SVG 1.1//EN" "http://www.w3.org/Graphics/SVG/1.1/DTD/svg11.dtd">
<svg width="100%" height="100%" viewBox="0 0 20834 20834" version="1.1" xmlns="http://www.w3.org/2000/svg" xmlns:xlink="http://www.w3.org/1999/xlink" xml:space="preserve" xmlns:serif="http://www.serif.com/" style="fill-rule:evenodd;clip-rule:evenodd;stroke-linejoin:round;stroke-miterlimit:2;">
    <g transform="matrix(32.743,0,0,32.743,-112779,-69168.2)">
        <g>
            <path d="M3818,2459.89C3808.6,2475.45 3809.06,2496.31 3809.97,2514.46C3822.48,2499.72 3833.59,2482.06 3848.23,2469.51L3818,2459.89Z" style="fill:rgb(85,102,103);fill-rule:nonzero;"/>
            <path d="M3825.09,2403.03C3785.24,2430.16 3796.02,2485.4 3851.25,2479.79C3877.1,2477.17 3896.96,2460.65 3908.94,2438.54C3916.34,2424.88 3923.83,2388.57 3906.3,2379.06C3882.63,2366.23 3825.09,2403.03 3825.09,2403.03Z" style="fill:rgb(199,188,160);fill-rule:nonzero;"/>
            <path d="M4002.07,2462.04C3999.1,2481.51 3986.77,2504.09 3964.59,2530.76C3949.61,2548.76 3927.25,2558.25 3900.54,2558.25C3895.11,2558.25 3889.5,2557.86 3883.74,2557.07C3855.29,2553.15 3833.64,2543.15 3813.54,2524.64C3803.81,2515.69 3800.3,2507.18 3800.13,2492.11C3800.07,2486.96 3801.38,2480.55 3802.76,2473.77C3803.8,2468.71 3804.87,2463.47 3805.36,2458.67C3806.59,2446.51 3811.86,2434.88 3820.2,2425.92C3837.74,2407.09 3871.31,2378.98 3915.39,2378.98C3923.6,2378.98 3932.18,2379.95 3941.08,2382.14C3946.75,2383.54 3951.97,2385.06 3956.84,2386.97C3957.14,2386.33 3957.53,2385.74 3958,2385.27C3958.01,2385.26 3958.02,2385.25 3958.03,2385.24C3952.95,2383.21 3947.49,2381.62 3941.57,2380.16C3883.85,2365.94 3839.82,2401.86 3818.71,2424.53C3810.06,2433.81 3804.6,2445.86 3803.32,2458.46C3802.84,2463.16 3801.78,2468.35 3800.76,2473.36C3799.35,2480.25 3798.02,2486.76 3798.08,2492.13C3798.26,2507.85 3801.95,2516.75 3812.15,2526.15C3832.58,2544.96 3854.57,2555.12 3883.45,2559.1C3889.32,2559.9 3895.03,2560.3 3900.56,2560.3C3927.88,2560.3 3950.79,2550.55 3966.16,2532.06C3989.07,2504.53 4001.6,2481.2 4004.28,2461.06C4003.57,2461.59 4002.82,2461.91 4002.07,2462.04Z" style="fill:rgb(85,102,103);fill-rule:nonzero;"/>
            <path d="M4022.71,2431.63C4022.59,2429.35 4021.8,2427.61 4020.37,2426.46C4017.11,2423.86 4011.41,2424.84 4005.89,2425.78C4005.1,2425.92 4004.31,2426.06 4003.55,2426.18C4010.89,2421.57 4017.9,2413.36 4014.41,2403.85C4013.14,2400.37 4011.15,2398.18 4008.51,2397.35C4002.92,2395.59 3995.61,2400.29 3989.47,2404.56C3989.75,2404.1 3990.05,2403.64 3990.36,2403.15C3996.34,2393.83 4005.36,2379.75 3999.26,2370.66C3997.33,2367.79 3994.78,2366.09 3991.68,2365.63C3985.91,2364.76 3978.43,2368.13 3968.81,2375.93L3966.98,2377.41C3957.93,2384.72 3949.38,2391.62 3945.13,2403.16C3943.73,2406.95 3943.43,2412.75 3943.14,2418.36C3943.02,2420.86 3942.88,2423.39 3942.65,2425.56C3943.31,2425.83 3943.96,2426.13 3944.6,2426.47C3944.89,2424.16 3945.04,2421.41 3945.19,2418.47C3945.47,2413.01 3945.76,2407.36 3947.05,2403.87C3951.1,2392.86 3959.44,2386.13 3968.27,2379L3970.1,2377.52C3973.46,2374.79 3983.69,2366.5 3991.37,2367.65C3993.91,2368.03 3995.94,2369.39 3997.56,2371.8C4002.91,2379.78 3994.32,2393.18 3988.64,2402.05C3987.25,2404.22 3986.05,2406.1 3985.2,2407.64L3983.17,2411.35L3986.67,2408.99C3987.51,2408.42 3988.39,2407.8 3989.31,2407.16C3995.34,2402.95 4002.85,2397.71 4007.9,2399.3C4009.93,2399.94 4011.43,2401.66 4012.49,2404.56C4016.21,2414.7 4006,2423.35 3998.22,2426.68L3994.19,2428.41L3998.57,2428.64C4000.69,2428.76 4003.38,2428.29 4006.24,2427.8C4011.07,2426.97 4016.55,2426.03 4019.09,2428.06C4020.06,2428.84 4020.58,2430.04 4020.67,2431.74C4020.76,2433.58 4020.22,2435.13 4019.01,2436.46C4014.67,2441.23 4003.21,2441.71 3998.31,2441.92L3994.67,2442.07L3997.86,2443.84C4009.64,2450.35 4011.72,2454.14 4011.38,2456.16C4011.09,2457.96 4008.56,2460.48 3998.23,2462.33C3994.51,2463 3990.79,2463.08 3987.05,2462.61C3987.04,2462.63 3987.04,2462.65 3987.03,2462.66C3986.98,2462.74 3986.94,2462.81 3986.9,2462.88C3986.88,2462.9 3986.87,2462.93 3986.85,2462.95C3986.69,2463.18 3986.03,2464.06 3985.83,2464.27C3985.72,2464.39 3985.68,2464.42 3985.61,2464.47C3987.63,2464.79 3989.64,2464.97 3991.66,2464.97C3993.97,2464.97 3996.28,2464.76 3998.59,2464.35C4007.96,2462.67 4012.81,2460.1 4013.4,2456.5C4014,2452.9 4010.32,2448.82 4001.88,2443.78C4007.77,2443.39 4016.52,2442.24 4020.53,2437.84C4022.1,2436.1 4022.84,2434.01 4022.71,2431.63Z" style="fill:rgb(85,102,103);fill-rule:nonzero;"/>
            <path d="M3979.18,2466.8C3975.78,2466.8 3972.52,2464.84 3969.99,2461.1L3971.68,2459.95C3974.69,2464.38 3978.66,2465.83 3982.56,2463.93C3986.01,2462.25 3988.39,2458.33 3987.55,2455.7C3986.76,2453.24 3983.16,2452.37 3977.67,2453.29L3977.23,2451.29C3980.32,2450.43 3983.09,2447.67 3984.82,2443.72C3986.94,2438.89 3987.03,2433.31 3985.08,2428.93C3980.31,2430.01 3974.91,2432.26 3970.14,2435.19L3967.64,2436.73L3968.64,2433.97C3969.23,2432.34 3970.44,2430.04 3971.84,2427.37C3975.47,2420.43 3980.97,2409.95 3978.24,2405.19C3977.27,2403.49 3975.28,2402.59 3972.16,2402.44C3972.08,2402.44 3972,2402.44 3971.92,2402.44C3964.39,2402.44 3951.93,2419.15 3949.95,2427.97C3949.65,2429.29 3949.35,2431.58 3950.62,2432.11L3949.83,2434C3948.44,2433.42 3946.99,2431.83 3947.95,2427.53C3950.15,2417.74 3963.5,2399.97 3972.26,2400.4C3976.08,2400.58 3978.69,2401.85 3980.02,2404.18C3983.3,2409.9 3977.72,2420.55 3973.65,2428.32C3972.98,2429.6 3972.36,2430.8 3971.83,2431.86C3976.35,2429.42 3981.09,2427.64 3985.46,2426.76L3986.22,2426.61L3986.57,2427.3C3989.16,2432.37 3989.21,2438.82 3986.7,2444.54C3985.55,2447.16 3983.97,2449.33 3982.14,2450.89C3987.31,2451.04 3988.97,2453.43 3989.5,2455.08C3990.67,2458.71 3987.9,2463.61 3983.46,2465.77C3982.03,2466.46 3980.6,2466.8 3979.18,2466.8Z" style="fill:rgb(85,102,103);fill-rule:nonzero;"/>
            <path d="M3803.53,2470.28C3803.68,2469.57 3803.78,2468.85 3803.84,2468.12C3799.62,2469.43 3793.54,2470.01 3787.44,2469.61C3779.83,2469.1 3774.21,2467.2 3772.78,2464.64C3771.05,2461.54 3776.42,2457.55 3779.78,2455.45L3782.31,2453.87L3779.34,2453.57C3768.82,2452.51 3763.86,2447.62 3763.63,2443.24C3763.41,2439.29 3766.99,2434.27 3777.69,2432L3780.49,2431.4L3777.59,2429.9C3773.02,2427.53 3764.51,2423.13 3762.76,2417.33C3762.12,2415.2 3762.41,2413.09 3763.66,2410.85C3767.35,2404.21 3782.62,2407.31 3787.2,2408.42L3789.19,2408.89L3788.23,2406.66C3784.96,2399.02 3776.28,2378.74 3781.99,2371.85C3783.94,2369.5 3787.6,2368.9 3792.86,2370.06C3798.5,2371.32 3804.4,2377.5 3809.06,2387.04C3813.45,2396.05 3815.76,2406 3815.33,2412.85C3815.39,2412.79 3815.45,2412.74 3815.51,2412.67C3816.13,2412.1 3816.78,2411.67 3817.44,2411.38C3817.5,2403.7 3814.67,2393.87 3810.9,2386.14C3805.97,2376.04 3799.56,2369.45 3793.3,2368.07C3787.23,2366.72 3782.9,2367.55 3780.41,2370.55C3774.25,2377.98 3781.74,2396.63 3785.72,2405.98C3777.69,2404.26 3765.66,2403.03 3761.87,2409.86C3760.36,2412.56 3760,2415.28 3760.8,2417.92C3762.56,2423.74 3769.45,2427.91 3774.61,2430.65C3764.71,2433.47 3761.34,2438.93 3761.58,2443.35C3761.85,2448.18 3766.55,2453.49 3776.42,2455.23C3771.09,2459.06 3769.26,2462.55 3770.99,2465.64C3773.36,2469.89 3782.24,2471.78 3790.98,2471.78C3795.51,2471.78 3799.99,2471.27 3803.52,2470.32C3803.52,2470.31 3803.52,2470.3 3803.53,2470.28Z" style="fill:rgb(85,102,103);fill-rule:nonzero;"/>
            <path d="M4059.2,2496.51L4057.77,2495.7C4043.35,2487.53 4021.89,2488.97 4002.95,2490.24C3999.11,2490.5 3995.39,2490.75 3991.84,2490.91C3991.74,2491.06 3991.64,2491.22 3991.54,2491.37C3991.33,2491.93 3991.06,2492.47 3990.77,2493.01C3994.68,2492.85 3998.81,2492.57 4003.09,2492.28C4021.07,2491.08 4041.37,2489.72 4055.25,2496.68C4047.57,2501.28 4036.93,2502.78 4027.48,2504.12C4023.52,2504.68 4019.79,2505.21 4016.35,2505.93L4006.45,2507.99L4018.02,2507.95C4026.41,2507.89 4041.76,2507.78 4044.91,2514.66C4037.02,2518.08 4028.35,2518.28 4019.95,2518.48C4016.89,2518.56 4013.74,2518.63 4010.65,2518.86L4008.31,2519.03L4010.03,2520.63C4014.62,2524.91 4021.6,2528 4028.35,2530.99C4030.25,2531.83 4032.08,2532.64 4033.81,2533.45C4014.45,2537.8 3987.18,2528.03 3974.17,2518.77L3972.99,2520.43C3984.06,2528.32 4005.24,2536.55 4023.55,2536.55C4028.31,2536.55 4032.88,2535.99 4037.03,2534.72L4039.45,2533.98L4037.2,2532.83C4034.72,2531.57 4032.03,2530.38 4029.18,2529.12C4023.49,2526.6 4017.64,2524.01 4013.35,2520.75C4015.57,2520.64 4017.81,2520.58 4019.99,2520.53C4028.91,2520.32 4038.13,2520.1 4046.64,2516.13L4047.44,2515.76L4047.19,2514.91C4045.32,2508.54 4036.48,2506.64 4028.15,2506.1C4038.34,2504.65 4049.81,2502.97 4057.85,2497.44L4059.2,2496.51Z" style="fill:rgb(85,102,103);fill-rule:nonzero;"/>
            <path d="M3803.24,2458.93C3797.85,2460.87 3791.14,2460.84 3784.56,2458.78C3783.53,2453.09 3787.2,2449.25 3796.07,2446.72L3798.55,2446.01L3796.26,2444.83C3795.24,2444.3 3794.21,2443.82 3793.23,2443.36C3788.28,2441.05 3784.38,2439.23 3784.49,2433.04C3784.56,2429.64 3785.66,2427.14 3787.68,2425.81C3789.88,2424.36 3793.07,2424.37 3796.68,2425.83L3802.08,2428.02L3797.75,2424.12C3793.26,2420.07 3791.42,2415.48 3792.72,2411.53C3793.67,2408.66 3796.21,2406.62 3799.21,2406.33C3803.27,2405.93 3807.22,2408.58 3810.05,2413.6L3811.83,2412.59C3808.58,2406.83 3803.91,2403.81 3799.01,2404.29C3795.2,2404.66 3791.97,2407.25 3790.78,2410.89C3789.52,2414.72 3790.6,2418.95 3793.73,2422.86C3790.97,2422.41 3788.49,2422.82 3786.56,2424.1C3783.94,2425.82 3782.52,2428.9 3782.45,2433C3782.3,2440.53 3787.19,2442.8 3792.36,2445.22C3792.58,2445.32 3792.79,2445.41 3793.01,2445.52C3788.21,2447.16 3780.63,2450.93 3782.68,2459.8L3782.81,2460.36L3783.36,2460.54C3787.11,2461.79 3790.93,2462.4 3794.57,2462.4C3797.74,2462.4 3800.76,2461.93 3803.51,2461C3803.42,2460.31 3803.33,2459.62 3803.24,2458.93Z" style="fill:rgb(85,102,103);fill-rule:nonzero;"/>
            <path d="M3904.73,2462.97C3904.12,2462.6 3903.45,2462.35 3902.74,2462.2C3900.71,2462.67 3898.68,2463.15 3896.64,2463.44C3896.55,2467.26 3896.12,2471.09 3895.47,2474.9C3898.49,2475.69 3902.78,2474.8 3905.47,2472.78C3905.34,2469.51 3905.08,2466.24 3904.73,2462.97Z" style="fill:rgb(85,102,103);fill-rule:nonzero;"/>
            <path d="M3914.67,2493.84C3910.51,2501.37 3902.36,2503.78 3894.53,2502.59C3877.95,2500.06 3881.25,2475.04 3897.95,2476.6C3910,2477.73 3921.36,2481.76 3914.67,2493.84Z" style="fill:rgb(232,191,188);fill-rule:nonzero;"/>
            <path d="M3728.61,2294.11L3730.13,2293.49C3735.65,2306.11 3716.46,2328.74 3702.44,2345.26C3699.14,2349.17 3696.19,2352.63 3694.07,2355.4C3695.39,2357.69 3696.85,2360.1 3698.45,2362.63C3700.37,2365.66 3702.38,2368.77 3704.34,2371.78C3714.03,2386.7 3724.06,2402.15 3729.43,2418.7C3731.43,2424.87 3732.11,2432.18 3732.77,2439.23C3733.4,2446.06 3734.02,2452.59 3735.8,2456.92C3738.28,2457.61 3740.75,2458.32 3743.21,2459.08C3754.85,2462.7 3766.29,2467.41 3777.36,2471.97C3781.81,2473.81 3786.43,2475.7 3790.97,2477.49C3802.06,2481.87 3813.1,2488.73 3823.78,2495.35C3836.61,2503.32 3849.89,2511.55 3862.87,2515.14L3862.86,2515.16C3879.34,2519.81 3894.24,2525.81 3908.46,2532.06C3908.35,2532.55 3908.25,2533.03 3908.14,2533.51C3893.89,2527.24 3878.97,2521.22 3862.49,2516.56L3862.45,2516.7C3849.23,2513.07 3835.85,2504.75 3822.91,2496.72C3812.3,2490.13 3801.32,2483.33 3790.38,2479.01C3785.82,2477.21 3781.2,2475.31 3776.74,2473.47C3765.71,2468.93 3754.3,2464.23 3742.74,2460.64C3740.76,2460.02 3738.78,2459.44 3736.79,2458.88C3736.06,2458.67 3735.34,2458.48 3734.62,2458.29C3728.6,2456.65 3722.51,2455.24 3716.4,2454C3710.29,2452.76 3704.14,2451.7 3697.99,2450.75C3689.58,2474.59 3669.28,2495.58 3643.63,2506.95C3633.61,2511.39 3622.83,2513.15 3612.41,2514.86C3611.28,2515.04 3610.16,2515.23 3609.03,2515.41C3609.45,2517.11 3609.88,2518.78 3610.3,2520.41C3613.72,2533.73 3616.66,2545.22 3611.89,2559.36C3611.78,2559.68 3611.67,2559.99 3611.54,2560.31C3614.92,2567.74 3622.62,2575.62 3632.83,2581.9L3631.96,2583.28C3622.08,2577.19 3614.46,2569.61 3610.67,2562.26C3608.06,2567.55 3603.38,2573 3599.16,2577.91C3595.09,2582.67 3591.24,2587.15 3590.68,2589.99L3589.05,2589.65C3589.7,2586.4 3593.5,2581.98 3597.9,2576.85C3602.38,2571.62 3607.41,2565.76 3609.75,2560.31C3609.96,2559.81 3610.15,2559.32 3610.32,2558.83C3610.43,2558.53 3610.52,2558.23 3610.61,2557.93C3614.82,2544.64 3611.98,2533.58 3608.69,2520.8C3608.27,2519.13 3607.83,2517.43 3607.4,2515.69C3598.59,2517.2 3589.68,2519.03 3581.48,2522.78C3576.33,2525.12 3571.44,2528.91 3566.7,2532.56C3561.11,2536.9 3555.82,2540.98 3550.39,2542.58L3549.89,2541.02C3555.03,2539.51 3560.2,2535.51 3565.68,2531.28C3570.48,2527.57 3575.45,2523.72 3580.77,2521.3C3589.12,2517.48 3598.12,2515.62 3607.01,2514.1C3607,2514.05 3606.99,2513.99 3606.97,2513.94L3608.58,2513.58C3608.6,2513.66 3608.62,2513.74 3608.64,2513.82C3609.8,2513.63 3610.96,2513.44 3612.12,2513.25C3618.6,2512.19 3625.22,2511.11 3631.68,2509.37C3593.62,2493.84 3575.94,2486.87 3538.39,2504.18L3537.67,2502.7C3576.17,2484.96 3594.03,2492.25 3633.17,2508.22L3634.22,2508.64C3637.17,2507.76 3640.09,2506.72 3642.94,2505.46C3668.08,2494.32 3687.98,2473.8 3696.33,2450.5C3685.59,2448.86 3674.85,2447.55 3664.26,2446.26C3660.53,2445.81 3656.74,2445.35 3652.95,2444.87C3652.29,2444.79 3651.64,2444.71 3650.98,2444.62C3644.15,2443.76 3637.25,2442.83 3630.43,2441.78C3589.64,2435.48 3555.29,2434.27 3527.75,2438.14C3516.04,2447.37 3513.16,2459.41 3510.38,2471.09C3507.52,2483.09 3504.56,2495.5 3491.89,2504.23L3490.94,2502.89C3493.22,2501.31 3495.18,2499.62 3496.87,2497.83C3496.1,2498.3 3495.31,2498.72 3494.47,2499.08C3493.14,2499.66 3491.76,2500.08 3490.35,2500.35C3484.42,2501.48 3477.96,2499.89 3472.39,2495.78L3473.37,2494.48C3479.87,2499.27 3487.31,2500.4 3493.79,2497.59C3500.08,2494.86 3504.22,2488.76 3504.88,2481.28L3505.95,2481.39C3507.04,2477.93 3507.9,2474.34 3508.77,2470.69C3511.45,2459.45 3514.22,2447.88 3524.64,2438.6C3511.01,2440.76 3499.12,2444.2 3489.01,2448.92L3488.67,2449.08L3488.33,2448.94C3483.96,2447.13 3484.19,2444.72 3484.36,2442.97C3484.42,2442.22 3484.49,2441.59 3484.24,2441.05L3485.75,2440.41C3486.17,2441.33 3486.07,2442.29 3486,2443.14C3485.84,2444.74 3485.72,2446.01 3488.62,2447.29C3499.46,2442.28 3512.29,2438.71 3527.05,2436.6C3528.19,2436.44 3529.36,2436.29 3530.52,2436.14C3536.4,2435.4 3542.57,2434.89 3549.04,2434.6C3538.39,2428.23 3529.92,2412.92 3521.71,2398.09C3520.73,2396.33 3519.76,2394.59 3518.8,2392.86C3518.79,2392.86 3518.79,2392.86 3518.78,2392.86C3512.38,2394.08 3505.5,2393.72 3498.81,2393.36C3492.39,2393.02 3485.75,2392.67 3479.55,2393.68L3479.25,2392.08C3485.64,2391.03 3492.37,2391.38 3498.87,2391.73C3505.55,2392.09 3511.99,2392.43 3517.95,2391.36C3508.1,2373.92 3498.31,2359.24 3485.2,2362.36L3484.8,2360.77C3499.17,2357.36 3509.38,2372.82 3519.64,2391.02C3519.91,2391.51 3520.19,2392 3520.47,2392.5C3521.36,2394.1 3522.25,2395.71 3523.15,2397.33C3531.78,2412.92 3540.72,2429.03 3551.89,2434.28L3551.79,2434.49C3574.6,2433.69 3600.94,2435.58 3630.66,2440.17C3637.74,2441.26 3644.87,2442.21 3651.96,2443.11C3652.07,2442.75 3652.14,2442.34 3652.17,2441.88C3652.93,2430.14 3627.56,2392.39 3614.59,2380.83C3613.07,2379.47 3611.5,2378.2 3609.9,2377.02C3609.88,2377.01 3609.86,2376.99 3609.84,2376.98C3605.65,2375.29 3602.47,2373.25 3600.11,2370.94C3600.1,2370.93 3600.08,2370.93 3600.07,2370.92C3595.44,2368.51 3590.65,2366.54 3585.8,2364.78L3585.79,2364.78C3582.79,2371.51 3575.68,2376.45 3566.15,2378.36C3566.01,2378.39 3565.87,2378.41 3565.74,2378.44C3553.71,2380.73 3541.06,2377.85 3534.16,2371.21L3535.31,2370.05C3541.73,2376.23 3554.07,2379 3565.42,2376.83C3565.55,2376.81 3565.67,2376.79 3565.8,2376.76C3574.75,2374.97 3581.41,2370.41 3584.22,2364.23C3580.47,2362.91 3576.7,2361.71 3572.97,2360.52C3560.16,2356.44 3546.93,2352.22 3535.64,2343.65L3536.64,2342.36C3547.69,2350.75 3560.79,2354.93 3573.46,2358.97C3581.49,2361.53 3589.67,2364.14 3597.5,2367.84C3597.51,2367.85 3597.52,2367.86 3597.53,2367.86C3591.18,2358.42 3595.04,2345.7 3598.57,2334.09C3601.39,2324.83 3604.05,2316.09 3602.15,2309.14L3603.74,2308.74C3605.76,2316.13 3603.04,2325.09 3600.15,2334.57C3596.23,2347.47 3592.21,2360.7 3601.13,2369.65C3604.39,2371.36 3607.56,2373.3 3610.63,2375.54C3611.02,2375.7 3611.41,2375.86 3611.83,2376.01L3611.71,2376.35C3613.06,2377.38 3614.39,2378.46 3615.69,2379.63C3627.89,2390.5 3654.66,2428.91 3653.82,2442.01C3653.79,2442.47 3653.72,2442.91 3653.62,2443.31C3657.25,2443.77 3660.87,2444.21 3664.45,2444.65C3687.39,2447.43 3711.01,2450.31 3733.86,2456.39C3732.3,2451.88 3731.72,2445.74 3731.13,2439.36C3730.48,2432.39 3729.8,2425.17 3727.86,2419.18C3722.55,2402.83 3712.58,2387.48 3702.95,2372.64C3700.99,2369.62 3698.97,2366.52 3697.05,2363.48C3695.58,2361.16 3694.23,2358.95 3693.01,2356.83C3692.7,2356.3 3692.4,2355.78 3692.11,2355.26C3687.47,2347.01 3684.64,2340.14 3683.06,2333.79C3663.34,2335.74 3633.77,2302.68 3628.52,2287.77L3630.08,2287.25C3635.64,2303.07 3664.83,2333.64 3682.69,2332.19C3680.14,2320.55 3681.8,2310.46 3684.11,2296.37C3685.2,2289.76 3686.43,2282.26 3687.43,2273.3L3689.07,2273.5C3688.07,2282.5 3686.83,2290.02 3685.74,2296.65C3683.46,2310.55 3681.82,2320.48 3684.35,2331.97C3684.46,2332.49 3684.58,2333.02 3684.71,2333.55C3686.23,2339.57 3688.89,2346.08 3693.2,2353.83C3695.3,2351.14 3698.07,2347.86 3701.17,2344.21C3714.14,2328.92 3733.73,2305.82 3728.61,2294.11Z" style="fill:rgb(85,102,103);fill-rule:nonzero;"/>
            <path d="M3625.5,2283.31C3632.67,2266.89 3654.11,2294.25 3639.74,2300.8C3627.11,2306.56 3623.28,2288.4 3625.5,2283.31Z" style="fill:rgb(207,187,169);fill-rule:nonzero;"/>
            <path d="M3695.03,2274.35C3697.15,2283.42 3690.92,2292.77 3683.04,2292.03C3676.18,2291.39 3672.61,2283.45 3676.41,2277.84C3677.87,2275.69 3679.35,2273.57 3680.72,2271.64C3684.62,2266.16 3693.48,2267.76 3695.03,2274.35Z" style="fill:rgb(207,187,169);fill-rule:nonzero;"/>
            <path d="M3727.87,2283.81C3734.55,2278.35 3743.89,2287.1 3748.74,2294.97C3737.67,2328.13 3709.56,2298.79 3727.87,2283.81Z" style="fill:rgb(207,187,169);fill-rule:nonzero;"/>
            <path d="M3542.56,2499.21C3556.41,2511.06 3536.06,2523.14 3530.01,2517.85C3516.72,2506.22 3531.18,2489.48 3542.56,2499.21Z" style="fill:rgb(207,187,169);fill-rule:nonzero;"/>
            <path d="M3558.74,2530.47C3558.74,2530.47 3559.51,2531.32 3561.32,2533.43C3565.69,2538.53 3564.91,2546.23 3559.49,2550.1C3540.99,2563.3 3530.07,2520.4 3558.74,2530.47Z" style="fill:rgb(207,187,169);fill-rule:nonzero;"/>
            <path d="M3639.09,2576.99C3670.48,2598.46 3611.94,2600.08 3631.65,2579.84C3633.58,2577.86 3636.3,2576.82 3639.09,2576.99Z" style="fill:rgb(207,187,169);fill-rule:nonzero;"/>
            <path d="M3596.67,2583.51C3596.98,2583.84 3597.29,2584.18 3597.59,2584.5C3601.01,2588.17 3600.76,2593.84 3597.03,2597.1C3596.96,2597.16 3596.89,2597.22 3596.82,2597.28C3591.21,2602.18 3582.16,2598.53 3581.64,2591.09C3581.59,2590.44 3581.57,2589.79 3581.56,2589.13C3581.51,2581.32 3591.29,2577.7 3596.67,2583.51Z" style="fill:rgb(207,187,169);fill-rule:nonzero;"/>
            <path d="M3476.36,2493.56C3476.4,2493.6 3476.43,2493.64 3476.47,2493.68C3479.78,2497.49 3478.49,2503.42 3473.85,2505.32C3469.45,2507.11 3465.02,2506.18 3461.18,2502.74C3457.51,2499.44 3458.07,2493.63 3462.31,2491.21C3462.38,2491.18 3462.44,2491.14 3462.5,2491.11C3467.08,2488.55 3472.87,2489.58 3476.36,2493.56Z" style="fill:rgb(207,187,169);fill-rule:nonzero;"/>
            <path d="M3475.41,2404.51C3461.36,2398.91 3464.74,2380.48 3478.48,2382.79C3493.41,2385.29 3493.54,2411.74 3475.41,2404.51Z" style="fill:rgb(207,187,169);fill-rule:nonzero;"/>
            <path d="M3490.97,2455.15C3483.19,2457.59 3475.94,2452.32 3476.72,2445.59C3477.47,2439.03 3485.2,2435.91 3490.85,2439.56C3491.7,2440.11 3492.52,2440.69 3493.32,2441.32C3498.37,2445.3 3497.07,2453.23 3490.97,2455.15Z" style="fill:rgb(207,187,169);fill-rule:nonzero;"/>
            <path d="M3518.64,2336.88C3518.64,2336.88 3535.06,2319.25 3539.53,2343.22C3529.06,2359.93 3509.69,2349.14 3518.64,2336.88Z" style="fill:rgb(207,187,169);fill-rule:nonzero;"/>
            <path d="M3531.08,2372.54C3531.11,2372.49 3531.15,2372.44 3531.18,2372.39C3533.64,2368.8 3538.74,2367.99 3542.22,2370.74C3544.47,2372.51 3546.36,2374.69 3547.84,2377.39C3543.2,2382.11 3539.61,2384.24 3535.88,2383.7C3530.65,2382.93 3528.13,2376.83 3531.08,2372.54Z" style="fill:rgb(207,187,169);fill-rule:nonzero;"/>
            <path d="M3588.11,2306.88C3593.67,2298.47 3607.18,2305.61 3602.95,2314.74C3601.2,2318.53 3597.05,2320.47 3589.57,2317.81C3584.09,2315.86 3585.16,2311.34 3588.11,2306.88Z" style="fill:rgb(207,187,169);fill-rule:nonzero;"/>
        </g>
    </g>
</svg>
