<?xml version="1.0" encoding="UTF-8" standalone="no"?>
<!DOCTYPE svg PUBLIC "-//W3C//DTD SVG 1.1//EN" "http://www.w3.org/Graphics/SVG/1.1/DTD/svg11.dtd">
<svg width="100%" height="100%" viewBox="0 0 3500 3000" version="1.1" xmlns="http://www.w3.org/2000/svg" xmlns:xlink="http://www.w3.org/1999/xlink" xml:space="preserve" xmlns:serif="http://www.serif.com/" style="fill-rule:evenodd;clip-rule:evenodd;stroke-linecap:round;stroke-linejoin:round;stroke-miterlimit:1.5;">
    <g transform="matrix(-0.433462,-0.076431,-0.0629284,0.356885,7183.29,-1645.05)">
        <path d="M12188.4,7578.94C11673.5,7391.7 11213.6,7384.74 10674.9,7353.05C9323.65,7273.56 8499.71,7089.85 7941.58,8392.16C7760.17,8815.44 7669.6,9187.57 7918.99,9611.98C8268.08,10206 9782.36,10732.3 10426.4,10989.9C10595.8,11057.7 10788.5,11181.8 10968.5,11215.8C11453.5,11307.4 11950.1,11420.2 12436.8,11509.5C12691.7,11556.2 13103.7,11619.5 13363,11554.7C13739.7,11460.5 14449.6,10657.6 14479.3,10103.9C14483.5,10024.2 14458.1,9587.43 14343.4,9391.73C14136.2,9037.96 13907.4,8810.84 13827.3,8684.59C13794.4,8632.74 12719.6,7578.94 12188.4,7578.94Z" style="fill:rgb(250,248,253);stroke:rgb(115,135,128);stroke-width:41.34px;"/>
        <path d="M7946.69,9653.3C7999.18,9758.26 8107.19,9821.95 8176.16,9915.25C8217.16,9970.72 8280.95,10041.6 8305.69,10100.3C8390.34,10301.2 8399.48,10320.9 8444.48,10433.4C8468.18,10492.6 8514.23,10582.2 8527.76,10637C8543.42,10700.4 8574.02,10760.9 8574.02,10822L8574.02,10859C8574.02,10859 8653.07,10624.3 8686.38,10559C8747.02,10440.2 8793.86,10369.8 8869.66,10324.9" style="fill:rgb(250,248,253);stroke:rgb(115,135,128);stroke-width:41.34px;"/>
    </g>
    <g transform="matrix(1,0,0,1,-472.919,-27.6366)">
        <g transform="matrix(0.769591,0,0,1,235.972,0)">
            <text x="1024.14px" y="689.962px" style="font-family:'Calibri-Bold', 'Calibri', sans-serif;font-weight:700;font-size:175px;fill:rgb(59,73,78);">&quot;<tspan x="1109.63px 1198.7px 1250.43px 1302.16px 1353.89px 1402.2px 1453.93px 1556.59px 1604.91px 1744.05px 1846.71px 1939.74px 2009.16px 2057.47px 2146.66px 2249.49px 2352.15px 2400.47px 2481.11px 2576.25px 2678.91px 2744.66px 2792.97px 2907.76px 3006.31px 3097.95px 3146.26px 3197.99px 3249.72px 3316.48px 3385.9px 3437.63px 3534.47px 3582.79px 3652.21px 3754.87px 3806.6px 3909.26px 4000.98px 4049.29px 4101.02px " y="689.962px 689.962px 689.962px 689.962px 689.962px 689.962px 689.962px 689.962px 689.962px 689.962px 689.962px 689.962px 689.962px 689.962px 689.962px 689.962px 689.962px 689.962px 689.962px 689.962px 689.962px 689.962px 689.962px 689.962px 689.962px 689.962px 689.962px 689.962px 689.962px 689.962px 689.962px 689.962px 689.962px 689.962px 689.962px 689.962px 689.962px 689.962px 689.962px 689.962px 689.962px ">Fill in what you can! Any little thing is</tspan></text>
        </g>
        <g transform="matrix(0.769591,0,0,1,235.972,0)">
            <text x="1024.14px" y="959.534px" style="font-family:'Calibri-Bold', 'Calibri', sans-serif;font-weight:700;font-size:175px;fill:rgb(59,73,78);">m<tspan x="1175.25px 1278.08px 1346.48px 1443.33px 1491.64px 1561.06px 1663.72px 1758.86px 1861.52px 1909.83px 2012.49px 2107.68px 2168.35px 2271.18px 2339.59px 2436.43px 2491.93px 2540.24px 2631.7px 2782.81px 2877.95px 2929.68px 2981.41px 3029.73px 3105.73px 3172.38px 3269.22px 3370.77px 3449.34px 3497.65px 3578.3px 3673.43px 3776.09px 3824.41px 3891.61px 3986.74px 4073.27px " y="959.534px 959.534px 959.534px 959.534px 959.534px 959.534px 959.534px 959.534px 959.534px 959.534px 959.534px 959.534px 959.534px 959.534px 959.534px 959.534px 959.534px 959.534px 959.534px 959.534px 959.534px 959.534px 959.534px 959.534px 959.534px 959.534px 959.534px 959.534px 959.534px 959.534px 959.534px 959.534px 959.534px 959.534px 959.534px 959.534px 959.534px ">ore than before. Small steps can take</tspan></text>
        </g>
        <g transform="matrix(0.769591,0,0,1,235.972,0)">
            <text x="1024.14px" y="1224.02px" style="font-family:'Calibri-Bold', 'Calibri', sans-serif;font-weight:700;font-size:175px;fill:rgb(59,73,78);">y<tspan x="1113.34px 1216.16px 1318.82px 1367.14px 1469.97px 1572.62px 1620.94px 1716.08px 1818.74px 1867.05px 1962.19px 2113.3px 2208.43px 2286.74px 2338.47px 2441.13px 2532.85px 2581.16px 2676.3px 2778.96px 2868.4px 2965.25px 3065.8px 3135.22px 3237.88px 3306.28px 3403.13px 3458.62px " y="1224.02px 1224.02px 1224.02px 1224.02px 1224.02px 1224.02px 1224.02px 1224.02px 1224.02px 1224.02px 1224.02px 1224.02px 1224.02px 1224.02px 1224.02px 1224.02px 1224.02px 1224.02px 1224.02px 1224.02px 1224.02px 1224.02px 1224.02px 1224.02px 1224.02px 1224.02px 1224.02px 1224.02px ">ou on an amazing adventure.&quot;</tspan></text>
        </g>
    </g>
    <g transform="matrix(2.46716,0,0,2.46716,-5620.29,-7004.85)">
        <path d="M3496.15,3898.3C3528.91,3904.45 3578.66,3924.66 3578.73,3966.52C3578.79,4006.81 3515.76,3988.11 3481.77,3995.36L3496.15,3898.3Z" style="fill:rgb(199,188,160);fill-rule:nonzero;"/>
        <path d="M3492.27,3572.03C3464.67,3555.66 3370.53,3499.99 3341.22,3488.65C3316.61,3479.12 3285.36,3459.88 3258.54,3458.09C3225.85,3455.9 3202.03,3478.05 3172.26,3486.85C3137.71,3497.06 3101.19,3499.01 3066.21,3508.86C2990.72,3530.14 2898.16,3542.09 2846.62,3607.28C2785.33,3684.79 2777.76,3814.6 2787.51,3911.12C2791.46,3950.15 2801.36,3995.07 2840.66,4004.71C2922.77,4024.85 3420.76,3994.62 3504.18,3994.18L3492.27,3572.03Z" style="fill:rgb(199,188,160);fill-rule:nonzero;"/>
        <path d="M3561.2,3487.28L3561.1,3486.13L3559.94,3486.16C3514.19,3487.37 3440.13,3523.75 3410.42,3539.34C3396.51,3546.63 3389.2,3551.26 3385.26,3557.86C3381.38,3564.35 3380.96,3572.3 3380.18,3586.73C3380.05,3589.22 3379.91,3591.91 3379.73,3594.81C3379.58,3597.3 3379.47,3600.31 3379.35,3603.49C3378.91,3615.05 3378.29,3631.51 3375,3643.54C3375.38,3643.69 3375.76,3643.86 3376.14,3644.05C3376.53,3644.18 3376.91,3644.33 3377.28,3644.5C3380.71,3632.32 3381.33,3616 3381.8,3603.58C3381.92,3600.41 3382.03,3597.42 3382.18,3594.95C3382.35,3592.05 3382.5,3589.36 3382.63,3586.86C3384.14,3558.74 3384.3,3555.8 3411.55,3541.51C3440.87,3526.13 3513.52,3490.42 3558.85,3488.65C3561.42,3521.53 3553.41,3563.22 3537.83,3597.78C3524.57,3627.23 3499.8,3635.96 3473.57,3645.2C3460.57,3649.78 3447.12,3654.51 3434.09,3661.93L3435.3,3664.06C3448.14,3656.75 3461.48,3652.05 3474.38,3647.51C3501.12,3638.09 3526.37,3629.2 3540.07,3598.79C3555.99,3563.46 3564.08,3520.73 3561.2,3487.28Z" style="fill:rgb(85,102,103);fill-rule:nonzero;"/>
        <path d="M3378.91,3661.12C3389.31,3655.55 3389.33,3627.24 3391.59,3615.7C3394.12,3602.81 3391.02,3586.14 3395.47,3574C3409.56,3535.57 3470.01,3519 3504.14,3506.08C3518.92,3500.48 3534.13,3495.36 3550.16,3496.32C3552.09,3534.81 3536.55,3583.94 3508.38,3610.24C3492.46,3625.1 3475.07,3632.6 3457.25,3644.39C3442.28,3654.3 3422.69,3661.75 3415.16,3679.24L3378.91,3661.12Z" style="fill:rgb(199,188,160);fill-rule:nonzero;"/>
        <path d="M3428.38,3991.5C3445.28,4011.47 3485.61,4030.41 3509.82,4037.78C3507.06,4034.43 3504.06,4030.68 3501.56,4027.19C3508.5,4029.73 3517.88,4028.38 3524.2,4030.49C3513.76,4009.53 3494.07,3994.91 3485.9,3973.52L3428.38,3991.5Z" style="fill:rgb(85,102,103);fill-rule:nonzero;"/>
        <path d="M3444.99,3660.71C3449.84,3662.84 3454.19,3664.93 3458.12,3667.04C3458.1,3666.11 3458.13,3665.2 3458.24,3664.32C3454.52,3662.37 3450.44,3660.43 3445.97,3658.47C3427.91,3650.55 3406.92,3647.92 3386.62,3645.38C3363.31,3642.45 3341.3,3639.69 3323.87,3629.58L3322.64,3631.7C3340.5,3642.06 3362.76,3644.85 3386.32,3647.81C3406.44,3650.33 3427.25,3652.94 3444.99,3660.71Z" style="fill:rgb(85,102,103);fill-rule:nonzero;"/>
        <path d="M3500.59,3781.08C3504.99,3853.84 3501.45,3923.9 3497.6,3985.08C3476.53,3993.59 3448.05,3994.72 3420.5,3995.83C3405.17,3996.44 3390.68,3997.02 3377.89,3998.83C3340.45,4004.13 3301.85,4003.79 3264.52,4003.46C3254.27,4003.37 3243.68,4003.28 3233.26,4003.3C3226.05,4003.31 3218.22,4003.48 3209.93,4003.66C3145.5,4005.04 3057.27,4006.93 3051.25,3943.29C3046.61,3894.14 3061.44,3887.75 3080.22,3879.65C3091.84,3874.64 3105.02,3868.95 3115.11,3851.98C3123.87,3837.25 3132.63,3819.46 3141.9,3800.63C3159.24,3765.43 3177.17,3729.03 3198.38,3705.2C3212.49,3689.35 3231.04,3673.87 3252.01,3660.44C3263.5,3653.08 3280.18,3648.41 3294.89,3644.29C3306.03,3641.17 3315.64,3638.48 3320.35,3635.25L3318.96,3633.23C3314.59,3636.23 3305.16,3638.87 3294.23,3641.93C3279.35,3646.09 3262.48,3650.82 3250.69,3658.37C3229.53,3671.93 3210.81,3687.56 3196.55,3703.57C3175.12,3727.64 3157.12,3764.2 3139.7,3799.55C3130.45,3818.34 3121.71,3836.08 3113,3850.73C3103.32,3867.02 3090.53,3872.53 3079.25,3877.4C3060.34,3885.55 3044,3892.6 3048.81,3943.52C3050.28,3959.05 3056.66,3971.82 3067.76,3981.46C3077.49,3989.91 3090.62,3996.02 3107.9,4000.15C3129.76,4005.37 3155.46,4006.53 3179.7,4006.53C3190.21,4006.53 3200.45,4006.31 3209.98,4006.11C3218.26,4005.93 3226.08,4005.76 3233.26,4005.75C3243.67,4005.73 3254.26,4005.82 3264.5,4005.91C3301.92,4006.24 3340.62,4006.58 3378.23,4001.26C3390.9,3999.46 3405.33,3998.89 3420.6,3998.28C3448.67,3997.15 3477.7,3995.99 3499.25,3987.05L3499.95,3986.76L3500,3986C3503.87,3924.5 3507.47,3853.97 3503.02,3780.69C3502.22,3780.89 3501.41,3781.02 3500.59,3781.08Z" style="fill:rgb(85,102,103);fill-rule:nonzero;"/>
        <path d="M3504.97,3785C3493.22,3785 3479.68,3784.18 3463.36,3782.86L3463.55,3780.41C3534.44,3786.15 3560.86,3783.54 3602.59,3730.55C3607.86,3723.86 3617.1,3714.67 3627.8,3704.03C3653.34,3678.65 3688.3,3643.89 3688.84,3621.76C3689.04,3613.58 3686.83,3607.88 3682.1,3604.33C3668.41,3594.05 3635.95,3604.36 3612.25,3611.89C3603.12,3614.78 3595.23,3617.29 3589.5,3618.35C3579.8,3620.15 3567.9,3621.09 3555.31,3622.08C3525.37,3624.43 3491.44,3627.1 3472.88,3642.34C3455.85,3656.31 3453.31,3683.11 3451.06,3706.76C3449.59,3722.24 3448.2,3736.86 3442.95,3746.28L3440.81,3745.09C3445.81,3736.11 3447.18,3721.74 3448.62,3706.52C3450.91,3682.4 3453.51,3655.06 3471.32,3640.44C3490.48,3624.72 3524.82,3622.02 3555.12,3619.64C3567.64,3618.65 3579.47,3617.72 3589.06,3615.94C3594.64,3614.91 3602.45,3612.42 3611.51,3609.55C3637.06,3601.43 3668.87,3591.33 3683.57,3602.37C3688.91,3606.38 3691.51,3612.92 3691.29,3621.82C3690.73,3644.93 3656.8,3678.66 3629.53,3705.77C3618.89,3716.35 3609.69,3725.49 3604.52,3732.06C3582.96,3759.44 3565.53,3773.32 3544.35,3779.96C3532.84,3783.57 3520.46,3785 3504.97,3785Z" style="fill:rgb(85,102,103);fill-rule:nonzero;"/>
        <path d="M3668.86,3616.82C3635.11,3612.85 3599.24,3629.97 3565.97,3634.64C3535.82,3638.87 3490.68,3639.34 3475.45,3672.27C3469.93,3684.21 3471.32,3698.33 3468.47,3710.96C3466.67,3718.97 3463.16,3727.77 3459.75,3736.19C3465.29,3750.96 3470.66,3765.81 3475.5,3780.82C3505.02,3779.81 3537.05,3785.43 3560.21,3766.68C3579.55,3751.02 3597.99,3728.31 3614.5,3709.57C3630.75,3691.14 3646.83,3673.33 3664.34,3655.89C3675.42,3644.86 3692.4,3619.6 3668.86,3616.82Z" style="fill:rgb(199,188,160);fill-rule:nonzero;"/>
        <path d="M3453.94,3757.89C3454.14,3758.58 3454.35,3759.27 3454.56,3759.96C3455.98,3764.78 3457.33,3769.62 3458.62,3774.48C3503.67,3761 3549.26,3732.16 3572.89,3686.85C3521.79,3668.55 3479.62,3717.81 3453.94,3757.89Z" style="fill:rgb(235,208,201);fill-rule:nonzero;"/>
        <path d="M3317.6,3929.18C3313.23,3936.71 3310.66,3946.08 3309.74,3955.58C3324,3959.41 3340.36,3961.56 3355.39,3959.08C3360.49,3949.15 3358.5,3939.09 3354.64,3930.9C3347.4,3915.55 3326.12,3914.5 3317.6,3929.18Z" style="fill:rgb(235,208,201);fill-rule:nonzero;"/>
        <path d="M3330.44,3875.1C3326.63,3882.44 3325.92,3891.51 3327.39,3899.72C3331.72,3899.82 3336.27,3899.81 3340.6,3899.72C3347.97,3887.01 3344.2,3884.23 3337.63,3878.7L3330.44,3875.1Z" style="fill:rgb(85,102,103);fill-rule:nonzero;"/>
        <path d="M3110.6,3896.05C3111.02,3891.4 3111.05,3887.49 3110.6,3882.84C3086.36,3881.7 3062.33,3887.58 3039.25,3885.89L3035.65,3885.89C3031.71,3893.31 3030.49,3901.76 3032.6,3910.5C3040.56,3909.62 3049.65,3908.58 3059.05,3907.27C3052.41,3925.5 3045.8,3952.67 3054.99,3973.17L3059.46,3971.16C3050.36,3950.84 3058.69,3922.06 3064.59,3906.47C3080.78,3904.04 3097.45,3900.76 3110.6,3896.05Z" style="fill:rgb(85,102,103);fill-rule:nonzero;"/>
        <path d="M3012.77,3542.69C2996.52,3561.66 3000.6,3596.1 2983.68,3614.84L3033.93,3596.32C3023.59,3579.95 3023.52,3556.36 3012.77,3542.69Z" style="fill:rgb(240,239,234);fill-rule:nonzero;"/>
        <path d="M3140.58,3638.46L3190.83,3643.75C3180.25,3628.2 3175.38,3609.6 3167.61,3593.54C3162.24,3610 3151.51,3625.01 3140.58,3638.46Z" style="fill:rgb(240,239,234);fill-rule:nonzero;"/>
        <path d="M3172.46,3511.67C3162.21,3528.28 3155.72,3549.02 3148.12,3567.05L3201.01,3556.47C3191.61,3542.38 3184.31,3523.44 3172.46,3511.67Z" style="fill:rgb(240,239,234);fill-rule:nonzero;"/>
        <path d="M3088.75,3531.18C3081.56,3540.09 3079.23,3553.82 3070.23,3560.77L3109.9,3558.13C3099.17,3553.09 3094.14,3541.06 3088.75,3531.18Z" style="fill:rgb(240,239,234);fill-rule:nonzero;"/>
        <path d="M3329.59,3517.47C3325.37,3526.51 3319.73,3533.91 3311.13,3538.61L3350.81,3549.18C3342.96,3540.05 3339.98,3523.89 3329.59,3517.47Z" style="fill:rgb(240,239,234);fill-rule:nonzero;"/>
        <path d="M3258.35,3472.59C3250.57,3483.04 3243.99,3495.96 3233.97,3504.3L3268.35,3506.94C3269.15,3494.61 3266.62,3481.11 3258.35,3472.59Z" style="fill:rgb(240,239,234);fill-rule:nonzero;"/>
        <path d="M2967.58,3704.81L2996.67,3704.81C2989.2,3694.14 2982.57,3679.56 2973.48,3670.53C2969.44,3681.71 2968.7,3692.63 2967.58,3704.81Z" style="fill:rgb(240,239,234);fill-rule:nonzero;"/>
        <path d="M2848.22,3657.81C2847.49,3667.25 2843.01,3674.31 2837.19,3678.68L2866.28,3673.39C2861.58,3667.12 2853.62,3660.98 2848.22,3657.81Z" style="fill:rgb(240,239,234);fill-rule:nonzero;"/>
        <path d="M3060.64,3642.6L3100.31,3639.96C3094.24,3631.22 3087.32,3618.21 3079.61,3608.98C3076.68,3621.63 3071.26,3635.02 3060.64,3642.6Z" style="fill:rgb(240,239,234);fill-rule:nonzero;"/>
        <path d="M2936.54,3592.88C2931.04,3603.85 2929.9,3618.2 2922.9,3629.15L2973.15,3634.44C2957.84,3624.21 2949.42,3606.11 2936.54,3592.88Z" style="fill:rgb(240,239,234);fill-rule:nonzero;"/>
        <path d="M3267.24,3575.53L3301.62,3588.75C3291.9,3578.71 3287.85,3560.12 3282.39,3546.41C3277.02,3554.6 3273.59,3566.82 3267.24,3575.53Z" style="fill:rgb(240,239,234);fill-rule:nonzero;"/>
        <path d="M2873.17,3763.3L2910.2,3765.95C2903.01,3754.72 2894.89,3743.24 2886.29,3733.65C2880.87,3741.72 2876.69,3758.56 2873.17,3763.3Z" style="fill:rgb(240,239,234);fill-rule:nonzero;"/>
        <path d="M3186.98,3734.2C3200.38,3731.23 3211.7,3722.41 3223.27,3715.74C3225.95,3724.43 3222.78,3742.56 3218.48,3750.42L3186.98,3734.2Z" style="fill:white;fill-rule:nonzero;"/>
        <path d="M3174.37,3781.55C3184.26,3780.68 3192.05,3773.28 3201.69,3771.89C3202.2,3781.75 3202.67,3791.91 3200.02,3801.28L3174.37,3781.55Z" style="fill:white;fill-rule:nonzero;"/>
        <path d="M3268.85,3729.15C3281.61,3726.39 3300.73,3714.45 3312.77,3710.03C3313.49,3723.05 3310.53,3745.14 3310.53,3758.25L3268.85,3729.15Z" style="fill:white;fill-rule:nonzero;"/>
        <path d="M3253.88,3672.48C3261.34,3669.31 3267.99,3663.52 3275.24,3660.88C3275.66,3667.09 3276.29,3674.07 3275.59,3680.37L3253.88,3672.48Z" style="fill:white;fill-rule:nonzero;"/>
        <path d="M3319.25,3676.45C3332.37,3675.85 3343.03,3664.53 3354.47,3660.88C3355.78,3667.45 3347.64,3688.15 3345.23,3693.9L3319.25,3676.45Z" style="fill:white;fill-rule:nonzero;"/>
        <path d="M3147.64,3820.68C3152.25,3817.76 3159.89,3813.49 3164.95,3811.07C3167.43,3815.23 3168.12,3819.76 3167.37,3824.63L3147.64,3820.68Z" style="fill:white;fill-rule:nonzero;"/>
        <path d="M3261.77,3786.91C3270.44,3785.4 3278.44,3779.93 3287.07,3777.16C3290.68,3786.57 3289.35,3796.67 3289.4,3806.64L3261.77,3786.91Z" style="fill:white;fill-rule:nonzero;"/>
        <path d="M3386.07,3719.83C3394.94,3719.74 3403.98,3710.36 3413.4,3708.1C3414.12,3719.79 3413.7,3731.74 3413.7,3743.51L3386.07,3719.83Z" style="fill:white;fill-rule:nonzero;"/>
        <path d="M2824.89,3988.68C2824.33,3989.04 2823.77,3989.4 2823.19,3989.76C2810.13,3998.11 2793.88,4008.49 2783.64,4003.97C2778.64,4001.76 2775.29,3995.97 2773.7,3986.75L2773.09,3983.25L2771.41,3986.38C2768.29,3992.17 2764.96,3994.05 2761.74,3995.86C2760.71,3996.44 2759.71,3997.01 2758.75,3997.68C2758.76,3995.51 2758.68,3993.31 2758.6,3991.17C2758.47,3987.63 2758.34,3983.97 2758.62,3980.45L2756.19,3980.13C2755.55,3983.68 2753.58,3987.59 2751.67,3991.37C2750.4,3993.91 2749.08,3996.52 2748.17,3999.03C2741.95,3998.42 2737.61,3995.77 2734.93,3990.93C2727.5,3977.52 2733.17,3948.18 2751.79,3903.74C2763.3,3876.27 2777.44,3848.65 2787.73,3829.28C2787.52,3828.58 2787.44,3828.14 2787.43,3827.91C2787.27,3827.09 2787.15,3826.26 2786.99,3825.45C2763.15,3870.11 2716.39,3962.53 2732.78,3992.11C2735.99,3997.9 2741.43,4001.07 2748.95,4001.55L2749.9,4001.61L2750.19,4000.7C2751.03,3998.1 2752.41,3995.37 2753.86,3992.48C2754.61,3991 2755.36,3989.51 2756.04,3988.02C2756.07,3989.1 2756.11,3990.19 2756.15,3991.26C2756.26,3994.4 2756.37,3997.37 2756.22,4000.29L2756.06,4003.5L2758.32,4001.21C2759.67,3999.84 2761.26,3998.94 2762.95,3997.99C2765.78,3996.4 2768.92,3994.63 2771.91,3990.27C2773.87,3998.57 2777.47,4003.93 2782.65,4006.21C2784.59,4007.07 2786.69,4007.47 2788.89,4007.5C2799.71,4007.67 2813.26,3999.02 2824.51,3991.83C2825.02,3991.51 2825.51,3991.2 2826,3990.88C2825.63,3990.15 2825.26,3989.42 2824.89,3988.68Z" style="fill:rgb(85,102,103);fill-rule:nonzero;"/>
        <path d="M2812.98,3959.43C2809.16,3948.21 2806.02,3936.78 2803.05,3925.32C2799.82,3912.87 2796.26,3900.5 2793.3,3887.98C2790.47,3875.97 2788.19,3863.94 2788.05,3851.58L2786.56,3852.79C2769.33,3892.33 2745.57,3932.29 2747.26,3976.12C2753.75,3972.85 2757.76,3964.49 2765.14,3964.21C2766.01,3970.58 2764.49,3977.15 2763.85,3983.34C2769.46,3981.38 2774.67,3975.91 2780.73,3973.02C2785.64,3982.74 2781.86,3994.71 2795.53,3999.33C2805.62,4002.74 2815.37,3992.87 2822.47,3983.59C2818.86,3975.72 2815.76,3967.6 2812.98,3959.43Z" style="fill:rgb(199,188,160);fill-rule:nonzero;"/>
    </g>
</svg>
