<?xml version="1.0" encoding="UTF-8" standalone="no"?>
<!DOCTYPE svg PUBLIC "-//W3C//DTD SVG 1.1//EN" "http://www.w3.org/Graphics/SVG/1.1/DTD/svg11.dtd">
<svg width="100%" height="100%" viewBox="0 0 16667 25167" version="1.1" xmlns="http://www.w3.org/2000/svg" xmlns:xlink="http://www.w3.org/1999/xlink" xml:space="preserve" xmlns:serif="http://www.serif.com/" style="fill-rule:evenodd;clip-rule:evenodd;stroke-linejoin:round;stroke-miterlimit:2;">
    <g transform="matrix(4.16667,0,0,4.16667,0.00158333,0.00126667)">
        <g transform="matrix(1,0,0,1,685.308,1281.57)">
            <path d="M0,3113.05C219.478,3137.63 428.077,3179.34 649.566,3179.08C545.358,3166.6 486.409,3142.88 406.481,3072.74C296.057,2975.86 153.01,2855.05 78.532,2730.39C208.746,2833.43 393.913,2815.23 552.779,2840.44C730.94,2868.72 934.648,2899.56 1116.29,2883.47C919.845,2829.47 808.134,2686.96 688.831,2531.95C580.149,2390.74 398.498,2302.19 315.877,2137.99C237.472,1982.16 222.397,1786.34 177.384,1622.94C131.168,1455.17 65.382,1312.12 63.478,1135.32C61.241,927.529 74.715,722.049 74.596,516.016L82.624,280.647C38.288,347.085 -146.161,385.136 -207.338,356.738C-406.727,264.185 -571.822,117.756 -685.308,-66.29L-685.308,3061.49C-456.424,3007.73 -235.195,3086.71 0,3113.05" style="fill:rgb(189,179,168);fill-rule:nonzero;"/>
        </g>
        <g transform="matrix(1,0,0,1,255.341,1817.56)">
            <path d="M0,-96.061C-9.853,-68.964 -15.192,-32.01 -6.458,0C1.008,-24.813 3.641,-57.354 0,-96.061" style="fill:rgb(236,245,246);fill-rule:nonzero;"/>
        </g>
        <g transform="matrix(1,0,0,1,455.221,2586.15)">
            <path d="M0,91.776C66.588,-76.988 123.199,-253.646 163.714,-419.1C212.49,-618.29 237.608,-797.888 238.37,-952.906L222.104,-953.003C220.141,-553.719 55.701,-94.381 -14.907,84.574C-52.963,181.024 -119.579,298.303 -190.105,422.468C-291.738,601.397 -403.576,798.298 -455.221,977.325L-455.221,1044.78C-415.346,852.842 -289.464,631.218 -176.334,432.047C-105.473,307.296 -38.542,189.462 0,91.776" style="fill:rgb(205,196,190);fill-rule:nonzero;"/>
        </g>
        <g transform="matrix(1,0,0,1,159.333,1934.6)">
            <path d="M0,918.257C67.115,844.138 125.078,780.126 178.588,690.091C273.439,530.497 348.915,381.937 402.92,248.54C481.022,55.621 515.203,-107.56 504.514,-236.47L488.315,-234.825C498.745,-109.033 465.02,51.119 388.075,241.181C334.425,373.701 259.371,521.409 164.997,680.2C112.405,768.691 54.99,832.098 -11.49,905.517C-15.66,910.121 -19.864,914.764 -24.104,919.454C-77.217,978.205 -120.541,1045.99 -159.333,1118.71L-159.333,1154.73C-117.527,1072.93 -71.004,996.783 -12.604,932.185C-8.367,927.498 -4.166,922.859 0,918.257" style="fill:rgb(205,196,190);fill-rule:nonzero;"/>
        </g>
        <g transform="matrix(1,0,0,1,282.456,2182.7)">
            <path d="M0,173.711C9.938,159.999 19.325,147.047 28.442,134.363C119.282,7.982 274.351,-242.591 292.266,-500.816L276.047,-502.194C258.465,-248.759 105.392,-1.609 15.712,123.158C6.615,135.814 -2.762,148.752 -12.69,162.449C-77.644,252.071 -158.483,363.608 -220.032,480.513C-245.964,529.77 -266.743,576.577 -282.456,621.249L-282.456,675.905C-266.439,617.983 -241.022,556.141 -205.976,489.575C-145.036,373.826 -64.618,262.867 0,173.711" style="fill:rgb(205,196,190);fill-rule:nonzero;"/>
        </g>
        <g transform="matrix(1,0,0,1,9.8735,1658.53)">
            <path d="M0,868.933C10.317,830.68 30.042,786.507 58.627,737.642C111.684,646.945 185.217,555.954 244.302,482.842C272.726,447.671 297.273,417.296 314.009,393.712C362.011,326.072 416.446,245.292 456.23,159.019C478.532,110.659 494.204,64.631 502.812,22.215C512.827,-27.134 513.649,-73.288 505.255,-114.964L489.378,-111.048C504.13,-37.808 488.102,50.303 441.742,150.837C402.591,235.737 348.735,315.635 301.216,382.595C284.801,405.726 260.414,435.902 232.177,470.844C147.109,576.107 31.246,719.483 -9.874,844.76L-9.874,983.897L-0.281,979.428C-11.743,949.298 -11.648,912.122 0,868.933" style="fill:rgb(205,196,190);fill-rule:nonzero;"/>
        </g>
        <g transform="matrix(0.666514,0.745493,0.745493,-0.666514,687.908,2010.62)">
            <path d="M192.153,-117.453C351.403,-61.518 390.525,303.793 236.546,492.87C227.589,491.219 198.312,478.075 192.153,472.982C308.382,245.345 200.634,45.93 32.346,-14.639L192.153,-117.453Z" style="fill:rgb(173,165,157);fill-rule:nonzero;"/>
        </g>
        <g transform="matrix(1,0,0,1,559.561,1712.59)">
            <path d="M0,-7.992L-7.992,0C-4.402,-2.194 -1.673,-4.835 0,-7.992" style="fill:rgb(152,144,138);fill-rule:nonzero;"/>
        </g>
        <g transform="matrix(1,0,0,1,262.082,2041.57)">
            <path d="M0,8.799C73.754,-88.482 151.012,-177.909 203.01,-292.07L236.366,-328.981C204.671,-307.549 98.293,-328.948 72.988,-332.447C-11.447,-344.122 -107.141,-363.904 -170.699,-430.017C-217.534,-281.225 -230.711,-114.692 -255.524,41.678C-257.699,55.382 -259.907,69.174 -262.082,83.029L-262.082,438.816C-242.937,401.125 -221.123,366.729 -197.19,329.627C-129.161,224.166 -75.952,108.979 0,8.799" style="fill:rgb(173,165,157);fill-rule:nonzero;"/>
        </g>
        <g transform="matrix(1,0,0,1,326.011,2117.84)">
            <path d="M0,125.724C39.521,55.922 81.884,-12.08 122.054,-80.952C184.732,-188.412 236.786,-330.477 232.412,-458.141L212.123,-534.476C208.682,-415.258 153.628,-262.81 91.563,-166.268C43.664,-91.762 -10.479,-32.107 -53.781,46.984C-96.861,125.67 -159.59,188.532 -207.862,262.852C-258.214,340.374 -291.876,416.981 -326.011,504.761L-326.011,660.2C-281.891,564.631 -234.802,468.279 -174.279,384.71C-111.748,298.366 -52.717,218.833 0,125.724" style="fill:rgb(173,165,157);fill-rule:nonzero;"/>
        </g>
        <g transform="matrix(1,0,0,1,676.102,2235.34)">
            <path d="M0,-431.953C16.38,-416.502 0.906,-256.569 -4.058,-216.432C-11.486,-156.377 -28.255,-98.922 -48.291,-42.188C-1.365,-32.307 26.149,0.357 65.028,22.197C101.214,-47.053 93.323,-173.219 93.331,-253.53C93.338,-313.684 89.972,-402.768 65.909,-454.15C60.498,-409.193 22.652,-419.804 -4.058,-409.501L0,-431.953Z" style="fill:rgb(173,165,157);fill-rule:nonzero;"/>
        </g>
        <g transform="matrix(1,0,0,1,531.429,3972.44)">
            <path d="M0,-1266C-20.194,-1198 -65.804,-1122.79 -94.218,-1068.92C-140.507,-981.168 -185.351,-890.601 -241.168,-808.715C-293.733,-731.601 -347.992,-656.985 -391.715,-574.977C-424.628,-513.243 -529.141,-309.395 -512.318,-236.111C-503.875,-199.337 -473.998,-147.82 -445.651,-122.222C-406.087,-86.495 -336.975,-18.746 -287.318,0C-289.562,-95.895 -272.86,-299.861 -268.446,-397.385C-262.368,-531.678 -203.527,-656.905 -138.626,-771.952C-81.597,-873.045 -34.611,-974.739 -7.918,-1087.79C3.104,-1134.46 11.266,-1182.85 14.41,-1230.74C9.374,-1242.39 4.562,-1254.15 0,-1266" style="fill:rgb(193,181,174);fill-rule:nonzero;"/>
        </g>
        <g transform="matrix(1,0,0,1,248.883,558.734)">
            <path d="M0,1258.82C-8.734,1226.81 -3.395,1189.86 6.458,1162.76C10.099,1201.47 7.466,1234.01 0,1258.82C6.231,1281.66 19.619,1301.98 43.655,1314.4C53.072,1291.24 74.347,1268.55 78.881,1241.66C61.757,1370.74 179.446,1315.28 169.765,1197.06C277.829,1491.09 412.561,1174.57 529.512,1077.64C523.649,1148.88 498.628,1221.28 507.121,1292.81C578.176,1300.51 640.655,1221.16 687.068,1178.17C661.495,1212.49 641.354,1251.14 633.579,1292.42C682.425,1284.12 729.936,1247.27 760.661,1208.55C746.314,1259.31 725.749,1307.01 726.541,1359C767.345,1330.13 806.151,1291.16 839.18,1251.88C820.992,1303.25 805.209,1356.86 807.013,1411.28C860.871,1408.55 923.547,1311.21 954.324,1262.82C807.262,1817.56 1874.38,1575.05 1831.75,1253.13C1938.6,1380.54 2081.56,1237.68 1963.06,1205.84C1996.68,1214.36 2039.58,1214.56 2074.04,1216.28C2086.12,1163.83 2083.75,1109.33 2024.92,1095.99C2023.97,1095.8 2023.01,1095.6 2022.07,1095.39C2023.03,1095.58 2023.98,1095.78 2024.92,1095.99C2055.39,1102.02 2091.44,1094.88 2120.44,1093.11C2111.08,1051.82 2125.4,1033.47 2077.75,1018.93C2445,1135.37 2743.7,673.941 2849.47,405.62C2923.16,218.7 2951.99,40.075 2961.43,-158.668C2965.64,-247.389 2999.24,-397.661 2929.37,-468.353C2875.37,-522.989 2794.98,-504.227 2719.81,-501.23C2347.26,-486.38 1982.59,-512.308 1610.83,-542.115C1546.12,-547.303 1480.49,-552.897 1414.16,-558.734L-248.883,-558.734L-248.883,1108.67C-210.542,1158.99 -178.218,1202.11 -156.93,1233.85C-87.087,1338.01 -22.19,1332.57 0,1258.82" style="fill:rgb(200,207,212);fill-rule:nonzero;"/>
        </g>
        <g transform="matrix(1,0,0,1,714.786,1516.61)">
            <path d="M0,-739.358C-23.891,-679.296 -126.335,-595.496 -168.581,-524.018C-224.07,-430.136 -254.251,-351.363 -246.746,-243.216C-199.155,-288.843 -129.435,-362.504 -108.737,-426.772C-120.709,-362.6 -154.077,-304.206 -147.822,-236.245C-113.021,-260.958 -82.997,-290.868 -51.172,-319.887C-53.285,-280.151 -62.83,-237.595 -58.254,-196.563C-8.742,-238.839 26.54,-299.325 69.429,-348.627C35.778,-271.387 -34.071,115.375 89.056,124.356C214.38,133.498 301.524,-170.951 307.505,-260.557C307.836,-193.513 276.173,34.305 344.503,65.081C421.827,99.908 445.074,-122.296 454.372,-174.291C457.085,-114.863 465.345,-37.493 505.688,6.582C553.108,-21.171 556.617,-97.354 555.556,-150.056C542.338,-15.692 647.661,75.42 654.249,-101.035C671.178,-26.9 745.356,263.757 873.459,233.238C955.182,213.768 923.463,-34.817 901.382,-111.006C943.232,51.55 1112.66,207.938 1090.1,-73.392C1161.16,96.499 1250.97,85.927 1239.41,-103.189C1329.26,155.01 1630.21,58.352 1540.79,-204.108C1586.07,-168.951 1627.71,-120.711 1688.19,-111.139C1708.96,-170.202 1692.74,-246.678 1683.64,-303.915C1716.83,-276.83 1755.41,-257.715 1797.76,-252.216C1814.24,-308.038 1808.23,-374.373 1799.09,-431.718C1901.42,-224.079 1893.49,-580.546 1876.1,-647.898C1857.92,-718.289 1812.12,-916.62 1741.47,-961.888C1677.12,-1003.12 1716.61,-986.73 1625.88,-948.433C1243.74,-787.135 762.882,-876.184 357.7,-860.613C297.365,-858.294 183.603,-843.543 148.81,-848.485L0,-739.358Z" style="fill:rgb(180,191,197);fill-rule:nonzero;"/>
        </g>
        <g transform="matrix(1,0,0,1,203.417,862.398)">
            <path d="M0,-510.939C74.49,-497.072 165.304,-573.542 224.592,-629.93C185.165,-586.726 138.449,-544.728 114.281,-486.072C145.471,-490.733 175.947,-520.271 201.069,-529.573C197.378,-484.094 190.203,-435.652 194.253,-388.715C226.465,-402.602 248.077,-436.207 265.026,-478.585C215.658,-319.139 247.293,-90.239 356.661,7.442C493.929,130.043 562.745,-9.241 597.344,-181.599C596.763,-116.919 616.5,-26.949 650.087,11.827C665.613,-18.447 675.232,-53.531 678.076,-89.969C678.305,-95.512 678.586,-101.055 678.902,-106.585C678.785,-101.023 678.506,-95.481 678.076,-89.969C675.415,-25.8 679.556,38.463 714.279,86.217C739.053,59.019 751.982,16.915 756.477,-27.825C756.787,-42.782 757.565,-57.381 758.323,-70.775C758.487,-56.453 757.902,-42.008 756.477,-27.825C755.282,29.779 761.03,92.701 801.613,112.638C826.101,77.992 842.047,36.066 855.646,-9.075C855.141,186.893 958.074,67.728 1007.39,-20.799C1049.93,122.499 1074.04,182.365 1147.58,38.217C1243.12,351.459 1701.73,278.896 1677.24,-85.799C1689.75,-45.902 1708.18,0.617 1730.82,34.86C1751.11,-12.526 1754.96,-70.124 1771.68,-120.898C1768.62,-73.867 1774.17,-26.595 1799.49,4.428C1823.75,-36.021 1833.39,-92.246 1844.24,-143.455C1847.45,-84.785 1853.54,-102.09 1869.61,-71.195C1889.12,-116.5 1900.97,-166.823 1907.06,-218.816C1998.64,-4.595 2249.76,-254.445 2250.81,-449.988C2269.37,-414.186 2286.07,-372.377 2311.22,-349.597C2319.11,-375.252 2329.86,-402.194 2335.21,-430.487C2335.52,-438.962 2336.53,-447.973 2338.41,-457.714C2338.06,-448.501 2336.9,-439.428 2335.21,-430.487C2334.02,-398.209 2343.15,-373.8 2354.57,-347.372C2384.73,-376.642 2401.42,-424.728 2416.02,-472.502C2403.74,-297.86 2591.32,-221.141 2645.43,-386.502C2651.87,-296.933 2624.92,-197.991 2644.73,-113.994C2679.86,-156.117 2707.31,-210.029 2727.47,-267.605C2725.98,-198.297 2703.68,-76.055 2759.89,-46.612C2834.4,-7.592 2938.4,-278.928 2963.39,-343.423C2965.17,-273.48 2954.38,-197.043 2982.08,-140.376C3046.69,-153.812 3092.92,-243.117 3113.27,-323.707C3087.95,-69.754 3335.59,-171.821 3317.04,-378.969C3316.83,-380.907 3316.63,-382.878 3316.45,-384.881C3316.68,-382.9 3316.87,-380.932 3317.04,-378.969C3331.02,-255.675 3435.99,-264.381 3415.03,-403.726C3455.35,-346.125 3512.09,-375.459 3498.44,-449.053C3496.15,-455.261 3494.33,-462.318 3492.95,-470.103C3495.4,-462.741 3497.2,-455.72 3498.44,-449.053C3506.97,-425.904 3522.12,-414.695 3546.57,-422.772C3654.23,-458.349 3687.45,-616.204 3689.7,-746.347C3690.36,-784.592 3688.21,-823.598 3687.16,-862.398L159.568,-862.398C72.987,-772.579 3.676,-665.472 0,-510.939" style="fill:rgb(227,231,234);fill-rule:nonzero;"/>
        </g>
        <g transform="matrix(1,0,0,1,1590.22,1734.99)">
            <path d="M0,-346.246C-4.427,-340.998 -8.881,-335.71 -13.364,-330.386C-37.824,-301.344 -62.866,-271.609 -88.729,-242.069C-202.394,-112.244 -331.499,13.354 -492.417,55.022C-719.523,113.827 -922.14,136.54 -1094.64,122.532C-1312.14,104.868 -1477.8,28.455 -1587.79,-104.778L-1589.8,-102.488C-1479.27,31.16 -1313.03,107.806 -1094.88,125.522C-922.048,139.558 -719.096,116.815 -491.665,57.925C-403.221,35.025 -316.064,-15.715 -225.214,-97.193C-175.247,-142.005 -128.263,-192.435 -84.49,-242.433C-58.903,-271.659 -34.408,-300.744 -11.07,-328.454C-6.587,-333.776 -2.132,-339.065 2.293,-344.311C16.98,-361.725 52.518,-414.881 94.252,-483.8L91.964,-485.804C50.212,-416.824 14.662,-363.629 0,-346.246" style="fill:rgb(121,123,135);fill-rule:nonzero;"/>
        </g>
        <g transform="matrix(-0.458513,-0.888688,-0.888688,0.458513,124.25,1790.85)">
            <path d="M-44.784,-161.541C56.662,-153.729 73.864,-10.902 -23.262,19.412C-29.936,21.495 -37.099,23.081 -44.784,24.113C-187.589,43.288 -148.454,-158.757 -44.786,-161.541L-44.784,-161.541Z" style="fill:white;fill-rule:nonzero;"/>
        </g>
        <g transform="matrix(-0.907326,-0.420427,-0.420427,0.907326,457.677,1932.93)">
            <path d="M2.871,-161.783C57.681,-161.44 100.279,-112.61 91.619,-58.488C86.141,-24.251 62.331,2.709 2.871,0.721C-93.789,-2.513 -118.251,-139.632 -13.147,-161.883L2.871,-161.783Z" style="fill:white;fill-rule:nonzero;"/>
        </g>
        <g transform="matrix(-0.843152,-0.537676,-0.537676,0.843152,786.261,1891.32)">
            <path d="M-22.328,-135.597C31.722,-126.302 63.508,-68.572 41.073,-18.528C31.397,3.054 13.193,19.61 -22.328,21.043C-54.225,22.331 -83.368,-6.551 -98.029,-40.61C-119.637,-90.809 -76.188,-144.861 -22.328,-135.597Z" style="fill:white;fill-rule:nonzero;"/>
        </g>
        <g transform="matrix(-0.896135,-0.443781,-0.443781,0.896135,1118.03,1798.9)">
            <path d="M-39.03,-164.906C54.799,-149.867 69.48,-19.672 -19.223,14.415C-25.696,16.903 -32.327,18.64 -39.03,19.498C-72.48,23.782 -103.594,1.503 -125.074,-29.5C-168.708,-92.475 -114.678,-177.03 -39.03,-164.906Z" style="fill:white;fill-rule:nonzero;"/>
        </g>
        <g transform="matrix(1,0,0,1,1549.24,1626.17)">
            <path d="M0,-224.89C-62.614,-254.117 -99.564,-121.443 -54.017,-69.363C32.207,29.227 190.328,-149.217 91.81,-208.307L0,-224.89Z" style="fill:white;fill-rule:nonzero;"/>
        </g>
        <g transform="matrix(1,0,0,1,571.565,72.3026)">
            <path d="M0,561.379C61.969,570.372 122.027,574.869 179.763,574.869C233.868,574.869 285.935,570.918 335.588,563.016C450.697,544.698 556.021,504.651 648.634,443.987C723.58,394.897 788.539,345.122 841.706,296.046C909.57,233.405 960.396,169.996 992.773,107.58C1020.61,53.924 1032.6,-10.501 1042.21,-72.303L1039.17,-72.303C1029.61,-10.888 1017.67,53.074 990.11,106.199C932.486,217.285 817.044,330.089 646.991,441.478C353.557,633.682 -56.162,612.379 -571.565,378.36L-571.565,381.658C-489.086,419.107 -409.162,451.291 -333.208,477.582C-216.22,518.077 -104.113,546.27 0,561.379" style="fill:rgb(121,123,135);fill-rule:nonzero;"/>
        </g>
        <g transform="matrix(1,0,0,1,157,432.615)">
            <path d="M0,132.385C-28.824,113.499 118.776,-101.609 152.385,108.413C162.638,172.484 139.481,233.994 65.878,209.875C31.135,198.489 5.764,168.489 0,132.385Z" style="fill:white;fill-rule:nonzero;"/>
        </g>
        <g transform="matrix(1,0,0,1,525,618.592)">
            <path d="M0,34.408C-14.972,-5.518 4.448,-50.064 43.831,-66.409C102.714,-90.849 163.733,-91.943 151.944,18.565C142.64,105.779 -6.037,126.351 0,34.408" style="fill:white;fill-rule:nonzero;"/>
        </g>
        <g transform="matrix(1,0,0,1,1139.38,633.745)">
            <path d="M0,-60.717C39.613,132.822 -168.497,75.198 -176.122,5.042C-188.547,-109.284 -27.186,-193.539 0,-60.717" style="fill:white;fill-rule:nonzero;"/>
        </g>
        <g transform="matrix(1,0,0,1,1269,482.75)">
            <path d="M0,-77.75C-7.795,-151.152 226.86,-193.007 192.35,-50.747C175.554,18.49 20.496,115.257 0,-77.75" style="fill:white;fill-rule:nonzero;"/>
        </g>
        <g transform="matrix(1,0,0,1,1516.95,172.746)">
            <path d="M0,65.903C-14.938,43.496 -16.001,14.414 -2.214,-8.719C21.515,-48.537 74.11,-76.611 120.46,-44.433C203.931,13.516 117.171,142.514 40.977,108.691C29.114,103.425 19.156,94.637 11.957,83.838L0,65.903Z" style="fill:white;fill-rule:nonzero;"/>
        </g>
        <g transform="matrix(1,0,0,1,286.889,70.5402)">
            <path d="M0,1297.92C212.052,1361.25 426.89,1368.46 510.794,1368.46L512.105,1368.46C752.916,1367.46 954.405,1360.08 1171.87,1262.48C1291.95,1208.59 1418.8,1148.32 1532.9,1074.75C1663.86,990.3 1759.89,899.96 1826.48,798.564C1874.91,724.831 1915.56,643.219 1950.77,549.065C1980.74,468.895 2006.12,381.128 2028.34,280.748C2038.55,234.598 2046.9,187.246 2054.97,141.453C2063.45,93.337 2072.22,43.582 2083.16,-4.74C2087.47,-23.787 2094.78,-45.174 2102.51,-67.819C2102.82,-68.725 2103.12,-69.633 2103.43,-70.54L2100.27,-70.54C2100.07,-69.954 2099.87,-69.367 2099.67,-68.781C2091.91,-46.059 2084.58,-24.59 2080.24,-5.387C2069.28,43.005 2060.51,92.811 2052.02,140.963C2043.95,186.725 2035.61,234.076 2025.41,280.162C1977.54,496.391 1913.54,660.676 1823.98,797.042C1678.45,1018.62 1410.43,1152.12 1170.64,1259.75C953.718,1357.1 752.55,1364.46 512.103,1365.46L510.465,1365.46C241.785,1365.46 -92.035,1307.82 -286.889,1155.48L-286.889,1159.51C-273.456,1169.95 -259.25,1180.05 -244.259,1189.77C-177.734,1232.91 -95.554,1269.38 0,1297.92" style="fill:rgb(121,123,135);fill-rule:nonzero;"/>
        </g>
        <g transform="matrix(1,0,0,1,441.128,1502.33)">
            <path d="M0,-164.445C-18.511,-182.509 -46.023,-188.512 -69.983,-178.768C-104.528,-164.719 -119.23,-124.19 -118.902,-82.059C-118.52,-33.033 -90.65,-4.547 -56.671,4.386C18.192,24.067 79.375,-57.256 40.97,-124.464L0,-164.445Z" style="fill:white;fill-rule:nonzero;"/>
        </g>
        <g transform="matrix(-0.749926,-0.661522,-0.661522,0.749926,735.656,1519.09)">
            <path d="M-38.179,-253.129C-5.241,-249.42 22.759,-226.881 32.723,-195.27C52.65,-132.049 30.588,-49.666 -38.179,-30.663C-144.642,-1.242 -167.884,-103.049 -141.888,-186.042C-128.01,-230.347 -84.315,-258.324 -38.179,-253.129Z" style="fill:white;fill-rule:nonzero;"/>
        </g>
        <g transform="matrix(-0.987575,-0.15715,-0.15715,0.987575,1291.04,1466.58)">
            <path d="M32.042,-184.069C107.716,-210.499 130.872,-103.274 107.696,-46.391C91.518,-6.685 63.1,12.339 32.042,15.906C-68.133,27.413 -109.219,-109.501 -20.048,-156.573L32.042,-184.069Z" style="fill:white;fill-rule:nonzero;"/>
        </g>
        <g transform="matrix(-0.997712,0.0676108,0.0676108,0.997712,1783.64,1240.03)">
            <path d="M-46.679,-136.186C-6.407,-146.326 67.371,-100.447 43.721,-41.019C27.219,0.448 -9.384,6.779 -46.679,-3.486C-102.839,-18.944 -113.3,-94.269 -63.999,-125.289L-46.679,-136.186Z" style="fill:white;fill-rule:nonzero;"/>
        </g>
        <g transform="matrix(-0.99963,-0.0272156,-0.0272156,0.99963,2069.59,987.593)">
            <path d="M-20.53,-169.852C73.677,-193.374 108.527,-68.193 55.821,-8.049C32.957,18.045 6.041,26.594 -20.53,23.566C-106.711,13.746 -131.4,-100.221 -57.948,-146.353L-20.53,-169.852Z" style="fill:white;fill-rule:nonzero;"/>
        </g>
        <g transform="matrix(-0.999832,-0.0183468,-0.0183468,0.999832,2240.62,699.329)">
            <path d="M16.175,-163.11C73.101,-182.125 112.928,-103.916 101.023,-52.199C88.837,0.738 53.81,20.927 16.175,18.611C-61.919,13.805 -97.846,-81.285 -43.73,-137.794L16.175,-163.11Z" style="fill:white;fill-rule:nonzero;"/>
        </g>
        <g transform="matrix(-0.999055,0.0434593,0.0434593,0.999055,2334.99,321.194)">
            <path d="M-5.685,-116.667C43.599,-149.86 92.745,-57.013 75.395,-13.404C63.788,15.77 30.292,29.717 -5.685,30.735C-66.923,32.468 -95.237,-44.68 -47.456,-83.021L-5.685,-116.667Z" style="fill:white;fill-rule:nonzero;"/>
        </g>
        <g transform="matrix(1,0,0,1,2228.98,3588.36)">
            <path d="M0,-624.284C-173.1,-801.489 -437.922,-940.085 -709.328,-955.761C-954.493,-969.922 -1120.98,-917.305 -1257.98,-816.136L-1257.98,345.638L-249.777,345.638C65.66,90.638 325.183,-291.387 0,-624.284" style="fill:rgb(227,231,234);fill-rule:nonzero;"/>
        </g>
        <g transform="matrix(1,0,0,1,1644.04,2976.55)">
            <path d="M0,544.024C27.018,477.779 56.069,410.957 87.097,342.828C160.888,325.039 236.509,279.37 311.38,226.749C336.049,231.04 360.287,232.853 384.173,232.853C445.777,232.853 504.983,220.94 562.771,209.312C607.825,200.246 651.056,191.553 694.786,188.131C692.789,180.827 690.782,173.528 688.802,166.223C644.553,170.047 600.987,178.812 558.442,187.374C487.26,201.697 413.891,216.449 337.749,207.939C358.401,193.012 378.973,177.744 399.409,162.574C482.965,100.552 561.887,41.97 633.408,15.831L625.869,-5.203C551.342,22.035 471.17,81.546 386.289,144.551C290.952,215.318 192.619,288.307 99.203,316.398C140.534,226.647 185.21,134.49 233.14,38.202C239.589,25.246 256.697,0.78 276.507,-27.548C304.99,-68.276 339.298,-117.343 365.994,-165.189C359.665,-169.021 353.331,-172.858 347,-176.71C320.816,-129.688 286.702,-80.904 258.413,-40.451C237.253,-10.192 220.539,13.707 213.347,28.156C150.385,154.644 77.344,304.535 9.984,462.629C10.083,461.376 10.182,460.138 10.281,458.862C14.712,401.275 17.423,329.68 19.715,263.435L19.931,263.506C47.232,178.09 131.249,74 212.499,-26.663C255.179,-79.541 298.957,-133.787 333.818,-184.768C327.514,-188.638 321.223,-192.536 314.953,-196.469C281.346,-147.371 239.264,-95.228 195.328,-40.795C129.002,41.378 60.869,125.798 21.826,202.189C23.806,146.316 25.767,100.618 28.683,81.362C33.146,51.885 43.977,11.793 55.444,-30.653C55.911,-32.381 56.378,-34.113 56.847,-35.848C131.233,-97.292 201.79,-169.185 253.459,-237.464C253.375,-237.524 253.29,-237.583 253.207,-237.643C246.459,-240.825 239.705,-243.994 232.961,-247.184C188.263,-188.741 129.629,-127.76 66.879,-73.407C85.951,-146.136 102.672,-220.966 96.545,-276.51C89.13,-276.407 81.713,-276.297 74.295,-276.196C81.597,-216.932 58.317,-126.499 37.31,-48.533C-2.69,-15.885 -43.697,13.591 -83.288,37.632C-48.898,-50.425 -13.158,-140.703 28.092,-223.463C36.774,-240.882 46.154,-258.063 56.046,-275.98C47.577,-275.897 39.108,-275.847 30.641,-275.854C22.939,-261.792 15.307,-247.566 8.305,-233.519C-35.912,-144.805 -73.664,-48.055 -110.172,45.51C-153.526,156.616 -198.193,271.055 -254.262,373.562C-251.958,343.733 -249.708,314.008 -247.469,284.436C-237.602,154.064 -227.398,19.254 -213.534,-112.073C-208.137,-163.195 -197.13,-213.061 -186.487,-261.286C-185.936,-263.781 -185.393,-266.284 -184.843,-268.781C-192.934,-266.112 -201.056,-263.545 -209.219,-261.119C-219.644,-213.851 -230.22,-165.029 -235.561,-114.444C-249.46,17.215 -259.677,152.197 -269.557,282.732C-282.96,459.82 -296.78,642.286 -320.078,820.534L-297.746,820.534C-280.695,689.478 -268.723,556.338 -258.27,424.768L-258.024,424.918C-193.129,316.366 -143.653,192.203 -96.34,71.07C-56.181,48.62 -14.028,20.015 27.567,-12.362C18.497,21.604 10.558,53.061 6.786,77.981C3.044,102.694 0.888,165.807 -1.608,238.886C-3.919,306.56 -6.539,383.264 -10.942,445.435C-14.349,493.564 -18.112,521.54 -21.311,537.802C-61.321,636.2 -95.458,729.82 -124.389,820.534L-101.168,820.534C-74.957,738.771 -45.504,657.735 -12.91,576.023C-6.782,570.063 -3.048,558.75 0,544.024" style="fill:rgb(200,207,212);fill-rule:nonzero;"/>
        </g>
        <g transform="matrix(1,0,0,1,1938.94,3404.99)">
            <path d="M0,163.458C22.811,166.839 52.477,168.457 85.582,168.457C160.597,168.457 253.172,160.15 323.132,145.247C328.131,135.16 333.133,125.074 338.098,114.971C250.39,136.99 107.674,147.06 25.6,140.059C88.834,82.368 153.964,24.078 221.51,-28.73C251.169,-51.917 281.926,-74.491 314.488,-98.391C349.974,-124.435 386.045,-150.916 420.762,-178.37C416.748,-186.46 413.363,-194.866 410.586,-203.58C374.425,-174.732 336.51,-146.903 299.253,-119.558C267.967,-96.595 235.616,-72.851 205.647,-49.42C125.514,13.228 49.12,83.167 -24.757,150.803C-105.27,224.513 -187.921,300.177 -276.212,367.038L-233.55,367.038C-154.533,304.919 -80.074,236.766 -7.352,170.188C-4.907,167.949 -2.451,165.702 0,163.458" style="fill:rgb(200,207,212);fill-rule:nonzero;"/>
        </g>
        <g transform="matrix(1,0,0,1,2704.67,3519.81)">
            <path d="M0,702.01C3.216,697.571 6.387,693.082 9.495,688.54C39.714,644.601 65.501,595.746 85.457,544.963C87.62,539.51 89.687,534.037 91.707,528.545C120.36,450.152 135.015,367.975 130.591,292.75C130.172,285.443 129.554,278.207 128.771,271.062C126.04,246.325 121.099,222.496 113.784,199.959C112.102,194.733 110.271,189.58 108.308,184.487C92.734,144.025 68.881,108.301 35.531,79.854C-166.579,-92.509 -344.981,-49.664 -483.06,72.007C-484.594,73.34 -486.114,74.705 -487.618,76.072C-490.726,78.865 -493.819,81.708 -496.898,84.585C-500.941,88.363 -504.94,92.225 -508.908,96.138C-537.166,124.026 -563.564,155.092 -587.914,188.019C-591.196,192.455 -594.446,196.924 -597.649,201.429C-618.028,229.999 -636.871,259.816 -654.135,290.035L-83.404,794.519C-53.295,768.174 -25.236,736.826 0,702.01" style="fill:rgb(227,229,230);fill-rule:nonzero;"/>
        </g>
        <g transform="matrix(1,0,0,1,2396.8,3575.44)">
            <path d="M0,429.676C71.812,287.65 209.837,194.211 421.657,144.327C421.756,144.299 421.838,144.286 421.936,144.258C421.702,143.381 421.468,142.504 421.249,141.627C420.664,140.309 420.079,138.974 419.56,137.609C418.375,134.563 417.362,131.639 416.459,128.786C416.361,128.814 416.279,128.827 416.181,128.855C352.862,143.852 296.754,162.443 246.604,185.108C263.193,136.78 263.364,68.521 263.527,7.403C263.552,-4.965 263.595,-16.989 263.745,-28.551C262.48,-29.509 261.198,-30.468 259.898,-31.397C255.855,-33.876 251.816,-36.437 247.776,-38.998C247.46,-24.226 247.402,-8.739 247.363,7.37C247.195,74.518 246.986,150.536 224.898,195.335C208.932,203.22 193.594,211.527 178.832,220.319C111.179,260.6 56.682,310.934 16.176,370.413C22.211,348.903 27.749,326.242 32.728,302.378C38.892,272.9 43.98,242.864 48.242,212.871C48.63,212.89 49.016,212.941 49.402,212.975L50.647,196.695L50.469,196.687C61.164,115.807 66.006,36.202 69.038,-29.551L52.893,-30.318C49.563,41.842 44.331,119.027 34.424,194.469C-3.052,187.199 -44.725,165.121 -82.382,132.22C-84.745,130.148 -87.075,128.06 -89.355,125.942C-54.665,98.212 -31.043,66.312 -17.258,28.504C-6.277,-1.578 -1.293,-35.622 -1.801,-77.492C-7.199,-75.902 -12.567,-74.246 -17.951,-72.606C-17.862,13.328 -42.79,68.727 -101.154,114.548C-133.538,81.686 -156.561,44.825 -165.727,10.615C-168.255,12.799 -171.074,14.609 -174.178,15.932C-174.509,16.08 -174.854,16.211 -175.186,16.375C-176.903,17.11 -178.589,17.88 -180.277,18.682C-180.11,19.262 -179.928,19.859 -179.744,20.439C-153.654,106.073 -54.474,194.118 32.214,210.639C17.259,316.759 -7.479,418.378 -49.829,496.426L-37.677,507.168C-24.766,483.662 -12.998,457.417 -2.418,428.434L0,429.676Z" style="fill:rgb(238,241,242);fill-rule:nonzero;"/>
        </g>
        <g transform="matrix(1,0,0,1,2681.88,3831.4)">
            <path d="M0,379.153C7.695,383.113 15.303,386.873 22.792,390.415C71.27,413.34 115.051,427.332 145.312,429.358L146.363,413.068C117.246,411.129 75.455,397.15 32.287,376.945C-25.166,350.081 -85.099,312.217 -121.001,277.081C-102.017,259.274 -83.32,240.702 -64.91,221.692C-45.237,222.806 -24.694,224.682 -3.055,226.657C22.418,228.996 48.198,231.348 73.595,232.555C85.251,233.109 96.823,233.414 108.249,233.368C133.43,233.274 157.885,231.43 180.892,226.625C181.209,224.679 181.703,221.712 181.845,220.771C182.377,216.973 182.845,213.172 183.282,209.369C161.753,214.407 138.579,216.558 114.499,216.95C76.995,217.586 37.341,213.969 -1.586,210.404C-18.375,208.871 -34.487,207.403 -50.131,206.284C-11.505,165.619 25.817,123.424 61.67,82.89C93.407,46.996 123.862,12.562 153.383,-18.845C157.741,-23.458 162.064,-28.024 166.366,-32.509C165.682,-34.829 164.998,-37.166 164.28,-39.471C163.17,-43.069 162.025,-46.637 160.864,-50.205C157.771,-47.018 154.66,-43.801 151.562,-40.533C118.765,-6.177 84.995,32.005 49.604,72.006C-33.684,166.196 -124.971,269.388 -221.609,340.615L-209.135,351.641C-183.29,332.401 -157.871,310.994 -132.925,288.148C-102.417,318.209 -54.484,351.074 0,379.153" style="fill:rgb(238,241,242);fill-rule:nonzero;"/>
        </g>
        <g transform="matrix(1,0,0,1,2207.78,3987.05)">
            <path d="M0,-382.655C-0.856,-384.069 -1.747,-385.451 -2.688,-386.787C-6.041,-384.609 -9.404,-381.893 -12.881,-380.196C-12.965,-380.134 -13.066,-380.057 -13.15,-379.996C-14.14,-379.226 -15.115,-378.439 -16.091,-377.652C-14.633,-375.59 -13.278,-373.418 -12.01,-371.102C14.24,-323.647 3.055,-225.65 -14.946,-170.608C-16.722,-173.829 -18.53,-177.053 -20.386,-180.278C-42.174,-218.274 -66.531,-252.208 -91.016,-279.221C-91.909,-280.195 -92.802,-281.168 -93.68,-282.125C-96.684,-277.382 -99.641,-272.621 -102.566,-267.826C-101.967,-267.16 -101.366,-266.494 -100.751,-265.811C-77.838,-240.131 -54.997,-208.05 -34.359,-172.086C-3.549,-118.391 18.725,-61.804 28.617,-12.924L47.912,4.132C41.383,-43.052 23.033,-97.164 -4.71,-151.381C17.193,-205.763 35.299,-325.195 0,-382.655" style="fill:rgb(227,229,230);fill-rule:nonzero;"/>
        </g>
        <g transform="matrix(1,0,0,1,2399.45,4458.28)">
            <path d="M0,-486.94C-403.819,-797.574 -858.916,-1028.66 -1378.46,-980.785C-1671.3,-953.802 -1977.15,-901.99 -2242.83,-769.098C-2282.59,-749.212 -2341.05,-717.991 -2399.45,-678.883L-2399.45,541.72L657.091,541.72C639.892,482.95 619.654,424.935 600.547,366.525C489.286,26.412 282.511,-269.621 0,-486.94" style="fill:rgb(238,241,242);fill-rule:nonzero;"/>
        </g>
        <g transform="matrix(1,0,0,1,352.439,2755.42)">
            <path d="M0,1379.69C25.988,1370.77 51.862,1361.52 77.651,1352.03C129.199,1333.07 180.433,1313.26 231.899,1294.08C282.41,1275.26 333.173,1257.06 384.629,1241.03C392.041,1238.72 399.469,1236.46 406.91,1234.24C437.136,1223.79 467.658,1214.24 498.581,1206.06C544.113,1194.02 589.993,1186.4 636.64,1180.25C638.75,1179.97 640.862,1179.7 642.975,1179.44L642.975,111.642C557.685,40.807 453.645,0 322.711,13.623C101.117,36.677 -180.259,237.386 -251.224,458.38C-303.884,622.37 -164.815,1224.81 0,1379.69" style="fill:rgb(200,207,212);fill-rule:nonzero;"/>
        </g>
        <g transform="matrix(1,0,0,1,246.051,3895.9)">
            <path d="M0,-558.95C-33.934,-610.229 -66.233,-659.041 -91.146,-701.285C-93.286,-691.474 -95.129,-681.593 -96.695,-671.662C-96.875,-670.085 -97.045,-668.508 -97.218,-666.93C-74.401,-629.804 -47.273,-588.808 -19.022,-546.115C39.503,-457.675 104.611,-359.265 154.412,-261.988C82.283,-329.505 -17.507,-393.589 -106.865,-446.491C-106.815,-437.496 -106.715,-428.501 -106.567,-419.506C-3.967,-358.237 109.839,-282.994 176.658,-206.144L179.951,-209.063C217.66,-125.407 240.832,-44.131 235.235,27.55C216.29,5.475 196.312,-16.63 175.224,-38.805C89.102,-129.363 -6.307,-212.327 -101.413,-292.087C-100.74,-281.451 -100.008,-270.82 -99.221,-260.193C46.003,-137.839 188.25,-9.53 296.579,142.335C303.9,139.564 311.222,136.793 318.545,134.024C299.097,106.509 278.081,79.041 255.421,51.548C284.441,-129.089 126.982,-367.058 0,-558.95" style="fill:rgb(227,231,234);fill-rule:nonzero;"/>
        </g>
        <g transform="matrix(1,0,0,1,900.026,3410.14)">
            <path d="M0,-33.576C14.432,-73.535 30.529,-114.363 46.094,-153.847C59.044,-186.696 72.169,-220.008 84.619,-253.498L84.619,-321.888C66.637,-268.45 45.51,-214.825 24.839,-162.392C9.213,-122.754 -6.945,-81.767 -21.492,-41.492C-38.778,6.368 -56.345,66.187 -74.944,129.517C-107.236,239.476 -140.548,352.895 -176.701,419.846C-191.532,391.722 -204.301,367.418 -212.37,349.604C-220.893,330.788 -229.132,311.787 -237.162,292.687C-211.55,186.793 -211.891,68.066 -212.236,-46.902C-212.511,-138.652 -212.795,-233.527 -199.749,-320.191C-187.27,-403.092 -183.917,-480.241 -183.016,-552.433L-182.757,-552.433C-182.753,-559.652 -182.757,-566.28 -182.757,-573.207L-182.757,-583.592L-205.634,-583.647C-206.007,-503.874 -208.291,-417.165 -222.366,-323.66C-230.1,-272.28 -233.23,-218.415 -234.452,-164.131C-273.674,-260.451 -354.168,-428.969 -407.859,-540.772C-414.338,-536.626 -420.837,-532.511 -427.354,-528.425C-362.862,-394.098 -250.187,-157.852 -235.303,-99.094L-235.18,-99.126C-235.217,-81.63 -235.165,-64.176 -235.113,-46.831C-234.807,55.211 -234.508,160.247 -252.545,255.362C-274.841,200.181 -295.566,144.498 -315.846,89.993C-351.519,-5.884 -388.408,-105.025 -433.242,-199.795C-478.722,-295.928 -502.678,-381.962 -514.745,-475.036C-521.888,-470.675 -529.014,-466.287 -536.119,-461.867C-523.388,-370.472 -498.954,-285.104 -453.885,-189.837C-438.788,-157.925 -424.596,-125.452 -411.022,-92.747C-424.468,-97.791 -438.749,-102.925 -453.599,-108.259C-555.458,-144.841 -680.107,-189.621 -728.33,-273.692C-731.721,-264.447 -734.771,-255.088 -737.505,-245.636C-715.277,-214.697 -682.027,-186.814 -637,-161.21C-581.613,-129.715 -517.676,-106.752 -461.265,-86.493C-439.212,-78.573 -418.383,-71.093 -399.993,-63.777L-399.585,-64.823C-377.653,-10.437 -357.265,44.356 -337.261,98.119C-313.184,162.828 -288.491,229.19 -261.225,294.573C-261.631,296.161 -262.022,297.757 -262.44,299.338L-258.808,300.317C-250.518,320.068 -242,339.727 -233.175,359.212C-224.521,378.317 -210.957,404.038 -195.251,433.819C-177.622,467.249 -156.02,508.213 -136.392,550.071C-134.853,549.608 -133.315,549.139 -131.774,548.681C-125.968,546.673 -120.148,544.711 -114.318,542.779C-130.13,509.024 -147.536,475.309 -164.015,443.934C-127.772,383.482 -95.134,278.786 -63.708,172.434C-54.17,168.358 -42.969,163.44 -30.264,157.863C0.764,144.241 42.687,125.838 84.619,109.413L84.619,84.658C45.398,99.817 2.908,118.11 -39.386,136.677C-44.962,139.125 -50.245,141.444 -55.224,143.621C-54.486,141.108 -53.748,138.596 -53.011,136.086C-34.515,73.104 -17.045,13.617 0,-33.576" style="fill:rgb(227,231,234);fill-rule:nonzero;"/>
        </g>
        <g transform="matrix(1,0,0,1,2866.01,4783.82)">
            <path d="M0,-107.512C-62.433,-103.574 -129.739,-66.133 -189.119,-33.105C-205.206,-24.162 -220.648,-15.572 -235.485,-7.897C-225.013,-24.275 -216.193,-37.812 -212.79,-41.713C-169.544,-91.357 -104.849,-152.833 -42.237,-163.757L-42.708,-166.456C-106.111,-155.394 -171.318,-93.493 -214.861,-43.516C-218.671,-39.141 -228.397,-24.114 -240.326,-5.404C-241.273,-3.921 -242.232,-2.41 -243.204,-0.878C-244.741,1.526 -246.303,3.986 -247.885,6.474C-258.737,23.546 -271.939,44.311 -281.833,58.904C-280.739,58.918 -279.645,58.929 -278.551,58.944C-278.047,58.198 -277.533,57.434 -276.997,56.634C-267.818,42.946 -256.507,25.151 -245.572,7.946C-243.148,4.136 -240.75,0.362 -238.416,-3.307C-222.261,-11.532 -205.407,-20.909 -187.788,-30.712C-128.663,-63.6 -61.639,-100.873 0.17,-104.781L0,-107.512Z" style="fill:rgb(121,123,135);fill-rule:nonzero;"/>
        </g>
        <g transform="matrix(1,0,0,1,2770.62,4730.24)">
            <path d="M0,-349.718C-51.467,-324.08 -90.227,-264.396 -124.424,-211.738C-134.446,-196.307 -143.942,-181.701 -153.473,-168.264C-149.896,-182.699 -145.684,-197.076 -141.285,-211.33C-139.987,-215.536 -138.657,-219.888 -137.287,-224.379C-113.159,-303.173 -76.705,-422.245 -7.168,-468.12L-8.681,-470.41C-79.042,-423.99 -115.667,-304.349 -139.911,-225.18C-141.281,-220.696 -142.615,-216.344 -143.913,-212.138C-157.316,-168.711 -167.378,-124.228 -176.168,-80.019C-176.389,-78.941 -176.603,-77.869 -176.81,-76.798C-178.046,-70.562 -179.249,-64.342 -180.438,-58.129C-180.737,-56.588 -181.03,-55.047 -181.322,-53.505C-184.071,-39.055 -186.718,-24.656 -189.356,-10.368C-191.274,0.031 -193.254,10.788 -195.241,21.381C-196.489,28.043 -197.563,35.288 -198.705,42.961C-202.682,69.753 -207.197,100.12 -221.19,119.059L-218.98,120.692C-204.582,101.203 -200.016,70.47 -195.982,43.36C-194.846,35.715 -193.773,28.497 -192.53,21.884C-190.551,11.291 -188.554,0.533 -186.636,-9.872C-183.77,-25.411 -181.205,-41.068 -178.195,-56.791C-177.908,-58.318 -178.62,-59.834 -177.62,-61.374L-177.62,-61.381C-175.62,-66.935 -175.169,-72.487 -174.065,-78.045C-173.852,-79.116 -173.507,-80.193 -173.293,-81.265C-167.695,-109.29 -161.494,-137.417 -154.326,-165.295L-152.94,-164.331C-142.814,-178.45 -132.764,-193.894 -122.145,-210.244C-88.138,-262.608 -49.584,-321.959 1.213,-347.263L0,-349.718Z" style="fill:rgb(121,123,135);fill-rule:nonzero;"/>
        </g>
        <g transform="matrix(1,0,0,1,2461.36,4553.22)">
            <path d="M0,6.35C-7.203,21.502 -14.254,36.318 -21.383,50.705C-14.474,-43.641 0.988,-125.921 25.448,-199.108L25.473,-199.184C49.723,-271.732 58.108,-275.242 59.556,-275.247L59.597,-277.994C56.315,-278.057 50.956,-274.193 38.646,-243.618C31.529,-225.951 25.009,-206.461 22.874,-200.055L22.842,-199.978C-2.267,-124.866 -17.908,-40.227 -24.588,57.131C-24.749,59.456 -24.902,61.795 -25.048,64.133C-26.452,86.109 -27.407,108.734 -27.912,132.035C-28.181,144.52 -27.194,160.526 -26.043,179.065C-23.925,213.223 -21.489,252.551 -26.001,284.407C-25.073,284.329 -24.145,284.249 -23.217,284.169C-18.766,252.097 -21.192,212.949 -23.305,178.894C-24.453,160.424 -25.438,144.465 -25.172,132.097C-24.614,106.551 -23.524,81.821 -21.885,57.867C-13.735,41.61 -5.722,24.781 2.48,7.527C34.342,-59.458 67.285,-128.72 116.689,-176.823L114.77,-178.789C65.022,-130.344 31.97,-60.852 0,6.35" style="fill:rgb(121,123,135);fill-rule:nonzero;"/>
        </g>
        <g transform="matrix(1,0,0,1,2848.12,4697.71)">
            <path d="M0,-228.78C0.04,-228.802 0.088,-228.276 0.128,-228.298C2.158,-229.245 4.202,-228.714 6.221,-230.714L6.228,-230.714C6.302,-231.714 6.383,-231.323 6.457,-231.361C38.92,-246.231 72.361,-260.18 105.739,-270.742C105.804,-270.736 105.867,-270.865 105.932,-270.859C187.514,-262.878 302.375,-245.98 360.822,-211.213L362.223,-213.605C304.878,-247.713 194,-264.796 112.647,-273.06C155.147,-286.006 197.428,-294.177 237.337,-295.252L237.262,-297.998C236.063,-297.967 234.891,-297.925 233.692,-297.881C192.654,-296.352 149.205,-287.468 105.67,-273.742C105.669,-273.74 105.668,-273.714 105.668,-273.714L105.657,-273.714C103.452,-273.714 101.249,-272.343 99.045,-271.622C99.059,-271.621 99.072,-271.675 99.086,-271.674C99.083,-271.673 99.082,-271.714 99.08,-271.714L99.046,-271.714C69.305,-261.714 39.578,-250.034 10.597,-236.686C10.576,-236.678 10.563,-236.652 10.542,-236.644C16.384,-243.415 22.345,-250.441 28.399,-257.583C76.08,-313.821 130.13,-377.566 181.669,-386.039L181.225,-388.744C128.69,-380.103 74.298,-315.949 26.309,-259.349C18.855,-250.549 11.532,-241.918 4.426,-233.749C-66.827,-200.223 -133.229,-159.126 -183.764,-120.767C-196.056,-111.436 -208.016,-101.714 -219.589,-92.714L-219.595,-92.714C-219.794,-92.714 -220.006,-91.777 -220.205,-91.598C-220.238,-91.569 -220.265,-91.272 -220.298,-91.244C-220.543,-91.008 -220.796,-90.652 -221.048,-90.43C-222.73,-88.974 -224.408,-87.713 -226.077,-86.278C-225.894,-86.354 -225.711,-87.022 -225.529,-87.098L-225.522,-87.714L-225.514,-87.714C-225.516,-87.714 -225.519,-87.074 -225.522,-87.071L-225.529,-86.649C-225.708,-86.478 -225.887,-85.714 -226.065,-85.714L-226.072,-85.714C-236.716,-77.714 -248.118,-67.721 -256.118,-58.273L-256.118,-58.266C-257.118,-57.187 -258.838,-56.107 -259.971,-55.022C-259.984,-55.008 -260.197,-54.993 -260.21,-54.979C-280.312,-35.751 -299.18,-15.874 -316.439,4.531C-358.39,54.141 -390.89,106.079 -412.931,158.905L-410.426,159.964C-374.86,74.706 -317.718,4.047 -261.276,-50.397C-260.13,-51.503 -258.997,-52.596 -257.857,-53.681C-257.844,-53.696 -257.834,-53.709 -257.82,-53.717C-244.428,-66.492 -231.107,-78.351 -218.146,-89.257C-218.027,-89.357 -217.895,-89.472 -217.775,-89.579C-217.768,-89.58 -217.769,-89.58 -217.762,-89.587C-217.71,-89.631 -217.659,-89.945 -217.607,-89.989C-151.884,-115.838 -89.169,-136.714 -23.018,-153.714L-23.011,-153.714C-14.632,-149.714 -5.802,-147.928 3.469,-143.305C22.472,-133.823 43.331,-118.806 65.461,-99.079C103.667,-65.027 138.634,-22.606 158.612,5.675L160.852,4.123C140.786,-24.279 105.67,-66.755 67.287,-100.965C44.979,-120.85 23.921,-135.745 4.701,-145.336C-2.858,-149.109 -10.16,-152.281 -17.151,-154.079C-17.048,-154.083 -16.95,-154.225 -16.848,-154.25C5.182,-159.475 27.621,-164.053 50.684,-168.117C127.028,-148.241 212.237,-122.472 284.915,-83.294L286.211,-85.71C215.15,-124.021 132.215,-149.531 57.222,-169.245C90.395,-174.886 124.917,-179.307 161.47,-182.426C169.049,-183.071 178.745,-184.359 189.963,-185.841C240.71,-192.548 317.405,-202.692 345.788,-174.607L347.719,-176.559C318.374,-205.589 240.88,-195.361 189.607,-188.586C178.416,-187.105 168.753,-185.695 161.236,-185.059C122.405,-181.746 85.872,-178.714 50.802,-170.714L50.795,-170.714C50.741,-170.714 50.687,-170.826 50.633,-170.811C48.525,-170.101 46.402,-170.248 44.296,-169.868C44.16,-169.842 44.03,-169.241 43.894,-169.215C21.307,-165.108 -0.68,-161.714 -22.319,-154.714L-22.325,-154.714C-22.468,-154.714 -22.604,-155.238 -22.746,-155.198C-24.622,-154.531 -26.504,-154.216 -28.381,-153.755C-28.483,-153.73 -28.579,-153.714 -28.681,-153.714L-28.688,-153.714C-90.737,-137.714 -149.878,-118.542 -211.474,-94.543C-201.378,-102.877 -191.542,-110.802 -182.108,-117.968C-133.02,-155.224 -68.924,-195.911 0,-228.78" style="fill:rgb(121,123,135);fill-rule:nonzero;"/>
        </g>
        <g transform="matrix(-0.771566,-0.636149,-0.636149,0.771566,2662.41,4604.56)">
            <path d="M-1.841,-5.128C-1.319,-4.168 -0.8,-3.203 -0.286,-2.232C-0.803,-1.26 -1.32,-0.297 -1.842,0.661C-2.36,-0.304 -2.877,-1.269 -3.396,-2.234C-2.879,-3.197 -2.358,-4.166 -1.841,-5.128" style="fill:rgb(208,127,50);fill-rule:nonzero;"/>
        </g>
        <g transform="matrix(1,0,0,1,3312.31,4709.94)">
            <path d="M0,-40.642C-75.095,-50.765 -157.093,-55.146 -237.596,-53.684C-238.603,-53.669 -239.606,-53.646 -240.61,-53.627C-241.791,-53.66 -242.971,-53.695 -244.149,-53.67C-244.073,-53.635 -243.996,-53.599 -243.92,-53.565C-243.995,-53.563 -244.07,-53.562 -244.145,-53.561C-273.766,-52.91 -303.16,-51.472 -331.893,-49.23C-244.065,-81.292 -154.9,-102.661 -67.383,-112.096L-67.676,-114.822C-158.922,-104.982 -251.246,-82.664 -342.789,-48.355C-342.823,-48.352 -342.857,-48.349 -342.891,-48.346C-346.051,-47.165 -349.212,-45.992 -352.371,-44.777C-352.302,-44.783 -352.232,-44.79 -352.163,-44.797C-352.231,-44.771 -352.3,-44.745 -352.369,-44.718C-365.399,-39.718 -378.412,-34.471 -391.403,-28.978C-415.283,-18.887 -438.944,-8.049 -462.337,3.52C-462.341,3.522 -462.344,3.524 -462.348,3.525C-440.944,-14.614 -420.35,-35.121 -398.789,-56.594C-349.453,-105.73 -298.437,-156.538 -235.041,-178.565L-235.941,-181.155C-299.929,-158.924 -351.17,-107.891 -400.725,-58.538C-425.313,-34.049 -448.643,-10.824 -473.302,9.011C-545.276,45.416 -614.701,88.723 -680.531,138.317L-678.885,140.513C-615.138,92.481 -547.794,50.394 -478.469,14.896L-477.653,15.95C-475.886,14.582 -474.128,13.194 -472.376,11.792C-429.364,-9.954 -385.607,-29.168 -341.481,-45.687C-341.347,-45.737 -341.211,-45.675 -341.077,-45.725C-307.503,-48.561 -272.972,-49.941 -238.147,-50.941L-238.14,-50.941C-222.01,-45.941 -203.306,-37.686 -183.879,-31.026C-132.681,-13.473 -74.646,6.48 -50.846,40.102L-48.606,38.495C-72.921,4.144 -131.39,-15.765 -182.984,-33.448C-200.048,-39.297 -216.561,-45.098 -231.201,-50.728C-152.889,-52.273 -73.359,-47.608 -0.36,-37.764L0,-40.642Z" style="fill:rgb(121,123,135);fill-rule:nonzero;"/>
        </g>
        <g transform="matrix(1,0,0,1,3300.62,4655.33)">
            <path d="M0,-15.08C14.147,-0.098 -23.795,9.161 -24.484,-8.613C-25.09,-24.241 -4.385,-19.724 0,-15.08" style="fill:rgb(208,127,50);fill-rule:nonzero;"/>
        </g>
        <g transform="matrix(0.978583,0.205853,0.205853,-0.978583,3259.28,4722.09)">
            <path d="M2.604,0.737C-8.022,0.578 -17.208,9.619 -14.724,18.041C-12.558,25.382 -2.903,27.377 2.604,21.888C4.711,19.787 6.78,17.664 8.653,15.707C13.987,10.136 10.326,0.854 2.604,0.737" style="fill:rgb(208,127,50);fill-rule:nonzero;"/>
        </g>
        <g transform="matrix(1,0,0,1,3195.61,4717.37)">
            <path d="M0,9.538C2.858,18.921 -10.344,24.427 -20.699,25.737C-50.741,-1.023 -7.839,-16.199 0,9.538" style="fill:rgb(208,127,50);fill-rule:nonzero;"/>
        </g>
        <g transform="matrix(1,0,0,1,3022.53,4527.77)">
            <path d="M0,21.056C-18.404,29.748 -22.321,3.272 -14.165,-0.469C3.765,-8.692 15.117,13.917 0,21.056" style="fill:rgb(208,127,50);fill-rule:nonzero;"/>
        </g>
        <g transform="matrix(1,0,0,1,3229.7,4523.65)">
            <path d="M0,-10.153C0,-10.153 11.44,14.871 -15.651,8.313C-28.678,-10.186 -9.014,-25.024 0,-10.153" style="fill:rgb(208,127,50);fill-rule:nonzero;"/>
        </g>
        <g transform="matrix(1,0,0,1,3150.59,4535.89)">
            <path d="M0,-9.664C0.038,-9.605 0.076,-9.546 0.114,-9.487C2.822,-5.294 1.474,0.302 -2.899,2.594C-5.736,4.08 -8.836,5.007 -12.304,5.263C-15.261,-1.686 -15.954,-6.361 -13.776,-9.923C-10.715,-14.927 -3.227,-14.674 0,-9.664" style="fill:rgb(208,127,50);fill-rule:nonzero;"/>
        </g>
        <g transform="matrix(1,0,0,1,3231.28,4610.49)">
            <path d="M0,-11.839C6.437,-2.237 -6.873,8.301 -14.646,-0.284C-17.866,-3.842 -18.113,-8.996 -12.102,-15.426C-7.694,-20.14 -3.417,-16.936 0,-11.839" style="fill:rgb(208,127,50);fill-rule:nonzero;"/>
        </g>
        <g transform="matrix(1,0,0,1,2750.59,4417.21)">
            <path d="M0,-31.372C19.866,-25.902 -7.768,1.696 -17.577,-13.142C-26.202,-26.188 -6.159,-33.068 0,-31.372" style="fill:rgb(208,127,50);fill-rule:nonzero;"/>
        </g>
        <g transform="matrix(1,0,0,1,2766.77,4505.13)">
            <path d="M0,-6.65C7.311,-0.111 -1.12,11.445 -9.293,17.937C-48.858,10.643 -20.053,-24.587 0,-6.65" style="fill:rgb(208,127,50);fill-rule:nonzero;"/>
        </g>
        <g transform="matrix(1,0,0,1,2491.21,4315.98)">
            <path d="M0,10.407C-11.225,27.385 -28.308,6.781 -23.276,-0.647C-12.213,-16.978 9.22,-3.538 0,10.407" style="fill:rgb(208,127,50);fill-rule:nonzero;"/>
        </g>
        <g transform="matrix(1,0,0,1,2515.01,4354.02)">
            <path d="M0,23.917C0,23.917 -0.842,24.881 -2.954,27.185C-8.048,32.739 -16.939,33.013 -22.223,27.629C-40.291,9.219 6.775,-9.096 0,23.917" style="fill:rgb(208,127,50);fill-rule:nonzero;"/>
        </g>
        <g transform="matrix(1,0,0,1,2418.45,4455.19)">
            <path d="M0,-11.208C-19.302,26.461 -30.726,-37.669 -4.459,-18.972C-1.892,-17.145 -0.258,-14.308 0,-11.208" style="fill:rgb(208,127,50);fill-rule:nonzero;"/>
        </g>
        <g transform="matrix(1,0,0,1,2404.09,4387.32)">
            <path d="M0,10.973C-0.331,11.363 -0.659,11.752 -0.983,12.137C-4.595,16.436 -11.097,16.988 -15.416,13.366C-15.494,13.3 -15.573,13.234 -15.652,13.168C-22.157,7.714 -19.481,-2.771 -11.096,-4.44C-10.361,-4.586 -9.62,-4.71 -8.875,-4.811C0.016,-6.015 5.738,4.204 0,10.973" style="fill:rgb(208,127,50);fill-rule:nonzero;"/>
        </g>
        <g transform="matrix(1,0,0,1,2486.82,4237)">
            <path d="M0,15.759C-0.043,15.807 -0.086,15.854 -0.128,15.902C-3.923,20.102 -10.879,19.555 -13.8,14.727C-16.567,10.151 -16.228,5.147 -12.935,0.42C-9.786,-4.101 -3.073,-4.343 0.369,-0.03C0.419,0.033 0.469,0.095 0.518,0.158C4.185,4.818 3.961,11.34 0,15.759" style="fill:rgb(208,127,50);fill-rule:nonzero;"/>
        </g>
        <g transform="matrix(1,0,0,1,2550.16,4473.55)">
            <path d="M0,-4.722C4.077,-20.997 25.61,-19.995 25.233,-4.544C24.824,12.24 -5.26,16.275 0,-4.722" style="fill:rgb(208,127,50);fill-rule:nonzero;"/>
        </g>
        <g transform="matrix(0.135834,0.990732,0.990732,-0.135834,2535.02,4250.25)">
            <path d="M12.519,-3.82C3.847,-6.728 -4.161,-0.768 -3.244,6.975C-2.352,14.514 6.278,18.189 12.519,14.077C13.459,13.457 14.371,12.794 15.248,12.088C20.835,7.579 19.318,-1.539 12.519,-3.82" style="fill:rgb(208,127,50);fill-rule:nonzero;"/>
        </g>
        <g transform="matrix(1,0,0,1,2645.38,4373.17)">
            <path d="M0,-15.868C0,-15.868 22.761,-0.409 -3.801,8.038C-24.534,-1.02 -15.421,-23.906 0,-15.868" style="fill:rgb(208,127,50);fill-rule:nonzero;"/>
        </g>
        <g transform="matrix(1,0,0,1,2633.55,4311.66)">
            <path d="M0,-16.535C0.063,-16.504 0.127,-16.473 0.19,-16.443C4.68,-14.263 6.43,-8.779 3.88,-4.552C2.226,-1.81 0.057,0.591 -2.776,2.609C-8.908,-1.797 -11.926,-5.434 -11.911,-9.61C-11.891,-15.476 -5.357,-19.144 0,-16.535" style="fill:rgb(208,127,50);fill-rule:nonzero;"/>
        </g>
        <g transform="matrix(1,0,0,1,2717.64,4365.86)">
            <path d="M0,-17.678C10.484,-12.809 4.572,3.106 -6.527,-0.202C-11.126,-1.573 -14.01,-5.851 -12.207,-14.467C-10.884,-20.784 -5.565,-20.263 0,-17.678" style="fill:rgb(208,127,50);fill-rule:nonzero;"/>
        </g>
        <g transform="matrix(1,0,0,1,1575.47,4121.9)">
            <path d="M0,-15.576C0.92,0.065 1.786,14.842 2.509,29.599C5.997,100.6 25.747,161.243 46.652,225.45C47.374,227.677 48.104,229.913 48.835,232.158C49.843,232.324 50.852,232.51 51.861,232.695C50.949,229.879 50.038,227.082 49.127,224.284C28.306,160.339 8.64,99.94 5.179,29.469C4.456,14.694 3.589,-0.093 2.668,-15.753C-1.755,-90.873 -6.669,-174.52 7.039,-248.271C6.183,-247.047 5.262,-245.876 4.267,-244.75C4.148,-245.152 4.02,-245.555 3.857,-245.955C-9.234,-172.513 -4.373,-89.89 0,-15.576" style="fill:rgb(221,214,206);fill-rule:nonzero;"/>
        </g>
        <g transform="matrix(1,0,0,1,2271.14,4454.35)">
            <path d="M0,-165.498C-7.52,-171.959 -16.485,-176.476 -26.112,-178.847C-116.236,-201.043 -470.161,-373.596 -618.986,-189.351C-679.223,-114.779 -747.053,52.905 -666.727,127.732C-580.455,208.098 -359.829,183.629 -260.519,166.104C-186.999,153.129 -89.545,146.101 -29.166,100.463C41.854,46.783 77.719,-94.45 0.37,-165.18L0,-165.498Z" style="fill:rgb(222,214,206);fill-rule:nonzero;"/>
        </g>
        <g transform="matrix(1,0,0,1,1739.42,4042.72)">
            <path d="M0,293.477C-4.01,293.231 -7.985,293.064 -11.92,293.039C-68.399,179.783 -218.79,104.778 -215.865,-1.023C-25.089,55.462 3.202,180.669 14.778,290.573L13.542,294.5C9.031,294.124 4.518,293.754 0,293.477" style="fill:rgb(222,214,206);fill-rule:nonzero;"/>
        </g>
        <g transform="matrix(1,0,0,1,1723.48,4144.95)">
            <path d="M0,237.747C-35.69,151.882 -160.968,25.822 -339.12,-29.006C-283.3,93.37 -42.591,137.501 -8.011,266.753L0,237.747Z" style="fill:rgb(222,214,206);fill-rule:nonzero;"/>
        </g>
        <g transform="matrix(1,0,0,1,1789.03,4583.72)">
            <path d="M0,-1.101C0.62,-2.578 1.337,-4.009 2.058,-5.439C2.603,-6.385 3.072,-7.361 3.505,-8.351C10.49,-8.816 20.5,-4.385 10.855,3.829C6.292,7.715 1.443,5.252 -0.991,0.859C-0.638,0.225 -0.302,-0.423 0,-1.101" style="fill:rgb(36,37,31);fill-rule:nonzero;"/>
        </g>
        <g transform="matrix(-0.55923,-0.829012,-0.829012,0.55923,1596.3,4517.76)">
            <path d="M-8.639,-5.476C2.126,-9.076 -0.088,0.238 -1.925,6.804C-4.191,7.346 -6.428,7.941 -8.639,8.609C-9.852,8.924 -11.066,9.238 -12.277,9.56C-16.208,4.439 -17.099,-2.645 -8.639,-5.476" style="fill:rgb(36,37,31);fill-rule:nonzero;"/>
        </g>
        <g transform="matrix(1,0,0,1,1675.62,4592.85)">
            <path d="M0,-16.977C8.34,0 10.002,-1.176 27.688,-7.638C19.204,-9.921 0,-16.977 0,-16.977" style="fill:rgb(185,124,70);fill-rule:nonzero;"/>
        </g>
        <g transform="matrix(1,0,0,1,1680.77,4589)">
            <path d="M0,30.515C-2.233,23.589 0.85,14.292 3.544,6.183C4.261,4.025 4.885,2.171 5.508,0L8.765,0.934C8.142,3.105 7.488,5.058 6.76,7.251C4.229,14.868 1.347,23.553 3.239,29.423L0,30.515Z" style="fill:rgb(36,37,31);fill-rule:nonzero;"/>
        </g>
        <g transform="matrix(1,0,0,1,1803.72,4643.62)">
            <path d="M0,-42.793C6.165,-35.671 6.149,-18.012 -1.609,-11.549C-22.71,6.032 -47.459,-39.451 -25.808,-42.765C-25.808,-42.765 -5.221,-48.825 0,-42.793" style="fill:rgb(208,127,50);fill-rule:nonzero;"/>
        </g>
        <g transform="matrix(1,0,0,1,1580.77,4556.18)">
            <path d="M0,1.511C-2.557,-2.938 -2.306,-8.633 1.016,-12.544C12.827,-26.449 50.807,-5.846 28.646,16.476C17.246,27.96 4.984,10.183 0,1.511" style="fill:rgb(208,127,50);fill-rule:nonzero;"/>
        </g>
        <g transform="matrix(1,0,0,1,2151.86,3425.86)">
            <path d="M0,705.569C17.718,692.754 258.322,751.658 287.647,458.818C289.584,439.469 287.383,419.914 281.303,401.444C273.269,377.035 263.856,355.482 254.225,339.314C201.514,250.824 -492.893,-46.089 -521.463,537.847C-529.379,699.637 -342.135,702.646 -205.562,702.508C-139.783,702.442 -66.939,710.801 0,705.569" style="fill:rgb(222,214,206);fill-rule:nonzero;"/>
        </g>
        <g transform="matrix(0.987555,-0.157277,-0.157277,-0.987555,1787.63,3870.25)">
            <path d="M-27.756,-2.33C-13.096,89.581 26.055,235.329 7.539,332.688C4.073,350.916 -21.156,353.357 -27.756,336.016C-62.138,245.681 -41.888,50.547 -50.605,-4.185L-27.756,-2.33Z" style="fill:rgb(121,123,135);fill-rule:nonzero;"/>
        </g>
        <g transform="matrix(0.980134,0.198336,0.198336,-0.980134,1822.77,3872.49)">
            <path d="M33.544,-1.925C18.599,71.934 -29.332,219.768 -4.035,317.536C0.648,335.633 28.271,333.025 33.544,315.092C58.228,231.158 47.394,79.556 63.562,-0.345L33.544,-1.925Z" style="fill:rgb(121,123,135);fill-rule:nonzero;"/>
        </g>
        <g transform="matrix(1,0,0,1,1913.08,4072.29)">
            <path d="M0,-14.455C5.376,-18.03 15.444,-15.862 7.929,-4.543C2.539,3.575 -4.805,-2.373 -3.114,-11.117L0,-14.455Z" style="fill:rgb(36,37,31);fill-rule:nonzero;"/>
        </g>
        <g transform="matrix(-0.766059,-0.64277,-0.64277,0.766059,1704,4042.3)">
            <path d="M-5.711,-6.023C4.448,-9.422 2.359,-0.631 0.625,5.566C-1.513,6.078 -3.624,6.639 -5.711,7.271C-6.856,7.567 -8.002,7.864 -9.145,8.167C-12.855,3.335 -13.696,-3.352 -5.711,-6.023" style="fill:rgb(36,37,31);fill-rule:nonzero;"/>
        </g>
        <g transform="matrix(1,0,0,1,1783.44,4096.64)">
            <path d="M0,-13.233C11.982,0 13.184,-1.499 27.549,-11.963C19.259,-11.827 0,-13.233 0,-13.233" style="fill:rgb(185,124,70);fill-rule:nonzero;"/>
        </g>
        <g transform="matrix(1,0,0,1,1799.46,4093)">
            <path d="M0,28.663C-3.828,22.96 -3.449,13.951 -3.114,5.893C-3.025,3.749 -2.941,2 -2.941,0L0.257,0C0.257,2 0.172,3.847 0.081,6.026C-0.233,13.594 -0.589,22.11 2.655,26.943L0,28.663Z" style="fill:rgb(36,37,31);fill-rule:nonzero;"/>
        </g>
        <g transform="matrix(1,0,0,1,1920.96,4130.24)">
            <path d="M0,-46.09C7.446,-41.232 12.025,-25.207 6.668,-17.326C-7.902,4.114 -38.329,-20.994 -26.046,-37.621C-19.859,-45.995 -6.306,-50.204 0,-46.09" style="fill:rgb(208,127,50);fill-rule:nonzero;"/>
        </g>
        <g transform="matrix(1,0,0,1,1696.3,4073.38)">
            <path d="M0,9.194C-3.477,5.823 -4.731,0.591 -2.735,-3.822C4.364,-19.509 44.18,-10.697 29.882,15.32C22.526,28.703 6.778,15.765 0,9.194" style="fill:rgb(208,127,50);fill-rule:nonzero;"/>
        </g>
        <g transform="matrix(1,0,0,1,691.195,4224.76)">
            <path d="M0,443.43C-24.023,267.022 62.195,93.184 220.057,10.865C380.556,-72.83 549.421,-79.307 700.984,105.672C951.404,411.305 670.762,522.737 390.954,516.876C259.949,514.132 183.071,517.483 69.774,511.536C34.162,509.666 4.924,482.557 0.489,447.172C0.333,445.925 0.17,444.677 0,443.43" style="fill:rgb(222,214,206);fill-rule:nonzero;"/>
        </g>
        <g transform="matrix(1,0,0,1,699.363,4645.37)">
            <path d="M0,-39.146C-124.126,-136.612 -170.843,97.466 14.76,8.462L0,-39.146Z" style="fill:rgb(186,176,165);fill-rule:nonzero;"/>
        </g>
        <g transform="matrix(0.977804,-0.209521,-0.209521,-0.977804,1274.1,4519.96)">
            <path d="M-42.332,-3.923C-21.883,71.019 15.683,290.799 -14.431,381.903C-19.004,395.738 -38.954,394.728 -42.332,380.554C-73.781,248.569 -68.807,98.865 -53.308,-0.494L-42.332,-3.923Z" style="fill:rgb(121,123,135);fill-rule:nonzero;"/>
        </g>
        <g transform="matrix(0.969655,0.244477,0.244477,-0.969655,1347.83,4461.48)">
            <path d="M44.864,-14.897C40.935,80.851 163.694,256.823 76.347,338.225C66.116,347.76 49.36,343.635 44.864,330.392C9.15,225.209 18.56,56.021 27.691,-15.393L44.864,-14.897Z" style="fill:rgb(121,123,135);fill-rule:nonzero;"/>
        </g>
        <g transform="matrix(1,0,0,1,1226.25,4668.01)">
            <path d="M0,-20.921C-8.892,-20.909 -20.965,-14.607 -8.253,-4.923C-1.79,0 4.589,-4.245 7.104,-10.659C4.588,-13.965 2.254,-17.432 0,-20.921" style="fill:rgb(36,37,31);fill-rule:nonzero;"/>
        </g>
        <g transform="matrix(-0.513274,0.858225,0.858225,0.513274,1435.22,4561.65)">
            <path d="M11.357,-7.077C-2.349,-11.662 0.47,0.198 2.81,8.559C5.693,9.249 8.541,10.007 11.357,10.859C12.902,11.258 14.448,11.658 15.99,12.068C20.997,5.548 22.131,-3.472 11.357,-7.077" style="fill:rgb(36,37,31);fill-rule:nonzero;"/>
        </g>
        <g transform="matrix(1,0,0,1,1367.03,4655.82)">
            <path d="M0,-22.164C-9.427,0 -11.621,-1.38 -34.556,-8.371C-23.928,-11.861 -13.383,-15.619 -2.812,-19.284L0,-22.164Z" style="fill:rgb(185,124,70);fill-rule:nonzero;"/>
        </g>
        <g transform="matrix(1,0,0,1,1363.51,4651.08)">
            <path d="M0,38.417C2.359,29.456 -2.205,17.849 -6.193,7.726C-7.254,5.032 -8.176,2.718 -9.118,0L-13.195,1.414C-12.253,4.131 -11.286,6.569 -10.208,9.307C-6.462,18.815 -2.195,29.658 -4.194,37.253L0,38.417Z" style="fill:rgb(36,37,31);fill-rule:nonzero;"/>
        </g>
        <g transform="matrix(1,0,0,1,1220.14,4732.8)">
            <path d="M0,-52.474C-7.345,-42.991 -6.1,-20.54 4.211,-12.86C32.259,8.031 62.007,-50.165 34.248,-52.877C34.248,-52.877 6.22,-60.505 0,-52.474" style="fill:rgb(208,127,50);fill-rule:nonzero;"/>
        </g>
        <g transform="matrix(1,0,0,1,1466.19,4610.7)">
            <path d="M0,-0.163C2.943,-5.997 2.229,-13.221 -2.266,-17.963C-18.247,-34.824 -65.109,-5.995 -35.385,20.851C-20.094,34.661 -5.736,11.209 0,-0.163" style="fill:rgb(208,127,50);fill-rule:nonzero;"/>
        </g>
    </g>
    <g transform="matrix(4.16667,0,0,-4.16667,10029.7,22988.2)">
        <path d="M-2419.57,-522.962L-2424.6,556.809L640.381,543.191C678.601,454.556 628.388,308.43 496.721,205.188C403.566,132.144 264.613,100.662 109.579,37.315C10.603,-3.127 -90.378,-64.864 -205.136,-102.33C-500.09,-198.625 -817.069,-306.339 -1139.31,-372.193C-1290.6,-403.109 -1440,-413.518 -1580.89,-434.201C-1976.42,-492.267 -2304.86,-527.468 -2419.57,-522.962" style="fill:rgb(238,241,242);fill-rule:nonzero;"/>
    </g>
</svg>
