<?xml version="1.0" encoding="UTF-8" standalone="no"?>
<!DOCTYPE svg PUBLIC "-//W3C//DTD SVG 1.1//EN" "http://www.w3.org/Graphics/SVG/1.1/DTD/svg11.dtd">
<svg width="100%" height="100%" viewBox="0 0 32234 28375" version="1.1" xmlns="http://www.w3.org/2000/svg" xmlns:xlink="http://www.w3.org/1999/xlink" xml:space="preserve" xmlns:serif="http://www.serif.com/" style="fill-rule:evenodd;clip-rule:evenodd;stroke-linejoin:round;stroke-miterlimit:2;">
    <g transform="matrix(-11.6689,0,0,11.6689,36330.8,-26814.3)">
        <g transform="matrix(1,0,0,1,2649.73,4217.53)">
            <path d="M0,-107.512C-62.433,-103.574 -129.739,-66.133 -189.119,-33.105C-205.206,-24.162 -220.648,-15.572 -235.485,-7.897C-225.013,-24.275 -216.193,-37.812 -212.79,-41.713C-169.544,-91.357 -104.849,-152.833 -42.237,-163.757L-42.708,-166.456C-106.111,-155.394 -171.318,-93.493 -214.861,-43.516C-218.671,-39.141 -228.397,-24.114 -240.326,-5.404C-241.273,-3.921 -242.232,-2.41 -243.204,-0.878C-244.741,1.526 -246.303,3.986 -247.885,6.474C-258.737,23.546 -271.939,44.311 -281.833,58.904C-280.739,58.918 -279.645,58.929 -278.551,58.944C-278.047,58.198 -277.533,57.434 -276.997,56.634C-267.818,42.946 -256.507,25.151 -245.572,7.946C-243.148,4.136 -240.75,0.362 -238.416,-3.307C-222.261,-11.532 -205.407,-20.909 -187.788,-30.712C-128.663,-63.6 -61.639,-100.873 0.17,-104.781L0,-107.512Z" style="fill:rgb(121,123,135);fill-rule:nonzero;"/>
        </g>
        <g transform="matrix(1,0,0,1,2554.35,4163.95)">
            <path d="M0,-349.718C-51.467,-324.08 -90.227,-264.396 -124.424,-211.738C-134.446,-196.307 -143.942,-181.701 -153.473,-168.264C-149.896,-182.699 -145.684,-197.076 -141.285,-211.33C-139.987,-215.536 -138.657,-219.888 -137.287,-224.379C-113.159,-303.173 -76.705,-422.245 -7.168,-468.12L-8.681,-470.41C-79.042,-423.99 -115.667,-304.349 -139.911,-225.18C-141.281,-220.696 -142.615,-216.344 -143.913,-212.138C-157.316,-168.711 -167.378,-124.228 -176.168,-80.019C-176.389,-78.941 -176.603,-77.869 -176.81,-76.798C-178.046,-70.562 -179.249,-64.342 -180.438,-58.129C-180.737,-56.588 -181.03,-55.047 -181.322,-53.505C-184.071,-39.055 -186.718,-24.656 -189.356,-10.368C-191.274,0.031 -193.254,10.788 -195.241,21.381C-196.489,28.043 -197.563,35.288 -198.705,42.961C-202.682,69.753 -207.197,100.12 -221.19,119.059L-218.98,120.692C-204.582,101.203 -200.016,70.47 -195.982,43.36C-194.846,35.715 -193.773,28.497 -192.53,21.884C-190.551,11.291 -188.554,0.533 -186.636,-9.872C-183.77,-25.411 -181.205,-41.068 -178.195,-56.791C-177.908,-58.318 -178.62,-59.834 -177.62,-61.374L-177.62,-61.381C-175.62,-66.935 -175.169,-72.487 -174.065,-78.045C-173.852,-79.116 -173.507,-80.193 -173.293,-81.265C-167.695,-109.29 -161.494,-137.417 -154.326,-165.295L-152.94,-164.331C-142.814,-178.45 -132.764,-193.894 -122.145,-210.244C-88.138,-262.608 -49.584,-321.959 1.213,-347.263L0,-349.718Z" style="fill:rgb(121,123,135);fill-rule:nonzero;"/>
        </g>
        <g transform="matrix(1,0,0,1,2245.09,3986.93)">
            <path d="M0,6.35C-7.203,21.502 -14.254,36.318 -21.383,50.705C-14.474,-43.641 0.988,-125.921 25.448,-199.108L25.473,-199.184C49.723,-271.732 58.108,-275.242 59.556,-275.247L59.597,-277.994C56.315,-278.057 50.956,-274.193 38.646,-243.618C31.529,-225.951 25.009,-206.461 22.874,-200.055L22.842,-199.978C-2.267,-124.866 -17.908,-40.227 -24.588,57.131C-24.749,59.456 -24.902,61.795 -25.048,64.133C-26.452,86.109 -27.407,108.734 -27.912,132.035C-28.181,144.52 -27.194,160.526 -26.043,179.065C-23.925,213.223 -21.489,252.551 -26.001,284.407C-25.073,284.329 -24.145,284.249 -23.217,284.169C-18.766,252.097 -21.192,212.949 -23.305,178.894C-24.453,160.424 -25.438,144.465 -25.172,132.097C-24.614,106.551 -23.524,81.821 -21.885,57.867C-13.735,41.61 -5.722,24.781 2.48,7.527C34.342,-59.458 67.285,-128.72 116.689,-176.823L114.77,-178.789C65.022,-130.344 31.97,-60.852 0,6.35" style="fill:rgb(121,123,135);fill-rule:nonzero;"/>
        </g>
        <g transform="matrix(1,0,0,1,2631.85,4131.43)">
            <path d="M0,-228.78C0.04,-228.802 0.088,-228.276 0.128,-228.298C2.158,-229.245 4.202,-228.714 6.221,-230.714L6.228,-230.714C6.302,-231.714 6.383,-231.323 6.457,-231.361C38.92,-246.231 72.361,-260.18 105.739,-270.742C105.804,-270.736 105.867,-270.865 105.932,-270.859C187.514,-262.878 302.375,-245.98 360.822,-211.213L362.223,-213.605C304.878,-247.713 194,-264.796 112.647,-273.06C155.147,-286.006 197.428,-294.177 237.337,-295.252L237.262,-297.998C236.063,-297.967 234.891,-297.925 233.692,-297.881C192.654,-296.352 149.205,-287.468 105.67,-273.742C105.669,-273.74 105.668,-273.714 105.668,-273.714L105.657,-273.714C103.452,-273.714 101.249,-272.343 99.045,-271.622C99.059,-271.621 99.072,-271.675 99.086,-271.674C99.083,-271.673 99.082,-271.714 99.08,-271.714L99.046,-271.714C69.305,-261.714 39.578,-250.034 10.597,-236.686C10.576,-236.678 10.563,-236.652 10.542,-236.644C16.384,-243.415 22.345,-250.441 28.399,-257.583C76.08,-313.821 130.13,-377.566 181.669,-386.039L181.225,-388.744C128.69,-380.103 74.298,-315.949 26.309,-259.349C18.855,-250.549 11.532,-241.918 4.426,-233.749C-66.827,-200.223 -133.229,-159.126 -183.764,-120.767C-196.056,-111.436 -208.016,-101.714 -219.589,-92.714L-219.595,-92.714C-219.794,-92.714 -220.006,-91.777 -220.205,-91.598C-220.238,-91.569 -220.265,-91.272 -220.298,-91.244C-220.543,-91.008 -220.796,-90.652 -221.048,-90.43C-222.73,-88.974 -224.408,-87.713 -226.077,-86.278C-225.894,-86.354 -225.711,-87.022 -225.529,-87.098L-225.522,-87.714L-225.514,-87.714C-225.516,-87.714 -225.519,-87.074 -225.522,-87.071L-225.529,-86.649C-225.708,-86.478 -225.887,-85.714 -226.065,-85.714L-226.072,-85.714C-236.716,-77.714 -248.118,-67.721 -256.118,-58.273L-256.118,-58.266C-257.118,-57.187 -258.838,-56.107 -259.971,-55.022C-259.984,-55.008 -260.197,-54.993 -260.21,-54.979C-280.312,-35.751 -299.18,-15.874 -316.439,4.531C-358.39,54.141 -390.89,106.079 -412.931,158.905L-410.426,159.964C-374.86,74.706 -317.718,4.047 -261.276,-50.397C-260.13,-51.503 -258.997,-52.596 -257.857,-53.681C-257.844,-53.696 -257.834,-53.709 -257.82,-53.717C-244.428,-66.492 -231.107,-78.351 -218.146,-89.257C-218.027,-89.357 -217.895,-89.472 -217.775,-89.579C-217.768,-89.58 -217.769,-89.58 -217.762,-89.587C-217.71,-89.631 -217.659,-89.945 -217.607,-89.989C-151.884,-115.838 -89.169,-136.714 -23.018,-153.714L-23.011,-153.714C-14.632,-149.714 -5.802,-147.928 3.469,-143.305C22.472,-133.823 43.331,-118.806 65.461,-99.079C103.667,-65.027 138.634,-22.606 158.612,5.675L160.852,4.123C140.786,-24.279 105.67,-66.755 67.287,-100.965C44.979,-120.85 23.921,-135.745 4.701,-145.336C-2.858,-149.109 -10.16,-152.281 -17.151,-154.079C-17.048,-154.083 -16.95,-154.225 -16.848,-154.25C5.182,-159.475 27.621,-164.053 50.684,-168.117C127.028,-148.241 212.237,-122.472 284.915,-83.294L286.211,-85.71C215.15,-124.021 132.215,-149.531 57.222,-169.245C90.395,-174.886 124.917,-179.307 161.47,-182.426C169.049,-183.071 178.745,-184.359 189.963,-185.841C240.71,-192.548 317.405,-202.692 345.788,-174.607L347.719,-176.559C318.374,-205.589 240.88,-195.361 189.607,-188.586C178.416,-187.105 168.753,-185.695 161.236,-185.059C122.405,-181.746 85.872,-178.714 50.802,-170.714L50.795,-170.714C50.741,-170.714 50.687,-170.826 50.633,-170.811C48.525,-170.101 46.402,-170.248 44.296,-169.868C44.16,-169.842 44.03,-169.241 43.894,-169.215C21.307,-165.108 -0.68,-161.714 -22.319,-154.714L-22.325,-154.714C-22.468,-154.714 -22.604,-155.238 -22.746,-155.198C-24.622,-154.531 -26.504,-154.216 -28.381,-153.755C-28.483,-153.73 -28.579,-153.714 -28.681,-153.714L-28.688,-153.714C-90.737,-137.714 -149.878,-118.542 -211.474,-94.543C-201.378,-102.877 -191.542,-110.802 -182.108,-117.968C-133.02,-155.224 -68.924,-195.911 0,-228.78" style="fill:rgb(121,123,135);fill-rule:nonzero;"/>
        </g>
        <g transform="matrix(-0.771566,-0.636149,-0.636149,0.771566,2446.14,4038.28)">
            <path d="M-1.841,-5.128C-1.319,-4.168 -0.8,-3.203 -0.286,-2.232C-0.803,-1.26 -1.32,-0.297 -1.842,0.661C-2.36,-0.304 -2.877,-1.269 -3.396,-2.234C-2.879,-3.197 -2.358,-4.166 -1.841,-5.128" style="fill:rgb(208,127,50);fill-rule:nonzero;"/>
        </g>
        <g transform="matrix(1,0,0,1,3096.04,4143.66)">
            <path d="M0,-40.642C-75.095,-50.765 -157.093,-55.146 -237.596,-53.684C-238.603,-53.669 -239.606,-53.646 -240.61,-53.627C-241.791,-53.66 -242.971,-53.695 -244.149,-53.67C-244.073,-53.635 -243.996,-53.599 -243.92,-53.565C-243.995,-53.563 -244.07,-53.562 -244.145,-53.561C-273.766,-52.91 -303.16,-51.472 -331.893,-49.23C-244.065,-81.292 -154.9,-102.661 -67.383,-112.096L-67.676,-114.822C-158.922,-104.982 -251.246,-82.664 -342.789,-48.355C-342.823,-48.352 -342.857,-48.349 -342.891,-48.346C-346.051,-47.165 -349.212,-45.992 -352.371,-44.777C-352.302,-44.783 -352.232,-44.79 -352.163,-44.797C-352.231,-44.771 -352.3,-44.745 -352.369,-44.718C-365.399,-39.718 -378.412,-34.471 -391.403,-28.978C-415.283,-18.887 -438.944,-8.049 -462.337,3.52C-462.341,3.522 -462.344,3.524 -462.348,3.525C-440.944,-14.614 -420.35,-35.121 -398.789,-56.594C-349.453,-105.73 -298.437,-156.538 -235.041,-178.565L-235.941,-181.155C-299.929,-158.924 -351.17,-107.891 -400.725,-58.538C-425.313,-34.049 -448.643,-10.824 -473.302,9.011C-545.276,45.416 -614.701,88.723 -680.531,138.317L-678.885,140.513C-615.138,92.481 -547.794,50.394 -478.469,14.896L-477.653,15.95C-475.886,14.582 -474.128,13.194 -472.376,11.792C-429.364,-9.954 -385.607,-29.168 -341.481,-45.687C-341.347,-45.737 -341.211,-45.675 -341.077,-45.725C-307.503,-48.561 -272.972,-49.941 -238.147,-50.941L-238.14,-50.941C-222.01,-45.941 -203.306,-37.686 -183.879,-31.026C-132.681,-13.473 -74.646,6.48 -50.846,40.102L-48.606,38.495C-72.921,4.144 -131.39,-15.765 -182.984,-33.448C-200.048,-39.297 -216.561,-45.098 -231.201,-50.728C-152.889,-52.273 -73.359,-47.608 -0.36,-37.764L0,-40.642Z" style="fill:rgb(121,123,135);fill-rule:nonzero;"/>
        </g>
        <g transform="matrix(1,0,0,1,3084.35,4089.05)">
            <path d="M0,-15.08C14.147,-0.098 -23.795,9.161 -24.484,-8.613C-25.09,-24.241 -4.385,-19.724 0,-15.08" style="fill:rgb(208,127,50);fill-rule:nonzero;"/>
        </g>
        <g transform="matrix(0.978583,0.205853,0.205853,-0.978583,3043.01,4155.8)">
            <path d="M2.604,0.737C-8.022,0.578 -17.208,9.619 -14.724,18.041C-12.558,25.382 -2.903,27.377 2.604,21.888C4.711,19.787 6.78,17.664 8.653,15.707C13.987,10.136 10.326,0.854 2.604,0.737" style="fill:rgb(208,127,50);fill-rule:nonzero;"/>
        </g>
        <g transform="matrix(1,0,0,1,2979.34,4151.09)">
            <path d="M0,9.538C2.858,18.921 -10.344,24.427 -20.699,25.737C-50.741,-1.023 -7.839,-16.199 0,9.538" style="fill:rgb(208,127,50);fill-rule:nonzero;"/>
        </g>
        <g transform="matrix(1,0,0,1,2806.26,3961.48)">
            <path d="M0,21.056C-18.404,29.748 -22.321,3.272 -14.165,-0.469C3.765,-8.692 15.117,13.917 0,21.056" style="fill:rgb(208,127,50);fill-rule:nonzero;"/>
        </g>
        <g transform="matrix(1,0,0,1,3013.43,3957.37)">
            <path d="M0,-10.153C0,-10.153 11.44,14.871 -15.651,8.313C-28.678,-10.186 -9.014,-25.024 0,-10.153" style="fill:rgb(208,127,50);fill-rule:nonzero;"/>
        </g>
        <g transform="matrix(1,0,0,1,2934.32,3969.61)">
            <path d="M0,-9.664C0.038,-9.605 0.076,-9.546 0.114,-9.487C2.822,-5.294 1.474,0.302 -2.899,2.594C-5.736,4.08 -8.836,5.007 -12.304,5.263C-15.261,-1.686 -15.954,-6.361 -13.776,-9.923C-10.715,-14.927 -3.227,-14.674 0,-9.664" style="fill:rgb(208,127,50);fill-rule:nonzero;"/>
        </g>
        <g transform="matrix(1,0,0,1,3015.01,4044.21)">
            <path d="M0,-11.839C6.437,-2.237 -6.873,8.301 -14.646,-0.284C-17.866,-3.842 -18.113,-8.996 -12.102,-15.426C-7.694,-20.14 -3.417,-16.936 0,-11.839" style="fill:rgb(208,127,50);fill-rule:nonzero;"/>
        </g>
        <g transform="matrix(1,0,0,1,2534.32,3850.92)">
            <path d="M0,-31.372C19.866,-25.902 -7.768,1.696 -17.577,-13.142C-26.202,-26.188 -6.159,-33.068 0,-31.372" style="fill:rgb(208,127,50);fill-rule:nonzero;"/>
        </g>
        <g transform="matrix(0.943399,-0.33166,-0.33166,-0.943399,2558.73,3891.67)">
            <path d="M-3.676,-1.908C-14.301,-2.068 -23.488,6.974 -21.003,15.395C-18.837,22.737 -9.182,24.732 -3.676,19.243C-1.567,17.142 0.5,15.018 2.374,13.062C7.708,7.491 4.047,-1.792 -3.676,-1.908" style="fill:rgb(208,127,50);fill-rule:nonzero;"/>
        </g>
        <g transform="matrix(1,0,0,1,2550.5,3938.85)">
            <path d="M0,-6.65C7.311,-0.111 -1.12,11.445 -9.293,17.937C-48.858,10.643 -20.053,-24.587 0,-6.65" style="fill:rgb(208,127,50);fill-rule:nonzero;"/>
        </g>
        <g transform="matrix(1,0,0,1,2274.94,3749.69)">
            <path d="M0,10.407C-11.225,27.385 -28.308,6.781 -23.276,-0.647C-12.213,-16.978 9.22,-3.538 0,10.407" style="fill:rgb(208,127,50);fill-rule:nonzero;"/>
        </g>
        <g transform="matrix(1,0,0,1,2298.74,3787.74)">
            <path d="M0,23.917C0,23.917 -0.842,24.881 -2.954,27.185C-8.048,32.739 -16.939,33.013 -22.223,27.629C-40.291,9.219 6.775,-9.096 0,23.917" style="fill:rgb(208,127,50);fill-rule:nonzero;"/>
        </g>
        <g transform="matrix(1,0,0,1,2202.18,3888.9)">
            <path d="M0,-11.208C-19.302,26.461 -30.726,-37.669 -4.459,-18.972C-1.892,-17.145 -0.258,-14.308 0,-11.208" style="fill:rgb(208,127,50);fill-rule:nonzero;"/>
        </g>
        <g transform="matrix(1,0,0,1,2187.82,3821.03)">
            <path d="M0,10.973C-0.331,11.363 -0.659,11.752 -0.983,12.137C-4.595,16.436 -11.097,16.988 -15.416,13.366C-15.494,13.3 -15.573,13.234 -15.652,13.168C-22.157,7.714 -19.481,-2.771 -11.096,-4.44C-10.361,-4.586 -9.62,-4.71 -8.875,-4.811C0.016,-6.015 5.738,4.204 0,10.973" style="fill:rgb(208,127,50);fill-rule:nonzero;"/>
        </g>
        <g transform="matrix(1,0,0,1,2270.54,3670.71)">
            <path d="M0,15.759C-0.043,15.807 -0.086,15.854 -0.128,15.902C-3.923,20.102 -10.879,19.555 -13.8,14.727C-16.567,10.151 -16.228,5.147 -12.935,0.42C-9.786,-4.101 -3.073,-4.343 0.369,-0.03C0.419,0.033 0.469,0.095 0.518,0.158C4.185,4.818 3.961,11.34 0,15.759" style="fill:rgb(208,127,50);fill-rule:nonzero;"/>
        </g>
        <g transform="matrix(1,0,0,1,2333.88,3907.26)">
            <path d="M0,-4.722C4.077,-20.997 25.61,-19.995 25.233,-4.544C24.824,12.24 -5.26,16.275 0,-4.722" style="fill:rgb(208,127,50);fill-rule:nonzero;"/>
        </g>
        <g transform="matrix(0.135834,0.990732,0.990732,-0.135834,2318.75,3683.97)">
            <path d="M12.519,-3.82C3.847,-6.728 -4.161,-0.768 -3.244,6.975C-2.352,14.514 6.278,18.189 12.519,14.077C13.459,13.457 14.371,12.794 15.248,12.088C20.835,7.579 19.318,-1.539 12.519,-3.82" style="fill:rgb(208,127,50);fill-rule:nonzero;"/>
        </g>
        <g transform="matrix(1,0,0,1,2429.11,3806.88)">
            <path d="M0,-15.868C0,-15.868 22.761,-0.409 -3.801,8.038C-24.534,-1.02 -15.421,-23.906 0,-15.868" style="fill:rgb(208,127,50);fill-rule:nonzero;"/>
        </g>
        <g transform="matrix(1,0,0,1,2417.28,3745.38)">
            <path d="M0,-16.535C0.063,-16.504 0.127,-16.473 0.19,-16.443C4.68,-14.263 6.43,-8.779 3.88,-4.552C2.226,-1.81 0.057,0.591 -2.776,2.609C-8.908,-1.797 -11.926,-5.434 -11.911,-9.61C-11.891,-15.476 -5.357,-19.144 0,-16.535" style="fill:rgb(208,127,50);fill-rule:nonzero;"/>
        </g>
        <g transform="matrix(1,0,0,1,2501.37,3799.58)">
            <path d="M0,-17.678C10.484,-12.809 4.572,3.106 -6.527,-0.202C-11.126,-1.573 -14.01,-5.851 -12.207,-14.467C-10.884,-20.784 -5.565,-20.263 0,-17.678" style="fill:rgb(208,127,50);fill-rule:nonzero;"/>
        </g>
        <g transform="matrix(1,0,0,1,1578,4012.38)">
            <path d="M0,-149.14C-188.003,-137.529 -376.411,-154.047 -564.291,-151.998C-643.589,-151.133 -731.423,-146.223 -807.779,-131.368C-834.631,-126.144 -903.79,-121.93 -924.292,-104.157C-982.837,-53.404 -781.396,-42.453 -747.91,-35.205C-579.915,1.161 -425.581,4.907 -251.747,-3.875C-179.107,-7.545 -26.218,-10.107 -21.937,-101.558L0,-149.14Z" style="fill:rgb(173,165,157);fill-rule:nonzero;"/>
        </g>
        <g transform="matrix(1,0,0,1,544.724,3856.01)">
            <path d="M0,477.594C37.96,501.204 66.261,493.986 122.96,497.281L122.969,497.28C123.9,497.327 124.84,497.383 125.77,497.43L125.779,497.429C155.668,499.082 185.473,499.454 212.501,500.133C213.484,500.158 214.449,500.184 215.423,500.209C227.942,500.539 239.831,500.948 250.822,501.595C261.948,502.253 272.973,502.86 283.914,503.414C284.854,503.46 285.784,503.507 286.714,503.554C295.867,504.011 304.972,504.432 314.031,504.808C314.916,504.847 315.811,504.886 316.696,504.916C344.167,506.048 371.296,506.797 398.476,507.116C399.458,507.122 400.431,507.138 401.413,507.145C419.528,507.335 437.668,507.315 455.949,507.078C456.85,507.07 457.742,507.061 458.642,507.043C470.912,506.871 483.257,506.601 495.694,506.221C496.612,506.192 497.53,506.164 498.447,506.135C513.343,505.665 528.391,505.035 543.645,504.242C570.602,502.841 598.143,500.991 626.068,498.979C626.957,498.913 627.854,498.848 628.752,498.782C638.212,498.1 647.724,497.396 657.271,496.691C658.16,496.625 659.049,496.56 659.938,496.486C721.667,491.916 784.884,487.137 847.562,485.221C848.453,485.194 849.344,485.166 850.234,485.139C868.963,484.594 887.643,484.308 906.215,484.361C907.179,484.358 908.143,484.365 909.107,484.372C940.088,484.522 970.779,485.628 1000.9,488.078C1001.95,488.166 1002.98,488.255 1004.02,488.344C1013.36,489.133 1022.65,490.049 1031.87,491.121C1032.78,491.216 1033.7,491.33 1034.61,491.435C1049.79,493.234 1064.78,495.413 1079.58,498.05C1080.59,498.217 1081.59,498.402 1082.6,498.587C1095.19,500.873 1107.63,503.48 1119.89,506.439L1124.12,509.797C1116.22,446.578 1068.49,387.095 1057.73,321.847C1044.12,239.374 1043.28,155.525 1057.24,73.864C1062.78,41.477 1068.24,-0.25 1056.63,-32.203C1049.41,-16.281 1047.67,3.616 1037.78,17.621C1036.92,18.846 1036,20.016 1035.01,21.143C1034.89,20.74 1034.76,20.337 1034.6,19.937C1033.08,15.887 1029.85,12.011 1026.82,8.449C1026.09,7.602 1025.38,6.773 1024.72,5.97C1023.02,3.956 1021.56,2.053 1020.73,0.307C1005.49,17.444 998.991,32.376 987.426,44.185C986.493,45.128 985.524,46.063 984.518,46.981C975.991,54.683 964.577,60.909 945.851,65.345C907.766,74.374 886.07,75.35 862.062,67.626C861.146,67.331 860.238,67.026 859.311,66.703C855.259,65.306 851.114,63.657 846.796,61.75C845.883,61.36 844.969,60.941 844.037,60.514C837.879,57.714 831.338,54.41 824.182,50.614C821.022,59.446 809.865,65.982 805.42,73.263C798.025,68.614 790.276,63.851 782.072,59.796C781.166,59.348 780.25,58.901 779.327,58.473C775.496,56.684 771.558,55.062 767.517,53.693C766.653,53.396 765.783,53.117 764.912,52.848C763.28,52.344 761.632,51.887 759.961,51.479C752.294,61.867 742.496,67.247 731.642,70.304C730.727,70.561 729.803,70.809 728.868,71.029C710.194,75.596 688.759,74.188 669.836,79.977C663.133,82.028 656.812,85.268 650.648,88.965C649.514,89.643 648.39,90.339 647.266,91.044C636.849,97.579 626.765,105.029 615.933,109.731C590.427,120.799 575.508,119.243 546.265,118.175C515.618,117.057 486.565,115.694 458.455,113.245C457.559,113.168 456.662,113.09 455.766,113.004C441.521,111.737 427.512,110.172 413.669,108.218C412.761,108.094 411.863,107.97 410.954,107.826C403.402,106.735 395.907,105.526 388.431,104.174C387.503,104.003 386.584,103.832 385.656,103.662C370.142,100.776 354.749,97.295 339.369,93.043C338.455,92.795 337.55,92.538 336.635,92.281C331.71,90.891 326.789,89.425 321.854,87.864C320.984,87.595 320.113,87.317 319.242,87.039C308.89,83.714 298.518,80.02 288.098,75.89C273.608,107.706 263.648,78.683 242.161,78.164C234.12,77.972 228.26,79.248 223.025,81.042C222.113,81.356 221.229,81.678 220.354,82.018C213.187,84.76 206.726,88.225 196.559,89.734C163.704,94.609 134.677,81.609 105.603,75.148C104.709,74.947 103.825,74.755 102.932,74.573C93.399,72.595 83.842,71.398 74.131,71.856C73.439,113.61 68.523,151.816 65.523,192.948C62.154,239.028 72.759,286.17 61.69,331.927C48.11,388.041 31.676,434.676 0,477.594" style="fill:rgb(189,179,168);fill-rule:nonzero;"/>
        </g>
        <g transform="matrix(1,0,0,1,1539.51,3915.23)">
            <path d="M0,414.085C1.837,418.756 3.922,423.728 6.122,428.856C7.162,428.944 8.201,429.033 9.241,429.122C6.77,423.409 4.442,417.869 2.401,412.704C-8.833,384.252 -6.883,355.514 -4.807,325.075C-4.235,316.579 -3.633,307.795 -3.359,299.075C-1.863,252.474 -4.151,205.338 -6.369,159.758C-9.151,102.496 -12.012,43.525 -7.357,-15.037C-8.29,-14.094 -9.259,-13.159 -10.265,-12.241C-14.596,45.515 -11.775,103.526 -9.039,159.887C-6.826,205.391 -4.542,252.442 -6.028,298.871C-6.306,307.524 -6.901,316.27 -7.474,324.738C-9.481,354.279 -11.561,384.812 0,414.085" style="fill:rgb(221,214,206);fill-rule:nonzero;"/>
        </g>
        <g transform="matrix(1,0,0,1,1565.63,3937.36)">
            <path d="M0,334.705C3.879,359.297 7.825,384.351 10.961,409.771C11.876,409.866 12.792,409.98 13.708,410.085C10.547,384.352 6.549,359.006 2.63,334.14C-5.55,282.277 -14,228.639 -14.302,174.131C-14.548,130.637 -10.728,87.064 -6.457,42.536C-5.58,33.386 -5.059,22.684 -4.518,11.344C-3.203,-16.029 -1.659,-48.314 5.912,-72.901C5.19,-73.748 4.478,-74.577 3.812,-75.38C-4.252,-50.148 -5.84,-16.986 -7.19,11.083C-7.735,22.367 -8.24,33.029 -9.113,42.084C-13.396,86.718 -17.219,130.405 -16.981,174.089C-16.672,228.902 -8.197,282.691 0,334.705" style="fill:rgb(221,214,206);fill-rule:nonzero;"/>
        </g>
        <g transform="matrix(1,0,0,1,1575.47,4121.9)">
            <path d="M0,-15.576C0.92,0.065 1.786,14.842 2.509,29.599C5.997,100.6 25.747,161.243 46.652,225.45C47.374,227.677 48.104,229.913 48.835,232.158C49.843,232.324 50.852,232.51 51.861,232.695C50.949,229.879 50.038,227.082 49.127,224.284C28.306,160.339 8.64,99.94 5.179,29.469C4.456,14.694 3.589,-0.093 2.668,-15.753C-1.755,-90.873 -6.669,-174.52 7.039,-248.271C6.183,-247.047 5.262,-245.876 4.267,-244.75C4.148,-245.152 4.02,-245.555 3.857,-245.955C-9.234,-172.513 -4.373,-89.89 0,-15.576" style="fill:rgb(221,214,206);fill-rule:nonzero;"/>
        </g>
        <g transform="matrix(1,0,0,1,1428.48,3994.56)">
            <path d="M0,273.98C7.056,287.998 11.202,304.261 15.215,319.997C17.528,329.068 19.763,337.828 22.458,345.813C23.421,345.81 24.385,345.817 25.349,345.824C22.502,337.647 20.177,328.53 17.764,319.075C13.706,303.141 9.504,286.672 2.269,272.292C-15.023,237.933 -19.866,215.76 -18.483,177.395C-17.793,158.341 -14.173,138.839 -10.672,119.982C-7.115,100.798 -3.432,80.96 -2.739,61.297C-1.876,36.754 -7.274,10.89 -12.495,-14.117C-16.437,-33.006 -20.462,-52.291 -21.696,-70.922C-22.612,-71.217 -23.52,-71.521 -24.447,-71.844C-23.271,-52.602 -19.129,-32.771 -15.079,-13.364C-9.916,11.408 -4.565,37.036 -5.418,61.084C-6.1,80.452 -9.746,100.145 -13.282,119.185C-16.812,138.187 -20.452,157.832 -21.153,177.182C-22.567,216.329 -17.631,238.943 0,273.98" style="fill:rgb(221,214,206);fill-rule:nonzero;"/>
        </g>
        <g transform="matrix(1,0,0,1,1386.37,3976.03)">
            <path d="M0,307.717C2.387,326.735 4.85,346.358 5.917,365.197C5.96,365.87 5.995,366.553 6.03,367.227L8.7,367.088C8.666,366.433 8.632,365.779 8.589,365.115C7.524,346.124 5.047,326.387 2.646,307.284C-2.448,266.678 -7.711,224.691 -0.271,185.934C1.847,174.883 4.452,164.787 6.975,155.028C12.324,134.276 17.385,114.671 17.132,89.092C16.829,57.845 13.542,26.886 10.362,-3.06C8.453,-21.103 6.482,-39.648 5.151,-58.274C4.238,-58.664 3.324,-59.083 2.392,-59.51C3.717,-40.332 5.742,-21.248 7.712,-2.703C10.879,27.148 14.161,58.012 14.462,89.059C14.706,114.116 9.714,133.479 4.422,153.971C1.884,163.798 -0.735,173.943 -2.874,185.109C-10.434,224.499 -5.127,266.807 0,307.717" style="fill:rgb(221,214,206);fill-rule:nonzero;"/>
        </g>
        <g transform="matrix(1,0,0,1,1283.15,3914.48)">
            <path d="M0,425.37L2.647,424.956C0.014,403.24 3.213,382.314 6.305,362.089C8.336,348.826 10.433,335.112 10.936,321.11C11.447,306.926 11.261,292.884 11.082,279.317C10.745,255.065 10.443,232.162 13.763,208.214C16.825,186.192 24.721,164.803 32.367,144.113C38.775,126.769 45.393,108.834 48.911,90.993C52.896,70.778 49.978,50.97 47.164,31.812C45.697,21.851 44.201,11.673 43.643,1.323C42.736,0.875 41.821,0.428 40.898,0C41.393,11.02 42.973,21.803 44.531,32.33C47.426,52.016 50.157,70.616 46.307,90.158C42.854,107.7 36.572,124.705 29.929,142.698C22.213,163.573 14.238,185.166 11.125,207.59C7.758,231.844 8.069,254.899 8.404,279.304C8.581,292.824 8.773,306.809 8.266,320.896C7.769,334.661 5.692,348.259 3.682,361.417C0.542,381.911 -2.697,403.105 0,425.37" style="fill:rgb(221,214,206);fill-rule:nonzero;"/>
        </g>
        <g transform="matrix(0.998648,-0.0519895,-0.0519895,-0.998648,1258.64,4347.47)">
            <path d="M-11.446,1.867L-8.773,1.867C-8.696,117.527 19.577,260.397 77.663,438.637L75.181,439.86C16.967,261.222 -11.369,117.954 -11.446,1.867" style="fill:rgb(221,214,206);fill-rule:nonzero;"/>
        </g>
        <g transform="matrix(1,0,0,1,1193.23,3993.65)">
            <path d="M0,292.164C3.748,314.403 7.616,337.387 8.764,359.048L8.788,359.503L11.458,359.364L11.431,358.843C10.262,336.964 6.381,313.885 2.619,291.562C-4.318,250.347 -11.487,207.726 -2.486,169.307C5.842,133.758 21.911,100.386 37.448,68.107C57.789,25.835 78.753,-17.687 83.135,-67.339C82.22,-67.082 81.296,-66.834 80.361,-66.615C75.814,-18.104 55.173,24.763 35.137,66.381C19.512,98.836 3.363,132.394 -5.061,168.337C-14.246,207.527 -7.002,250.553 0,292.164" style="fill:rgb(221,214,206);fill-rule:nonzero;"/>
        </g>
        <g transform="matrix(1,0,0,1,1162.06,4018.21)">
            <path d="M0,256.575C2.178,267.707 4.438,279.216 5.996,290.77C7.21,299.802 8.176,321.035 8.735,336.78C9.624,336.714 10.522,336.649 11.42,336.583C11.334,334.219 11.236,331.617 11.12,328.826C10.589,315.734 9.727,298.435 8.631,290.3C7.059,278.632 4.795,267.057 2.596,255.869C-1.311,235.922 -5.361,215.288 -5.537,193.453C-6.325,97.042 14.784,-3.742 33.316,-73.233C33.848,-75.211 34.372,-77.17 34.897,-79.1L32.36,-80.205C31.557,-77.252 30.748,-74.232 29.934,-71.155C11.541,-1.556 -8.987,98.017 -8.207,193.42C-8.03,215.626 -3.943,236.449 0,256.575" style="fill:rgb(221,214,206);fill-rule:nonzero;"/>
        </g>
        <g transform="matrix(1,0,0,1,1000.38,4362.09)">
            <path d="M0,-394.947C0.032,-394.321 0.064,-393.704 0.105,-393.078C2.57,-348.415 11.521,-299.085 20.985,-246.889C36.576,-160.913 52.611,-72.535 40.034,0.139C40.951,0.11 41.869,0.081 42.787,0.053C55.23,-73.138 39.194,-161.535 23.593,-247.538C14.179,-299.451 5.276,-348.537 2.794,-392.838C2.747,-393.587 2.708,-394.336 2.67,-395.086L0,-394.947Z" style="fill:rgb(221,214,206);fill-rule:nonzero;"/>
        </g>
        <g transform="matrix(1,0,0,1,971.943,4234.34)">
            <path d="M0,-151.075C3.619,-137.43 7.048,-124.546 9.033,-114.555C20.41,-57.444 26.915,-12.648 30.115,30.692C32.227,59.295 32.339,94.795 28.729,128.748C29.63,128.739 30.522,128.73 31.423,128.712C35.007,94.628 34.895,59.109 32.78,30.468C29.563,-13.043 23.041,-57.99 11.638,-115.27C9.619,-125.383 6.178,-138.334 2.538,-152.035C-8.17,-192.321 -21.257,-241.56 -13.551,-270.112C-12.779,-272.978 -11.8,-275.636 -10.586,-278.049L-12.872,-279.823C-14.288,-276.991 -15.412,-273.869 -16.266,-270.504C-23.829,-240.742 -10.732,-191.475 0,-151.075" style="fill:rgb(221,214,206);fill-rule:nonzero;"/>
        </g>
        <g transform="matrix(1,0,0,1,858.755,3948.4)">
            <path d="M0,412.418C0.885,412.457 1.78,412.497 2.665,412.527C3.035,406.19 3.549,400.217 4.41,395.254C7.318,378.396 12.928,362.369 18.36,346.874C23.2,333.056 28.203,318.762 31.261,303.952C46.788,228.766 39.148,150.255 31.757,74.328C29.397,50.114 26.966,25.2 25.339,0.653C24.424,0.406 23.519,0.148 22.604,-0.109C24.242,24.818 26.71,50.092 29.097,74.656C36.464,150.28 44.078,228.478 28.674,303.088C25.665,317.648 20.701,331.815 15.899,345.527C10.421,361.167 4.756,377.34 1.792,394.505C0.891,399.709 0.37,405.891 0,412.418" style="fill:rgb(221,214,206);fill-rule:nonzero;"/>
        </g>
        <g transform="matrix(1,0,0,1,828.638,3943.19)">
            <path d="M0,416.235C0.939,416.281 1.87,416.328 2.8,416.375C8.434,394.552 18.285,372.672 27.959,351.153C31.53,343.204 36.458,274.864 39.815,266.898C65.511,205.901 54.672,199.864 45.37,135.891C38.839,90.925 32.112,44.6 37.94,0.685C37.07,0.416 36.199,0.138 35.328,-0.14C29.361,44.372 36.152,91.084 42.737,136.399C51.958,199.834 61.495,265.431 36.204,325.456C32.864,333.392 29.171,341.586 25.608,349.515C15.726,371.492 5.676,393.849 0,416.235" style="fill:rgb(221,214,206);fill-rule:nonzero;"/>
        </g>
        <g transform="matrix(1,0,0,1,961.835,4041.08)">
            <path d="M0,237.041C-1.086,266.6 -8.133,292.882 -18.636,322.046C-17.654,322.052 -16.681,322.068 -15.699,322.074C-5.345,293.118 1.586,266.851 2.67,237.254C4.175,196.38 -7.133,150.854 -18.061,106.821C-34.129,42.106 -50.738,-24.789 -28.68,-80.897C-28.341,-81.761 -27.984,-82.627 -27.627,-83.492L-30.008,-85.033C-30.509,-83.828 -31,-82.622 -31.455,-81.409C-53.421,-24.383 -36.755,42.747 -20.62,107.725C-9.751,151.476 1.48,196.73 0,237.041" style="fill:rgb(221,214,206);fill-rule:nonzero;"/>
        </g>
        <g transform="matrix(1,0,0,1,667.693,3930.73)">
            <path d="M0,422.558C0.93,422.605 1.87,422.661 2.801,422.707L2.81,422.707C15.405,379.392 25.815,340.767 25.827,292.207C25.827,241.518 14.74,191.242 4.023,142.631C-6.228,96.127 -16.804,48.185 -17.366,0.426C-18.26,0.225 -19.144,0.033 -20.037,-0.149C-19.551,48.204 -8.902,96.542 1.441,143.431C12.12,191.835 23.151,241.885 23.146,292.137C23.143,340.516 12.643,379.117 0,422.558" style="fill:rgb(221,214,206);fill-rule:nonzero;"/>
        </g>
        <g transform="matrix(1,0,0,1,757.225,3937.13)">
            <path d="M0,419.015C0.983,419.04 1.948,419.066 2.922,419.091C4.641,414.34 6.439,409.575 8.244,404.754C17.828,379.243 27.734,352.87 29.375,323.843C32.699,264.722 26.463,204.158 20.437,145.58C15.528,97.809 10.467,48.657 10.524,-0.076C9.612,0.238 8.727,0.559 7.852,0.9C7.869,49.496 12.898,98.383 17.786,145.927C23.796,204.344 30.014,264.748 26.7,323.545C25.101,351.979 15.297,378.081 5.815,403.319C3.868,408.511 1.897,413.741 0,419.015" style="fill:rgb(221,214,206);fill-rule:nonzero;"/>
        </g>
        <g transform="matrix(1,0,0,1,1778.82,3173.29)">
            <path d="M0,-72.533C26.275,-68.671 56.759,-83.518 86.331,-84.932C103.636,-20.105 11.615,12.399 -6.719,-45.657L0,-72.533Z" style="fill:rgb(80,80,86);fill-rule:nonzero;"/>
        </g>
        <g transform="matrix(1,0,0,1,1057.91,3202.75)">
            <path d="M0,539.609C5.328,572.609 11.99,604.039 20.043,634.096C29.73,645.874 39.482,657.599 49.275,669.29C8.191,542.249 2.381,410.729 -3.275,282.561C-9.263,146.874 -15.455,6.567 -62.402,-129.681L-79.421,-123.818C-33.322,9.965 -27.189,148.948 -21.258,283.355C-17.538,367.649 -13.691,454.813 0,539.609" style="fill:rgb(205,196,190);fill-rule:nonzero;"/>
        </g>
        <g transform="matrix(1,0,0,1,1768.66,3393.4)">
            <path d="M0,-271.978C-0.037,-272.972 -0.058,-273.96 -0.067,-274.946C-51.431,-292.764 -96.246,-341.198 -124.072,-387.014C-186.452,-489.734 -233.402,-603.364 -285.522,-709.304C-348.012,-836.324 -535.802,-889.074 -535.802,-889.074C-672.392,-833.474 -851.092,-703.294 -837.582,-536.324C-829.542,-436.994 -770.312,-351.764 -784.412,-246.884C-792.972,-183.224 -806.552,-118.144 -824.562,-56.084C-844.172,11.486 -893.412,70.576 -905.692,140.276C-925.732,253.986 -894.612,423.036 -838.482,521.936C-802.752,584.886 -785.932,617.096 -724.222,594.676C-640.672,564.326 -500.442,496.666 -449.342,422.806C-514.922,399.246 -547.332,200.946 -556.322,139.116C-565.772,74.186 -563.192,6.226 -569.212,-59.934C-573.042,-102.004 -608.692,-170.184 -596.242,-210.434C-585.062,-246.604 -553.562,-245.014 -517.472,-235.184C-482.782,-225.744 -443.862,-208.704 -414.702,-210.294C-346.132,-214.044 -96.582,-259.134 -43.692,-260.354C-28.063,-260.714 -13.021,-261.901 1.01,-264.463C0.673,-266.968 0.337,-269.473 0,-271.978" style="fill:rgb(208,127,50);fill-rule:nonzero;"/>
        </g>
        <g transform="matrix(1,0,0,1,1051.52,4442.47)">
            <path d="M0,-275.94C-46.9,-190.87 -103.66,-121.54 -164.06,-46.8C-249.91,59.43 -342.76,140.58 -451.37,196.06C-521.66,231.97 -598.54,257.13 -684.39,271.37C-685.76,204.7 -645.475,123.44 -613.295,62.47C-591.485,21.12 -568.52,-19.55 -543.52,-58.9L-543.52,-58.91C-495.52,-134.02 -440.575,-204.29 -373.035,-265.1C-282.175,-346.89 -178.153,-499.75 -87.483,-547.31L60.369,-493.56C82.759,-465.82 24.81,-320.96 0,-275.94" style="fill:rgb(208,127,50);fill-rule:nonzero;"/>
        </g>
        <g transform="matrix(1,0,0,1,600.15,4458.88)">
            <path d="M0,179.65C-70.29,215.56 -147.17,240.72 -233.02,254.96C-234.39,188.29 -193.98,107.03 -161.8,46.06C-139.99,4.71 -116.94,-35.96 -91.9,-75.31L-113.09,-32.92C-118.5,-7.65 -125.22,15.11 -125.52,40.11C-118.5,35.69 -94.35,32.87 -87.23,28.44C-89.53,42.08 -82.97,60.23 -85.2,73.89C-78.33,70.12 -67.96,67.81 -60.36,63.5C-61.36,74.56 -56.85,89.27 -58.35,100.42C-51.56,98.45 -40.99,97.32 -33.83,95.41C-36.01,108.76 -28.84,127.32 -31.47,140.74C-23.2,138.31 -15.43,139.4 -6.95,135.73C-5.65,153.02 -2.52,167.16 0,179.65" style="fill:white;fill-rule:nonzero;"/>
        </g>
        <g transform="matrix(-0.530197,-0.847874,-0.847874,0.530197,1347.73,3065.88)">
            <path d="M30.038,-67.798C42.035,-50.382 47.037,-30.829 30.671,-12.607L30.038,-14.801C5.135,18.028 -30.489,-3.557 -39.991,-34.697C-52.978,-77.261 4.794,-104.445 30.038,-67.798" style="fill:rgb(226,143,117);fill-rule:nonzero;"/>
        </g>
        <g transform="matrix(1,0,0,1,1380.68,2954.47)">
            <path d="M0,-6.687L0,-12.558C-0.112,-12.413 -0.225,-12.267 -0.337,-12.122C-0.291,-2.625 0.805,9.763 0.992,19.15C1.403,19.034 18.064,19.071 19.009,19.15C24.746,6.024 25.371,-5.736 25.837,-19.086C6.702,-25.837 9.051,-15.159 0,-6.687" style="fill:rgb(80,80,86);fill-rule:nonzero;"/>
        </g>
        <g transform="matrix(1,0,0,1,1362.1,2852.73)">
            <path d="M0,22.292L-2.249,20.308C10.112,6.299 20.875,0 29.747,1.585C36.972,2.876 42.879,9.326 47.307,20.758L44.509,21.842C40.486,11.454 35.342,5.632 29.219,4.538C21.451,3.151 11.621,9.123 0,22.292" style="fill:rgb(80,80,86);fill-rule:nonzero;"/>
        </g>
        <g transform="matrix(1,0,0,1,1044.73,2773.76)">
            <path d="M0,-94.735C-68.598,-108.053 -132.519,-144.147 -197.959,-168.632C-266.337,-194.217 -342.958,-192.904 -408.472,-228.446C-403.176,-144.643 -351.838,-32.191 -301.828,32.711C-248.085,102.456 -179.932,105.226 -107.504,133.711L0,-94.735Z" style="fill:rgb(208,127,50);fill-rule:nonzero;"/>
        </g>
        <g transform="matrix(1,0,0,1,1212.71,2446.22)">
            <path d="M0,91.71C-49.749,-7.024 -247.368,-97.263 -355.282,-134.38C-345.673,7.692 -298.927,136.195 -188.132,226.09L0,91.71Z" style="fill:rgb(208,127,50);fill-rule:nonzero;"/>
        </g>
        <g transform="matrix(1,0,0,1,977.541,2826)">
            <path d="M0,-99.942C-72.916,-111.51 -142.358,-161.256 -220.555,-145.804C-278.452,-41.223 -83.08,39.119 -20.157,61.314L0,-99.942Z" style="fill:rgb(226,143,117);fill-rule:nonzero;"/>
        </g>
        <g transform="matrix(1,0,0,1,1274.62,3972.28)">
            <path d="M0,40.965C-9.09,69.465 -17.36,97.955 -10.67,130.155C-17.99,130.165 -26.36,130.315 -33.87,129.995C-53.22,108.805 -56.44,81.325 -56.52,52.745C-56.57,34.445 -55.33,15.675 -56.21,-2.195C-93.58,-4.205 -158.04,9.535 -182.86,-16.655L-190.84,-54.395C-151.3,-46.975 -69.4,-82.46 -16.69,-88.6C-11.31,-89.23 -6.23,-89.285 -1.53,-89.285L-1.5,-89.285C0.43,-89.285 2.3,-89.35 4.1,-89.19C27.22,-38.89 12.79,0.945 0,40.965" style="fill:rgb(208,127,50);fill-rule:nonzero;"/>
        </g>
        <g transform="matrix(1,0,0,1,1378.61,3894.73)">
            <path d="M0,34.78C-11.18,63.55 -20.97,93.01 -19.43,127.4C-47.18,99.69 -34.93,65.99 -38.05,34.79C-38.88,26.45 -40.81,18.28 -44.9,10.45C-63.4,-24.98 -82.02,-15.51 -105.49,-12.12C-110.33,-11.41 -115.38,-10.97 -120.68,-11.24C-124.43,-11.42 -128.3,-11.96 -132.31,-13.01L-78.56,-86.91C-41.86,-87.18 -7.01,-89.45 27.93,-92.62C33.76,-43.9 15.54,-5.23 0,34.78" style="fill:rgb(208,127,50);fill-rule:nonzero;"/>
        </g>
        <g transform="matrix(-0.622051,-0.782977,-0.782977,0.622051,1834.2,3488.12)">
            <path d="M-1.678,545.82L83.125,545.82L230.657,-40.493L105.573,93.748L-1.678,545.82Z" style="fill:rgb(121,123,135);fill-rule:nonzero;"/>
        </g>
        <g transform="matrix(1,0,0,1,1677.01,3203.79)">
            <path d="M0,275.367C35.364,228.724 33.781,188.613 12.648,135.355C-7.729,84.01 -64.414,18.906 -77.068,0C-78.091,12.449 -99.262,61.23 -99.262,61.23C-99.262,61.23 -20.992,270.064 -11.661,270.314L0,275.367Z" style="fill:white;fill-rule:nonzero;"/>
        </g>
        <g transform="matrix(1,0,0,1,1666.27,3212.74)">
            <path d="M0,266.22C23.678,212.424 18.071,186.13 -3.228,132.907C-21.243,87.885 -99.496,15.104 -114.103,-2.849C-124.71,16.039 -153.262,58.138 -153.262,58.138C-153.262,58.138 -25.575,269.069 -16.358,268.534L0,266.22Z" style="fill:rgb(244,245,243);fill-rule:nonzero;"/>
        </g>
        <g transform="matrix(0.785607,-0.618725,-0.618725,-0.785607,1706.39,3362.8)">
            <path d="M-123.583,-44.237C-91.589,-27.625 -83.133,23.286 -76.339,57.147C-61.2,132.662 -92.576,284.801 -123.583,353.439L-173.302,322.719L-123.583,-44.237Z" style="fill:white;fill-rule:nonzero;"/>
        </g>
        <g transform="matrix(0.769604,-0.638521,-0.638521,-0.769604,1705.2,3356.4)">
            <path d="M-130.855,-51.125C-102.311,-34.637 -96.933,14.701 -90.852,49.831C-77.276,128.174 -103.25,281.3 -130.855,353.663L-177.794,337.05L-130.855,-51.125Z" style="fill:rgb(244,245,243);fill-rule:nonzero;"/>
        </g>
        <g transform="matrix(-0.761296,-0.648405,-0.648405,0.761296,1558.56,3258.07)">
            <path d="M-203.797,546.349L173.373,546.349L201.096,74.994L-183.972,84.343L-203.797,546.349Z" style="fill:rgb(121,123,135);fill-rule:nonzero;"/>
        </g>
        <g transform="matrix(0.903933,0.427675,0.427675,-0.903933,1297.24,3712.3)">
            <path d="M88.486,-58.137L149.907,-58.137C149.907,-58.137 252.951,365.574 253.376,394.815C253.524,405.111 196.688,393.589 196.688,393.589L88.486,-58.137Z" style="fill:rgb(107,106,114);fill-rule:nonzero;"/>
        </g>
        <g transform="matrix(0.532551,-0.846398,-0.846398,-0.532551,1650.29,3538.7)">
            <path d="M-34.492,4.034C-25.87,3.202 -17.247,2.369 -8.625,1.537C-2.425,19.417 8.961,82.27 -34.492,54.01C-52.225,42.478 -55.633,19.299 -47.865,2.837C-43.476,3.462 -39.021,3.871 -34.492,4.034" style="fill:rgb(208,127,50);fill-rule:nonzero;"/>
        </g>
        <g transform="matrix(1,0,0,1,1213.61,3370.1)">
            <path d="M0,-36.539C-4.602,-43.424 -8.835,-51.313 -10.008,-61.477L-46.564,-53.354C-117.86,-44.496 -193.862,-73.913 -268.804,-53.34C-228.663,-4.187 -190.118,22.142 -122.927,27.881C-92.233,30.502 -28.295,37.374 0.385,14.513C0.743,-2.528 0.865,-19.573 0,-36.539" style="fill:rgb(80,80,86);fill-rule:nonzero;"/>
        </g>
        <g transform="matrix(1,0,0,1,1198.92,3316.84)">
            <path d="M0,-113.206C-32.436,-115.751 -55.607,-142.721 -90.927,-146.354C-138.351,-151.231 -202.352,-133.58 -243.09,-150.376L-243.724,-151.432C-247.154,-149.688 -250.837,-148.469 -254.626,-147.909C-255.392,-89.097 -273.985,-31.377 -275.86,26.874C-238.682,5.377 -195.045,19.217 -155.988,26.697C-95.783,38.226 -44.243,28.182 12.359,7.222C5.636,-32.473 2.171,-70.393 0,-113.206" style="fill:rgb(107,106,114);fill-rule:nonzero;"/>
        </g>
        <g transform="matrix(1,0,0,1,1000.51,3580.23)">
            <path d="M0,-263.479C23.956,-241.039 -8.666,-143.389 -12.171,-108.923C-15.729,-73.937 -23.138,-34.849 -21.017,0C-50.107,-18.67 -83.764,-21.379 -117.082,-32.668C-123.945,-70.967 -86.248,-120.771 -73.913,-156.84C-63.361,-187.698 -56.264,-219.981 -48.741,-251.294L0,-263.479Z" style="fill:rgb(107,106,114);fill-rule:nonzero;"/>
        </g>
        <g transform="matrix(1,0,0,1,871.452,3531.45)">
            <path d="M0,94.455L-9.958,93.539C-8.408,76.687 -2.743,59.997 2.735,43.856C7.891,28.665 12.761,14.315 14.425,0L24.358,1.154C22.571,16.524 17.301,32.054 12.204,47.07C6.913,62.661 1.442,78.781 0,94.455" style="fill:rgb(107,106,114);fill-rule:nonzero;"/>
        </g>
        <g transform="matrix(1,0,0,1,899.823,3523.65)">
            <path d="M0,106.76L-9.836,104.955C-8.052,95.23 -5.821,85.362 -3.663,75.818C1.884,51.286 7.62,25.92 6.335,0.504L16.323,0C17.676,26.786 11.787,52.833 6.091,78.023C3.956,87.469 1.747,97.236 0,106.76" style="fill:rgb(107,106,114);fill-rule:nonzero;"/>
        </g>
        <g transform="matrix(1,0,0,1,928.315,3535.26)">
            <path d="M0,119.089L-9.956,118.15C-8.646,104.278 -5.928,90.521 -3.299,77.216C1.779,51.51 6.577,27.229 2.277,1.658L12.138,0C16.741,27.373 11.541,53.697 6.511,79.154C3.931,92.216 1.263,105.722 0,119.089" style="fill:rgb(107,106,114);fill-rule:nonzero;"/>
        </g>
        <g transform="matrix(1,0,0,1,956.767,3551.26)">
            <path d="M0,106.849L-9.994,106.501C-9.579,94.554 -8.077,82.373 -6.623,70.594C-3.825,47.912 -0.932,24.458 -5.82,2.139L3.949,0C9.203,23.988 6.203,48.303 3.301,71.818C1.875,83.382 0.399,95.341 0,106.849" style="fill:rgb(107,106,114);fill-rule:nonzero;"/>
        </g>
        <g transform="matrix(1,0,0,1,1410.06,3484.78)">
            <path d="M0,37.81C-121.07,88.36 -347.43,90.39 -396.95,59.66C-388.59,32.37 -380.07,5.14 -372.87,-22.46C-315.64,21.25 -222.76,26.88 -154.68,27.19C-109.08,27.39 -57.93,34.99 -16.59,15.41C-13.2,13.8 -9.96,11.99 -6.86,10.01C23.45,-9.29 41.58,-44.05 75.95,-52.58C83.02,-13.14 50.77,16.6 0,37.81" style="fill:rgb(208,127,50);fill-rule:nonzero;"/>
        </g>
    </g>
</svg>
