<?xml version="1.0" encoding="UTF-8" standalone="no"?>
<!DOCTYPE svg PUBLIC "-//W3C//DTD SVG 1.1//EN" "http://www.w3.org/Graphics/SVG/1.1/DTD/svg11.dtd">
<svg width="100%" height="100%" viewBox="0 0 20834 20834" version="1.1" xmlns="http://www.w3.org/2000/svg" xmlns:xlink="http://www.w3.org/1999/xlink" xml:space="preserve" xmlns:serif="http://www.serif.com/" style="fill-rule:evenodd;clip-rule:evenodd;stroke-linejoin:round;stroke-miterlimit:2;">
    <g transform="matrix(5.10578,0,0,5.10578,-1394.87,-5654.58)">
        <g>
            <g transform="matrix(3.0502,0,0,3.0502,-5154.02,-5645.74)">
                <path d="M2979.76,2811.21C2960.3,2769.92 2942.82,2727.62 2924.02,2685.96C2912.58,2665.33 2902.22,2644.87 2894.04,2623.47C2893.31,2622.06 2892.59,2620.64 2891.86,2619.24C2890.1,2615.88 2889.14,2612.38 2888.87,2608.9C2884.43,2595.28 2880.91,2581.21 2878.61,2566.4C2874.07,2537.14 2883.76,2507.9 2880.4,2479.56C2868.92,2383.05 2706.2,2328.14 2628.98,2283C2579.13,2253.87 2333.94,2233.26 2289.88,2265.53C2246,2297.65 2137.88,2325.5 2119.5,2378.01L2169.82,2355.9C2037.58,2475.47 1993.51,2715.92 2033.54,2896.69C2033.78,2896.71 2034.02,2896.72 2034.26,2896.74C2048.96,2977.43 2096.09,3039.23 2159.12,3072.24C2156.94,3043.18 2168.24,3028.19 2191.8,3022.74C2235.08,3032.01 2278.76,3058.75 2327.39,3049.99C2328.21,3041.32 2329.58,3031.64 2329.6,3023C2342,3024.78 2358.65,3018.82 2371.02,3020.79C2391.68,3001.56 2377.94,3003.47 2406.56,2991.56C2376.42,2956.95 2329.44,2922.57 2295.84,2882.47C2311.1,2880.74 2326.35,2879.05 2341.62,2877.47C2384.22,2873.07 2427.04,2870.5 2469.75,2867.46C2546.7,2861.98 2623.69,2857.01 2700.72,2852.69C2703.03,2896.1 2728.25,2958.02 2757.35,2984.26C2762.77,2974.95 2769.33,2966.77 2773.4,2956.73C2778.73,2962.18 2795.02,2969.85 2801,2977.2C2843.74,2941.47 2942.8,2966.74 2992.05,2976.96C2987.85,2970.07 2985.08,2957.75 2981.11,2949.65C2985.82,2951.17 3002.08,2960.03 3006.15,2962.6C3006.99,2958.38 3007.81,2954.17 3008.62,2949.95C3015.69,2952.83 3034.14,2955.98 3042.77,2955.23C3051.27,2907.99 3027.16,2834.64 2979.76,2811.21Z" style="fill:rgb(44,0,15);fill-rule:nonzero;"/>
            </g>
            <g transform="matrix(3.0502,0,0,3.0502,-5154.02,-5645.74)">
                <path d="M2637.57,3490.02C2628.95,3463.62 2622.45,3429.95 2607.35,3401.9C2603.53,3394.83 2599.19,3388.16 2594.43,3381.79C2576.9,3358.4 2553.73,3339.21 2530.92,3319.83C2516.16,3316.48 2356.2,3318.99 2299.39,3314.16C2299.23,3327.14 2299.5,3339.47 2298.46,3349.36C2297.59,3357.77 2296.29,3372.94 2293.75,3390.56C2287.04,3437.21 2271.64,3501.03 2232.32,3502C2242.56,3465.94 2239.51,3429.16 2232.27,3392.24C2225,3355.19 2213.49,3318 2206.88,3281.22C2191.92,3253.11 2185.05,3220.03 2189.84,3193.28C2195.1,3193.04 2200.29,3192.84 2205.44,3192.64C2206.19,3188.99 2207.06,3185.35 2208.1,3181.7L2232.88,3191.95C2306.63,3190.93 2371.13,3197.65 2443.27,3224.04C2502.01,3245.53 2551.72,3251.14 2587.45,3270L2626.16,3274.01C2636.01,3292.14 2647.02,3329.09 2652.89,3367.89C2660.38,3417.23 2659.57,3469.57 2637.57,3490.02Z" style="fill:rgb(44,0,15);fill-rule:nonzero;"/>
            </g>
            <g transform="matrix(3.0502,0,0,3.0502,-5154.02,-5645.74)">
                <path d="M2293.75,3390.56C2287.04,3437.21 2271.64,3501.03 2232.32,3502C2242.56,3465.94 2239.51,3429.16 2232.27,3392.24C2247.24,3391.8 2262.31,3390.64 2275.22,3390.64C2281.39,3390.64 2287.57,3390.61 2293.75,3390.56Z" style="fill:rgb(147,86,48);fill-rule:nonzero;"/>
            </g>
            <g transform="matrix(3.0502,0,0,3.0502,-5154.02,-5645.74)">
                <path d="M2637.57,3490.02C2628.95,3463.62 2622.45,3429.95 2607.35,3401.9C2603.53,3394.83 2599.19,3388.16 2594.43,3381.79C2605.73,3378.28 2616.55,3374.81 2624.98,3373.36C2628.61,3372.74 2640.54,3370.03 2652.89,3367.89C2660.38,3417.23 2659.57,3469.57 2637.57,3490.02Z" style="fill:rgb(147,86,48);fill-rule:nonzero;"/>
            </g>
            <g transform="matrix(3.0502,0,0,3.0502,-5154.02,-5645.74)">
                <path d="M2625.16,3286.45C2522.86,3250.54 2416.55,3221.75 2311.41,3191.57C2302.38,3188.98 2293.05,3186.95 2283.57,3185.18C2275.3,3190.54 2262.74,3195.04 2252.66,3194.17C2227.37,3191.98 2202.62,3188.74 2178.82,3182.7L2160.47,3206.42C2157.56,3214.96 2148.42,3233.69 2162.44,3237.46C2175.28,3240.92 2188.84,3220.83 2192.38,3213.45C2190.82,3219.33 2182.67,3242.51 2191.32,3246.48C2201.21,3251.02 2218.32,3232.77 2223.17,3224.04C2218.93,3234.01 2213.07,3254.54 2224.83,3258.87C2232.32,3261.62 2248.58,3253.04 2256.72,3244.76C2254.63,3251.82 2253.69,3260.08 2258.25,3262.74C2270.97,3270.15 2290.9,3248.59 2298.53,3242.74C2297.65,3249.73 2293.37,3271.02 2301.24,3275.55C2310.27,3280.75 2331.73,3257.91 2336.99,3252.12C2337.73,3258.78 2331.32,3276.05 2340.86,3280.37C2353.37,3286.04 2369.71,3271.78 2376.44,3265.97C2376.94,3272.62 2372.64,3289.78 2380.31,3294.04C2393.21,3301.22 2411.5,3279.22 2412.37,3270.86C2413.18,3277.19 2404.4,3294.38 2413.6,3298.56C2424.09,3303.34 2443.41,3280.99 2450.66,3275.25C2450.38,3280.48 2446.79,3298.48 2453.66,3301.79C2462.32,3305.97 2482.6,3285.99 2488.85,3282.2C2489.25,3289.32 2484.45,3306.36 2493.07,3309.58C2502.96,3313.28 2520.89,3295.26 2527.33,3290.08C2528.19,3296.55 2521.66,3311.97 2528.62,3315.41C2538.93,3320.5 2562.94,3300.17 2566.22,3292.97C2566.04,3299.49 2561.97,3317.73 2569.31,3321.36C2584.08,3328.65 2591.44,3305.37 2594.76,3298.58C2594.53,3306.78 2589.28,3324.84 2599.59,3329.47C2612.11,3335.1 2625.76,3313.08 2628.31,3305.43C2627.87,3309.01 2622.06,3331.55 2627.47,3334.76C2638.66,3341.39 2648.44,3317.03 2650.08,3311.28C2649.79,3318.66 2645.37,3336.62 2652.61,3342.04C2663.85,3350.44 2672.85,3337.51 2676.19,3329.45C2688.49,3299.74 2655.02,3296.93 2625.16,3286.45Z" style="fill:rgb(121,140,185);fill-rule:nonzero;"/>
            </g>
            <g transform="matrix(3.0502,0,0,3.0502,-5154.02,-5645.74)">
                <path d="M2398.12,2962.9C2354.59,2960.43 2255.44,3043.28 2228.97,3080.6C2201.99,3118.61 2167.4,3168.2 2159.58,3208.92C2187.6,3213.55 2238.33,3225.98 2264.97,3236.08C2301.46,3249.91 2339.32,3258.39 2377.37,3264.51C2444.41,3275.3 2509.42,3286.34 2575.2,3302.63C2621.53,3314.11 2677.3,3314.45 2677.3,3314.45C2677.3,3314.45 2685.36,3202.48 2667.96,3157.68C2651.17,3114.47 2636.8,3040.42 2689.99,3009.41C2691.25,3012.6 2691.51,3015.89 2690.76,3019.26L2398.12,2962.9Z" style="fill:rgb(114,176,177);fill-rule:nonzero;"/>
            </g>
            <g transform="matrix(3.0502,0,0,3.0502,-5154.02,-5645.74)">
                <path d="M2578.33,2653.13C2712.02,2685.35 2776.87,2848.76 2780.14,2966.36C2783.47,3086.09 2681.5,3191.99 2554.59,3205.5C2422.54,3219.56 2287.9,3194.3 2156.6,3188.46C2006.45,3181.79 1942.17,3076.23 1968.76,2928.86C1989,2816.66 2047.62,2690.32 2180.31,2711.83C2273.28,2726.91 2352.11,2767.82 2447.51,2726.68C2487.55,2709.41 2517.87,2681.21 2554.59,2658.76L2578.33,2653.13Z" style="fill:rgb(211,115,103);fill-rule:nonzero;"/>
            </g>
            <g transform="matrix(3.0502,0,0,3.0502,-5154.02,-5645.74)">
                <path d="M2625.7,2792.35C2580.95,2776.8 2624.31,2715.85 2618.73,2686.8C2613.24,2658.22 2619.61,2619.23 2619.13,2590.19C2618.66,2561.64 2619.06,2533.08 2618.45,2504.54C2618.22,2493.88 2617.83,2482.97 2617.18,2472.2C2616.96,2472.21 2616.74,2472.24 2616.52,2472.25C2607.51,2472.65 2599.78,2464.27 2599.8,2455.53C2599.88,2425.81 2603.04,2396.25 2605.09,2366.63C2605.1,2362.05 2604.93,2357.48 2604.46,2352.95C2604.16,2349.99 2604.9,2347.27 2606.32,2344.91C2606.36,2343.88 2606.39,2342.85 2606.43,2341.82C2598.63,2335.61 2590.34,2329.91 2581.5,2324.84C2459.55,2254.8 2285.99,2279.39 2191.08,2391.18C2114.16,2481.78 2163.43,2578.15 2164.95,2677.65C2165.88,2738.39 2162.35,2765.63 2212.04,2809.91C2250.36,2844.06 2288.53,2862.22 2336.5,2870.28C2462.84,2891.51 2538.84,2816.79 2651.65,2783.89C2653.98,2783.21 2654.24,2780.02 2652.05,2778.97C2653.29,2778.65 2654.5,2778.29 2655.7,2777.91C2653.85,2772.6 2631.01,2794.2 2625.7,2792.35Z" style="fill:rgb(245,211,210);fill-rule:nonzero;"/>
            </g>
            <g transform="matrix(3.0502,0,0,3.0502,-5154.02,-5645.74)">
                <path d="M2539.91,2666.2C2539.65,2665.7 2539.41,2665.19 2539.23,2664.64C2538.44,2663.13 2538.07,2661.5 2538.14,2659.74C2538.14,2659.33 2538.17,2658.93 2538.22,2658.52C2501.38,2645.11 2451.42,2665.14 2484.01,2708.06C2515.91,2750.06 2567.79,2713.16 2538.94,2666.54L2539.91,2666.2Z" style="fill:rgb(248,162,144);fill-rule:nonzero;"/>
            </g>
            <g transform="matrix(3.0502,0,0,3.0502,-5154.02,-5645.74)">
                <path d="M2318.91,2723.66C2325.8,2736.3 2337.09,2742.66 2350.68,2741.56C2367.54,2740.19 2383.93,2727.37 2389.65,2711.07L2382.68,2708.62C2377.96,2722.08 2363.94,2733.07 2350.09,2734.19C2342.65,2734.8 2332.33,2732.84 2325.4,2720.13L2318.91,2723.66Z" style="fill:rgb(225,129,112);fill-rule:nonzero;"/>
            </g>
            <g transform="matrix(3.0502,0,0,3.0502,-5154.02,-5645.74)">
                <path d="M2455.28,2635.5C2464.05,2639.77 2473.55,2640.33 2482.72,2637.09C2494.12,2633.08 2504.05,2623.57 2509.97,2610.98L2503.29,2607.83C2498.2,2618.64 2489.81,2626.77 2480.27,2630.13C2473,2632.69 2465.47,2632.25 2458.51,2628.86L2455.28,2635.5Z" style="fill:rgb(44,0,15);fill-rule:nonzero;"/>
            </g>
            <g transform="matrix(3.0502,0,0,3.0502,-5154.02,-5645.74)">
                <path d="M2171.53,2650.56C2176.16,2659.43 2183.01,2665.34 2191.91,2668.11C2204.05,2671.9 2219.93,2669.36 2235.48,2661.15L2232.03,2654.61C2218.21,2661.92 2204.38,2664.26 2194.11,2661.06C2187.16,2658.89 2181.77,2654.21 2178.08,2647.15L2171.53,2650.56Z" style="fill:rgb(44,0,15);fill-rule:nonzero;"/>
            </g>
            <g transform="matrix(3.0502,0,0,3.0502,-5154.02,-5645.74)">
                <path d="M2260.65,2715.01C2274.24,2738.6 2231.1,2775.13 2204.45,2747.85C2172.92,2715.59 2233.21,2671.17 2253.75,2704.56L2260.65,2715.01Z" style="fill:rgb(248,162,144);fill-rule:nonzero;"/>
            </g>
            <g transform="matrix(3.0502,0,0,3.0502,-5154.02,-5645.74)">
                <path d="M2290.28,2876.87C2283.93,2875 2277.58,2873.17 2271.24,2871.34C2220.91,2856.83 2168.85,2841.82 2122.17,2808.47C2088.36,2784.33 2065.92,2760.56 2049.4,2731.44C2048.76,2730.75 2048.76,2729.82 2048.76,2728.99C2048.76,2728.27 2048.76,2727.6 2048.39,2727.22L2048.29,2727.09C2032.15,2695.76 2031.98,2659.72 2031.83,2624.86C2031.8,2620.41 2031.78,2615.97 2031.73,2611.59L2032.78,2611.57C2032.83,2615.96 2032.85,2620.4 2032.88,2624.86C2033.03,2659.56 2033.2,2695.45 2049.19,2726.54C2049.82,2727.22 2049.82,2728.16 2049.82,2728.99C2049.82,2729.7 2049.82,2730.37 2050.2,2730.75L2050.28,2730.86C2066.72,2759.88 2089.08,2783.55 2122.78,2807.62C2169.32,2840.86 2218.97,2855.18 2271.53,2870.34C2277.88,2872.16 2284.22,2873.99 2290.58,2875.86L2290.28,2876.87Z" style="fill-rule:nonzero;"/>
            </g>
            <g transform="matrix(3.0502,0,0,3.0502,-5154.02,-5645.74)">
                <path d="M2713.4,2725.18C2700.12,2729.33 2674.16,2728.82 2660.8,2732.8C2622.3,2744.3 2583.5,2755.16 2544.39,2765.09C2510.31,2773.74 2477.17,2785.07 2443.57,2794.92C2402.83,2806.87 2360.96,2818.14 2318.52,2824.42C2304.13,2826.55 2264.18,2832.54 2249.71,2833.3C2255.62,2875.91 2267.67,2916.9 2287.32,2953.9C2426.38,2939.66 2598.58,2932.66 2733.41,2905.15C2730.39,2863.92 2735.62,2809.84 2720.39,2770.34C2709.83,2742.95 2717.06,2734.43 2713.4,2725.18Z" style="fill:rgb(243,182,4);fill-rule:nonzero;"/>
            </g>
            <g transform="matrix(3.0502,0,0,3.0502,-5154.02,-5645.74)">
                <path d="M2967.2,2704.53C2860.14,2718 2752.47,2774.84 2651.5,2802.94L2673.36,2810.35C2753.68,2843.74 2883.12,2819.25 2980.28,2799.59C2975.79,2767.96 2971.14,2736.28 2967.2,2704.53Z" style="fill:rgb(243,182,4);fill-rule:nonzero;"/>
            </g>
            <g transform="matrix(3.0502,0,0,3.0502,-5154.02,-5645.74)">
                <path d="M2970.6,2873.88C2874.64,2858.01 2771.26,2833.73 2683.7,2852.35L2634.12,2869.81C2704.16,2901.33 2827.13,2948.1 2912.38,2960.14C2929.22,2929.89 2949.33,2901.44 2970.6,2873.88Z" style="fill:rgb(243,182,4);fill-rule:nonzero;"/>
            </g>
            <g transform="matrix(3.0502,0,0,3.0502,-5154.02,-5645.74)">
                <path d="M2386.16,2940.48C2382.45,2917.68 2376.71,2894.8 2376.41,2871.91C2376.14,2851.15 2383.81,2830.76 2390.04,2810.35C2386.85,2810.76 2383.66,2811.16 2380.48,2811.55C2367.24,2813.87 2353.96,2815.93 2340.63,2817.72C2341.41,2858.28 2327.71,2902.45 2334.43,2941.98C2334.76,2943.92 2335.1,2945.72 2335.45,2947.41C2352.35,2945.05 2369.25,2942.74 2386.16,2940.48Z" style="fill:rgb(114,176,177);fill-rule:nonzero;"/>
            </g>
            <g transform="matrix(3.0502,0,0,3.0502,-5154.02,-5645.74)">
                <path d="M2489.05,2927.05C2490.82,2900.57 2488.45,2873.86 2489.61,2847.59C2490.53,2826.85 2493.75,2806.05 2497.3,2785.28C2477.76,2790.47 2458.13,2795.37 2438.4,2799.84C2431.23,2845.46 2425.28,2901.47 2438.43,2933.59C2455.3,2931.4 2472.18,2929.22 2489.05,2927.05Z" style="fill:rgb(114,176,177);fill-rule:nonzero;"/>
            </g>
            <g transform="matrix(3.0502,0,0,3.0502,-5154.02,-5645.74)">
                <path d="M2616.32,2910.55C2613.32,2875.47 2610.49,2841.03 2614.28,2804.47C2615.26,2795.02 2621.94,2770.26 2624.4,2748.46C2624.32,2748.48 2624.25,2748.51 2624.17,2748.53C2604.03,2754.63 2583.78,2760.74 2563.44,2766.71C2564.45,2804.89 2561.21,2841.82 2558.57,2882.31C2557.91,2892.41 2555.15,2905.9 2554.8,2918.61C2575.31,2915.96 2595.82,2913.27 2616.32,2910.55Z" style="fill:rgb(114,176,177);fill-rule:nonzero;"/>
            </g>
            <g transform="matrix(3.0502,0,0,3.0502,-5154.02,-5645.74)">
                <path d="M2682.45,2906.81C2690.99,2905.61 2699.21,2905.56 2706.96,2906.46C2702.1,2873.6 2695.75,2840.85 2697.04,2807.45C2697.93,2784.28 2690.76,2756.06 2688.67,2729.23C2680.96,2731.84 2673.23,2734.45 2665.48,2737.08C2670.05,2793.85 2667.87,2851.75 2674.3,2907.93C2677.02,2907.56 2679.73,2907.19 2682.45,2906.81Z" style="fill:rgb(114,176,177);fill-rule:nonzero;"/>
            </g>
            <g transform="matrix(3.0502,0,0,3.0502,-5154.02,-5645.74)">
                <path d="M2763.58,2827.64C2766.8,2828.19 2770.02,2828.68 2773.24,2829.09C2776.9,2807.39 2767.79,2782.39 2764.46,2759.85C2762.3,2760.51 2760.08,2761.12 2757.77,2761.68C2754.9,2762.37 2752.02,2762.72 2749.17,2762.79C2748.16,2788.64 2744.94,2816.41 2763.58,2827.64Z" style="fill:rgb(114,176,177);fill-rule:nonzero;"/>
            </g>
            <g transform="matrix(3.0502,0,0,3.0502,-5154.02,-5645.74)">
                <path d="M2820.23,2827.45C2827.5,2826.04 2834.77,2824.55 2842.04,2823.05C2843.27,2822.44 2844.55,2821.79 2845.91,2821.13C2844.02,2798.21 2835.73,2765.62 2833.57,2740.19C2822.92,2743.29 2812.26,2746.28 2801.63,2749.26C2803.56,2775.51 2802.58,2806.96 2813.67,2821.22C2816,2824.22 2818.13,2826.22 2820.23,2827.45Z" style="fill:rgb(114,176,177);fill-rule:nonzero;"/>
            </g>
            <g transform="matrix(3.0502,0,0,3.0502,-5154.02,-5645.74)">
                <path d="M2887.47,2814.1C2897.86,2812.26 2908.26,2810.66 2918.7,2809.44C2918.62,2808.08 2918.53,2806.67 2918.43,2805.19C2916.09,2772.49 2913.64,2742.8 2914.54,2712.5C2905.18,2716.44 2895.69,2720.08 2886.1,2723.49C2890.85,2751.85 2885.42,2784.61 2887.47,2814.1Z" style="fill:rgb(114,176,177);fill-rule:nonzero;"/>
            </g>
            <g transform="matrix(3.0502,0,0,3.0502,-5154.02,-5645.74)">
                <path d="M2801.73,2859.74C2801.36,2859.8 2801,2859.85 2800.64,2859.91C2788.93,2879.13 2780.31,2904.22 2773.95,2927.47C2780.85,2927.79 2787.66,2928.41 2794.45,2929.39C2805.83,2905.85 2819.66,2879.44 2830.34,2859.04C2820.79,2859.63 2811.25,2859.91 2801.73,2859.74Z" style="fill:rgb(114,176,177);fill-rule:nonzero;"/>
            </g>
            <g transform="matrix(3.0502,0,0,3.0502,-5154.02,-5645.74)">
                <path d="M2904.07,2856.99C2904.03,2856.99 2904,2856.97 2903.96,2856.97C2880.87,2880.7 2864.29,2911.83 2851.43,2943.52C2853.31,2944.06 2855.18,2944.6 2857.06,2945.15C2874.98,2914.89 2903.65,2888.44 2923.39,2861.29C2916.99,2860.17 2910.61,2858.64 2904.07,2856.99Z" style="fill:rgb(114,176,177);fill-rule:nonzero;"/>
            </g>
            <g transform="matrix(3.0502,0,0,3.0502,-5154.02,-5645.74)">
                <rect x="2583.74" y="3009.26" width="1.05" height="5.935" style="fill-rule:nonzero;"/>
            </g>
            <g transform="matrix(3.0502,0,0,3.0502,-5154.02,-5645.74)">
                <path d="M2066.03,2661.18C2064.34,2706.52 2010.25,2773.24 1993.11,2819.18C1975.48,2866.43 1959.47,2913.94 1955.89,2962.79C2001.93,2986.44 2083.65,2979.62 2135.74,2983.36C2201.99,2988.13 2265.24,2998.58 2333.24,2998.61C2361.46,2998.62 2400.43,3007.15 2427.91,3000.52C2477.92,2988.44 2446.97,2974.86 2416.09,2954.13C2358.34,2915.36 2327.92,2858.18 2264.56,2819.89C2192.83,2776.53 2135.78,2715.83 2065.88,2670.32L2066.03,2661.18Z" style="fill:rgb(225,129,112);fill-rule:nonzero;"/>
            </g>
            <g transform="matrix(3.0502,0,0,3.0502,-5154.02,-5645.74)">
                <path d="M2052.51,2704.86C2050.05,2660.21 2007.83,2593.99 2026.04,2553.43C2061.7,2561.92 2113.76,2659.54 2100.27,2692.84L2052.51,2704.86Z" style="fill:rgb(225,129,112);fill-rule:nonzero;"/>
            </g>
            <g transform="matrix(3.0502,0,0,3.0502,-5154.02,-5645.74)">
                <path d="M1980.48,2870.55C1965.99,2914.87 1859.46,2922.85 1832.16,2963.41C1859.47,2984.08 1948.23,2964.89 1983.14,2964.32L1980.48,2870.55Z" style="fill:rgb(225,129,112);fill-rule:nonzero;"/>
            </g>
            <g transform="matrix(3.0502,0,0,3.0502,-5154.02,-5645.74)">
                <path d="M2169.05,2947.18C2170.9,2947.97 2172.73,2949.14 2174.51,2950.69L2172.8,2952.66C2164.04,2945.05 2156.76,2949.81 2153.21,2953.32C2148.57,2957.89 2145.07,2965.2 2143.85,2972.87C2142.56,2980.96 2144.04,2988.22 2147.91,2992.78L2145.91,2994.47C2136.57,2983.43 2141.1,2961.59 2151.37,2951.45C2156.83,2946.06 2163.05,2944.63 2169.05,2947.18Z" style="fill:rgb(44,0,15);fill-rule:nonzero;"/>
            </g>
            <g transform="matrix(3.0502,0,0,3.0502,-5154.02,-5645.74)">
                <path d="M2251.09,2829.39C2247.37,2830.24 2246.51,2836.35 2244.73,2840.5C2241.38,2848.3 2246.38,2857.34 2254.82,2858.22C2274.55,2860.27 2273.74,2824.19 2251.09,2829.39Z" style="fill:rgb(248,162,144);fill-rule:nonzero;"/>
            </g>
            <g transform="matrix(3.0502,0,0,3.0502,-5154.02,-5645.74)">
                <path d="M2185.13,2952.41C2184.95,2952.46 2184.78,2952.5 2184.61,2952.55C2170.01,2956.75 2170.52,2977.73 2185.27,2981.33C2185.34,2981.35 2185.41,2981.36 2185.48,2981.38C2189.91,2978.41 2193.98,2974.34 2197.22,2969.65C2203.14,2961.07 2195.19,2949.68 2185.13,2952.41Z" style="fill:rgb(248,162,144);fill-rule:nonzero;"/>
            </g>
            <g transform="matrix(3.0502,0,0,3.0502,-5154.02,-5645.74)">
                <path d="M2446.1,2982.49C2456.98,2972.09 2476.15,2968.25 2493.85,2970.68C2503.02,2971.94 2506.38,2983.43 2499.3,2989.4C2485.27,3001.21 2463.48,2998.2 2445.95,2991.63L2446.1,2982.49Z" style="fill:rgb(44,0,15);fill-rule:nonzero;"/>
            </g>
            <g transform="matrix(3.0502,0,0,3.0502,-5154.02,-5645.74)">
                <path d="M2446.79,2979.11L2445.6,2978.08C2456.24,2965.8 2457.41,2945.81 2458.44,2928.17C2458.68,2924.08 2458.9,2920.22 2459.24,2916.56L2460.8,2916.7C2460.47,2920.34 2460.24,2924.18 2460.01,2928.26C2458.96,2946.15 2457.78,2966.43 2446.79,2979.11Z" style="fill:rgb(44,0,15);fill-rule:nonzero;"/>
            </g>
            <g transform="matrix(3.0502,0,0,3.0502,-5154.02,-5645.74)">
                <path d="M2452.84,2979.8L2451.84,2978.6C2463.37,2968.96 2476.08,2944.53 2478.01,2928.32L2479.56,2928.51C2477.6,2945.03 2464.62,2969.96 2452.84,2979.8Z" style="fill:rgb(44,0,15);fill-rule:nonzero;"/>
            </g>
            <g transform="matrix(3.0502,0,0,3.0502,-5154.02,-5645.74)">
                <path d="M2442.21,2977.86C2444.97,2964.66 2438.27,2951.17 2431.78,2938.13C2427.54,2929.6 2423.15,2920.77 2421.35,2911.98L2422.89,2911.67C2424.65,2920.26 2428.99,2928.99 2433.19,2937.43C2439.79,2950.72 2446.62,2964.45 2443.75,2978.18L2442.21,2977.86Z" style="fill:rgb(44,0,15);fill-rule:nonzero;"/>
            </g>
            <g transform="matrix(3.0502,0,0,3.0502,-5154.02,-5645.74)">
                <path d="M2415.73,3048.88C2414.63,3032.75 2414.27,3014.14 2423.99,2997.34L2425.35,2998.13C2415.85,3014.54 2416.21,3032.87 2417.3,3048.77L2415.73,3048.88Z" style="fill:rgb(44,0,15);fill-rule:nonzero;"/>
            </g>
            <g transform="matrix(3.0502,0,0,3.0502,-5154.02,-5645.74)">
                <path d="M2441.78,3050.68C2441.13,3034.82 2437.94,3018.41 2434.86,3002.55C2434.41,3000.28 2433.98,2998.02 2433.55,2995.78L2435.09,2995.48C2435.52,2997.72 2435.96,2999.98 2436.4,3002.25C2439.49,3018.17 2442.69,3034.63 2443.34,3050.61L2441.78,3050.68Z" style="fill:rgb(44,0,15);fill-rule:nonzero;"/>
            </g>
            <g transform="matrix(3.0502,0,0,3.0502,-5154.02,-5645.74)">
                <path d="M2458.49,3044.99C2454.85,3027.37 2446.31,3008.29 2439.28,2993.64L2440.69,2992.96C2447.76,3007.69 2456.36,3026.88 2460.03,3044.68L2458.49,3044.99Z" style="fill:rgb(44,0,15);fill-rule:nonzero;"/>
            </g>
            <g transform="matrix(3.0502,0,0,3.0502,-5154.02,-5645.74)">
                <path d="M2068.52,2690.22C2075.9,2689.02 2084.01,2690.3 2090.95,2691.46C2091.6,2691.57 2092.26,2691.68 2092.91,2691.8C2087.06,2662.7 2078.37,2622.82 2049.99,2615.56C2052.33,2638.3 2047.61,2681.71 2068.52,2690.22Z" style="fill:rgb(248,162,144);fill-rule:nonzero;"/>
            </g>
            <g transform="matrix(3.0502,0,0,3.0502,-5154.02,-5645.74)">
                <path d="M1971.04,2903.62C1948.86,2922.94 1913.4,2931.31 1900.53,2957.83C1916.51,2966.82 1946.95,2944.45 1971.8,2929.84C1971.22,2921.1 1970.76,2912.36 1971.04,2903.62Z" style="fill:rgb(248,162,144);fill-rule:nonzero;"/>
            </g>
            <g transform="matrix(3.0502,0,0,3.0502,-5154.02,-5645.74)">
                <path d="M2219.97,2831.4C2221.82,2832.19 2223.93,2832.7 2226.28,2832.91L2226.52,2830.3C2214.96,2829.27 2213.34,2820.73 2213.41,2815.73C2213.49,2809.22 2216.33,2801.63 2221.01,2795.43C2225.95,2788.9 2232.2,2784.93 2238.18,2784.55L2238.01,2781.94C2223.57,2782.86 2210.98,2801.27 2210.79,2815.7C2210.69,2823.37 2213.97,2828.85 2219.97,2831.4Z" style="fill:rgb(44,0,15);fill-rule:nonzero;"/>
            </g>
            <g transform="matrix(3.0502,0,0,3.0502,-5154.02,-5645.74)">
                <path d="M2135.98,2402.49C2133.34,2398.14 2143.22,2389.71 2133.14,2394.47C2119.15,2436.54 2108.98,2483.33 2101.74,2526.96C2131.11,2531.72 2155.62,2536.24 2180.65,2522.84C2184.53,2526.8 2185.8,2532.95 2189.42,2537.02C2239.93,2510.74 2378.12,2475.38 2420.32,2529.46C2423.66,2522.22 2430.26,2515.7 2434.09,2508.69C2451.63,2553.86 2527.21,2525.28 2568.66,2523.31C2615.43,2521.08 2662.78,2550.2 2706.15,2528.44C2682.05,2467.13 2602.11,2279.12 2529.96,2276.31C2424.15,2272.19 2290.79,2244.22 2167.97,2350.9L2135.98,2402.49Z" style="fill:rgb(44,0,15);fill-rule:nonzero;"/>
            </g>
            <g transform="matrix(3.0502,0,0,3.0502,-5154.02,-5645.74)">
                <path d="M2648.16,2600.23L2654.09,2618.03C2653.45,2629.33 2662.57,2642.65 2659.74,2657.5C2698.04,2643.56 2714.91,2590.84 2648.16,2600.23Z" style="fill:rgb(245,211,210);fill-rule:nonzero;"/>
            </g>
            <g transform="matrix(3.0502,0,0,3.0502,-5154.02,-5645.74)">
                <path d="M2530.84,3240.75C2412.67,3282.6 2282.19,3259.67 2163.85,3295.43C2159.49,3296.75 2155.16,3298.14 2150.84,3299.62C2103.58,3315.84 2067.89,3354.15 2027.23,3374.88C2023.48,3307.77 2024.27,3247.83 2050.05,3192.73C2060.1,3171.24 2073.96,3150.49 2092.84,3130.33C2169.14,3048.84 2258.06,3031.38 2364.49,3031.38C2509.47,3031.38 2662.11,3044.46 2780.37,2955.26L2786.83,2960.62C2797.89,3090.41 2633.78,3204.29 2530.84,3240.75Z" style="fill:rgb(225,129,112);fill-rule:nonzero;"/>
            </g>
            <g transform="matrix(3.0502,0,0,3.0502,-5154.02,-5645.74)">
                <path d="M2163.85,3295.43C2159.49,3296.75 2155.16,3298.14 2150.84,3299.62C2103.58,3315.84 2067.89,3354.15 2027.23,3374.88C2023.48,3307.77 2024.27,3247.83 2050.05,3192.73C2059.8,3186.66 2069.32,3180.31 2078.41,3174.44C2078.46,3182.69 2081.25,3193.38 2080.64,3201.4C2086.26,3194.76 2097.65,3189.49 2103.8,3181.87C2103.89,3189.13 2102.68,3195.44 2104.25,3202.59C2116.32,3198.27 2130.1,3200.93 2142.82,3192.25C2134.85,3204.44 2131.32,3220.29 2123.36,3232.44C2124.17,3237.44 2132.7,3230.56 2133.54,3229.59C2128.1,3237.93 2125.66,3253.33 2121.62,3262.28C2131.72,3261.11 2145.03,3265.31 2154.67,3263.92C2147.32,3270.75 2140.66,3285.29 2133.51,3291.5C2143.51,3290.43 2154.11,3293.1 2163.85,3295.43Z" style="fill:rgb(255,234,233);fill-rule:nonzero;"/>
            </g>
            <g transform="matrix(3.0502,0,0,3.0502,-5154.02,-5645.74)">
                <path d="M2112.53,3175.71L2110.96,3174.32C2114.19,3170.66 2117.24,3166.82 2120.18,3163.1C2125.13,3156.85 2130.25,3150.39 2136.34,3144.72L2137.77,3146.26C2131.8,3151.82 2126.73,3158.22 2121.83,3164.41C2118.87,3168.15 2115.8,3172.01 2112.53,3175.71Z" style="fill:rgb(245,211,210);fill-rule:nonzero;"/>
            </g>
            <g transform="matrix(3.0502,0,0,3.0502,-5154.02,-5645.74)">
                <path d="M2095.42,3163.26L2094.33,3161.47C2099.05,3158.59 2102.74,3154.25 2106.3,3150.06C2111.7,3143.71 2117.28,3137.15 2126.38,3136.01L2126.64,3138.1C2118.35,3139.13 2113.28,3145.1 2107.9,3151.42C2104.23,3155.74 2100.43,3160.2 2095.42,3163.26Z" style="fill:rgb(245,211,210);fill-rule:nonzero;"/>
            </g>
            <g transform="matrix(3.0502,0,0,3.0502,-5154.02,-5645.74)">
                <path d="M2062.12,3236.55L2060.15,3235.8C2062.19,3230.42 2065.24,3225.19 2068.18,3220.14C2071.56,3214.33 2075.06,3208.33 2077,3202.12L2079.01,3202.75C2076.99,3209.18 2073.44,3215.29 2069.99,3221.2C2067.09,3226.18 2064.09,3231.33 2062.12,3236.55Z" style="fill:rgb(245,211,210);fill-rule:nonzero;"/>
            </g>
            <g transform="matrix(3.0502,0,0,3.0502,-5154.02,-5645.74)">
                <path d="M2055.79,3213.35L2053.82,3212.61C2056.61,3205.2 2060.66,3197.75 2066.6,3189.18L2068.32,3190.38C2062.49,3198.8 2058.51,3206.1 2055.79,3213.35Z" style="fill:rgb(245,211,210);fill-rule:nonzero;"/>
            </g>
            <g transform="matrix(3.0502,0,0,3.0502,-5154.02,-5645.74)">
                <path d="M2091.6,3259.84L2089.72,3258.91C2095.3,3247.66 2101.73,3235.75 2110.95,3224.95L2112.55,3226.31C2103.48,3236.94 2097.12,3248.71 2091.6,3259.84Z" style="fill:rgb(245,211,210);fill-rule:nonzero;"/>
            </g>
            <g transform="matrix(3.0502,0,0,3.0502,-5154.02,-5645.74)">
                <path d="M2059.95,3314.7L2058.1,3313.71C2062.07,3306.26 2065.69,3297.57 2068.57,3288.58L2070.57,3289.22C2067.66,3298.33 2063.98,3307.14 2059.95,3314.7Z" style="fill:rgb(245,211,210);fill-rule:nonzero;"/>
            </g>
            <g transform="matrix(3.0502,0,0,3.0502,-5154.02,-5645.74)">
                <path d="M2051.5,3291.54L2049.68,3290.48C2054.86,3281.56 2058.97,3271.3 2062.23,3259.1L2064.26,3259.65C2060.95,3272.02 2056.77,3282.45 2051.5,3291.54Z" style="fill:rgb(245,211,210);fill-rule:nonzero;"/>
            </g>
            <g transform="matrix(3.0502,0,0,3.0502,-5154.02,-5645.74)">
                <path d="M2036.87,3282.64L2034.78,3282.5C2035.61,3270.31 2039.24,3253.69 2045.49,3244.04L2047.25,3245.18C2041.21,3254.52 2037.69,3270.72 2036.87,3282.64Z" style="fill:rgb(245,211,210);fill-rule:nonzero;"/>
            </g>
            <g transform="matrix(3.0502,0,0,3.0502,-5154.02,-5645.74)">
                <rect x="2038.99" y="3324.75" width="2.1" height="25.307" style="fill:rgb(245,211,210);fill-rule:nonzero;"/>
            </g>
            <g transform="matrix(3.0502,0,0,3.0502,-5154.02,-5645.74)">
                <path d="M2093.11,3317.31L2092.43,3315.32C2098.58,3313.2 2103.65,3309.18 2108.55,3305.3C2112.67,3302.03 2116.94,3298.65 2121.85,3296.38L2122.73,3298.29C2118.04,3300.45 2114.07,3303.61 2109.85,3306.95C2104.82,3310.94 2099.61,3315.07 2093.11,3317.31Z" style="fill:rgb(245,211,210);fill-rule:nonzero;"/>
            </g>
            <g transform="matrix(3.0502,0,0,3.0502,-5154.02,-5645.74)">
                <path d="M2101.81,3277.1L2100.59,3275.39C2102.1,3274.32 2104.35,3272.59 2106.96,3270.59C2110.41,3267.94 2114.33,3264.94 2117.47,3262.73L2118.68,3264.45C2115.57,3266.64 2111.68,3269.62 2108.24,3272.26C2105.62,3274.27 2103.35,3276.01 2101.81,3277.1Z" style="fill:rgb(245,211,210);fill-rule:nonzero;"/>
            </g>
            <g transform="matrix(3.0502,0,0,3.0502,-5154.02,-5645.74)">
                <path d="M2156.28,3260.4L2155.79,3258.35C2165.51,3256.05 2174.66,3250.78 2183.51,3245.69C2190.18,3241.85 2197.07,3237.88 2204.17,3235.19L2204.91,3237.16C2197.97,3239.79 2191.15,3243.71 2184.56,3247.51C2175.58,3252.68 2166.29,3258.02 2156.28,3260.4Z" style="fill:rgb(245,211,210);fill-rule:nonzero;"/>
            </g>
            <g transform="matrix(3.0502,0,0,3.0502,-5154.02,-5645.74)">
                <path d="M2142.7,3289.97C2142.21,3289.97 2141.72,3289.97 2141.24,3289.95L2141.31,3287.85C2155.24,3288.31 2172.1,3281.51 2180.9,3277.4L2181.79,3279.31C2173.12,3283.35 2156.76,3289.97 2142.7,3289.97Z" style="fill:rgb(245,211,210);fill-rule:nonzero;"/>
            </g>
            <g transform="matrix(3.0502,0,0,3.0502,-5154.02,-5645.74)">
                <path d="M2145.76,3230.86L2145.22,3228.84C2155.81,3225.98 2168.86,3216.64 2179.34,3209.13C2182.11,3207.14 2184.73,3205.27 2187.08,3203.67L2188.26,3205.41C2185.93,3206.99 2183.32,3208.86 2180.57,3210.83C2169.94,3218.44 2156.72,3227.91 2145.76,3230.86Z" style="fill:rgb(245,211,210);fill-rule:nonzero;"/>
            </g>
            <g transform="matrix(3.0502,0,0,3.0502,-5154.02,-5645.74)">
                <path d="M2175.25,3171.82L2174.78,3169.78C2183.22,3167.84 2191.68,3165.24 2199.87,3162.72C2206.14,3160.79 2212.64,3158.8 2219.04,3157.13L2219.57,3159.16C2213.21,3160.82 2206.74,3162.81 2200.48,3164.73C2192.26,3167.26 2183.76,3169.87 2175.25,3171.82Z" style="fill:rgb(245,211,210);fill-rule:nonzero;"/>
            </g>
            <g transform="matrix(3.0502,0,0,3.0502,-5154.02,-5645.74)">
                <path d="M2166.59,3144.43L2166.57,3142.33C2174.57,3142.28 2182.31,3139.22 2189.78,3136.26C2193.8,3134.66 2197.95,3133.02 2202.15,3131.83L2202.72,3133.85C2198.63,3135.01 2194.52,3136.63 2190.56,3138.21C2182.9,3141.24 2174.98,3144.38 2166.59,3144.43Z" style="fill:rgb(245,211,210);fill-rule:nonzero;"/>
            </g>
            <g transform="matrix(3.0502,0,0,3.0502,-5154.02,-5645.74)">
                <path d="M2147.92,3119.07L2147.28,3117.08C2157.02,3113.94 2168.67,3107.21 2176.58,3102.41L2177.67,3104.21C2169.67,3109.06 2157.87,3115.88 2147.92,3119.07Z" style="fill:rgb(245,211,210);fill-rule:nonzero;"/>
            </g>
            <g transform="matrix(3.0502,0,0,3.0502,-5154.02,-5645.74)">
                <path d="M2131.46,3108.28L2130,3106.78C2138.79,3098.27 2146.43,3091.6 2157.97,3089.62L2158.32,3091.69C2147.38,3093.57 2139.98,3100.03 2131.46,3108.28Z" style="fill:rgb(245,211,210);fill-rule:nonzero;"/>
            </g>
            <g transform="matrix(3.0502,0,0,3.0502,-5154.02,-5645.74)">
                <path d="M2240.44,3085.38L2240.35,3083.28C2249.79,3082.87 2258.88,3080.77 2267.39,3077.04L2268.23,3078.97C2259.49,3082.8 2250.14,3084.95 2240.44,3085.38Z" style="fill:rgb(245,211,210);fill-rule:nonzero;"/>
            </g>
            <g transform="matrix(3.0502,0,0,3.0502,-5154.02,-5645.74)">
                <path d="M2264.21,3109.48C2261.11,3109.48 2258.01,3109.22 2254.94,3108.56L2255.38,3106.5C2263.64,3108.29 2272.24,3106.99 2280.56,3105.73C2283.95,3105.22 2287.46,3104.69 2290.91,3104.38L2291.11,3106.47C2287.72,3106.78 2284.24,3107.3 2280.87,3107.81C2275.4,3108.64 2269.8,3109.48 2264.21,3109.48Z" style="fill:rgb(245,211,210);fill-rule:nonzero;"/>
            </g>
            <g transform="matrix(3.0502,0,0,3.0502,-5154.02,-5645.74)">
                <path d="M2282.19,3141.39C2276.91,3141.39 2272.12,3140.99 2267.63,3140.2L2267.99,3138.13C2276.76,3139.68 2286.71,3139.68 2299.32,3138.12L2299.57,3140.21C2293.18,3141 2287.44,3141.39 2282.19,3141.39Z" style="fill:rgb(245,211,210);fill-rule:nonzero;"/>
            </g>
            <g transform="matrix(3.0502,0,0,3.0502,-5154.02,-5645.74)">
                <path d="M2265.94,3174.85C2261.6,3174.85 2257.23,3174.62 2252.89,3173.95L2253.21,3171.87C2262.01,3173.24 2270.99,3172.72 2279.68,3172.23C2282.03,3172.09 2284.39,3171.96 2286.75,3171.86L2286.84,3173.96C2284.49,3174.06 2282.14,3174.19 2279.8,3174.33C2275.24,3174.59 2270.6,3174.85 2265.94,3174.85Z" style="fill:rgb(245,211,210);fill-rule:nonzero;"/>
            </g>
            <g transform="matrix(3.0502,0,0,3.0502,-5154.02,-5645.74)">
                <path d="M2191.92,3209.81L2191.86,3207.71C2196.52,3207.57 2201.09,3206.58 2205.52,3205.62C2210.62,3204.52 2215.92,3203.39 2221.44,3203.49L2221.39,3205.59C2216.12,3205.47 2210.95,3206.6 2205.96,3207.68C2201.45,3208.65 2196.78,3209.66 2191.92,3209.81Z" style="fill:rgb(245,211,210);fill-rule:nonzero;"/>
            </g>
            <g transform="matrix(3.0502,0,0,3.0502,-5154.02,-5645.74)">
                <path d="M2241.52,3233.39C2239,3233.39 2236.48,3233.27 2233.96,3233L2234.18,3230.91C2243.68,3231.93 2253.31,3230.67 2262.63,3229.45C2264.31,3229.23 2266,3229.01 2267.68,3228.81L2267.94,3230.89C2266.26,3231.1 2264.58,3231.32 2262.9,3231.54C2255.9,3232.45 2248.73,3233.39 2241.52,3233.39Z" style="fill:rgb(245,211,210);fill-rule:nonzero;"/>
            </g>
            <g transform="matrix(3.0502,0,0,3.0502,-5154.02,-5645.74)">
                <path d="M2254.53,3256.93C2249.94,3256.93 2245.21,3256.75 2240.28,3256.2L2240.51,3254.11C2250.7,3255.24 2260.1,3254.81 2269.19,3254.39C2276.21,3254.06 2283.47,3253.73 2291.06,3254.11L2290.96,3256.21C2283.47,3255.83 2276.26,3256.16 2269.29,3256.48C2264.48,3256.71 2259.59,3256.93 2254.53,3256.93Z" style="fill:rgb(245,211,210);fill-rule:nonzero;"/>
            </g>
            <g transform="matrix(3.0502,0,0,3.0502,-5154.02,-5645.74)">
                <path d="M2270.06,3197.15L2269.78,3195.07C2272.78,3194.68 2275.78,3194.25 2278.78,3193.83C2291.73,3192.01 2305.13,3190.13 2318.48,3190.84L2318.37,3192.94C2305.22,3192.22 2291.93,3194.1 2279.07,3195.91C2276.06,3196.33 2273.06,3196.76 2270.06,3197.15Z" style="fill:rgb(245,211,210);fill-rule:nonzero;"/>
            </g>
            <g transform="matrix(3.0502,0,0,3.0502,-5154.02,-5645.74)">
                <path d="M2346.81,3225.34C2342.92,3225.34 2339.02,3225.15 2335.14,3224.56L2335.45,3222.48C2343.01,3223.62 2350.76,3223.23 2358.26,3222.86C2362.47,3222.65 2366.83,3222.42 2371.16,3222.47L2371.14,3224.57C2366.89,3224.53 2362.55,3224.74 2358.37,3224.95C2354.56,3225.15 2350.7,3225.34 2346.81,3225.34Z" style="fill:rgb(245,211,210);fill-rule:nonzero;"/>
            </g>
            <g transform="matrix(3.0502,0,0,3.0502,-5154.02,-5645.74)">
                <path d="M2340.28,3262.79C2328.4,3262.79 2316.51,3262.03 2305.43,3258.26L2306.11,3256.27C2320.59,3261.21 2336.71,3260.86 2352.3,3260.52C2353.66,3260.49 2355.02,3260.46 2356.37,3260.43L2356.41,3262.53C2355.06,3262.56 2353.71,3262.59 2352.35,3262.62C2348.35,3262.7 2344.32,3262.79 2340.28,3262.79Z" style="fill:rgb(245,211,210);fill-rule:nonzero;"/>
            </g>
            <g transform="matrix(3.0502,0,0,3.0502,-5154.02,-5645.74)">
                <path d="M2329.26,3211.88L2328.69,3209.86C2333.54,3208.49 2338.53,3207.45 2343.35,3206.44C2347.56,3205.56 2351.91,3204.64 2356.12,3203.53L2356.66,3205.56C2352.4,3206.69 2348.02,3207.61 2343.78,3208.49C2338.99,3209.5 2334.04,3210.53 2329.26,3211.88Z" style="fill:rgb(245,211,210);fill-rule:nonzero;"/>
            </g>
            <g transform="matrix(3.0502,0,0,3.0502,-5154.02,-5645.74)">
                <path d="M2295.04,3222.67C2291.91,3222.67 2288.84,3221.84 2286.23,3220.19L2287.35,3218.42C2291.9,3221.3 2298.1,3221.29 2303.14,3218.39L2304.19,3220.22C2301.34,3221.85 2298.16,3222.67 2295.04,3222.67Z" style="fill:rgb(245,211,210);fill-rule:nonzero;"/>
            </g>
            <g transform="matrix(3.0502,0,0,3.0502,-5154.02,-5645.74)">
                <path d="M2357.13,3176.07C2356.87,3176.07 2356.62,3176.07 2356.38,3176.07L2356.4,3173.97C2364.44,3174.03 2379.73,3172.82 2391.6,3163.64L2392.88,3165.3C2380.87,3174.59 2365.62,3176.07 2357.13,3176.07Z" style="fill:rgb(245,211,210);fill-rule:nonzero;"/>
            </g>
            <g transform="matrix(3.0502,0,0,3.0502,-5154.02,-5645.74)">
                <path d="M2338.2,3149.74C2334.98,3149.74 2331.8,3149.37 2328.72,3148.62L2329.22,3146.58C2337.17,3148.52 2345.93,3147.79 2353.88,3144.52L2354.68,3146.46C2349.38,3148.64 2343.75,3149.74 2338.2,3149.74Z" style="fill:rgb(245,211,210);fill-rule:nonzero;"/>
            </g>
            <g transform="matrix(3.0502,0,0,3.0502,-5154.02,-5645.74)">
                <path d="M2324.87,3129.66L2324.64,3127.58C2335.39,3126.36 2347.55,3124.62 2355.82,3119.3L2356.95,3121.07C2348.3,3126.63 2335.86,3128.42 2324.87,3129.66Z" style="fill:rgb(245,211,210);fill-rule:nonzero;"/>
            </g>
            <g transform="matrix(3.0502,0,0,3.0502,-5154.02,-5645.74)">
                <path d="M2321.96,3091.86C2320.75,3091.86 2319.54,3091.81 2318.34,3091.7L2318.52,3089.61C2327.42,3090.39 2336.44,3087.92 2345.17,3085.54L2345.57,3085.43L2346.12,3087.45L2345.72,3087.56C2337.98,3089.68 2330.01,3091.86 2321.96,3091.86Z" style="fill:rgb(245,211,210);fill-rule:nonzero;"/>
            </g>
            <g transform="matrix(3.0502,0,0,3.0502,-5154.02,-5645.74)">
                <path d="M2310.97,3061.29C2306.34,3061.29 2301.7,3060.98 2297.13,3060.05L2297.55,3057.99C2306.51,3059.82 2315.89,3059.18 2324.95,3058.56C2328.33,3058.32 2331.83,3058.08 2335.26,3057.97L2335.33,3060.07C2331.94,3060.18 2328.46,3060.42 2325.09,3060.65C2320.44,3060.97 2315.71,3061.29 2310.97,3061.29Z" style="fill:rgb(245,211,210);fill-rule:nonzero;"/>
            </g>
            <g transform="matrix(3.0502,0,0,3.0502,-5154.02,-5645.74)">
                <path d="M2278.66,3049.69C2277.13,3049.69 2275.59,3049.64 2274.06,3049.53L2274.22,3047.43C2282.99,3048.09 2291.97,3046.6 2300.65,3045.16C2305.07,3044.43 2309.64,3043.67 2314.1,3043.22L2314.32,3045.31C2309.92,3045.76 2305.38,3046.51 2301,3047.24C2293.69,3048.45 2286.17,3049.69 2278.66,3049.69Z" style="fill:rgb(245,211,210);fill-rule:nonzero;"/>
            </g>
            <g transform="matrix(3.0502,0,0,3.0502,-5154.02,-5645.74)">
                <path d="M2194.07,3079.34C2192.56,3079.34 2191.08,3079.24 2189.64,3079.04L2189.92,3076.96C2196.67,3077.89 2204.28,3076.5 2212.55,3072.83L2213.4,3074.75C2206.52,3077.8 2200.04,3079.34 2194.07,3079.34Z" style="fill:rgb(245,211,210);fill-rule:nonzero;"/>
            </g>
            <g transform="matrix(3.0502,0,0,3.0502,-5154.02,-5645.74)">
                <path d="M2226.5,3131.83C2219.08,3131.83 2211.64,3131.1 2204.34,3129.65L2204.75,3127.59C2213,3129.23 2221.43,3129.93 2229.82,3129.68L2229.88,3131.78C2228.76,3131.81 2227.63,3131.83 2226.5,3131.83Z" style="fill:rgb(245,211,210);fill-rule:nonzero;"/>
            </g>
            <g transform="matrix(3.0502,0,0,3.0502,-5154.02,-5645.74)">
                <rect x="2398.57" y="3152.88" width="42.18" height="2.1" style="fill:rgb(245,211,210);fill-rule:nonzero;"/>
            </g>
            <g transform="matrix(3.0502,0,0,3.0502,-5154.02,-5645.74)">
                <path d="M2412.27,3182.38C2406.9,3182.38 2401.53,3181.67 2396.19,3180.25L2396.73,3178.22C2407.05,3180.97 2417.51,3180.97 2427.82,3178.22L2428.36,3180.25C2423.03,3181.67 2417.65,3182.38 2412.27,3182.38Z" style="fill:rgb(245,211,210);fill-rule:nonzero;"/>
            </g>
            <g transform="matrix(3.0502,0,0,3.0502,-5154.02,-5645.74)">
                <path d="M2427.91,3220.34L2392.06,3214.01L2392.42,3211.94L2428.27,3218.27L2427.91,3220.34Z" style="fill:rgb(245,211,210);fill-rule:nonzero;"/>
            </g>
            <g transform="matrix(3.0502,0,0,3.0502,-5154.02,-5645.74)">
                <path d="M2389.41,3260.69C2387.5,3260.69 2385.6,3260.6 2383.7,3260.42L2383.91,3258.33C2395.42,3259.45 2407.23,3256.72 2418.65,3254.08C2421.69,3253.38 2424.83,3252.65 2427.88,3252.02L2428.3,3254.08C2425.28,3254.7 2422.15,3255.43 2419.12,3256.12C2409.39,3258.38 2399.38,3260.69 2389.41,3260.69Z" style="fill:rgb(245,211,210);fill-rule:nonzero;"/>
            </g>
            <g transform="matrix(3.0502,0,0,3.0502,-5154.02,-5645.74)">
                <path d="M2500.06,3207.67L2499.54,3205.63C2512.9,3202.23 2522.56,3198.37 2530.87,3193.11L2531.99,3194.88C2523.49,3200.26 2513.64,3204.21 2500.06,3207.67Z" style="fill:rgb(245,211,210);fill-rule:nonzero;"/>
            </g>
            <g transform="matrix(3.0502,0,0,3.0502,-5154.02,-5645.74)">
                <path d="M2470.45,3235.1L2470.1,3233.03C2472.39,3232.64 2474.63,3232.3 2476.83,3231.97C2486.39,3230.5 2495.42,3229.12 2503.51,3224.71L2504.52,3226.55C2496.11,3231.14 2486.9,3232.55 2477.15,3234.04C2474.96,3234.38 2472.72,3234.72 2470.45,3235.1Z" style="fill:rgb(245,211,210);fill-rule:nonzero;"/>
            </g>
            <g transform="matrix(3.0502,0,0,3.0502,-5154.02,-5645.74)">
                <path d="M2468.29,3186.61L2468.04,3184.52C2477.73,3183.37 2485.68,3181.86 2493.01,3178.29L2493.93,3180.18C2485.49,3184.3 2476.27,3185.65 2468.29,3186.61Z" style="fill:rgb(245,211,210);fill-rule:nonzero;"/>
            </g>
            <g transform="matrix(3.0502,0,0,3.0502,-5154.02,-5645.74)">
                <path d="M2473.49,3137.28C2469.98,3137.28 2466.71,3136.84 2463.65,3135.95L2464.24,3133.94C2473.08,3136.5 2483.89,3135.13 2497.3,3129.75L2498.08,3131.7C2488.78,3135.43 2480.65,3137.28 2473.49,3137.28Z" style="fill:rgb(245,211,210);fill-rule:nonzero;"/>
            </g>
            <g transform="matrix(3.0502,0,0,3.0502,-5154.02,-5645.74)">
                <rect x="2400.68" y="3100.15" width="42.179" height="2.1" style="fill:rgb(245,211,210);fill-rule:nonzero;"/>
            </g>
            <g transform="matrix(3.0502,0,0,3.0502,-5154.02,-5645.74)">
                <rect x="2390.13" y="3066.41" width="29.526" height="2.1" style="fill:rgb(245,211,210);fill-rule:nonzero;"/>
            </g>
            <g transform="matrix(3.0502,0,0,3.0502,-5154.02,-5645.74)">
                <path d="M2384.51,3047.51C2372.86,3047.51 2360.91,3046.77 2349.74,3043.15L2350.38,3041.15C2363.74,3045.48 2378.37,3045.59 2392.22,3045.32L2392.26,3047.42C2389.7,3047.47 2387.11,3047.51 2384.51,3047.51Z" style="fill:rgb(245,211,210);fill-rule:nonzero;"/>
            </g>
            <g transform="matrix(3.0502,0,0,3.0502,-5154.02,-5645.74)">
                <path d="M2484.77,3087.71C2477.68,3087.71 2470.55,3087.26 2463.66,3085.34L2464.23,3083.32C2473.89,3086.01 2484.21,3085.71 2494.2,3085.43L2495.55,3085.39L2495.61,3087.49L2494.26,3087.53C2491.12,3087.62 2487.95,3087.71 2484.77,3087.71Z" style="fill:rgb(245,211,210);fill-rule:nonzero;"/>
            </g>
            <g transform="matrix(3.0502,0,0,3.0502,-5154.02,-5645.74)">
                <path d="M2510.03,3062.27C2498.94,3062.27 2486.99,3061.57 2472.27,3060.07L2472.49,3057.98C2490.1,3059.77 2503.71,3060.42 2516.64,3060.08L2516.7,3062.18C2514.5,3062.24 2512.28,3062.27 2510.03,3062.27Z" style="fill:rgb(245,211,210);fill-rule:nonzero;"/>
            </g>
            <g transform="matrix(3.0502,0,0,3.0502,-5154.02,-5645.74)">
                <path d="M2566.86,3087.78C2561.31,3087.78 2555.55,3087.11 2550.09,3085.33L2550.74,3083.33C2562.91,3087.3 2576.64,3085.51 2586.02,3083.31L2586.5,3085.35C2581.04,3086.64 2574.12,3087.78 2566.86,3087.78Z" style="fill:rgb(245,211,210);fill-rule:nonzero;"/>
            </g>
            <g transform="matrix(3.0502,0,0,3.0502,-5154.02,-5645.74)">
                <path d="M2544.56,3124.1C2541.5,3124.1 2538.47,3123.87 2535.46,3123.33L2535.84,3121.26C2547.5,3123.36 2559.84,3120.58 2571.77,3117.88C2573.02,3117.6 2574.26,3117.32 2575.49,3117.05L2575.95,3119.1C2574.72,3119.37 2573.48,3119.65 2572.23,3119.93C2563.12,3121.99 2553.76,3124.1 2544.56,3124.1Z" style="fill:rgb(245,211,210);fill-rule:nonzero;"/>
            </g>
            <g transform="matrix(3.0502,0,0,3.0502,-5154.02,-5645.74)">
                <path d="M2518.82,3164.23C2515.16,3164.23 2511.53,3163.96 2508.06,3163.4L2508.4,3161.33C2522.39,3163.61 2539.29,3160.96 2547.71,3155.17L2548.9,3156.9C2542.19,3161.51 2530.43,3164.23 2518.82,3164.23Z" style="fill:rgb(245,211,210);fill-rule:nonzero;"/>
            </g>
            <g transform="matrix(3.0502,0,0,3.0502,-5154.02,-5645.74)">
                <path d="M2544.18,3197.15L2543.99,3195.06C2557.78,3193.76 2569.12,3191.76 2579.65,3188.77L2580.22,3190.79C2569.56,3193.82 2558.11,3195.84 2544.18,3197.15Z" style="fill:rgb(245,211,210);fill-rule:nonzero;"/>
            </g>
            <g transform="matrix(3.0502,0,0,3.0502,-5154.02,-5645.74)">
                <path d="M2580.33,3207.62L2579.55,3205.68C2583,3204.29 2586.53,3202.99 2590.26,3201.61C2604.61,3196.32 2619.44,3190.85 2629.81,3180.6L2631.29,3182.09C2620.6,3192.66 2605.55,3198.21 2590.99,3203.58C2587.27,3204.95 2583.75,3206.25 2580.33,3207.62Z" style="fill:rgb(245,211,210);fill-rule:nonzero;"/>
            </g>
            <g transform="matrix(3.0502,0,0,3.0502,-5154.02,-5645.74)">
                <path d="M2567.47,3167.61L2567.09,3165.55C2582.53,3162.7 2602.02,3155.18 2610.77,3144.82L2612.37,3146.17C2603.29,3156.93 2583.28,3164.7 2567.47,3167.61Z" style="fill:rgb(245,211,210);fill-rule:nonzero;"/>
            </g>
            <g transform="matrix(3.0502,0,0,3.0502,-5154.02,-5645.74)">
                <path d="M2599.49,3123.44C2598.58,3123.44 2597.66,3123.41 2596.74,3123.34L2596.88,3121.24C2608.68,3122.07 2619.9,3117.28 2625.47,3109.05L2627.2,3110.23C2621.67,3118.42 2610.99,3123.44 2599.49,3123.44Z" style="fill:rgb(245,211,210);fill-rule:nonzero;"/>
            </g>
            <g transform="matrix(3.0502,0,0,3.0502,-5154.02,-5645.74)">
                <path d="M2605.35,3066.39L2605.14,3064.31C2606.24,3064.19 2607.36,3064.08 2608.49,3063.97C2620.58,3062.78 2634.28,3061.43 2642.41,3052.01L2644,3053.38C2635.33,3063.44 2621.18,3064.83 2608.7,3066.06C2607.57,3066.17 2606.45,3066.28 2605.35,3066.39Z" style="fill:rgb(245,211,210);fill-rule:nonzero;"/>
            </g>
            <g transform="matrix(3.0502,0,0,3.0502,-5154.02,-5645.74)">
                <path d="M2545.93,3052.86C2541.01,3052.86 2536.09,3052.55 2531.23,3051.62L2531.63,3049.56C2541.21,3051.39 2551.19,3050.74 2560.84,3050.11C2564.33,3049.89 2567.93,3049.65 2571.47,3049.54L2571.53,3051.64C2568.03,3051.75 2564.45,3051.98 2560.98,3052.21C2556.02,3052.53 2550.98,3052.86 2545.93,3052.86Z" style="fill:rgb(245,211,210);fill-rule:nonzero;"/>
            </g>
            <g transform="matrix(3.0502,0,0,3.0502,-5154.02,-5645.74)">
                <path d="M2595.37,3039.3C2593.65,3039.3 2591.97,3039.19 2590.34,3038.97L2590.62,3036.89C2600.55,3038.23 2612.6,3035.2 2623.69,3028.6L2624.76,3030.4C2615.08,3036.17 2604.64,3039.3 2595.37,3039.3Z" style="fill:rgb(245,211,210);fill-rule:nonzero;"/>
            </g>
            <g transform="matrix(3.0502,0,0,3.0502,-5154.02,-5645.74)">
                <path d="M2702.72,3040.99L2701.8,3039.1C2707.5,3036.31 2719.45,3026.21 2725.87,3020.78C2727.11,3019.74 2728.17,3018.83 2729,3018.14L2730.34,3019.76C2729.52,3020.45 2728.46,3021.34 2727.23,3022.38C2720.28,3028.26 2708.65,3038.09 2702.72,3040.99Z" style="fill:rgb(245,211,210);fill-rule:nonzero;"/>
            </g>
            <g transform="matrix(3.0502,0,0,3.0502,-5154.02,-5645.74)">
                <path d="M2708.91,3076.89L2708.26,3074.9C2718.62,3071.54 2725.56,3061.86 2728.77,3056.38L2730.58,3057.45C2727.22,3063.18 2719.93,3073.32 2708.91,3076.89Z" style="fill:rgb(245,211,210);fill-rule:nonzero;"/>
            </g>
            <g transform="matrix(3.0502,0,0,3.0502,-5154.02,-5645.74)">
                <path d="M2696.2,3116.98L2695.66,3114.95C2706.26,3112.08 2713.97,3101.69 2720.37,3092.18L2722.11,3093.35C2715.5,3103.18 2707.5,3113.92 2696.2,3116.98Z" style="fill:rgb(245,211,210);fill-rule:nonzero;"/>
            </g>
            <g transform="matrix(3.0502,0,0,3.0502,-5154.02,-5645.74)">
                <path d="M2658.09,3072.72L2657.85,3070.63C2664.37,3069.86 2670.82,3067.64 2677.06,3065.49C2680.57,3064.28 2683.88,3063.13 2687.22,3062.23L2687.77,3064.26C2684.5,3065.14 2681.22,3066.27 2677.75,3067.47C2671.4,3069.66 2664.84,3071.92 2658.09,3072.72Z" style="fill:rgb(245,211,210);fill-rule:nonzero;"/>
            </g>
            <g transform="matrix(3.0502,0,0,3.0502,-5154.02,-5645.74)">
                <path d="M2666.95,3015.63L2665.85,3013.84C2671.75,3010.22 2678.18,3008.67 2684.4,3007.17C2688.78,3006.12 2693.3,3005.03 2697.63,3003.22L2698.44,3005.16C2693.95,3007.03 2689.35,3008.14 2684.89,3009.21C2678.55,3010.74 2672.56,3012.18 2666.95,3015.63Z" style="fill:rgb(245,211,210);fill-rule:nonzero;"/>
            </g>
            <g transform="matrix(3.0502,0,0,3.0502,-5154.02,-5645.74)">
                <path d="M2745.09,3013.45L2743.78,3011.81C2753.22,3004.24 2760.74,2996.05 2766.75,2986.75L2768.52,2987.89C2762.38,2997.38 2754.72,3005.74 2745.09,3013.45Z" style="fill:rgb(245,211,210);fill-rule:nonzero;"/>
            </g>
            <g transform="matrix(3.0502,0,0,3.0502,-5154.02,-5645.74)">
                <path d="M2746.83,3049.49L2746.26,3047.47C2755.28,3044.95 2760.9,3036.06 2760.26,3025.34L2762.36,3025.22C2763.06,3036.94 2756.82,3046.7 2746.83,3049.49Z" style="fill:rgb(245,211,210);fill-rule:nonzero;"/>
            </g>
            <g transform="matrix(3.0502,0,0,3.0502,-5154.02,-5645.74)">
                <path d="M2723.52,2996.79L2723.17,2994.72C2732.45,2993.18 2743.17,2990.98 2752.4,2986.38L2753.34,2988.26C2743.86,2992.99 2732.95,2995.22 2723.52,2996.79Z" style="fill:rgb(245,211,210);fill-rule:nonzero;"/>
            </g>
            <g transform="matrix(3.0502,0,0,3.0502,-5154.02,-5645.74)">
                <path d="M2663.71,3176.17C2678.04,3165.49 2692.17,3154.5 2706.73,3144.18C2706.68,3144.1 2706.65,3144.02 2706.6,3143.93L2706.76,3144.16C2707.72,3143.48 2708.68,3142.8 2709.64,3142.12C2701.04,3123.83 2690.34,3104.33 2676.18,3090.77C2658.86,3074.18 2630.61,3090.74 2636.83,3113.91C2643.07,3137.18 2652.41,3162.38 2659.13,3170.87C2660.64,3172.78 2662.17,3174.54 2663.71,3176.17Z" style="fill:rgb(245,211,210);fill-rule:nonzero;"/>
            </g>
            <g transform="matrix(3.0502,0,0,3.0502,-5154.02,-5645.74)">
                <path d="M2018.69,3140.68C2025.46,3148.33 2031.38,3153.75 2039.51,3158.53C2040.14,3158.91 2040.8,3159.25 2041.45,3159.6C2062.03,3147.54 2073.96,3118.87 2070.72,3082.05C2040.54,3079.57 2017.62,3097.94 2003.26,3119.85C2008.09,3127.32 2013.17,3134.43 2018.69,3140.68Z" style="fill:rgb(245,211,210);fill-rule:nonzero;"/>
            </g>
        </g>
    </g>
</svg>
