<?xml version="1.0" encoding="UTF-8" standalone="no"?>
<!DOCTYPE svg PUBLIC "-//W3C//DTD SVG 1.1//EN" "http://www.w3.org/Graphics/SVG/1.1/DTD/svg11.dtd">
<svg width="100%" height="100%" viewBox="0 0 9150 7109" version="1.1" xmlns="http://www.w3.org/2000/svg" xmlns:xlink="http://www.w3.org/1999/xlink" xml:space="preserve" xmlns:serif="http://www.serif.com/" style="fill-rule:evenodd;clip-rule:evenodd;stroke-linejoin:round;stroke-miterlimit:2;">
    <g transform="matrix(11.4128,0,0,11.3885,7247.66,3033.72)">
        <path d="M0,71.658C-2.897,-42.685 -61.188,-199.375 -181.773,-241.596C-320.886,-290.304 -361.523,-223.563 -397.566,-112.002C-624.262,-254.018 -651.729,183.203 -595.904,316.929C-497.768,361.962 -337.984,339.699 -229.237,335.958C-100.905,331.543 2.706,330.029 132.066,330.029C132.066,330.029 236.147,51.034 0,71.658" style="fill:rgb(227,231,234);fill-rule:nonzero;"/>
    </g>
    <g transform="matrix(0.530149,11.3762,11.4005,-0.529018,7883.73,5442.69)">
        <path d="M30.951,-55.582C42.515,-55.575 53.114,-53.334 62.046,-48.797C102.638,-28.179 72.368,33.33 30.951,14.426C25.159,11.783 19.441,8.796 14.056,5.502C-14.242,-11.811 -2.224,-55.603 30.951,-55.582" style="fill:rgb(222,214,206);fill-rule:nonzero;"/>
    </g>
    <g transform="matrix(11.4128,0,0,11.3885,1644.22,5756.76)">
        <path d="M0,75.803C12.092,44.271 13.277,7.734 -18.214,-1.141C-41.093,-7.589 -149.56,83.392 0,75.803" style="fill:rgb(222,214,206);fill-rule:nonzero;"/>
    </g>
    <g transform="matrix(11.4128,0,0,11.3885,1342.87,5217.67)">
        <path d="M0,32.383C-2.762,30.415 -5.81,28.843 -9.028,27.788C-10.087,27.441 -11.148,27.103 -12.21,26.768C-12.267,24.184 -12.188,21.479 -12.047,18.73C-7.719,13.359 -4.146,7.393 -1.416,0.972C3.32,0.75 8.049,0.44 12.76,-0.022L12.76,27.355C10.294,30.591 6.495,32.405 0,32.383" style="fill-rule:nonzero;"/>
    </g>
    <g transform="matrix(-11.2457,-1.94174,-1.94589,11.2217,7576.52,5383.32)">
        <path d="M-10.776,-26.787C-13.583,-24.188 -16.32,-21.036 -19.952,-17.82C-15.878,-12.745 -13.667,-6.202 -10.776,-0.541C1.055,-13.453 5.663,-9.503 9.256,-21.797C2.502,-23.164 -4.203,-24.752 -10.776,-26.787" style="fill-rule:nonzero;"/>
    </g>
    <g transform="matrix(11.4128,0,0,11.3885,4321.18,6210.51)">
        <path d="M0,9.998C12.171,9.998 25.448,8.109 39.008,4.329L37.802,0C11.527,7.325 -13.497,7.358 -30.853,0.093L-32.588,4.237C-23.417,8.077 -12.27,9.998 0,9.998" style="fill-rule:nonzero;"/>
    </g>
</svg>
