<?xml version="1.0" encoding="UTF-8" standalone="no"?>
<!DOCTYPE svg PUBLIC "-//W3C//DTD SVG 1.1//EN" "http://www.w3.org/Graphics/SVG/1.1/DTD/svg11.dtd">
<svg width="100%" height="100%" viewBox="0 0 4000 3000" version="1.1" xmlns="http://www.w3.org/2000/svg" xmlns:xlink="http://www.w3.org/1999/xlink" xml:space="preserve" xmlns:serif="http://www.serif.com/" style="fill-rule:evenodd;clip-rule:evenodd;stroke-linecap:round;stroke-linejoin:round;stroke-miterlimit:1.5;">
    <g transform="matrix(0.738196,0,0,0.656374,-5817.67,-4567.68)">
        <path d="M10079.4,7347.49C10170.4,7238.81 10864.4,7181.76 11019.5,7159.6C11136.9,7142.82 11830.8,7137.6 12041.3,7156.35C12185.7,7169.21 12318.4,7207.64 12462.9,7220.77C12777.7,7249.39 13136,7553.45 13126.5,8085.27C13115.5,8700.41 12923.7,8789.82 12881.5,8857.34C12836.9,8928.67 12763.7,8940.43 12699.7,8989.86C12584.2,9079.12 12177.9,9102.68 11726.8,9176.1C11423.4,9225.49 11145.7,9282.23 10911.5,9260.07C10793.7,9248.93 10177.7,9207.6 10047.6,9036.65C9865.93,8797.95 9758.63,8714.74 9704.61,8141.71C9663.96,7710.44 9878.08,7414.71 10079.4,7347.49Z" style="fill:rgb(250,248,253);stroke:rgb(115,135,128);stroke-width:23.86px;"/>
        <path d="M9900.66,8837.19C9923.36,8905.27 9941.01,8924.27 9942.69,9063.07C9942.95,9084.02 9960.88,9431.8 9960.88,9478.43C9960.88,9482.74 10334.1,9258.43 10380.1,9235.46C10392.8,9229.1 10557.6,9218.66 10562.2,9218.66" style="fill:rgb(250,248,253);stroke:rgb(115,135,128);stroke-width:23.86px;"/>
    </g>
    <g transform="matrix(1.36891,0,0,1.36891,-2095.58,-2873.68)">
        <path d="M2590.22,3589.76C2590.22,3589.76 2632.18,3694.47 2673.18,3661.74C2723.46,3621.61 2640.68,3548.33 2590.22,3589.76Z" style="fill:rgb(85,102,103);fill-rule:nonzero;"/>
        <path d="M2581.9,3594.74C2570.85,3617.43 2558.36,3644.52 2554.72,3663.56L2556.63,3663.92C2560.23,3645.1 2572.66,3618.15 2583.66,3595.55C2583.07,3595.29 2582.48,3595.02 2581.9,3594.74Z" style="fill:rgb(85,102,103);fill-rule:nonzero;"/>
        <path d="M2593.66,3611.23C2594.63,3607.51 2595.54,3604 2596.35,3600.78C2596.26,3600.68 2596.18,3600.58 2596.09,3600.48C2595.89,3600.24 2595.7,3600 2595.53,3599.76C2595.24,3599.67 2594.96,3599.58 2594.68,3599.48C2593.82,3602.91 2592.84,3606.71 2591.78,3610.75C2585.35,3635.53 2577.33,3666.37 2582.96,3676.78L2584.67,3675.88C2579.4,3666.13 2587.65,3634.4 2593.66,3611.23Z" style="fill:rgb(85,102,103);fill-rule:nonzero;"/>
        <path d="M2599.57,3698.23C2599.5,3698.22 2599.42,3698.2 2599.35,3698.17C2597.23,3697.49 2596.14,3692.42 2596.86,3668.52C2596.89,3667.38 2596.92,3666.44 2596.93,3665.77C2597.02,3661.28 2597.26,3656.68 2597.5,3651.8C2598.27,3636.75 2599.07,3621.18 2595.59,3607.72L2597.47,3607.25C2601.02,3620.99 2600.22,3636.71 2599.44,3651.9C2599.2,3656.76 2598.96,3661.35 2598.87,3665.81C2598.86,3666.48 2598.83,3667.43 2598.8,3668.58C2598.3,3685.3 2598.66,3694.59 2599.88,3696.24C2599.97,3696.15 2600.1,3696.01 2600.26,3695.77L2601.87,3696.85C2601.14,3697.91 2600.36,3698.37 2599.57,3698.23Z" style="fill:rgb(85,102,103);fill-rule:nonzero;"/>
        <path d="M2649.58,3484.22C2648.76,3483.47 2647.67,3484.35 2646.96,3484.92L2647.65,3485.75C2646.78,3487.34 2644.47,3490.65 2642.84,3492.97C2641.17,3495.36 2639.74,3497.42 2639.16,3498.47C2625.41,3523.57 2614.01,3547.97 2603.78,3570.81C2604.25,3571.35 2604.71,3571.9 2605.16,3572.46C2615.49,3549.41 2626.97,3524.74 2640.87,3499.38C2641.4,3498.42 2642.88,3496.3 2644.44,3494.06C2650.01,3486.1 2650.54,3485.08 2649.58,3484.22Z" style="fill:rgb(85,102,103);fill-rule:nonzero;"/>
        <path d="M2665.53,3518.27C2660.78,3522.38 2654.51,3530.35 2647.26,3539.56C2635.27,3554.8 2620.94,3573.04 2609.54,3578.18C2609.93,3578.72 2610.26,3579.26 2610.53,3579.82C2622.32,3574.39 2636.21,3556.73 2648.8,3540.74C2655.99,3531.6 2662.2,3523.7 2666.82,3519.71L2665.53,3518.27Z" style="fill:rgb(85,102,103);fill-rule:nonzero;"/>
        <path d="M2704.68,3534.5C2679.14,3544.18 2656.16,3560.38 2633.94,3576.04C2628.94,3579.57 2623.85,3583.15 2618.73,3586.66C2618.76,3586.68 2618.8,3586.7 2618.83,3586.71C2619.47,3587.02 2620.04,3587.36 2620.58,3587.73C2625.46,3584.37 2630.31,3580.96 2635.07,3577.6C2657.2,3562.01 2680.07,3545.88 2705.38,3536.28L2704.68,3534.5Z" style="fill:rgb(85,102,103);fill-rule:nonzero;"/>
        <path d="M2188.09,3113.78C2285.8,3251.75 2408.71,3370.16 2519.47,3495.33C2549.61,3529.4 2579.47,3565.67 2614.05,3595.31C2552.69,3634.41 2457.5,3625.05 2385.91,3643.74C2310.9,3663.32 2254.55,3668.87 2176.71,3663.02C2215.43,3733.94 2235.55,3848.24 2302.07,3900.22C2267.15,3966.75 2177.9,3961.02 2113.18,3964.24C2025.11,3968.62 1946.3,3974.41 1910.12,3884.83C1869.46,3784.17 1887.32,3679.32 1887.44,3574.95C1887.56,3482.14 1894.93,3343.88 1955.98,3271.04C2014.15,3201.63 2093.36,3130.79 2179.94,3102.87L2188.09,3113.78Z" style="fill:rgb(173,182,173);fill-rule:nonzero;"/>
        <path d="M1913.91,3694.24C1913.95,3689.54 1914.51,3684.58 1915.32,3680.02C1898.86,3728.75 1777.39,3871.12 1728.08,3797.84C1755.05,3780.2 1788.6,3789.64 1820.36,3771.16C1858.47,3748.99 1882.33,3719.64 1890.35,3671.07L1913.91,3694.24Z" style="fill:rgb(173,182,173);fill-rule:nonzero;"/>
        <path d="M2289.65,3887.71C2277.08,3935.73 2405.47,3981.07 2442.87,3940.92C2441.37,4020.3 2287.98,3934.1 2259.58,3927.14L2289.65,3887.71Z" style="fill:rgb(173,182,173);fill-rule:nonzero;"/>
        <path d="M1975.55,3939.36C1968.67,3974.6 2003.34,4103.46 2030.72,4122.09C2041.05,4079.38 1991.43,4026.62 2007.73,3952.99L1975.55,3939.36Z" style="fill:rgb(173,182,173);fill-rule:nonzero;"/>
        <path d="M1917.24,3838.42C1854,3830.48 1782.7,3830.58 1716.32,3824.53C1721.34,3830.96 1724.35,3839.37 1729.56,3845.52C1718.5,3839.88 1705.19,3837.81 1695.19,3831.19C1697.1,3836.26 1698.75,3845.08 1700.92,3850.04C1684.76,3849.14 1669.7,3843.62 1656.91,3834.16C1663.94,3840.93 1669.34,3853.78 1675.05,3860.62C1669.2,3860.28 1662.68,3860.46 1656.87,3859.68C1670.09,3950.52 1893.85,3954.18 1950.42,3911.37L1917.24,3838.42Z" style="fill:rgb(173,182,173);fill-rule:nonzero;"/>
        <path d="M2178.59,3111.69C2110.8,3048.48 2023.71,2993.66 1932.51,2973.27C1951.14,3046.87 2014.18,3116.74 2061.23,3178.11L2178.59,3111.69Z" style="fill:rgb(173,182,173);fill-rule:nonzero;"/>
        <path d="M2048.1,3219.76C1989.9,3159.39 1920.38,3043.79 1841.99,3001.55C1832.57,3066.84 1828.43,3139.78 1844.2,3207.23C1858.58,3268.77 1888.82,3301.93 1922.03,3348.48L2048.1,3219.76Z" style="fill:rgb(173,182,173);fill-rule:nonzero;"/>
        <path d="M1992.75,3398.16C1978.64,3395.6 1965.01,3391.11 1953.79,3385.27L1955.15,3382.74C1967.82,3389.33 1983.65,3394.17 1999.72,3396.36L1999.32,3399.2C1997.12,3398.9 1994.93,3398.55 1992.75,3398.16Z" style="fill:rgb(85,102,103);fill-rule:nonzero;"/>
        <path d="M2010.93,3362.37C2000.29,3360.44 1989.84,3357.8 1980.71,3352.68L1982.14,3350.19C1994.3,3357.01 2009.2,3359.31 2023.61,3361.54C2026.01,3361.91 2028.39,3362.28 2030.73,3362.66L2030.26,3365.49C2027.93,3365.11 2025.55,3364.74 2023.16,3364.37C2019.1,3363.74 2015,3363.11 2010.93,3362.37Z" style="fill:rgb(85,102,103);fill-rule:nonzero;"/>
        <path d="M2120.72,3357.46C2108.94,3351.02 2097.54,3346.67 2083.74,3343.34L2084.42,3340.56C2098.48,3343.95 2110.12,3348.39 2122.14,3354.96L2120.72,3357.46Z" style="fill:rgb(85,102,103);fill-rule:nonzero;"/>
        <path d="M2135.66,3410.73C2124.8,3405.01 2112.18,3401.59 2100.17,3398.75L2100.84,3395.96C2113.05,3398.85 2125.88,3402.32 2137.03,3408.2L2135.66,3410.73Z" style="fill:rgb(85,102,103);fill-rule:nonzero;"/>
        <path d="M2101.93,3451.5L2061.4,3444.16L2061.92,3441.34L2102.45,3448.68L2101.93,3451.5Z" style="fill:rgb(85,102,103);fill-rule:nonzero;"/>
        <path d="M2045.72,3386.96L2045.43,3384.1C2055.03,3383.2 2063.39,3384.72 2070.25,3388.63L2068.79,3391.11C2062.47,3387.51 2054.71,3386.11 2045.72,3386.96Z" style="fill:rgb(85,102,103);fill-rule:nonzero;"/>
        <path d="M2228.43,3414.48C2212.85,3408.47 2197.58,3402.74 2182.02,3398.6L2182.78,3395.83C2198.48,3400.01 2213.83,3405.77 2229.49,3411.81L2228.43,3414.48Z" style="fill:rgb(85,102,103);fill-rule:nonzero;"/>
        <path d="M2237.96,3453.52C2230.15,3447.64 2220.77,3446.31 2210.83,3444.91C2209.89,3444.78 2208.94,3444.64 2207.99,3444.5L2208.41,3441.67C2209.35,3441.8 2210.3,3441.94 2211.24,3442.07C2221.11,3443.47 2231.31,3444.91 2239.73,3451.24L2237.96,3453.52Z" style="fill:rgb(85,102,103);fill-rule:nonzero;"/>
        <path d="M2160.54,3441.48C2153.25,3438.26 2145.11,3435.57 2135.67,3433.27L2136.36,3430.49C2145.98,3432.83 2154.28,3435.57 2161.73,3438.87L2160.54,3441.48Z" style="fill:rgb(85,102,103);fill-rule:nonzero;"/>
        <path d="M2177.44,3341.6L2140.59,3334.92L2141.11,3332.1L2177.96,3338.78L2177.44,3341.6Z" style="fill:rgb(85,102,103);fill-rule:nonzero;"/>
        <path d="M2156.37,3287.07C2144.13,3277.93 2132.08,3269.11 2119.33,3261.7L2120.81,3259.23C2133.69,3266.71 2145.81,3275.59 2158.13,3284.79L2156.37,3287.07Z" style="fill:rgb(85,102,103);fill-rule:nonzero;"/>
        <path d="M2146.14,3217.7C2133.81,3205.18 2123.88,3192.59 2116.62,3180.27L2119.13,3178.84C2126.28,3190.96 2136.07,3203.36 2148.23,3215.7L2146.14,3217.7Z" style="fill:rgb(85,102,103);fill-rule:nonzero;"/>
        <path d="M2147.47,3146.32C2144.74,3138.64 2139.04,3132.61 2129.01,3126.77L2130.49,3124.3C2141.16,3130.51 2147.24,3137.01 2150.22,3145.38L2147.47,3146.32Z" style="fill:rgb(85,102,103);fill-rule:nonzero;"/>
        <path d="M2101.08,3256.44C2093.54,3250.55 2086.7,3243.1 2080.17,3233.67L2082.58,3232.06C2088.94,3241.24 2095.58,3248.49 2102.89,3254.2L2101.08,3256.44Z" style="fill:rgb(85,102,103);fill-rule:nonzero;"/>
        <path d="M2076.24,3296.7C2071.27,3290.64 2063.01,3285.12 2054.97,3279.98L2056.56,3277.57C2064.79,3282.84 2073.26,3288.52 2078.51,3294.9L2076.24,3296.7Z" style="fill:rgb(85,102,103);fill-rule:nonzero;"/>
        <path d="M2031.55,3322.32C2025.73,3315.54 2017.94,3310.46 2008.41,3307.21L2009.35,3304.5C2019.25,3307.87 2027.7,3313.4 2033.78,3320.48L2031.55,3322.32Z" style="fill:rgb(85,102,103);fill-rule:nonzero;"/>
        <path d="M2056.46,3250.18C2050.38,3244.82 2042.36,3240.92 2032.64,3238.59L2033.32,3235.81C2043.52,3238.25 2051.96,3242.37 2058.4,3248.05L2056.46,3250.18Z" style="fill:rgb(85,102,103);fill-rule:nonzero;"/>
        <path d="M2125.84,3311.66C2117.18,3310.05 2111.72,3304.17 2106.44,3298.48L2108.59,3296.55C2113.78,3302.13 2118.67,3307.41 2126.38,3308.84L2125.84,3311.66Z" style="fill:rgb(85,102,103);fill-rule:nonzero;"/>
        <path d="M2222.66,3321.67C2216.99,3319.22 2211.19,3315.84 2205.58,3312.57C2204.3,3311.82 2203.01,3311.07 2201.74,3310.34L2203.21,3307.87C2204.49,3308.6 2205.77,3309.35 2207.06,3310.1C2212.6,3313.33 2218.32,3316.67 2223.83,3319.04L2222.66,3321.67Z" style="fill:rgb(85,102,103);fill-rule:nonzero;"/>
        <path d="M2194.17,3267.68L2191.03,3265.11C2182.99,3258.52 2174.68,3251.71 2165.96,3245.77L2167.62,3243.41C2176.44,3249.43 2184.81,3256.28 2192.9,3262.91L2196.03,3265.47L2194.17,3267.68Z" style="fill:rgb(85,102,103);fill-rule:nonzero;"/>
        <path d="M2085.85,3214.26C2082.97,3211.33 2080.67,3207.31 2078.44,3203.42C2074.88,3197.21 2071.52,3191.34 2066.39,3190.41C2066.39,3190.41 2066.38,3190.41 2066.37,3190.41L2066.89,3187.58C2066.89,3187.59 2066.91,3187.59 2066.91,3187.59C2073.39,3188.76 2077.25,3195.5 2080.98,3202.02C2083.12,3205.75 2085.33,3209.61 2087.95,3212.27L2085.85,3214.26Z" style="fill:rgb(85,102,103);fill-rule:nonzero;"/>
        <path d="M2173.6,3201.89C2168.88,3194.81 2162.88,3189.1 2156.53,3183.06C2153.8,3180.47 2150.98,3177.79 2148.3,3175.01L2150.41,3173.04C2153.05,3175.77 2155.84,3178.43 2158.55,3181C2164.74,3186.89 2171.14,3192.97 2176.04,3200.32L2173.6,3201.89Z" style="fill:rgb(85,102,103);fill-rule:nonzero;"/>
        <path d="M2252.28,3302.41C2244.89,3294.01 2238.97,3284.72 2232.54,3274.33L2235.03,3272.84C2241.39,3283.12 2247.24,3292.31 2254.48,3300.54L2252.28,3302.41Z" style="fill:rgb(85,102,103);fill-rule:nonzero;"/>
        <path d="M2293.75,3368.16C2285.34,3362.24 2275.52,3357.52 2266.03,3352.95L2262.8,3351.4L2264.08,3348.82L2267.3,3350.38C2276.9,3354.99 2286.83,3359.77 2295.44,3365.82L2293.75,3368.16Z" style="fill:rgb(85,102,103);fill-rule:nonzero;"/>
        <path d="M2230.7,3381.17C2225.88,3379.02 2221.3,3376.33 2216.87,3373.74C2212.94,3371.44 2208.88,3369.06 2204.71,3367.09L2205.96,3364.5C2210.25,3366.53 2214.37,3368.94 2218.36,3371.28C2222.72,3373.83 2227.22,3376.47 2231.89,3378.56L2230.7,3381.17Z" style="fill:rgb(85,102,103);fill-rule:nonzero;"/>
        <path d="M2314.8,3448.57C2309.07,3442.25 2297.02,3438.15 2286.39,3434.53C2282.24,3433.12 2278.32,3431.78 2274.95,3430.39L2276.08,3427.75C2279.35,3429.11 2283.23,3430.43 2287.34,3431.82C2298.3,3435.55 2310.73,3439.78 2316.97,3446.66L2314.8,3448.57Z" style="fill:rgb(85,102,103);fill-rule:nonzero;"/>
        <path d="M2303.52,3484.53C2295.95,3483.16 2288.4,3481.39 2281.31,3478.35L2282.47,3475.72C2292.24,3479.91 2303.1,3481.63 2313.6,3483.3C2315.28,3483.57 2316.97,3483.83 2318.64,3484.11L2318.17,3486.94C2316.5,3486.66 2314.82,3486.39 2313.14,3486.13C2309.95,3485.62 2306.73,3485.11 2303.52,3484.53Z" style="fill:rgb(85,102,103);fill-rule:nonzero;"/>
        <path d="M2303.73,3409.41C2295.37,3406.91 2287.77,3402.11 2280.42,3397.45C2276.11,3394.73 2271.66,3391.91 2267.14,3389.62L2268.47,3387.08C2273.11,3389.42 2277.62,3392.28 2281.99,3395.04C2289.17,3399.59 2296.59,3404.29 2304.57,3406.67L2303.73,3409.41Z" style="fill:rgb(85,102,103);fill-rule:nonzero;"/>
        <path d="M2390.26,3464.3C2387.25,3462.27 2382.79,3460.65 2378.07,3458.94C2372.49,3456.92 2366.73,3454.84 2362.12,3451.71L2363.77,3449.35C2368.07,3452.27 2373.66,3454.29 2379.07,3456.25C2383.96,3458.03 2388.59,3459.7 2391.9,3461.93L2390.26,3464.3Z" style="fill:rgb(85,102,103);fill-rule:nonzero;"/>
        <path d="M2389.74,3497.9C2385.49,3494.94 2378.26,3491.92 2371.28,3489.01C2368.58,3487.89 2366.04,3486.83 2363.69,3485.78L2364.89,3483.17C2367.2,3484.2 2369.73,3485.25 2372.41,3486.37C2379.54,3489.34 2386.91,3492.42 2391.42,3495.56L2389.74,3497.9Z" style="fill:rgb(85,102,103);fill-rule:nonzero;"/>
        <path d="M2277.16,3458.83C2273.43,3456.76 2269.43,3455.41 2265.19,3453.97C2260.91,3452.53 2256.47,3451.03 2252.36,3448.72L2253.8,3446.23C2257.68,3448.4 2261.98,3449.86 2266.13,3451.26C2270.31,3452.67 2274.62,3454.13 2278.58,3456.33L2277.16,3458.83Z" style="fill:rgb(85,102,103);fill-rule:nonzero;"/>
        <path d="M2216.16,3478.15C2208.87,3476.83 2201.62,3475.09 2194.87,3472.04L2196.08,3469.43C2205.45,3473.67 2216.05,3475.31 2226.29,3476.9C2229.45,3477.39 2232.72,3477.9 2235.89,3478.48C2235.91,3478.48 2235.92,3478.48 2235.93,3478.48L2235.41,3481.3C2235.4,3481.3 2235.39,3481.3 2235.37,3481.3C2232.23,3480.73 2228.98,3480.22 2225.84,3479.74C2222.63,3479.24 2219.39,3478.73 2216.16,3478.15Z" style="fill:rgb(85,102,103);fill-rule:nonzero;"/>
        <path d="M2410.08,3533.5C2401.5,3529.62 2391.08,3527.3 2381,3525.05C2377.51,3524.28 2373.9,3523.47 2370.48,3522.63L2371.18,3519.85C2374.57,3520.68 2378.16,3521.48 2381.64,3522.26C2391.87,3524.53 2402.44,3526.89 2411.3,3530.9L2410.08,3533.5Z" style="fill:rgb(85,102,103);fill-rule:nonzero;"/>
        <path d="M2317.66,3518.64C2305.96,3513.58 2293.87,3508.35 2280.34,3506.3L2280.78,3503.46C2294.7,3505.59 2306.96,3510.88 2318.83,3516.01L2317.66,3518.64Z" style="fill:rgb(85,102,103);fill-rule:nonzero;"/>
        <path d="M2477.01,3551.16C2474.01,3549.07 2470.56,3547.44 2466.9,3545.71C2461.99,3543.39 2456.93,3540.99 2452.76,3537.32L2454.7,3535.19C2458.56,3538.59 2463.44,3540.89 2468.15,3543.12C2471.76,3544.83 2475.49,3546.59 2478.69,3548.82L2477.01,3551.16Z" style="fill:rgb(85,102,103);fill-rule:nonzero;"/>
        <path d="M2453.66,3521.11C2441.66,3518.93 2431.67,3511.97 2423.22,3499.93L2425.61,3498.3C2434.63,3511.15 2445.45,3517.88 2458.69,3518.86L2458.48,3521.71C2456.84,3521.59 2455.23,3521.39 2453.66,3521.11Z" style="fill:rgb(85,102,103);fill-rule:nonzero;"/>
        <path d="M2498.95,3523.04C2494.89,3517.67 2489.47,3513.66 2482.84,3511.13L2483.89,3508.46C2491.05,3511.19 2496.9,3515.52 2501.28,3521.34L2498.95,3523.04Z" style="fill:rgb(85,102,103);fill-rule:nonzero;"/>
        <path d="M2527.43,3567.86L2510.01,3559.08L2511.34,3556.53L2528.75,3565.31L2527.43,3567.86Z" style="fill:rgb(85,102,103);fill-rule:nonzero;"/>
        <path d="M2350.83,3419.67C2341.19,3412.46 2332.41,3403.37 2323.91,3394.58C2321.53,3392.12 2319.08,3389.58 2316.67,3387.16L2318.75,3385.16C2321.17,3387.6 2323.64,3390.14 2326.02,3392.61C2334.44,3401.31 2343.14,3410.32 2352.59,3417.39L2350.83,3419.67Z" style="fill:rgb(85,102,103);fill-rule:nonzero;"/>
        <path d="M2223.47,3240.83C2217.97,3231.47 2210.81,3222.06 2202.22,3212.85L2204.36,3210.92C2213.1,3220.28 2220.38,3229.86 2225.99,3239.39L2223.47,3240.83Z" style="fill:rgb(85,102,103);fill-rule:nonzero;"/>
        <path d="M2173.73,3137.87C2171.37,3129.21 2167.84,3121.98 2162.93,3115.78L2165.23,3114.03C2170.38,3120.54 2174.08,3128.1 2176.55,3137.13L2173.73,3137.87Z" style="fill:rgb(85,102,103);fill-rule:nonzero;"/>
        <path d="M1981.64,3427.9C1971.52,3426.06 1961.92,3421.67 1953.73,3415.1L1955.56,3412.88C1964.22,3419.82 1974.06,3424.07 1984.81,3425.49L1984.43,3428.34C1983.5,3428.21 1982.56,3428.06 1981.64,3427.9Z" style="fill:rgb(85,102,103);fill-rule:nonzero;"/>
        <path d="M2057.74,3428.88C2050.55,3427.57 2043.63,3425.58 2038.27,3421.04L2040.16,3418.87C2046.8,3424.48 2056.52,3425.89 2065.92,3427.26C2068.67,3427.66 2071.28,3428.03 2073.82,3428.51L2073.28,3431.33C2070.79,3430.86 2068.22,3430.49 2065.5,3430.09C2062.92,3429.72 2060.31,3429.34 2057.74,3428.88Z" style="fill:rgb(85,102,103);fill-rule:nonzero;"/>
        <path d="M2154.32,3374.89C2149.65,3374.04 2144.65,3372.54 2140.18,3371.2C2137.28,3370.33 2134.55,3369.51 2132.32,3369L2132.98,3366.21C2135.3,3366.74 2138.08,3367.58 2141.02,3368.46C2145.95,3369.94 2151.55,3371.61 2156.48,3372.34L2156.06,3375.17C2155.49,3375.09 2154.91,3374.99 2154.32,3374.89Z" style="fill:rgb(85,102,103);fill-rule:nonzero;"/>
        <path d="M2250.28,3364.22C2240.43,3362.43 2224.12,3346.63 2223.4,3345.93L2225.45,3343.89C2232.49,3350.76 2245.3,3361.12 2251.64,3361.5L2251.47,3364.37C2251.08,3364.34 2250.68,3364.29 2250.28,3364.22Z" style="fill:rgb(85,102,103);fill-rule:nonzero;"/>
        <path d="M2279.93,3341.4C2272.23,3337.99 2266.29,3331.95 2260.54,3326.11C2259.16,3324.71 2257.79,3323.31 2256.38,3321.95L2258.43,3319.91C2259.85,3321.29 2261.24,3322.7 2262.63,3324.12C2268.19,3329.77 2273.93,3335.6 2281.12,3338.79L2279.93,3341.4Z" style="fill:rgb(85,102,103);fill-rule:nonzero;"/>
        <path d="M2344.32,3503.23C2338.77,3502.22 2333.39,3500.82 2328.88,3498.15L2330.37,3495.69C2336.37,3499.24 2344.35,3500.41 2352.08,3501.56C2354.39,3501.9 2356.77,3502.25 2359.03,3502.66L2358.51,3505.48C2356.3,3505.08 2354.04,3504.75 2351.65,3504.39C2349.21,3504.03 2346.75,3503.67 2344.32,3503.23Z" style="fill:rgb(85,102,103);fill-rule:nonzero;"/>
        <path d="M2341.97,3470.86C2333.86,3469.39 2326.96,3465.34 2322.26,3459.21L2324.58,3457.48C2329.52,3463.92 2337.18,3467.83 2346.14,3468.5L2345.93,3471.36C2344.58,3471.26 2343.26,3471.09 2341.97,3470.86Z" style="fill:rgb(85,102,103);fill-rule:nonzero;"/>
        <path d="M2457.61,3500.76C2454.3,3497.87 2450.64,3495.14 2447.1,3492.51C2441.57,3488.41 2435.86,3484.17 2431.04,3479.01L2433.18,3477.07C2437.83,3482.04 2443.43,3486.2 2448.85,3490.23C2452.43,3492.89 2456.15,3495.65 2459.54,3498.62L2457.61,3500.76Z" style="fill:rgb(85,102,103);fill-rule:nonzero;"/>
        <path d="M2430.07,3556.42C2423.86,3555.3 2417.81,3553.7 2412.49,3550.76L2413.92,3548.26C2421.52,3552.47 2431.01,3553.79 2440.2,3555.08C2443.45,3555.53 2446.82,3556 2449.98,3556.59L2449.45,3559.41C2446.33,3558.83 2443.16,3558.39 2439.8,3557.91C2436.57,3557.46 2433.3,3557.01 2430.07,3556.42Z" style="fill:rgb(85,102,103);fill-rule:nonzero;"/>
        <path d="M2181.48,3575.28C2177.44,3576.17 2175.16,3578.88 2169.94,3580.83L2167.61,3589.52C2168.24,3590.98 2168.75,3592.52 2169.14,3594.12C2169.35,3595.01 2169.55,3595.91 2169.73,3596.81C2182.81,3600.24 2189.57,3597.02 2188.87,3579.24C2186.29,3578.2 2183.82,3576.84 2181.48,3575.28Z" style="fill:rgb(85,102,103);fill-rule:nonzero;"/>
        <path d="M2369.63,3341.58C2359.97,3342.19 2351.99,3347.99 2346.79,3353.04C2341.21,3358.47 2338.74,3366.4 2340.76,3373.83C2347.87,3400.05 2392.45,3391.05 2385.64,3353.98C2384.26,3346.46 2377.39,3341.09 2369.63,3341.58Z" style="fill:rgb(235,208,201);fill-rule:nonzero;"/>
        <path d="M2229.94,3579.85C2215.84,3579.99 2210.87,3592.96 2208.79,3599.88C2182.72,3686.52 2336.79,3578.81 2229.94,3579.85Z" style="fill:rgb(235,208,201);fill-rule:nonzero;"/>
        <path d="M2330.65,3328.2C2326.61,3329.09 2324.33,3331.8 2319.11,3333.75L2316.78,3342.44C2317.41,3343.9 2317.92,3345.44 2318.31,3347.04C2318.52,3347.93 2318.72,3348.83 2318.9,3349.73C2331.98,3353.16 2338.74,3349.94 2338.04,3332.16C2335.45,3331.12 2332.99,3329.76 2330.65,3328.2Z" style="fill:rgb(85,102,103);fill-rule:nonzero;"/>
        <path d="M1907.2,3115.18C1941.52,3149.87 1978.09,3208.1 2007.81,3237.91C2004.6,3243.6 2001.43,3249.32 1998.36,3255.09C1990.88,3269.17 1983.83,3283.47 1977.2,3297.97C1971.08,3311.35 1965.35,3324.91 1959.96,3338.6C1902.84,3274.37 1892.01,3210.41 1907.2,3115.18Z" style="fill:rgb(235,208,201);fill-rule:nonzero;"/>
        <path d="M1881.47,3907.11C1894.11,3908.94 1904.46,3906.42 1918.27,3902.47L1917.73,3900.61C1902.96,3904.84 1892.25,3907.4 1878.4,3904.61L1878.02,3906.51C1879.19,3906.74 1880.34,3906.94 1881.47,3907.11Z" style="fill:rgb(85,102,103);fill-rule:nonzero;"/>
        <path d="M1866.75,3885.22C1867.94,3885.03 1869.1,3884.85 1870.25,3884.68C1879.99,3883.18 1888.41,3881.89 1897.74,3876.49L1896.78,3874.82C1887.75,3880.03 1879.51,3881.3 1869.96,3882.76C1868.81,3882.94 1867.63,3883.12 1866.45,3883.31L1866.75,3885.22Z" style="fill:rgb(85,102,103);fill-rule:nonzero;"/>
        <path d="M1890.27,3891.91C1895.5,3891.19 1901.14,3891.44 1906.14,3892.62L1906.59,3890.74C1901.28,3889.49 1895.54,3889.23 1890,3890L1890.27,3891.91Z" style="fill:rgb(85,102,103);fill-rule:nonzero;"/>
        <path d="M1813.55,3902.02C1820.97,3901.71 1828.8,3901.77 1836.38,3901.83C1839.67,3901.85 1842.96,3901.88 1846.21,3901.87L1846.21,3899.94C1842.96,3899.94 1839.68,3899.92 1836.39,3899.89C1828.79,3899.84 1820.94,3899.78 1813.47,3900.08L1813.55,3902.02Z" style="fill:rgb(85,102,103);fill-rule:nonzero;"/>
        <path d="M1820.41,3921.04C1828.31,3922.19 1836.34,3922.72 1844.12,3923.23C1845.92,3923.35 1847.72,3923.47 1849.51,3923.6L1849.65,3921.67C1847.85,3921.54 1846.05,3921.43 1844.25,3921.31C1835.45,3920.72 1826.35,3920.12 1817.51,3918.63L1817.19,3920.53C1818.26,3920.71 1819.34,3920.88 1820.41,3921.04Z" style="fill:rgb(85,102,103);fill-rule:nonzero;"/>
        <path d="M1805.66,3876.7C1811.68,3877.57 1817.76,3878.07 1823.75,3877.34L1823.52,3875.42C1815,3876.46 1806.14,3874.91 1797.58,3873.4C1795.56,3873.05 1793.55,3872.69 1791.56,3872.38L1791.25,3874.28C1793.24,3874.6 1795.24,3874.95 1797.25,3875.3C1800.03,3875.79 1802.84,3876.29 1805.66,3876.7Z" style="fill:rgb(85,102,103);fill-rule:nonzero;"/>
        <path d="M1721.04,3885.31L1748.24,3889.27L1748.52,3887.35L1721.32,3883.4L1721.04,3885.31Z" style="fill:rgb(85,102,103);fill-rule:nonzero;"/>
        <path d="M1772.85,3911.09C1778.84,3911.96 1784.91,3912.45 1790.96,3911.78L1790.75,3909.87C1781.87,3910.84 1772.8,3909.22 1764.03,3907.65L1761.99,3907.28L1761.65,3909.19L1763.68,3909.55C1766.71,3910.09 1769.77,3910.64 1772.85,3911.09Z" style="fill:rgb(85,102,103);fill-rule:nonzero;"/>
        <path d="M1771.91,3889.57C1776.34,3890.21 1780.87,3889.65 1784.89,3887.92L1784.13,3886.14C1779.74,3888.03 1774.68,3888.41 1769.88,3887.2L1769.41,3889.07C1770.24,3889.28 1771.07,3889.45 1771.91,3889.57Z" style="fill:rgb(85,102,103);fill-rule:nonzero;"/>
        <path d="M1769.94,3856.81C1775.99,3857.69 1781.99,3857.33 1787.82,3855.73L1787.31,3853.87C1780.05,3855.86 1772.53,3855.84 1764.95,3853.81L1764.45,3855.67C1766.28,3856.16 1768.11,3856.54 1769.94,3856.81Z" style="fill:rgb(85,102,103);fill-rule:nonzero;"/>
        <path d="M1830.71,3852.27C1839.67,3853.58 1847.49,3853.02 1853.99,3850.61L1853.32,3848.8C1846.68,3851.26 1838.54,3851.69 1829.12,3850.06L1828.79,3851.97C1829.44,3852.08 1830.08,3852.18 1830.71,3852.27Z" style="fill:rgb(85,102,103);fill-rule:nonzero;"/>
        <path d="M1845.72,3869.16C1851.92,3870.06 1858.33,3869.84 1864.33,3868.51L1863.92,3866.62C1857.69,3868 1851.02,3868.13 1844.63,3867.02L1844.3,3868.93C1844.77,3869.01 1845.25,3869.09 1845.72,3869.16Z" style="fill:rgb(85,102,103);fill-rule:nonzero;"/>
        <path d="M1882.03,3848.46C1886.85,3849.16 1891.73,3849.53 1896.58,3848.71L1896.25,3846.81C1889.74,3847.91 1882.97,3846.72 1876.43,3845.58C1875.6,3845.43 1874.77,3845.29 1873.94,3845.15L1873.62,3847.05C1874.45,3847.19 1875.27,3847.34 1876.1,3847.48C1878.06,3847.82 1880.04,3848.17 1882.03,3848.46Z" style="fill:rgb(85,102,103);fill-rule:nonzero;"/>
        <path d="M1767.11,3839.7C1773,3839.17 1778.56,3839.55 1784.45,3839.95C1787.75,3840.17 1791.15,3840.4 1794.67,3840.46L1794.71,3838.53C1791.24,3838.47 1787.85,3838.24 1784.59,3838.02C1778.61,3837.61 1772.97,3837.23 1766.94,3837.78L1767.11,3839.7Z" style="fill:rgb(85,102,103);fill-rule:nonzero;"/>
        <path d="M1699.41,3896.21C1702.83,3896.71 1706.29,3896.93 1709.78,3896.72L1709.66,3894.79C1699.16,3895.4 1688.81,3892.03 1678.8,3888.76L1678.25,3888.59L1677.65,3890.42L1678.2,3890.6C1685.11,3892.85 1692.18,3895.16 1699.41,3896.21Z" style="fill:rgb(85,102,103);fill-rule:nonzero;"/>
        <path d="M1728.05,3915.74L1747.25,3918.53L1747.53,3916.62L1728.33,3913.83L1728.05,3915.74Z" style="fill:rgb(85,102,103);fill-rule:nonzero;"/>
        <path d="M1723.63,3861.34C1725.41,3861.6 1727.22,3861.82 1729.06,3862.05C1731.21,3862.32 1733.45,3862.59 1735.73,3862.94L1736.02,3861.03C1733.71,3860.68 1731.46,3860.4 1729.3,3860.13C1722.36,3859.27 1715.8,3858.46 1709.3,3855.55L1708.51,3857.31C1713.53,3859.55 1718.5,3860.59 1723.63,3861.34Z" style="fill:rgb(85,102,103);fill-rule:nonzero;"/>
        <path d="M1688.82,3872.61C1693.2,3873.24 1697.63,3873.58 1701.97,3872.68L1701.58,3870.78C1696.07,3871.92 1690.22,3870.93 1684.56,3869.96C1682.83,3869.66 1681.04,3869.36 1679.28,3869.12L1679.02,3871.03C1680.75,3871.26 1682.52,3871.57 1684.24,3871.87C1685.75,3872.12 1687.29,3872.39 1688.82,3872.61Z" style="fill:rgb(85,102,103);fill-rule:nonzero;"/>
        <path d="M2228.61,3951.57C2227.73,3951.79 2226.85,3952.01 2225.97,3952.23C2209.76,3935.95 2189.12,3917.01 2173.43,3926.25C2163.49,3932.1 2160.48,3948.49 2160.9,3962.52C2159.93,3962.66 2158.97,3962.8 2157.99,3962.91C2157.48,3947.91 2160.83,3930.31 2171.95,3923.75C2189.93,3913.17 2212.18,3934.2 2229.24,3951.42C2229.03,3951.47 2228.83,3951.52 2228.61,3951.57Z" style="fill:rgb(249,249,246);fill-rule:nonzero;"/>
        <path d="M2254.06,3944.13C2251.43,3941.62 2248.83,3939.1 2246.27,3936.61C2225.17,3916.14 2203.35,3894.97 2175.54,3883.12C2149.92,3872.21 2132.95,3871.94 2123.67,3882.3C2114.02,3893.08 2109.12,3936.76 2114.64,3962.88C2114.66,3963.02 2114.7,3963.15 2114.73,3963.28C2113.73,3963.22 2112.72,3963.16 2111.72,3963.09C2106.08,3935.73 2111.25,3891.82 2121.51,3880.37C2131.73,3868.97 2149.77,3869 2176.68,3880.46C2204.99,3892.51 2227,3913.87 2248.29,3934.53C2250.85,3937.01 2253.45,3939.54 2256.07,3942.05C2255.39,3942.75 2254.72,3943.44 2254.06,3944.13Z" style="fill:rgb(249,249,246);fill-rule:nonzero;"/>
        <path d="M2263.5,3934.72C2252.4,3924.53 2242.3,3913.16 2232.43,3902.03C2211.29,3878.21 2189.44,3853.58 2158.3,3841.33C2155.74,3840.33 2153.1,3839.23 2150.3,3838.07C2128.21,3828.9 2100.72,3817.49 2084.5,3838.26C2065.78,3862.23 2066.07,3912.42 2074.47,3935.09C2076.64,3940.97 2081.38,3951.33 2086.55,3961.43C2085.46,3961.37 2084.36,3961.3 2083.26,3961.25C2077.75,3950.29 2073.11,3939.77 2071.75,3936.1C2062.92,3912.26 2062.6,3861.59 2082.22,3836.48C2099.8,3813.97 2129.63,3826.35 2151.41,3835.39C2154.2,3836.55 2156.83,3837.64 2159.36,3838.63C2191.14,3851.13 2213.24,3876.03 2234.6,3900.11C2244.47,3911.23 2254.56,3922.6 2265.62,3932.74C2264.91,3933.4 2264.2,3934.06 2263.5,3934.72Z" style="fill:rgb(249,249,246);fill-rule:nonzero;"/>
        <path d="M2280.05,3920.93C2276.58,3915.5 2273.37,3909.78 2270.47,3904.64C2267.68,3899.68 2265.28,3895.39 2263.36,3892.7C2252.09,3876.9 2237.92,3858.65 2218.28,3843.15C2215.41,3840.88 2212.47,3838.53 2209.46,3836.12C2180.95,3813.29 2145.46,3784.89 2108.37,3783.66C2095.63,3783.24 2085.08,3787.53 2077.02,3796.43C2049.7,3826.58 2056.97,3899.92 2059.84,3921.68C2060.08,3923.47 2060.32,3925.37 2060.57,3927.35C2061.8,3937.16 2063.34,3949.28 2066.2,3960.68C2065.2,3960.67 2064.21,3960.66 2063.22,3960.66C2060.42,3949.31 2058.91,3937.41 2057.69,3927.71C2057.44,3925.74 2057.21,3923.85 2056.97,3922.06C2054.05,3899.99 2046.72,3825.55 2074.88,3794.48C2083.53,3784.93 2094.83,3780.31 2108.47,3780.76C2146.53,3782.02 2182.43,3810.76 2211.27,3833.85C2214.28,3836.26 2217.21,3838.61 2220.08,3840.87C2240.01,3856.6 2254.33,3875.05 2265.72,3891.02C2267.73,3893.84 2270.17,3898.19 2273,3903.22C2275.76,3908.12 2278.96,3913.83 2282.46,3919.27C2281.65,3919.81 2280.85,3920.36 2280.05,3920.93Z" style="fill:rgb(249,249,246);fill-rule:nonzero;"/>
        <path d="M2185.13,3692.52C2248.28,3745.81 2351.92,3724.12 2428.29,3725.41C2430.17,3809.91 2195.94,3728.52 2156.79,3721.63L2185.13,3692.52Z" style="fill:rgb(173,182,173);fill-rule:nonzero;"/>
        <path d="M2001.9,4037.86C2026.68,4037.74 2051.45,4038.16 2076.23,4038.28C2072.27,4084.85 2085.75,4128.62 2126.28,4147.93C2133.81,4151.52 2132.49,4162.61 2124.36,4164.49C2074.04,4176.18 1996.81,4161.34 1996.81,4161.34C1996.81,4161.34 1958.72,4092.76 1942.72,4039.99C1962.44,4039.19 1982.14,4037.96 2001.9,4037.86Z" style="fill:rgb(85,102,103);fill-rule:nonzero;"/>
        <path d="M1942.47,4067.45L1941.55,4067.4L1941.4,4066.49C1941.05,4064.31 1940.57,4062.09 1940.06,4059.74C1938.67,4053.25 1937.22,4046.55 1938.25,4040.11L1938.39,4039.21L1939.3,4039.15C1963.38,4037.72 1990.56,4037.77 2022.4,4039.3C2042.34,4040.26 2082.3,4038.26 2082.7,4038.24L2083.9,4038.18L2083.9,4039.38C2083.9,4044.93 2083.43,4057.74 2083.12,4063.34L2083.06,4064.45L2081.95,4064.42C2066.54,4063.98 2050.5,4065.02 2034.98,4066.02C2024.94,4066.67 2014.56,4067.35 2004.5,4067.61C1993.91,4067.88 1982.96,4068.1 1971.93,4068.1C1962.09,4068.1 1952.2,4067.93 1942.47,4067.45ZM2080.91,4062.11C2081.18,4056.53 2081.56,4046.17 2081.61,4040.58C2074.75,4040.9 2040.37,4042.45 2022.29,4041.58C1990.94,4040.07 1964.13,4040 1940.37,4041.37C1939.68,4047.13 1941.01,4053.29 1942.29,4059.26C1942.73,4061.31 1943.15,4063.27 1943.5,4065.21C1963.77,4066.17 1984.76,4065.84 2004.44,4065.33C2014.46,4065.07 2024.81,4064.4 2034.83,4063.75C2047.89,4062.9 2061.31,4062.03 2074.46,4062.03C2076.62,4062.03 2078.76,4062.06 2080.91,4062.11Z" style="fill:rgb(235,208,201);fill-rule:nonzero;"/>
        <path d="M2389.55,3934.26C2420.84,3947.15 2469.97,3946.56 2474.88,3908.95C2475.9,3901.2 2485.75,3898.52 2490.7,3904.57C2514.61,3933.8 2509.62,3980.89 2507.74,4018.01C2479.92,4019.31 2408.76,4026.85 2386.29,4010.4C2385.35,4009.71 2384.47,4009.01 2383.62,4008.31C2386.05,3979.53 2388.17,3963.11 2389.55,3934.26Z" style="fill:rgb(85,102,103);fill-rule:nonzero;"/>
        <path d="M2402.56,4018.83C2397.51,4017.77 2380.48,4016.65 2380.31,4016.64L2379.12,4016.56L2379.25,4015.38C2379.35,4014.39 2381.9,3991.16 2383.16,3984.61C2386.14,3969.15 2387.03,3952.84 2387.88,3937.06L2388.14,3932.46L2389.62,3933.08C2395.83,3935.66 2409.17,3936.66 2409.31,3936.67L2410.34,3936.75L2410.36,3937.78C2410.74,3950.93 2408.77,3963.01 2406.87,3974.69C2404.56,3988.86 2402.38,4002.24 2403.93,4017.6L2404.08,4019.15L2402.56,4018.83ZM2390.24,3935.74L2390.16,3937.19C2389.3,3953.04 2388.41,3969.43 2385.4,3985.04C2384.32,3990.66 2382.19,4009.53 2381.64,4014.45C2385.28,4014.7 2396.16,4015.49 2401.52,4016.33C2400.23,4001.26 2402.46,3987.57 2404.62,3974.32C2406.45,3963.05 2408.35,3951.41 2408.11,3938.86C2405.05,3938.6 2396.02,3937.68 2390.24,3935.74Z" style="fill:rgb(235,208,201);fill-rule:nonzero;"/>
    </g>
    <g transform="matrix(1.0066,0,0,1.07937,-409.901,1843.8)">
        <path d="M3052.56,364.969C3037.7,380.944 3025.99,367.255 3022.2,352.82C3015.74,328.225 3032.7,326.232 3041.89,311.929C3057.31,287.918 3042.72,293.003 3073.64,286.508C3101.49,280.658 3095.99,267.868 3116.27,253.643C3140.59,236.592 3151.28,258.943 3169.14,269.76C3185.57,279.712 3206,282.421 3224.43,276.075C3242.68,269.791 3260.43,246.609 3281.52,248.169C3306.95,250.051 3312.8,271.669 3317.18,290.026C3321.06,306.25 3316.65,306.15 3327.07,321.467C3335.72,334.17 3344.88,336.788 3348.41,353.498C3353.17,376.058 3329.39,408.6 3308.31,391.443L3052.56,364.969Z" style="fill:rgb(168,147,124);fill-rule:nonzero;"/>
    </g>
    <g transform="matrix(1.0066,0,0,1.07937,-409.901,1843.8)">
        <path d="M3248.2,516.667C3247.31,497.89 3264.34,468.524 3274.61,448.244C3285.3,427.17 3309.93,406.989 3316.6,384.293C3321.27,368.435 3314.25,360.102 3312.94,345.678C3311.4,328.815 3321.28,305.871 3317.18,290.035C3307.47,252.483 3270.09,281.339 3244.55,288.503C3221.18,295.055 3174.42,271.194 3163.77,289.087C3150.89,273.055 3111.67,251.896 3111.52,290.359C3088.12,290.781 3073.35,288.872 3058.97,307.746C3056.36,311.164 3059.88,319.537 3057.59,323.101C3054.33,328.166 3039.95,336.183 3039.43,341.96C3037.62,361.939 3046.52,351.37 3060.88,357.778C3082.34,367.358 3096.79,380.552 3112.19,398.463C3136.8,427.106 3154.09,459.293 3175.96,488.959C3189.64,507.52 3213.33,526.422 3220.31,548.527L3248.2,516.667Z" style="fill:rgb(196,202,188);fill-rule:nonzero;"/>
    </g>
    <g transform="matrix(1.0066,0,0,1.07937,-409.901,1843.8)">
        <path d="M3211.58,502.136C3155.06,411.27 3103.16,350.094 3057.35,320.308L3058.09,319.16C3084.51,336.335 3113.38,364.412 3143.9,402.612C3166.03,430.309 3189.19,463.55 3212.75,501.413L3211.58,502.136Z" style="fill:rgb(85,102,103);fill-rule:nonzero;"/>
    </g>
    <g transform="matrix(1.0066,0,0,1.07937,-409.901,1843.8)">
        <path d="M3166.9,416.781C3152.23,394.093 3135.61,368.377 3117.65,345.594C3101.74,325.41 3086.64,309.898 3071.85,298.569C3071.49,298.765 3071.12,298.957 3070.76,299.157C3070.68,299.202 3070.6,299.249 3070.52,299.294C3107.55,327.504 3139.54,376.976 3165.75,417.524C3173.5,429.511 3180.82,440.833 3187.8,450.93L3188.92,450.151C3181.96,440.072 3174.64,428.758 3166.9,416.781Z" style="fill:rgb(85,102,103);fill-rule:nonzero;"/>
    </g>
    <g transform="matrix(1.0066,0,0,1.07937,-409.901,1843.8)">
        <path d="M3169.38,389.971C3166.43,382.154 3163.63,374.771 3160.65,368.824C3146.53,340.716 3130.06,309.788 3112.07,286.085C3111.88,286.565 3111.66,287.031 3111.4,287.472C3129.16,311.011 3145.45,341.607 3159.42,369.439C3162.38,375.322 3165.16,382.673 3168.1,390.455C3174.97,408.637 3182.76,429.245 3195.18,435.788L3195.82,434.576C3183.86,428.275 3176.17,407.926 3169.38,389.971Z" style="fill:rgb(85,102,103);fill-rule:nonzero;"/>
    </g>
    <g transform="matrix(1.0066,0,0,1.07937,-409.901,1843.8)">
        <path d="M3199.01,446.775C3185.76,423.793 3179.14,393.416 3172.12,361.255C3165.91,332.76 3159.49,303.295 3148.02,279.183L3149.25,278.595C3160.79,302.849 3167.23,332.393 3173.46,360.964C3180.45,393.017 3187.06,423.293 3200.2,446.091L3199.01,446.775Z" style="fill:rgb(85,102,103);fill-rule:nonzero;"/>
    </g>
    <g transform="matrix(1.0066,0,0,1.07937,-409.901,1843.8)">
        <path d="M3190.56,283.63C3185.95,328.512 3189.76,377.944 3202.51,438.894L3203.85,438.613C3191.14,377.861 3187.34,328.597 3191.91,283.891C3191.46,283.802 3191.01,283.715 3190.56,283.63Z" style="fill:rgb(85,102,103);fill-rule:nonzero;"/>
    </g>
    <g transform="matrix(1.0066,0,0,1.07937,-409.901,1843.8)">
        <path d="M3225,288.644L3208.12,436.622L3209.49,436.777L3226.39,288.534C3225.93,288.576 3225.47,288.613 3225,288.644Z" style="fill:rgb(85,102,103);fill-rule:nonzero;"/>
    </g>
    <g transform="matrix(1.0066,0,0,1.07937,-409.901,1843.8)">
        <path d="M3244.84,322.09C3247.8,309.731 3250.65,297.82 3252.7,287.401C3252.22,287.64 3251.71,287.842 3251.19,288.004C3249.15,298.188 3246.38,309.767 3243.51,321.771C3233.41,363.985 3221.95,411.832 3232.74,434.404L3233.98,433.814C3223.4,411.679 3234.79,364.083 3244.84,322.09Z" style="fill:rgb(85,102,103);fill-rule:nonzero;"/>
    </g>
    <g transform="matrix(1.0066,0,0,1.07937,-409.901,1843.8)">
        <path d="M3232.72,441.804C3232.7,441.802 3232.68,441.799 3232.66,441.797C3231.89,441.683 3231.95,440.864 3232.07,439.377L3232.65,439.423C3233.24,437.157 3234.26,432.417 3235.11,428.431C3236.24,423.126 3237.42,417.641 3238.15,415.075C3242.61,399.392 3249.42,384.336 3256,369.775L3256.28,369.152C3260.43,359.994 3266.84,349.087 3273.62,337.54C3286.82,315.094 3301.77,289.654 3302.35,272.217L3303.72,272.263C3303.12,290.048 3288.08,315.647 3274.81,338.234C3268.04,349.749 3261.64,360.625 3257.53,369.716L3257.25,370.34C3250.38,385.523 3243.89,399.864 3239.46,415.449C3238.75,417.972 3237.58,423.435 3236.45,428.717C3235.74,432.001 3235.08,435.102 3234.54,437.442C3233.62,441.401 3233.43,441.885 3232.72,441.804Z" style="fill:rgb(85,102,103);fill-rule:nonzero;"/>
    </g>
    <g transform="matrix(1.0066,0,0,1.07937,-409.901,1843.8)">
        <path d="M3243.58,454.306C3243.5,454.297 3243.42,454.275 3243.34,454.239C3242.49,453.879 3242.29,453.794 3247.97,437.612C3248.5,436.121 3248.93,434.881 3249.2,434.112C3253.11,422.612 3258.05,409.054 3265.08,395.692C3271.05,384.32 3278.9,373.04 3286.49,362.13C3295.62,349.012 3304.25,336.621 3309.95,324.031L3311.2,324.597C3305.44,337.3 3296.78,349.741 3287.62,362.913C3280.05,373.787 3272.23,385.033 3266.29,396.329C3259.31,409.607 3254.39,423.103 3250.49,434.553C3250.23,435.325 3249.79,436.57 3249.26,438.066C3248.01,441.645 3245.7,448.207 3244.72,451.528L3245.46,451.898C3244.61,453.588 3244.19,454.375 3243.58,454.306Z" style="fill:rgb(85,102,103);fill-rule:nonzero;"/>
    </g>
    <g transform="matrix(1.0066,0,0,1.07937,-409.901,1843.8)">
        <path d="M3319.42,365.889C3319.34,365.744 3319.27,365.595 3319.19,365.449C3289.87,394.211 3254.05,437.973 3238.51,477.647L3239.78,478.147C3255.15,438.929 3290.47,395.654 3319.58,366.989C3319.52,366.586 3319.46,366.197 3319.42,365.889Z" style="fill:rgb(85,102,103);fill-rule:nonzero;"/>
    </g>
    <g transform="matrix(1.0066,0,0,1.07937,-409.901,1843.8)">
        <path d="M3249.57,714.738C3253.4,743.241 3252.34,771.012 3250.07,798.791C3259.4,798.278 3268.73,797.832 3278.06,797.488C3274.95,774.627 3270.7,751.935 3268.48,728.873C3258.47,625.143 3256.85,514.402 3262.56,410.892C3250.53,406.343 3242.66,414.042 3241.84,426.626C3231.37,408.303 3215.77,405.684 3206.92,428.974C3207.43,419.223 3203.64,411.838 3193.31,411.143C3193.14,415.157 3191.5,413.937 3189.64,415.646L3176.03,416.789C3174.75,456.137 3210.6,506.127 3218.11,546.828C3228.29,601.919 3242.07,658.925 3249.57,714.738Z" style="fill:rgb(196,202,188);fill-rule:nonzero;"/>
    </g>
    <g transform="matrix(1.0066,0,0,1.07937,-409.901,1843.8)">
        <path d="M3425.1,435.896C3424.54,421.002 3439.85,399.912 3456.78,417.68C3472.62,386.79 3493.91,428.176 3512.67,429.843C3539.56,432.234 3545.67,410.645 3570.93,434.263C3577.63,440.53 3572.58,450.346 3586.59,454.413C3600.1,458.337 3609.61,441.318 3622.81,444.928C3637.14,448.846 3631.6,463.22 3644.74,466.26C3659.35,469.639 3668.92,449.506 3685.9,458.987C3709.09,471.932 3712.64,517.243 3686.83,521.568C3679.05,522.872 3671.99,516.49 3673.02,508.671C3673.07,508.346 3673.12,508.032 3673.2,507.731C3671.9,507.244 3666.41,507.11 3665.66,506.464L3425.1,435.896Z" style="fill:rgb(192,185,157);fill-rule:nonzero;"/>
    </g>
    <g transform="matrix(1.0066,0,0,1.07937,-409.901,1843.8)">
        <path d="M3669.17,471.64C3654.24,469.793 3644.92,486.277 3628.28,483.203C3637.76,446.145 3577.82,479.754 3561.87,475.739C3535.14,469.008 3538.04,439.415 3503.61,439.575C3494.85,439.616 3490.21,451.218 3480.86,448.173C3473.72,445.85 3476.78,430.784 3464.48,426.86C3457.3,424.569 3432.51,439.066 3425.93,430.122C3411.76,486.437 3415.17,552.957 3439.22,599.901C3442.1,588.765 3453.56,589.369 3462.36,582.689C3478.05,614.092 3482.81,549.835 3477.98,605.836C3486.73,606.752 3521.9,580.145 3534.24,572.2C3554.1,559.417 3577.28,550.453 3598.53,541.7C3620.03,532.843 3639.6,519.326 3661.16,511.346C3675.26,506.125 3691.31,507.898 3696.72,491.738C3685.92,485.383 3682.47,473.286 3669.17,471.64Z" style="fill:rgb(196,202,188);fill-rule:nonzero;"/>
    </g>
    <g transform="matrix(1.0066,0,0,1.07937,-409.901,1843.8)">
        <path d="M3446.59,595.648C3447.87,594.896 3447.64,589.957 3446.86,583.941L3446.59,595.648Z" style="fill:rgb(85,102,103);fill-rule:nonzero;"/>
    </g>
    <g transform="matrix(1.0066,0,0,1.07937,-409.901,1843.8)">
        <path d="M3438.84,557.234C3437.5,546.759 3436.99,535.69 3436.5,524.985C3436.22,518.879 3435.93,512.565 3435.49,506.493C3434.35,490.856 3437.72,475.508 3440.98,460.666C3443.23,450.386 3445.55,439.788 3446.37,429.137C3445.91,429.321 3445.44,429.478 3444.96,429.601C3444.11,439.969 3441.84,450.324 3439.64,460.372C3436.36,475.31 3432.97,490.757 3434.12,506.592C3434.56,512.645 3434.85,518.95 3435.13,525.048C3435.62,535.78 3436.13,546.877 3437.48,557.408C3437.88,560.514 3439.44,565.194 3441.1,570.149C3444.18,579.367 3448.01,590.839 3445.12,595.165L3446.26,595.926C3449.53,591.041 3445.74,579.711 3442.4,569.715C3440.76,564.825 3439.22,560.207 3438.84,557.234Z" style="fill:rgb(85,102,103);fill-rule:nonzero;"/>
    </g>
    <g transform="matrix(1.0066,0,0,1.07937,-409.901,1843.8)">
        <path d="M3454.6,527.121C3454.73,513.297 3457.07,499.09 3459.33,485.35C3459.71,483.052 3460.08,480.764 3460.45,478.491C3461.51,471.868 3463.42,464.808 3465.46,457.333C3467.83,448.588 3470.26,439.637 3471.31,431.164C3471.3,431.152 3471.28,431.14 3471.26,431.129C3470.84,430.948 3470.42,430.758 3470,430.565C3468.99,439.071 3466.54,448.128 3464.13,456.974C3462.09,464.485 3460.16,471.579 3459.09,478.274C3458.73,480.546 3458.35,482.831 3457.98,485.128C3455.71,498.919 3453.37,513.178 3453.23,527.107C3453.12,537.733 3454.46,548.417 3455.75,558.749C3457.1,569.502 3458.49,580.62 3458.23,591.566L3459.6,591.599C3459.87,580.551 3458.47,569.381 3457.11,558.579C3455.83,548.292 3454.49,537.655 3454.6,527.121Z" style="fill:rgb(85,102,103);fill-rule:nonzero;"/>
    </g>
    <g transform="matrix(1.0066,0,0,1.07937,-409.901,1843.8)">
        <path d="M3506.46,440.378C3506.29,440.423 3506.11,440.466 3505.94,440.508C3505.73,440.574 3505.52,440.64 3505.31,440.709C3505.16,440.759 3505.01,440.812 3504.86,440.862C3496.21,467.004 3489.09,492.648 3483.19,518.82C3480.5,530.78 3478.43,542.758 3477.05,554.423C3476.89,555.757 3476.76,557.26 3476.62,558.851C3475.9,566.801 3474.92,577.69 3469.5,582.288L3470.39,583.332C3476.24,578.372 3477.24,567.16 3477.98,558.973C3478.12,557.392 3478.26,555.899 3478.41,554.584C3479.79,542.966 3481.85,531.035 3484.53,519.121C3490.48,492.688 3497.69,466.794 3506.46,440.378Z" style="fill:rgb(85,102,103);fill-rule:nonzero;"/>
    </g>
    <g transform="matrix(1.0066,0,0,1.07937,-409.901,1843.8)">
        <path d="M3531.76,452.016C3520.11,491.816 3503.61,536.788 3482.61,585.881L3483.87,586.419C3504.79,537.513 3521.25,492.686 3532.9,452.975C3532.52,452.655 3532.14,452.335 3531.76,452.016Z" style="fill:rgb(85,102,103);fill-rule:nonzero;"/>
    </g>
    <g transform="matrix(1.0066,0,0,1.07937,-409.901,1843.8)">
        <path d="M3557.9,475.023C3557.84,474.964 3557.78,474.904 3557.72,474.844C3550.42,483.215 3543.84,492.466 3537.2,502.673C3527.14,518.135 3517.75,534.305 3508.66,549.942C3507.52,551.901 3506.38,553.861 3505.24,555.821C3504.67,556.805 3504.06,557.86 3503.42,558.97C3497.28,569.636 3488.01,585.754 3478.57,591.454L3479.27,592.627C3489.02,586.744 3498.4,570.441 3504.61,559.653C3505.25,558.545 3505.85,557.492 3506.42,556.51C3507.57,554.55 3508.7,552.59 3509.84,550.63C3518.92,535.008 3528.31,518.853 3538.35,503.42C3545.11,493.024 3551.63,483.845 3558.8,475.617C3558.49,475.434 3558.19,475.24 3557.9,475.023Z" style="fill:rgb(85,102,103);fill-rule:nonzero;"/>
    </g>
    <g transform="matrix(1.0066,0,0,1.07937,-409.901,1843.8)">
        <path d="M3626.33,479.192C3610.5,486.283 3595.82,494.531 3582.4,503.892C3555.25,522.837 3531.01,547.919 3507.57,572.176C3501.29,578.676 3494.79,585.397 3488.44,591.787L3489.41,592.753C3495.77,586.355 3502.27,579.631 3508.56,573.128C3531.95,548.918 3556.14,523.884 3583.19,505.016C3596.59,495.662 3611.27,487.423 3627.1,480.347C3626.8,479.973 3626.54,479.588 3626.33,479.192Z" style="fill:rgb(85,102,103);fill-rule:nonzero;"/>
    </g>
    <g transform="matrix(1.0066,0,0,1.07937,-409.901,1843.8)">
        <path d="M3679.75,482.466C3679.74,482.452 3679.72,482.399 3679.69,482.322C3678.87,482.585 3678.06,482.843 3677.26,483.097C3674.81,483.876 3672.49,484.611 3670.55,485.359C3666.6,486.878 3662.66,488.371 3658.73,489.862C3645.29,494.96 3631.39,500.232 3617.85,506.263C3589.74,518.791 3567.05,538.248 3545.12,557.064C3530.4,569.687 3515.18,582.74 3498.35,593.726L3499.1,594.873C3516.01,583.838 3531.26,570.756 3546.01,558.104C3567.87,539.351 3590.47,519.961 3618.41,507.514C3631.91,501.499 3645.79,496.234 3659.22,491.143C3663.15,489.651 3667.09,488.157 3671.04,486.638C3672.95,485.904 3675.24,485.175 3677.68,484.402C3678.52,484.135 3679.37,483.864 3680.23,483.585C3680.07,483.212 3679.91,482.838 3679.75,482.466Z" style="fill:rgb(85,102,103);fill-rule:nonzero;"/>
    </g>
    <g transform="matrix(1.0066,0,0,1.07937,-409.901,1843.8)">
        <path d="M3478.94,582.643C3476.73,548.814 3449.85,562.471 3445.98,589.134L3446.58,583.905C3422.97,620.645 3401.9,676.415 3388.82,717.483C3383.49,734.21 3376.57,758.119 3372.37,782.064C3372.76,782.006 3373.15,781.952 3373.53,781.903C3377.94,781.335 3382.62,780.889 3387.16,780.936C3395.35,742.385 3414.57,703.981 3430.49,673.055C3442.04,650.629 3452.37,629.432 3472.82,613.728C3485.76,603.796 3501.85,597.728 3510.95,583.769C3501.93,571.564 3489.45,571.026 3478.94,582.643Z" style="fill:rgb(196,202,188);fill-rule:nonzero;"/>
    </g>
    <g transform="matrix(1.0066,0,0,1.07937,-409.901,1843.8)">
        <path d="M3314.65,656.263C3313.27,681.839 3297.67,701.617 3288.21,725.681C3294.09,722.1 3299.7,723.244 3305.27,715.449C3305.86,722.017 3310.16,726.71 3311.43,731.745C3315.53,725.08 3319.58,721.725 3319.08,711.45C3319.72,717.911 3323.45,722.871 3325.25,727.983C3327.73,722.948 3333.26,719.971 3333.16,710.278C3339.15,720.12 3342.8,717.823 3349.95,721.331C3349.87,716.824 3351.81,711.745 3351.8,707.009C3356.33,715.976 3360.48,716.193 3366.28,721.089C3362.18,698.232 3350.07,679.825 3355.17,655.494L3314.65,656.263Z" style="fill:white;fill-rule:nonzero;"/>
    </g>
    <g transform="matrix(1.0066,0,0,1.07937,-409.901,1843.8)">
        <path d="M3346.87,800.897C3345.29,770.665 3344.46,737.952 3338.15,710.158L3326.9,714.266C3320.85,741.125 3324.99,771.231 3326.86,800.43C3333.53,800.517 3340.2,800.671 3346.87,800.897Z" style="fill:white;fill-rule:nonzero;"/>
    </g>
    <g transform="matrix(1.0066,0,0,1.07937,-409.901,1843.8)">
        <path d="M3269.53,589.666C3253.74,605.247 3184.46,647.638 3187.71,666.106C3211.64,672.675 3234.36,660.316 3257.01,664.172C3274.24,667.106 3310.88,691.903 3313.59,651.373C3313.51,654.251 3316.56,664.994 3316.7,670.165C3348.33,675.048 3373.26,682.541 3404.26,672.943C3430.33,664.874 3478.66,670.794 3473.33,632.109C3427.34,628.658 3393.89,597.161 3374.93,558.492C3371.29,551.08 3341.47,453.994 3329.39,507.465C3329.39,507.465 3289.4,570.065 3269.53,589.666Z" style="fill:rgb(235,208,201);fill-rule:nonzero;"/>
    </g>
    <g transform="matrix(1.0066,0,0,1.07937,-409.901,1843.8)">
        <path d="M3319.49,553.875C3317.26,557.167 3314.85,560.394 3312.02,563.155C3311.48,564.975 3311.15,566.875 3311.03,568.845C3312.5,571.069 3313.52,573.575 3314.2,576.192C3341.74,585.57 3336.04,545.87 3319.49,553.875Z" style="fill:rgb(240,239,234);fill-rule:nonzero;"/>
    </g>
    <g transform="matrix(1.0066,0,0,1.07937,-409.901,1843.8)">
        <path d="M3339.95,602.101C3339.32,604.19 3338.58,606.251 3337.83,608.277C3337.07,610.347 3336.28,612.409 3335.56,614.496C3335.29,615.271 3335.04,616.049 3334.8,616.832C3340.19,627.4 3358.91,631.403 3362.91,616.403C3366.7,602.227 3350.43,598.682 3339.95,602.101Z" style="fill:rgb(240,239,234);fill-rule:nonzero;"/>
    </g>
    <g transform="matrix(1.0066,0,0,1.07937,-409.901,1843.8)">
        <path d="M3270.81,619.385L3270.22,619.318C3267.95,620.573 3265.75,621.947 3263.5,623.241C3259.2,637.105 3268.35,655.675 3283.8,642.484C3298.13,630.238 3282.52,615.465 3270.81,619.385Z" style="fill:rgb(240,239,234);fill-rule:nonzero;"/>
    </g>
    <g transform="matrix(1.0066,0,0,1.07937,-409.901,1843.8)">
        <path d="M3408.93,636.76C3408.5,635.009 3408.07,633.26 3407.67,631.506C3407.26,629.733 3405.76,628.418 3403.94,628.286L3403.91,628.283L3403.39,627.625C3402.14,627.756 3400.9,627.894 3399.65,628.027C3395.24,628.499 3391.5,631.643 3390.54,635.971C3388.82,643.709 3397.87,644.112 3406.04,641.759C3408.18,641.144 3409.46,638.956 3408.93,636.797C3408.93,636.784 3408.93,636.772 3408.93,636.76Z" style="fill:rgb(240,239,234);fill-rule:nonzero;"/>
    </g>
    <g transform="matrix(1,0,0,1,-670.902,-1124.52)">
        <g transform="matrix(0.697488,0,0,1,674.213,0)">
            <text x="2228.72px" y="1742.06px" style="font-family:'Corbel-Bold', 'Corbel', sans-serif;font-weight:700;font-size:184.037px;fill:rgb(59,73,78);">&quot;<tspan x="2310.53px 2370.5px 2440.09px 2487.21px 2566.24px 2678.42px 2733.36px 2820.57px 2867.69px 2941.23px 3044.79px 3210.8px 3265.74px 3377.03px 3488.85px 3576.05px 3623.18px 3726.91px 3838.02px 3947.51px 3994.63px 4105.73px 4175.32px 4222.45px 4309.65px 4420.76px 4586.77px 4690.32px 4769.35px 4881.53px 4936.47px 5047.76px " y="1742.06px 1742.06px 1742.06px 1742.06px 1742.06px 1742.06px 1742.06px 1742.06px 1742.06px 1742.06px 1742.06px 1742.06px 1742.06px 1742.06px 1742.06px 1742.06px 1742.06px 1742.06px 1742.06px 1742.06px 1742.06px 1742.06px 1742.06px 1742.06px 1742.06px 1742.06px 1742.06px 1742.06px 1742.06px 1742.06px 1742.06px 1742.06px ">If this reminds you of something</tspan></text>
        </g>
        <g transform="matrix(0.697488,0,0,1,674.213,0)">
            <text x="2228.72px" y="2004.54px" style="font-family:'Corbel-Bold', 'Corbel', sans-serif;font-weight:700;font-size:184.037px;fill:rgb(59,73,78);">y<tspan x="2332.45px 2443.56px 2553.05px 2600.17px 2711.45px 2815.01px 2918.57px 3030.39px 3077.52px 3156.54px 3267.65px 3314.77px 3426.59px 3537.7px 3605.22px 3652.35px 3762.73px 3873.84px 3920.96px 4024.88px 4137.06px 4240.62px 4344.53px 4456.36px 4503.48px 4607.4px 4718.68px 4830.51px 4877.63px 4989.45px 5100.56px 5147.68px 5202.62px 5281.65px " y="2004.54px 2004.54px 2004.54px 2004.54px 2004.54px 2004.54px 2004.54px 2004.54px 2004.54px 2004.54px 2004.54px 2004.54px 2004.54px 2004.54px 2004.54px 2004.54px 2004.54px 2004.54px 2004.54px 2004.54px 2004.54px 2004.54px 2004.54px 2004.54px 2004.54px 2004.54px 2004.54px 2004.54px 2004.54px 2004.54px 2004.54px 2004.54px 2004.54px 2004.54px ">ou need to do, go ahead and do it!</tspan></text>
        </g>
        <g transform="matrix(0.697488,0,0,1,674.213,0)">
            <text x="2228.72px" y="2267.02px" style="font-family:'Corbel-Bold', 'Corbel', sans-serif;font-weight:700;font-size:184.037px;fill:rgb(59,73,78);">W<tspan x="2395.76px 2499.32px 2547.25px 2602.91px 2658.57px 2705.69px 2817.43px 2920.98px 2968.11px 3080.29px 3183.85px 3257.39px 3360.95px 3408.07px 3555.12px 3659.04px 3713.98px 3793px 3847.95px 3959.23px 4069.62px 4116.74px 4186.33px 4297.44px 4370.98px 4418.1px 4521.84px 4632.94px 4742.43px 4805.46px " y="2267.02px 2267.02px 2267.02px 2267.02px 2267.02px 2267.02px 2267.02px 2267.02px 2267.02px 2267.02px 2267.02px 2267.02px 2267.02px 2267.02px 2267.02px 2267.02px 2267.02px 2267.02px 2267.02px 2267.02px 2267.02px 2267.02px 2267.02px 2267.02px 2267.02px 2267.02px 2267.02px 2267.02px 2267.02px 2267.02px ">e&apos;ll be here waiting for you.&quot;</tspan></text>
        </g>
    </g>
</svg>
