<?xml version="1.0" encoding="UTF-8" standalone="no"?>
<!DOCTYPE svg PUBLIC "-//W3C//DTD SVG 1.1//EN" "http://www.w3.org/Graphics/SVG/1.1/DTD/svg11.dtd">
<svg width="100%" height="100%" viewBox="0 0 500 500" version="1.1" xmlns="http://www.w3.org/2000/svg" xmlns:xlink="http://www.w3.org/1999/xlink" xml:space="preserve" xmlns:serif="http://www.serif.com/" style="fill-rule:evenodd;clip-rule:evenodd;stroke-linejoin:round;stroke-miterlimit:2;">
    <g transform="matrix(1.08044,0,0,1.12166,-578.332,-1484.37)">
        <path d="M891.387,1671.41C913.817,1717.85 875.454,1736.88 808.963,1732.87C770.491,1730.55 720.203,1711.9 747.332,1664.86L891.387,1671.41Z" style="fill:rgb(255,248,227);fill-rule:nonzero;stroke:rgb(153,153,153);stroke-width:1.51px;"/>
    </g>
    <g transform="matrix(1.08044,0,0,1.12166,-578.332,-1484.37)">
        <path d="M698.048,1536.53C718.317,1477.72 752.865,1338.77 842.3,1377.16C919.668,1410.37 921.97,1546.79 939.991,1627.31C943.888,1644.72 941.132,1662.96 932.092,1678.34L931.998,1678.5C849.01,1662.15 759.975,1686.94 678.489,1672.9C676.494,1623.02 682.732,1580.97 698.048,1536.53Z" style="fill:rgb(220,140,70);fill-rule:nonzero;"/>
    </g>
    <g transform="matrix(1.08044,0,0,1.12166,-578.332,-1484.37)">
        <path d="M713.261,1642.24C700.322,1655.92 680.893,1641.16 686.559,1620.44C694.042,1609.85 717.064,1611.65 720.133,1633.04C720.133,1633.04 716.425,1638.9 713.261,1642.24Z" style="fill:rgb(233,157,136);fill-rule:nonzero;"/>
    </g>
    <g transform="matrix(1.08044,0,0,1.12166,-578.332,-1484.37)">
        <path d="M899.734,1631.9C900.025,1630.28 900.487,1628.68 901.268,1627.24C908.364,1614.19 930.461,1620.99 934.458,1632.18C942.435,1654.53 894.085,1663.41 899.734,1631.9Z" style="fill:rgb(233,157,136);fill-rule:nonzero;"/>
    </g>
    <g transform="matrix(1.08044,0,0,1.12166,-578.332,-1484.37)">
        <path d="M831.922,1611.31C821.847,1614.19 807.982,1609.6 794.525,1611.52C794.499,1613.8 802.597,1635.48 803.523,1638.15C815.156,1637.35 831.922,1611.31 831.922,1611.31Z" style="fill:rgb(46,32,68);fill-rule:nonzero;"/>
    </g>
    <g transform="matrix(1.08044,0,0,1.12166,-578.332,-1484.37)">
        <path d="M698.429,1579.61C696.129,1579.95 694.222,1581.24 692.884,1583.38C688.825,1589.86 690.724,1603.07 691.859,1606.19L694.431,1605.18C693.564,1602.8 691.702,1590.5 695.188,1584.93C696.19,1583.33 697.53,1582.5 699.281,1582.39C706.053,1581.98 710.436,1601.51 711.178,1611.57L713.918,1611.35C713.894,1611.02 710.984,1578.82 699.123,1579.54C698.888,1579.56 698.656,1579.58 698.429,1579.61Z" style="fill:rgb(46,32,68);fill-rule:nonzero;"/>
    </g>
    <g transform="matrix(1.08044,0,0,1.12166,-578.332,-1484.37)">
        <path d="M914.155,1586.19C909.256,1586.9 906.118,1594.65 904.566,1609.87L907.3,1610.17C909.203,1591.51 913.081,1589.16 914.659,1589C918.403,1588.65 924.967,1598.14 930.269,1616.98L932.908,1616.17C928.697,1601.22 921.627,1585.48 914.414,1586.16C914.327,1586.16 914.241,1586.17 914.155,1586.19Z" style="fill:rgb(46,32,68);fill-rule:nonzero;"/>
    </g>
    <g transform="matrix(1.08044,0,0,1.12166,-578.332,-1484.37)">
        <path d="M988.818,1404.04C974.546,1404.01 958.61,1418.57 952.509,1422.77C934.996,1415.07 903.038,1446.29 963.233,1436.86C959.57,1445.36 965.231,1462.73 975.02,1469.76C957.917,1474.66 967.294,1498.8 973.202,1507.09L974.686,1508.62C966.47,1503.94 932.869,1499.51 932.97,1516.59C928.282,1502.87 911.571,1498.29 905.978,1502.56C908.724,1448.9 881.135,1478.86 890.991,1495.26C877.51,1501.19 877.7,1512.19 878.108,1526.56C877.82,1516.46 863.167,1505.91 852.991,1505.74C861.271,1499.3 853.145,1485.41 844.345,1481.51C870.434,1467.89 855.099,1452.39 835.095,1467.12C852.152,1448.59 849.357,1435.75 850.472,1434.34C857.929,1424.88 878.788,1421.74 878.788,1421.74C878.788,1421.74 880.722,1403.47 887.41,1394.19C900.479,1376.04 906.915,1389.81 923.087,1368.9C911.009,1390.61 919.686,1407.44 934.418,1380.64C939.399,1388.88 943.014,1387.56 955.343,1383.99C949.256,1394.37 975.379,1404.01 988.818,1404.04Z" style="fill:rgb(101,119,97);fill-rule:nonzero;"/>
    </g>
    <g transform="matrix(1.08044,0,0,1.12166,-578.332,-1484.37)">
        <path d="M949.577,1394.93C949.702,1395.14 949.784,1395.36 949.869,1395.59C949.775,1395.37 949.681,1395.14 949.549,1394.94C949.516,1394.9 949.478,1394.85 949.432,1394.83C949.386,1394.8 949.354,1394.85 949.336,1394.9C949.295,1395.01 949.283,1395.13 949.27,1395.25C949.23,1395.73 949.232,1396.21 949.219,1396.69C949.207,1397.17 949.195,1397.65 949.14,1398.14C949.107,1398.38 949.07,1398.62 948.994,1398.87L948.776,1399.55C948.49,1400.47 948.237,1401.39 947.945,1402.32C947.657,1403.24 947.317,1404.16 946.901,1405.04C946.09,1406.8 945.138,1408.5 944.063,1410.12C943.526,1410.92 942.96,1411.7 942.355,1412.46C942.866,1412.33 943.378,1412.19 943.891,1412.06C945.5,1411.65 947.119,1411.29 948.753,1410.99C950.386,1410.69 952.025,1410.44 953.666,1410.19C955.303,1409.94 956.945,1409.71 958.592,1409.51C959.415,1409.41 960.239,1409.32 961.065,1409.25C961.478,1409.21 961.893,1409.18 962.306,1409.17C962.514,1409.16 962.721,1409.16 962.928,1409.16C963.032,1409.17 963.136,1409.17 963.239,1409.19C963.338,1409.2 963.45,1409.21 963.53,1409.28C963.447,1409.21 963.336,1409.21 963.237,1409.19C963.135,1409.18 963.031,1409.18 962.928,1409.17C962.72,1409.17 962.513,1409.18 962.307,1409.18C961.893,1409.21 961.48,1409.24 961.066,1409.28C960.242,1409.36 959.42,1409.47 958.6,1409.58C956.958,1409.8 955.319,1410.05 953.683,1410.32C952.048,1410.59 950.414,1410.87 948.791,1411.18C948.744,1411.19 948.696,1411.2 948.65,1411.21L948.748,1411.27L949,1411.43L949.507,1411.77C949.844,1411.99 950.18,1412.22 950.506,1412.46C951.163,1412.93 951.798,1413.44 952.386,1414.01C952.971,1414.57 953.524,1415.19 953.902,1415.93C954.086,1416.3 954.222,1416.69 954.245,1417.11C954.269,1417.52 954.161,1417.93 953.952,1418.27C954.122,1417.91 954.176,1417.5 954.111,1417.12C954.049,1416.74 953.881,1416.38 953.667,1416.06C953.239,1415.42 952.653,1414.89 952.037,1414.41C951.416,1413.94 950.753,1413.52 950.071,1413.13C949.729,1412.94 949.381,1412.76 949.032,1412.58L948.505,1412.31L948.237,1412.18L948.097,1412.11C948.048,1412.08 948.01,1412.07 947.92,1412.01L948.473,1411.25C946.956,1411.55 945.452,1411.91 943.957,1412.32C943.315,1412.49 942.679,1412.67 942.04,1412.85C941.521,1413.48 940.978,1414.1 940.402,1414.68L939.649,1413.92C939.833,1413.75 940.012,1413.57 940.187,1413.4C938.272,1413.98 936.361,1414.6 934.449,1415.21C933.948,1415.37 933.448,1415.52 932.948,1415.68C932.683,1415.97 932.412,1416.26 932.134,1416.54L931.688,1416.07C931.024,1416.28 930.36,1416.48 929.691,1416.68C928.097,1417.15 926.493,1417.57 924.89,1417.99C918.478,1419.67 912.056,1421.33 905.899,1423.73C902.831,1424.93 899.825,1426.31 897.035,1428.04C894.884,1429.37 892.847,1430.92 891.171,1432.78C898.188,1440.44 905.387,1447.93 912.794,1455.22C916.469,1456.26 920.212,1457.07 924.009,1457.4C927.8,1457.73 931.654,1457.54 935.344,1456.58C939.038,1455.63 942.519,1453.91 945.606,1451.65C948.703,1449.39 951.425,1446.63 953.864,1443.67C951.494,1446.69 948.833,1449.51 945.767,1451.86C944.236,1453.04 942.606,1454.09 940.883,1454.97C939.164,1455.85 937.351,1456.57 935.486,1457.1C931.748,1458.16 927.815,1458.45 923.951,1458.2C920.69,1458 917.462,1457.44 914.292,1456.69C914.41,1456.81 914.525,1456.92 914.643,1457.04C918.212,1460.51 921.831,1463.94 925.536,1467.27L925.548,1467.24C928.644,1468.73 932.085,1469.45 935.545,1469.69C939.014,1469.93 942.521,1469.72 945.99,1469.29C949.461,1468.86 952.909,1468.2 956.338,1467.45C959.766,1466.71 963.176,1465.87 966.6,1465.09C963.198,1465.95 959.813,1466.88 956.397,1467.71C952.985,1468.55 949.546,1469.3 946.062,1469.82C942.578,1470.34 939.047,1470.65 935.499,1470.49C933.728,1470.41 931.954,1470.22 930.208,1469.85C929.372,1469.68 928.539,1469.46 927.718,1469.21C928.197,1469.63 928.678,1470.05 929.159,1470.47C931.651,1472.62 934.184,1474.74 936.809,1476.73C936.811,1476.73 936.811,1476.73 936.813,1476.73L937.018,1476.74C937.017,1476.79 937.015,1476.83 937.011,1476.88C938.261,1477.82 939.529,1478.74 940.837,1479.59C941.529,1480.04 942.231,1480.47 942.953,1480.87C943.673,1481.27 944.413,1481.64 945.191,1481.91C944.401,1481.67 943.642,1481.33 942.901,1480.97C942.16,1480.6 941.435,1480.2 940.723,1479.78C939.449,1479.02 938.212,1478.21 936.989,1477.38C936.895,1479.37 936.675,1481.33 936.409,1483.28C936.109,1485.44 935.75,1487.59 935.356,1489.74C934.963,1491.88 934.54,1494.02 934.109,1496.15C933.679,1498.28 933.236,1500.41 932.822,1502.55C933.148,1500.39 933.502,1498.25 933.843,1496.1C934.187,1493.95 934.522,1491.8 934.826,1489.65C935.128,1487.5 935.4,1485.35 935.608,1483.19C935.813,1481.03 935.959,1478.87 935.943,1476.72L936.036,1476.72C933.499,1474.94 931.031,1473.06 928.6,1471.14C926.416,1469.4 924.258,1467.63 922.124,1465.84C921.813,1468.63 921.299,1471.41 920.632,1474.13C919.923,1477.02 919.044,1479.85 917.995,1482.62C916.947,1485.39 915.733,1488.1 914.322,1490.7C913.096,1492.95 911.724,1495.13 910.16,1497.15C910.517,1496.76 910.877,1496.37 911.232,1495.97C910.636,1496.68 910.034,1497.38 909.428,1498.08L909.368,1498.03C911.172,1495.7 912.7,1493.16 914.032,1490.54C915.361,1487.92 916.489,1485.2 917.454,1482.42C918.415,1479.65 919.207,1476.82 919.827,1473.95C920.447,1471.08 920.889,1468.18 921.107,1465.27L921.487,1465.3C918.779,1463.01 916.103,1460.68 913.452,1458.32C906.72,1452.31 900.144,1446.13 893.693,1439.82C892.701,1442.27 891.503,1444.63 890.22,1446.92C888.807,1449.46 887.288,1451.92 885.805,1454.4C884.32,1456.87 882.864,1459.36 881.571,1461.93C880.277,1464.49 879.149,1467.14 878.334,1469.89C877.583,1472.51 876.989,1475.19 876.538,1477.89L877.043,1477.65C877.694,1479.16 878.378,1480.65 879.16,1482.09C879.94,1483.53 880.825,1484.9 881.857,1486.17C882.883,1487.44 884.056,1488.6 885.311,1489.67C886.562,1490.74 887.89,1491.72 889.241,1492.68C887.841,1491.8 886.459,1490.88 885.14,1489.88C883.821,1488.87 882.569,1487.76 881.447,1486.52C880.327,1485.28 879.341,1483.92 878.463,1482.49C877.716,1481.28 877.041,1480.03 876.399,1478.76C875.983,1481.46 875.724,1484.18 875.662,1486.92C875.599,1489.8 875.758,1492.69 876.225,1495.54C876.693,1498.38 877.47,1501.18 878.663,1503.82C877.429,1501.2 876.604,1498.4 876.09,1495.56C875.58,1492.71 875.376,1489.81 875.394,1486.91C875.409,1484.68 875.556,1482.45 875.811,1480.24C874.211,1480.62 872.549,1480.75 870.932,1480.73C869.271,1480.71 867.639,1480.58 866.01,1480.57C864.385,1480.56 862.738,1480.64 861.099,1480.66C860.279,1480.68 859.455,1480.68 858.634,1480.65C858.223,1480.63 857.811,1480.61 857.403,1480.55C857.199,1480.53 856.996,1480.49 856.798,1480.43C856.699,1480.4 856.6,1480.36 856.515,1480.3C856.428,1480.25 856.362,1480.14 856.398,1480.04C856.367,1480.14 856.437,1480.24 856.524,1480.29C856.61,1480.34 856.708,1480.37 856.807,1480.4C857.006,1480.45 857.208,1480.47 857.411,1480.49C857.815,1480.52 858.225,1480.52 858.635,1480.52C859.454,1480.5 860.27,1480.45 861.086,1480.4C862.721,1480.28 864.347,1480.11 866.001,1480.03C867.652,1479.95 869.299,1480 870.917,1479.92C872.539,1479.86 874.122,1479.64 875.651,1479.17L875.847,1479.92C875.917,1479.37 875.987,1478.81 876.069,1478.26C876.073,1478.22 876.08,1478.18 876.086,1478.14C876.079,1478.13 876.075,1478.12 876.069,1478.1L876.091,1478.09C876.51,1475.28 877.075,1472.5 877.817,1469.75C878.599,1466.94 879.704,1464.24 880.97,1461.63C882.233,1459.02 883.662,1456.49 885.11,1453.99C886.56,1451.49 888.034,1449.01 889.396,1446.47C890.701,1444.05 891.903,1441.58 892.866,1439.01C890.236,1436.43 887.626,1433.83 885.037,1431.2C885.02,1431.23 885,1431.26 884.983,1431.3C884.952,1431.27 884.925,1431.25 884.894,1431.23C884.848,1431.2 884.799,1431.17 884.752,1431.13C884.571,1430.95 884.381,1430.77 884.188,1430.6C884.219,1430.54 884.247,1430.49 884.279,1430.43C879.788,1425.86 875.363,1421.22 871.015,1416.51C866.521,1411.63 862.106,1406.67 857.814,1401.59C853.523,1396.51 849.343,1391.32 845.402,1385.88C843.435,1383.15 841.527,1380.37 839.739,1377.46C838.842,1376.01 837.979,1374.52 837.167,1372.98C836.356,1371.43 830.651,1356.01 829.985,1354.29L837.458,1352.95C839.639,1362.02 842.551,1368.54 843.215,1369.95C843.88,1371.36 844.615,1372.76 845.389,1374.16C846.938,1376.95 848.646,1379.69 850.429,1382.41C854.004,1387.83 857.883,1393.11 861.886,1398.3C865.896,1403.49 870.046,1408.59 874.286,1413.62C877.142,1417.01 880.043,1420.36 882.978,1423.68C883.178,1424.12 883.508,1424.43 883.887,1424.72C883.956,1424.78 884.026,1424.83 884.094,1424.88C884.081,1424.89 884.068,1424.89 884.054,1424.9C885.121,1426.1 886.196,1427.31 887.275,1428.5C888.332,1429.68 889.394,1430.85 890.462,1432.01C891.081,1431.35 891.742,1430.73 892.429,1430.15C893.721,1429.06 895.11,1428.1 896.548,1427.23C899.428,1425.51 902.497,1424.15 905.614,1422.98C911.86,1420.65 918.328,1419.07 924.76,1417.48C926.365,1417.08 927.975,1416.68 929.567,1416.23C930.201,1416.06 930.835,1415.87 931.467,1415.68C933.125,1414.15 934.514,1412.35 935.442,1410.29C936.397,1408.21 936.847,1405.91 936.952,1403.59C937.059,1401.27 936.855,1398.93 936.577,1396.61C936.296,1394.28 935.939,1391.96 935.684,1389.63C936.026,1391.95 936.47,1394.25 936.844,1396.57C937.21,1398.89 937.507,1401.24 937.487,1403.61C937.472,1405.97 937.101,1408.38 936.182,1410.61C935.523,1412.24 934.579,1413.75 933.457,1415.09C933.747,1415.01 934.039,1414.92 934.33,1414.83C936.432,1414.19 938.531,1413.55 940.644,1412.94C941.635,1411.92 942.55,1410.81 943.402,1409.66C944.528,1408.12 945.54,1406.5 946.418,1404.8C947.324,1403.13 947.865,1401.28 948.519,1399.47L948.773,1398.79C948.853,1398.58 948.897,1398.34 948.939,1398.11C949.015,1397.64 949.051,1397.16 949.086,1396.68C949.121,1396.2 949.14,1395.72 949.204,1395.24C949.222,1395.12 949.24,1395 949.288,1394.88C949.301,1394.86 949.317,1394.83 949.345,1394.8C949.369,1394.77 949.419,1394.77 949.449,1394.79C949.512,1394.82 949.543,1394.88 949.577,1394.93Z" style="fill:rgb(46,32,68);fill-rule:nonzero;"/>
    </g>
    <g transform="matrix(1.08044,0,0,1.12166,-578.332,-1484.37)">
        <path d="M642.479,1708.69C643.472,1713.03 643.357,1718.39 642.901,1723.67C642.249,1731.2 636.021,1737.03 628.457,1737.17C598.63,1737.73 560.977,1734.84 584.95,1698.38L642.479,1708.69Z" style="fill:rgb(255,248,227);fill-rule:nonzero;stroke:rgb(128,128,128);stroke-width:1.51px;"/>
    </g>
    <g transform="matrix(1.08044,0,0,1.12166,-578.332,-1484.37)">
        <path d="M552.916,1703.85C585.289,1716.07 635.772,1710.47 671.623,1709.14C673.093,1690.29 664.268,1673.5 658.872,1655.35C650.824,1628.29 657.265,1579.1 611.355,1588.68C568.657,1597.6 556.783,1673.11 552.916,1703.85Z" style="fill:rgb(254,139,99);fill-rule:nonzero;"/>
    </g>
    <g transform="matrix(1.08044,0,0,1.12166,-578.332,-1484.37)">
        <path d="M625.767,1647.11C624.112,1646.98 622.523,1645.55 621.447,1643.45C620.547,1642.35 619.904,1641.27 619.463,1640.25C617.303,1639.12 615.229,1637.2 613.968,1634.48C611.929,1632.62 610.472,1630.23 610.045,1627.74C609.306,1623.41 611.574,1619.43 616.432,1616.53C617.236,1616.05 618.009,1615.68 618.748,1615.4C619.704,1614.82 620.62,1614.51 621.366,1614.34C625.352,1613.45 629.968,1615.44 632.593,1619.18C634.355,1621.69 634.992,1624.54 634.505,1627.42C634.941,1628.72 635.219,1630.18 635.326,1631.77C635.773,1638.39 633.055,1645.09 629.268,1646.7C628.584,1646.99 627.728,1647.18 626.742,1647.05C626.471,1647.11 626.218,1647.13 625.992,1647.12C625.914,1647.12 625.839,1647.12 625.767,1647.11ZM630.779,1639.01C628.593,1641.45 624.964,1642.19 621.379,1641.04C621.581,1641.75 621.839,1642.4 622.14,1643.01C622.31,1643.21 622.488,1643.42 622.674,1643.62C624.035,1645.12 625.408,1645.99 626.734,1646.21C628.315,1645.77 629.75,1643.78 630.843,1640.48C631.141,1639.58 631.393,1638.71 631.6,1637.89C631.323,1638.36 631.036,1638.73 630.779,1639.01ZM633.176,1631.26C633.15,1631.39 633.122,1631.53 633.093,1631.67C633.295,1633.76 632.961,1636.68 631.619,1640.73C630.675,1643.58 629.577,1645.2 628.542,1646.09C628.679,1646.05 628.814,1646 628.949,1645.94C632.441,1644.46 634.937,1638.12 634.512,1631.82C634.445,1630.84 634.31,1629.91 634.11,1629.04C633.874,1629.78 633.563,1630.52 633.176,1631.26ZM631.265,1635.77C631.168,1636.3 631.001,1636.8 630.782,1637.25C629.668,1639.54 627.198,1640.78 625.036,1640.13C624.759,1640.04 624.367,1639.88 623.927,1639.59C622.863,1639.65 621.878,1639.51 620.996,1639.16C621.012,1639.29 621.029,1639.41 621.046,1639.52C621.076,1639.72 621.11,1639.91 621.149,1640.1C624.582,1641.37 628.108,1640.76 630.172,1638.47C630.765,1637.81 631.523,1636.65 631.881,1634.84C631.692,1635.17 631.486,1635.48 631.265,1635.77ZM619.744,1638.46C619.847,1638.87 619.978,1639.27 620.137,1639.67C620.175,1639.69 620.213,1639.71 620.251,1639.72C620.247,1639.7 620.243,1639.67 620.239,1639.64C620.192,1639.34 620.156,1639.04 620.131,1638.72C619.999,1638.64 619.87,1638.56 619.744,1638.46ZM627.573,1638.67C626.821,1638.99 626.092,1639.22 625.391,1639.38C627.018,1639.8 628.847,1638.93 629.836,1637.29C629.164,1637.85 628.407,1638.31 627.573,1638.67ZM618.645,1637.44C618.599,1637.38 618.553,1637.33 618.508,1637.27C617.507,1636.89 616.55,1636.39 615.661,1635.8C616.604,1637.18 617.785,1638.27 619.033,1639.06C618.877,1638.53 618.772,1638.01 618.71,1637.51C618.688,1637.49 618.667,1637.46 618.645,1637.44ZM620.911,1637.92C620.913,1638.03 620.917,1638.13 620.921,1638.23C621.546,1638.55 622.239,1638.73 622.991,1638.78C622.8,1638.58 622.607,1638.34 622.419,1638.08C621.923,1638.06 621.419,1638.01 620.911,1637.92ZM630.539,1634.84C628.533,1636.82 626.086,1637.93 623.422,1638.07C623.671,1638.36 623.92,1638.58 624.157,1638.76C625.112,1638.66 626.149,1638.38 627.254,1637.91C628.555,1637.36 629.64,1636.54 630.485,1635.48C630.515,1635.27 630.534,1635.06 630.539,1634.84ZM626.732,1628.62C626.719,1628.62 626.705,1628.63 626.692,1628.64C627.002,1630.54 627.076,1632.48 626.941,1634.29L626.928,1634.46L626.793,1634.57C626.266,1635 625.682,1635.28 625.049,1635.38C624.583,1635.8 623.998,1636.1 623.307,1636.27C622.985,1636.35 622.675,1636.39 622.376,1636.4C622.523,1636.72 622.677,1637.01 622.835,1637.27C625.087,1637.27 627.945,1636.57 630.453,1633.77C630.156,1632.12 629.066,1630.31 626.732,1628.62ZM621.002,1636.18C620.962,1636.49 620.937,1636.8 620.923,1637.09C621.224,1637.15 621.552,1637.19 621.9,1637.22C621.756,1636.95 621.616,1636.65 621.485,1636.33C621.319,1636.29 621.158,1636.24 621.002,1636.18ZM619.547,1635.04C619.466,1635.6 619.442,1636.17 619.474,1636.74C619.686,1636.81 619.899,1636.87 620.113,1636.92C620.137,1636.53 620.18,1636.14 620.243,1635.75C619.992,1635.55 619.759,1635.32 619.547,1635.04ZM620.042,1618.7L620.24,1618.45L620.536,1618.58C621.528,1619.04 622.395,1619.7 623.145,1620.5C624.421,1620.15 625.956,1620.1 627.786,1620.6C628.007,1620.66 628.223,1620.73 628.436,1620.81C627.858,1619.72 627.199,1618.58 626.449,1617.37L627.012,1617.02C626.898,1616.94 626.784,1616.87 626.668,1616.8C624.366,1615.37 621.77,1615.17 619.058,1616.16C616.416,1617.83 614.585,1621.11 613.802,1625.7C613.235,1629.03 613.664,1631.8 614.66,1634.01C615.577,1634.82 616.615,1635.51 617.729,1636.05C616.09,1632.86 616.248,1628.1 618.225,1624.6C618.589,1621.98 619.285,1619.68 620.042,1618.7ZM617.986,1627.22C617.041,1630.25 617.263,1633.69 618.645,1636.03C618.671,1635.31 618.779,1634.64 618.937,1634.02C618.121,1632.27 617.874,1629.74 617.986,1627.22ZM623.833,1634.56C624.126,1634.61 624.404,1634.62 624.671,1634.6C625.344,1633.88 625.54,1632.9 625.56,1632.06C625.579,1631.23 625.43,1630.34 625.159,1629.45C623.252,1630.66 622.171,1632.25 621.577,1633.83C621.708,1634.49 621.868,1635.07 622.049,1635.58C622.38,1635.61 622.731,1635.57 623.111,1635.48C623.328,1635.42 623.525,1635.36 623.706,1635.28L623.833,1634.56ZM621.139,1635.35C621.14,1635.35 621.141,1635.35 621.142,1635.35L621.14,1635.34C621.14,1635.34 621.139,1635.35 621.139,1635.35ZM620.523,1632.13C620.21,1632.71 619.966,1633.3 619.792,1633.91C619.862,1634.04 619.937,1634.17 620.016,1634.29C620.145,1634.49 620.284,1634.67 620.431,1634.82C620.52,1634.46 620.627,1634.1 620.755,1633.75C620.661,1633.25 620.583,1632.71 620.523,1632.13ZM626.168,1633.53C626.101,1633.77 626.019,1633.99 625.922,1634.19C625.995,1634.15 626.068,1634.1 626.139,1634.05C626.151,1633.88 626.16,1633.7 626.168,1633.53ZM631.32,1634C631.327,1634.06 631.333,1634.12 631.338,1634.17C631.422,1634.02 631.502,1633.86 631.578,1633.69C631.493,1633.8 631.407,1633.9 631.32,1634ZM631.786,1629.65C631.396,1628.68 630.791,1627.97 629.974,1627.53C628.98,1627 627.726,1626.95 626.43,1627.29C626.47,1627.47 626.507,1627.64 626.543,1627.81C626.571,1627.8 626.599,1627.79 626.628,1627.78L626.835,1627.69L627.017,1627.82C629.38,1629.48 630.623,1631.28 631.111,1632.97C631.36,1632.64 631.604,1632.3 631.842,1631.92C631.912,1631.81 631.98,1631.7 632.046,1631.6C632.001,1630.99 631.917,1630.34 631.786,1629.65ZM620.819,1623.69L620.883,1623.22L621.34,1623.36C622.693,1623.76 624.035,1625.16 624.994,1626.92C625.15,1626.85 625.305,1626.79 625.462,1626.73C624.927,1624.72 624.087,1622.87 622.902,1621.45C621.056,1622.12 619.878,1623.5 619.218,1624.53C619.157,1624.63 619.097,1624.73 619.039,1624.82C618.682,1627.54 618.676,1630.62 619.341,1632.79C619.677,1631.94 620.079,1631.25 620.423,1630.74C620.336,1628.81 620.44,1626.49 620.819,1623.69ZM610.85,1627.6C611.154,1629.38 612.022,1631.1 613.267,1632.58C612.697,1630.58 612.54,1628.24 612.997,1625.57C613.635,1621.83 614.857,1619.31 616.237,1617.62C612.112,1620.29 610.203,1623.82 610.85,1627.6ZM624.616,1628.02C623.457,1628.64 622.35,1629.56 621.457,1630.71C621.383,1630.8 621.31,1630.9 621.24,1630.99C621.266,1631.49 621.305,1631.96 621.355,1632.4C622.12,1630.97 623.266,1629.67 624.887,1628.66C624.803,1628.44 624.712,1628.23 624.616,1628.02ZM621.561,1624.32C621.299,1626.4 621.193,1628.18 621.203,1629.73C622.101,1628.7 623.149,1627.87 624.244,1627.28C623.505,1625.93 622.537,1624.81 621.561,1624.32ZM630.287,1622.7C631.461,1625.24 632.166,1627.43 632.541,1629.32C632.55,1629.35 632.559,1629.37 632.568,1629.39C632.652,1627.68 632.425,1625.94 631.946,1624.31C631.456,1623.69 630.901,1623.15 630.287,1622.7ZM625.895,1629.02C625.919,1629.1 625.943,1629.18 625.966,1629.25C625.955,1629.17 625.942,1629.09 625.93,1629C625.918,1629.01 625.907,1629.01 625.895,1629.02ZM633.238,1626.43C633.339,1627.13 633.394,1627.84 633.401,1628.55C633.506,1628.19 633.592,1627.84 633.659,1627.48C633.531,1627.12 633.391,1626.77 633.238,1626.43ZM625.659,1627.54C625.562,1627.58 625.464,1627.62 625.366,1627.66C625.455,1627.85 625.539,1628.05 625.618,1628.25C625.673,1628.22 625.73,1628.19 625.787,1628.16C625.747,1627.95 625.705,1627.75 625.659,1627.54ZM627.569,1621.39C626.088,1620.98 624.821,1620.97 623.744,1621.21C624.881,1622.67 625.699,1624.51 626.231,1626.49C627.718,1626.1 629.175,1626.18 630.359,1626.81C630.643,1626.96 630.945,1627.17 631.242,1627.43C630.759,1625.81 630.04,1623.98 629.017,1621.93C628.559,1621.71 628.076,1621.53 627.569,1621.39ZM627.098,1616.11C629.661,1617.69 631.657,1620.59 632.669,1623.89C633.109,1624.46 633.499,1625.09 633.837,1625.78C633.885,1623.63 633.248,1621.54 631.924,1619.65C630.176,1617.15 627.488,1615.49 624.752,1615.06C625.654,1615.32 626.439,1615.7 627.098,1616.11ZM620.503,1619.48C620.062,1620.21 619.651,1621.48 619.343,1623C620.05,1622.17 621.02,1621.33 622.298,1620.79C621.761,1620.27 621.164,1619.82 620.503,1619.48ZM629.62,1621.32C630.208,1621.62 630.756,1621.99 631.262,1622.42C630.341,1620.31 628.984,1618.48 627.334,1617.25C628.22,1618.69 628.976,1620.05 629.62,1621.32Z" style="fill:rgb(255,248,227);fill-rule:nonzero;"/>
    </g>
    <g transform="matrix(1.08044,0,0,1.12166,-578.332,-1484.37)">
        <path d="M586.582,1669.67C586.223,1669.61 585.864,1669.53 585.507,1669.43C582.157,1668.54 579.594,1666.31 578.158,1663.12C577.292,1661.55 576.806,1659.86 576.845,1658.23C576.849,1658.05 576.86,1657.87 576.88,1657.67C576.557,1652.07 579.516,1649.62 581.456,1648.63C586.018,1646.29 592.839,1647.62 596.658,1651.59C597.491,1652.45 598.471,1653.76 598.997,1655.49C598.716,1653.58 598.08,1651.38 596.937,1648.89L597.68,1648.55C602.026,1658.03 599.288,1663.46 597.269,1665.85C597.214,1665.92 597.158,1665.98 597.102,1666.05C597.051,1666.19 596.997,1666.32 596.942,1666.43C596.361,1667.64 595.19,1668.43 593.768,1668.6C593.254,1668.86 592.719,1669.08 592.171,1669.26C591.074,1669.72 589.909,1669.95 588.698,1669.93C588.006,1669.92 587.299,1669.84 586.582,1669.67ZM590.059,1667.62C588.564,1668.02 586.644,1668.12 584.193,1667.64L583.954,1667.59L583.882,1667.36C582.669,1663.42 584.496,1659.98 587.059,1658.36C587.085,1658.3 587.111,1658.24 587.139,1658.19C587.09,1657.19 587.239,1656.14 587.596,1655.1L587.71,1654.77L588.053,1654.83C588.759,1654.95 589.334,1655.12 589.801,1655.33C590.844,1654.72 592,1654.41 593.089,1654.41C591.2,1651.76 588.278,1650.65 585.052,1651.38C580.64,1652.36 578.056,1654.59 577.701,1657.66C577.738,1658.3 577.818,1658.96 577.943,1659.65C578.135,1660.7 578.429,1661.68 578.819,1662.59C580.353,1665.43 583.238,1667.91 586.424,1668.79C586.529,1668.81 586.637,1668.84 586.748,1668.87C588.51,1669.16 590.287,1669.02 591.926,1668.48C591.274,1668.32 590.645,1668.03 590.059,1667.62ZM596.508,1664.31C596.457,1663.68 596.262,1663.01 595.927,1662.31C595.667,1662.75 595.36,1663.13 595.01,1663.43C594.839,1663.84 594.634,1664.23 594.395,1664.59C593.829,1665.46 592.809,1666.58 591.076,1667.29C591.747,1667.64 592.468,1667.84 593.19,1667.82C594.331,1667.08 595.467,1665.96 596.508,1664.31ZM587.882,1665.25C586.538,1663.02 586.355,1661.15 586.637,1659.7C584.871,1661.27 583.772,1663.9 584.594,1666.88C586.325,1667.2 587.89,1667.22 589.246,1666.97C588.738,1666.49 588.277,1665.91 587.882,1665.25ZM593.674,1664.16C592.137,1664.61 590.347,1664.01 588.998,1662.6C588.26,1661.82 587.734,1660.91 587.432,1659.9C587.169,1661.42 587.551,1663.12 588.582,1664.83C589.042,1665.6 589.598,1666.24 590.215,1666.73C591.709,1666.25 592.896,1665.39 593.708,1664.15C593.697,1664.15 593.685,1664.16 593.674,1664.16ZM594.842,1660.57C593.976,1659.46 592.956,1658.72 591.863,1658.37C591.884,1658.62 591.894,1658.87 591.904,1659.11C591.914,1659.37 591.924,1659.62 591.946,1659.88L591.132,1659.95C591.11,1659.68 591.098,1659.41 591.088,1659.15C591.074,1658.81 591.061,1658.49 591.026,1658.19C590.05,1658.07 589.032,1658.25 588.028,1658.75C588.024,1658.75 588.019,1658.75 588.014,1658.76C588.192,1659.99 588.725,1661.13 589.589,1662.03C590.726,1663.22 592.204,1663.74 593.444,1663.38C593.767,1663.28 594.065,1663.13 594.336,1662.92C594.62,1662.19 594.788,1661.39 594.842,1660.57ZM581.828,1649.36C579.684,1650.45 578.343,1652.32 577.871,1654.77C578.914,1653.11 580.958,1651.46 584.873,1650.58C588.478,1649.77 591.741,1651.03 593.827,1654.04C593.942,1654.21 594.052,1654.38 594.156,1654.55C594.427,1654.62 594.686,1654.72 594.928,1654.84C595.887,1655.33 597.395,1656.67 596.718,1660.12C596.629,1660.58 596.511,1661 596.365,1661.38C596.743,1662.05 596.989,1662.66 597.139,1663.22C599.328,1659.07 598.954,1655.15 596.07,1652.15C593.743,1649.73 590.111,1648.36 586.704,1648.31C584.95,1648.29 583.254,1648.63 581.828,1649.36ZM595.667,1660.31C595.671,1660.32 595.676,1660.32 595.681,1660.33C595.72,1660.38 595.758,1660.44 595.795,1660.49C595.84,1660.32 595.881,1660.14 595.917,1659.96C596.32,1657.9 595.905,1656.39 594.745,1655.67C595.407,1657.15 595.718,1658.76 595.667,1660.31ZM590.625,1655.81C591.263,1656.29 591.571,1656.88 591.727,1657.5C592.785,1657.75 593.854,1658.32 594.839,1659.33C594.741,1657.94 594.335,1656.53 593.63,1655.27C592.699,1655.12 591.62,1655.32 590.625,1655.81ZM590.839,1657.37C590.671,1656.93 590.379,1656.56 589.856,1656.26C589.49,1656.51 589.146,1656.8 588.836,1657.13C588.66,1657.32 588.498,1657.52 588.354,1657.72C589.018,1657.48 589.747,1657.35 590.501,1657.35C590.613,1657.36 590.726,1657.36 590.839,1657.37ZM588.261,1655.7C588.15,1656.08 588.069,1656.46 588.017,1656.83C588.094,1656.74 588.17,1656.65 588.24,1656.58C588.472,1656.33 588.722,1656.1 588.986,1655.89C588.769,1655.82 588.528,1655.76 588.261,1655.7Z" style="fill:rgb(255,248,227);fill-rule:nonzero;"/>
    </g>
    <g transform="matrix(1.08044,0,0,1.12166,-578.332,-1484.37)">
        <path d="M574.562,1629.82L574.663,1630.03L574.893,1630.05C575.901,1630.15 577.402,1630.01 579.109,1629.69C580.354,1630.67 582.036,1631.19 584.067,1631.22C584.185,1631.22 584.304,1631.22 584.424,1631.22C588.184,1631.16 589.742,1629.12 590.386,1627.41C590.721,1626.53 590.884,1625.55 590.906,1624.51C591.565,1623.85 592.042,1623.13 592.272,1622.37C592.756,1620.77 592.079,1619.24 590.258,1617.78C590.01,1617.22 589.617,1616.64 589.035,1616.05C588.773,1615.78 588.493,1615.55 588.197,1615.36C588.129,1614.2 587.993,1613.04 587.797,1611.88C587.501,1611.83 587.211,1611.76 586.928,1611.67C587.098,1612.6 587.23,1613.54 587.313,1614.47C587.041,1614.15 586.761,1613.86 586.474,1613.6C584.832,1612.1 583.082,1611.68 581.544,1612.43C579.869,1613.24 578.84,1614.78 578.72,1616.65C578.687,1617.18 578.729,1617.71 578.838,1618.22C575.374,1621.62 573.026,1626.63 574.562,1629.82ZM590.418,1620.68C590.559,1620.23 590.639,1619.74 590.61,1619.22C591.491,1620.18 591.786,1621.16 591.49,1622.13C591.37,1622.53 591.158,1622.92 590.87,1623.3C590.801,1622.43 590.645,1621.55 590.418,1620.68ZM579.378,1619.71C579.808,1620.52 580.428,1621.23 581.194,1621.73C582.238,1622.41 583.469,1622.68 584.799,1622.53C584.65,1623.31 584.408,1624.11 584.073,1624.94L584.512,1625.12C582.319,1626.12 579.925,1626.6 578.35,1626.27C577.827,1623.94 578.239,1621.62 579.378,1619.71ZM581.641,1621.05C580.867,1620.54 580.268,1619.79 579.908,1618.92C580.686,1617.88 581.7,1617.01 582.909,1616.37C583.147,1616.3 583.39,1616.25 583.635,1616.22C584.711,1617.85 585.142,1619.68 584.926,1621.69C583.698,1621.87 582.575,1621.66 581.641,1621.05ZM586.435,1614.71C585.058,1614.51 583.486,1614.91 581.823,1615.89C581.145,1616.17 580.5,1616.58 579.901,1617.11C579.779,1617.22 579.66,1617.33 579.545,1617.44C579.523,1617.2 579.52,1616.95 579.536,1616.7C579.635,1615.13 580.497,1613.85 581.9,1613.16C583.46,1612.41 584.949,1613.31 585.923,1614.2C586.096,1614.36 586.267,1614.53 586.435,1614.71ZM587.411,1616.05C586.813,1615.78 586.213,1615.6 585.619,1615.49C586.195,1615.47 586.774,1615.56 587.328,1615.82C587.354,1615.86 587.381,1615.89 587.407,1615.93C587.408,1615.97 587.41,1616.01 587.411,1616.05ZM587.432,1616.96C587.441,1618.29 587.363,1619.63 587.197,1620.96C586.712,1621.2 586.234,1621.38 585.767,1621.51C585.928,1619.58 585.529,1617.8 584.572,1616.18C585.502,1616.22 586.463,1616.48 587.432,1616.96ZM589.577,1620.62C589.487,1620.86 589.37,1621.1 589.226,1621.35C588.394,1622.76 586.774,1624 584.966,1624.9C585.292,1624.04 585.523,1623.2 585.658,1622.38C586.343,1622.22 587.047,1621.96 587.762,1621.59L587.951,1621.49L587.98,1621.28C588.149,1619.99 588.239,1618.7 588.248,1617.4C588.273,1617.42 588.297,1617.43 588.321,1617.45C588.837,1618.43 589.268,1619.51 589.577,1620.62ZM580.233,1629.46C583.648,1628.69 587.595,1627.23 590.05,1625.28C589.98,1625.93 589.84,1626.55 589.622,1627.12C588.815,1629.26 587.062,1630.36 584.411,1630.4C582.745,1630.43 581.338,1630.1 580.233,1629.46ZM578.072,1627.04C581.311,1627.8 587.692,1625.4 589.87,1621.86C590.017,1622.63 590.099,1623.39 590.105,1624.13C587.78,1626.28 583.17,1628.04 579.362,1628.83C578.815,1628.34 578.381,1627.74 578.072,1627.04ZM577.144,1621.52C576.578,1623.4 576.556,1625.41 577.203,1627.08C577.488,1627.82 577.883,1628.46 578.379,1629.01C577.163,1629.21 576.065,1629.31 575.204,1629.25C574.356,1627.17 575.331,1624.18 577.144,1621.52Z" style="fill:rgb(255,248,227);fill-rule:nonzero;"/>
    </g>
    <g transform="matrix(1.08044,0,0,1.12166,-578.332,-1484.37)">
        <path d="M636.286,1695.43C633.218,1694.38 630.427,1691.66 629.175,1688.5C628.638,1687.14 628.368,1685.77 628.357,1684.4C628.328,1684.16 628.306,1683.92 628.292,1683.67C627.873,1676.48 631.858,1674.05 634.271,1673.24C635.064,1672.97 635.899,1672.81 636.752,1672.73C639.169,1671.72 641.699,1671.5 643.8,1672.24C645.908,1672.98 648.525,1674.97 649.015,1680.29C649.023,1680.37 649.029,1680.45 649.035,1680.53C649.177,1681.48 649.137,1682.57 648.767,1683.77C648.467,1684.99 647.943,1686.13 647.212,1687.16C647.017,1690.23 645.989,1693.04 643.048,1694.79C641.771,1695.55 640.387,1695.92 638.957,1695.91C638.08,1695.9 637.185,1695.74 636.286,1695.43ZM644.475,1689.83C640.949,1692.27 636.288,1692.79 632.878,1691.12C631.923,1690.66 631.104,1690.04 630.432,1689.28C631.75,1691.76 634.052,1693.81 636.55,1694.66C638.679,1695.38 640.782,1695.19 642.631,1694.09C644.92,1692.73 645.938,1690.66 646.289,1688.28C645.756,1688.85 645.15,1689.37 644.475,1689.83ZM636.515,1691.07C635.54,1690.83 634.63,1690.45 633.812,1689.98C633.67,1689.96 633.524,1689.95 633.375,1689.93L633.401,1689.72C631.596,1688.55 630.303,1686.85 629.867,1684.94C629.25,1682.25 630.435,1679.49 633.203,1677.18C636.012,1674.84 639.24,1674.37 642.059,1675.92C643.842,1676.89 645.215,1678.53 645.906,1680.35C645.868,1680.09 645.83,1679.84 645.792,1679.58C645.634,1678.52 645.484,1677.52 645.382,1676.58L645.89,1676.52C643.632,1674.47 640.119,1673.31 636.91,1673.55C635.325,1674.23 633.792,1675.28 632.489,1676.64C630.289,1678.93 629.159,1681.63 629.177,1684.39C629.622,1687.91 631.598,1689.59 633.236,1690.39C634.474,1690.99 635.926,1691.27 637.426,1691.26C637.123,1691.21 636.819,1691.15 636.515,1691.07ZM646.338,1683.82C646.166,1685 645.521,1686.84 643.277,1688.06C643.052,1688.41 642.78,1688.75 642.461,1689.06C641.749,1689.75 640.878,1690.24 639.968,1690.51C642.136,1690.26 644.134,1689.19 645.706,1687.38C645.97,1687.08 646.213,1686.77 646.437,1686.47C646.458,1685.6 646.416,1684.71 646.338,1683.82ZM635.518,1689.89C635.579,1689.92 635.64,1689.94 635.702,1689.96C635.662,1689.93 635.623,1689.91 635.585,1689.88C635.563,1689.88 635.541,1689.89 635.518,1689.89ZM641.121,1688.88C639.429,1689.31 638.129,1689.39 637.127,1689.25C636.965,1689.36 636.789,1689.46 636.6,1689.55C638.086,1690.28 640.116,1689.95 641.573,1688.76C641.427,1688.8 641.276,1688.84 641.121,1688.88ZM634.202,1682.03L634.301,1681.66L634.672,1681.73C634.75,1681.75 634.827,1681.76 634.903,1681.78C635.593,1680.66 636.551,1679.71 637.638,1679.23C638.613,1678.79 641.097,1678.18 643.114,1681.85C644.029,1683.51 644.283,1685.18 643.896,1686.64C644.823,1685.85 645.388,1684.82 645.541,1683.61C645.869,1681.02 644.204,1678.02 641.667,1676.63C640.193,1675.83 637.201,1674.91 633.727,1677.81C630.496,1680.51 630.277,1683.08 630.663,1684.76C631.063,1686.51 632.338,1688.1 634.083,1689.17C634.352,1689.18 634.604,1689.18 634.84,1689.16C633.605,1687.63 633.364,1685.12 634.202,1682.03ZM635.557,1688.75C635.629,1688.83 635.706,1688.91 635.786,1688.99C635.839,1688.97 635.891,1688.95 635.941,1688.93C635.805,1688.88 635.676,1688.82 635.557,1688.75ZM642.398,1682.24C641.173,1680.01 639.643,1679.23 637.97,1679.97C637.091,1680.36 636.301,1681.12 635.705,1682.03C637.908,1682.9 638.939,1685.03 638.653,1686.84C638.564,1687.4 638.334,1687.98 637.939,1688.49C638.788,1688.53 639.789,1688.38 640.92,1688.09C641.579,1687.92 642.176,1687.7 642.704,1687.43C643.535,1685.97 643.441,1684.14 642.398,1682.24ZM634.757,1686.63C635.079,1687.56 635.82,1688.14 636.925,1688.38C637.459,1687.92 637.75,1687.32 637.846,1686.71C638.083,1685.21 637.187,1683.44 635.29,1682.75C634.633,1684.04 634.371,1685.51 634.757,1686.63ZM648.225,1680.66C648.093,1679.74 647.748,1678.85 647.186,1678.01C646.913,1677.6 646.593,1677.22 646.235,1676.85C646.332,1677.68 646.463,1678.55 646.6,1679.46C646.874,1681.3 647.172,1683.28 647.236,1685.23C647.635,1684.51 647.922,1683.8 648.093,1683.09C648.23,1682.35 648.283,1681.54 648.225,1680.66ZM629.448,1679.57C630.034,1678.34 630.854,1677.16 631.9,1676.07C632.603,1675.34 633.371,1674.69 634.179,1674.14C631.741,1675.07 630.129,1676.94 629.448,1679.57ZM639.365,1672.78C642.534,1673.17 645.62,1674.69 647.446,1676.99C646.664,1675 645.341,1673.64 643.53,1673.01C642.804,1672.75 642.021,1672.63 641.206,1672.62C640.605,1672.61 639.988,1672.67 639.365,1672.78Z" style="fill:rgb(255,248,227);fill-rule:nonzero;"/>
    </g>
    <g transform="matrix(1.08044,0,0,1.12166,-578.332,-1484.37)">
        <path d="M564.58,1701.52C563.907,1700.85 563.417,1700.05 563.09,1699.19C561.526,1697.34 560.887,1695.01 561.271,1692.41C561.927,1687.98 565.487,1683.8 569.552,1682.69C572.729,1681.83 575.757,1682.93 578.082,1685.81C580.119,1688.33 580.283,1691.42 579.291,1694.14C579.002,1695.77 578.29,1697.33 577.335,1698.61C576.262,1700.04 574.812,1701.24 573.141,1701.94C572.756,1702.5 572.32,1702.97 571.835,1703.33C571.215,1703.79 570.41,1704.16 569.421,1704.14C568.123,1704.13 566.509,1703.47 564.58,1701.52ZM565.413,1701.17C565.39,1701.16 565.367,1701.14 565.344,1701.13C566.985,1702.72 569.297,1704.2 571.349,1702.68C571.465,1702.59 571.578,1702.5 571.688,1702.4C569.74,1702.82 567.579,1702.53 565.413,1701.17ZM573.09,1700.4C570.776,1701.1 568.452,1700.47 566.669,1698.54C564.252,1695.92 565.12,1692.29 566.739,1689.76C568.341,1687.26 571.11,1685.11 573.299,1685.82C574.499,1686.21 575.874,1687.61 575.612,1692.06C575.556,1692.99 575.391,1693.83 575.127,1694.54C575.118,1696.02 574.913,1697.5 574.532,1698.84C574.927,1698.6 575.302,1698.32 575.65,1698.02C576.901,1696.94 577.902,1695.51 578.489,1693.95C578.9,1691.54 578.302,1688.95 576.008,1686.92C573.173,1684.41 569.737,1684.76 566.819,1687.85C564.1,1690.74 562.589,1695.35 563.787,1698.74C564.348,1699.39 565.037,1699.97 565.847,1700.48C568.217,1701.97 570.584,1702.03 572.618,1701.26C572.788,1700.99 572.945,1700.7 573.09,1700.4ZM576.184,1698.63C575.524,1699.2 574.841,1699.65 574.149,1699.99C574.06,1700.22 573.964,1700.44 573.862,1700.66C574.876,1700.07 575.772,1699.27 576.498,1698.35C576.395,1698.45 576.29,1698.54 576.184,1698.63ZM574.22,1696.12C573.845,1696.55 573.401,1696.87 572.898,1697.07C571.672,1697.54 570.253,1697.19 569.194,1696.16C567.616,1694.62 567.243,1692.12 568.195,1689.47C568.275,1689.25 568.359,1689.04 568.445,1688.86C568.082,1689.26 567.739,1689.72 567.427,1690.2C566.721,1691.3 564.624,1695.12 567.269,1697.99C569.243,1700.12 571.542,1700.21 573.512,1699.37C573.861,1698.38 574.101,1697.27 574.22,1696.12ZM576.549,1686.31C577.769,1687.39 578.557,1688.61 578.995,1689.88C578.825,1688.64 578.333,1687.42 577.446,1686.32C574.745,1682.98 571.778,1682.93 569.767,1683.48C565.996,1684.51 562.69,1688.4 562.079,1692.53C561.847,1694.1 562.028,1695.56 562.596,1696.86C562.366,1693.56 563.857,1689.8 566.225,1687.29C567.758,1685.67 569.855,1684.42 572.114,1684.44C573.561,1684.46 575.075,1685.01 576.549,1686.31ZM574.225,1692.87C573.984,1693.82 573.484,1694.78 572.621,1695.64L572.043,1695.07C573.905,1693.2 573.817,1690.82 573.176,1689.33C573.132,1689.23 573.085,1689.13 573.035,1689.04C571.751,1688.55 571.346,1688.87 570.645,1689.43C570.404,1689.62 570.131,1689.84 569.794,1690.04L569.375,1689.34C569.664,1689.16 569.904,1688.98 570.137,1688.79C570.712,1688.33 571.266,1687.88 572.272,1688.01C571.883,1687.64 571.457,1687.45 571.028,1687.46C570.218,1687.49 569.485,1688.3 568.964,1689.75C568.123,1692.09 568.422,1694.27 569.764,1695.58C570.59,1696.38 571.679,1696.66 572.603,1696.3C573.345,1696.02 573.926,1695.36 574.307,1694.41C574.306,1693.89 574.279,1693.37 574.225,1692.87ZM571.452,1686.68C572.266,1686.83 573.048,1687.45 573.607,1688.39C573.618,1688.39 573.628,1688.39 573.639,1688.4L573.77,1688.46L573.838,1688.58C574.285,1689.41 574.611,1690.37 574.823,1691.38C574.886,1688.68 574.264,1686.99 573.047,1686.59C572.865,1686.54 572.67,1686.51 572.464,1686.5C572.147,1686.5 571.807,1686.56 571.452,1686.68Z" style="fill:rgb(255,248,227);fill-rule:nonzero;"/>
    </g>
    <g transform="matrix(1.08044,0,0,1.12166,-578.332,-1484.37)">
        <path d="M624.839,1603.04L624.908,1603.29L625.16,1603.34C625.696,1603.43 626.231,1603.48 626.758,1603.49C628.568,1603.51 630.298,1603.03 631.762,1602.28C633.981,1602.51 636.124,1601.58 637.791,1599.57C639.801,1597.14 639.84,1595.12 639.424,1593.76C639.451,1593.69 639.463,1593.61 639.487,1593.54C638.96,1593.24 638.49,1592.87 638.141,1592.42C638.013,1592.25 637.878,1592.1 637.739,1591.95C636.855,1591.41 635.905,1590.97 635.018,1590.43C634.543,1590.15 634.113,1589.8 633.722,1589.4C632.711,1589.22 631.675,1589.21 630.703,1589.42C628.377,1589.94 626.887,1591.61 626.618,1594C626.557,1594.54 626.566,1595.05 626.64,1595.52C626.42,1595.76 626.273,1596 626.174,1596.22C626.044,1596.35 625.921,1596.49 625.804,1596.63C624.48,1598.28 624.137,1600.55 624.839,1603.04ZM634.832,1590.51C634.249,1591.7 633.627,1593.15 633.357,1594.49C632.751,1594.33 632.044,1594.23 631.085,1594.23C630.858,1594.23 630.641,1594.23 630.434,1594.24C630.201,1593.6 629.888,1593.02 629.466,1592.53L628.69,1591.62L628.748,1592.82C628.772,1593.3 628.773,1593.86 628.761,1594.44C628.203,1594.57 627.757,1594.74 627.399,1594.94C627.386,1594.67 627.396,1594.39 627.43,1594.09C627.742,1591.32 629.726,1590.48 630.88,1590.22C632.158,1589.93 633.564,1590.07 634.832,1590.51ZM628.612,1597.13L628.635,1597.4C628.17,1597.07 627.833,1596.63 627.629,1596.09C627.966,1595.88 628.334,1595.7 628.727,1595.56C628.706,1596.1 628.68,1596.62 628.657,1597.09L628.656,1597.11L628.612,1597.13ZM629.477,1597.05C629.503,1596.51 629.532,1595.93 629.554,1595.34C629.667,1595.31 629.782,1595.29 629.898,1595.28C630.041,1595.85 630.135,1596.46 630.198,1597.1C629.931,1597.09 629.671,1597.07 629.477,1597.05ZM630.264,1597.93C630.266,1597.97 630.269,1598.01 630.271,1598.05C630.037,1598.01 629.811,1597.95 629.597,1597.88C629.792,1597.9 630.024,1597.91 630.264,1597.93ZM633.22,1595.64L634.036,1595.66C634.037,1595.63 634.037,1595.61 634.038,1595.59C634.495,1595.82 634.819,1596.11 634.994,1596.47C635.098,1596.68 635.149,1596.91 635.15,1597.16C633.838,1597.83 632.378,1598.18 631.093,1598.13L631.081,1597.92C631.374,1597.9 631.631,1597.85 631.797,1597.76L631.97,1597.75L631.984,1597.56L632.1,1597.36L632.008,1597.24C632.084,1596.16 632.092,1595.5 632.058,1595.1C632.493,1595.14 632.888,1595.2 633.238,1595.3C633.228,1595.41 633.222,1595.53 633.22,1595.64ZM631.018,1597.11C630.956,1596.44 630.863,1595.8 630.72,1595.2C630.885,1595.19 631.051,1595.19 631.222,1595.19C631.222,1595.48 631.217,1595.91 631.21,1596.31L630.915,1595.97L631.125,1597.1C631.091,1597.1 631.056,1597.11 631.018,1597.11ZM638.561,1593.75C638.044,1594.96 637.141,1595.83 636.461,1596.35C636.288,1596.48 636.109,1596.6 635.927,1596.72C635.888,1596.51 635.822,1596.3 635.727,1596.11C635.495,1595.64 635.037,1595.12 634.14,1594.74C634.404,1593.36 635.109,1591.79 635.589,1590.82C636.695,1591.34 637.638,1592.11 638.212,1593.05C638.352,1593.28 638.469,1593.51 638.561,1593.75ZM633.139,1601.43C633.886,1600.89 634.519,1600.28 634.999,1599.65C635.499,1598.98 635.809,1598.31 635.92,1597.68C636.278,1597.47 636.624,1597.25 636.955,1597C637.734,1596.4 638.359,1595.73 638.822,1594.99C638.879,1596.27 638.322,1597.64 637.162,1599.05C635.832,1600.66 634.402,1601.28 633.139,1601.43ZM631.623,1601.41C630.749,1601.29 630.06,1601 629.698,1600.81C627.782,1599.86 626.525,1598.09 626.837,1596.8C626.846,1596.76 626.858,1596.72 626.87,1596.68C626.899,1596.65 626.928,1596.63 626.958,1596.6C627.281,1597.31 627.805,1597.89 628.515,1598.29C629.042,1598.59 629.651,1598.78 630.309,1598.88C630.325,1599.33 630.335,1599.78 630.345,1600.23L630.755,1600.31L631.163,1600.3C631.153,1599.85 631.143,1599.4 631.128,1598.95C632.333,1598.98 633.673,1598.72 634.924,1598.18C634.79,1598.49 634.596,1598.82 634.346,1599.15C633.718,1599.99 632.768,1600.79 631.623,1601.41ZM626.027,1597.75C626.293,1599.16 627.548,1600.65 629.333,1601.55C629.687,1601.72 630.042,1601.87 630.397,1601.98C628.926,1602.55 627.247,1602.83 625.558,1602.57C625.094,1600.74 625.26,1599.06 626.027,1597.75Z" style="fill:rgb(255,248,227);fill-rule:nonzero;"/>
    </g>
    <g transform="matrix(1.08044,0,0,1.12166,-578.332,-1484.37)">
        <path d="M629.583,1594.3L629.582,1594.3L629.581,1594.3C629.582,1594.3 629.583,1594.3 629.583,1594.3Z" style="fill:rgb(255,248,227);fill-rule:nonzero;"/>
    </g>
    <g transform="matrix(1.08044,0,0,1.12166,-578.332,-1484.37)">
        <path d="M602.343,1703.52C599.185,1701.08 598.399,1697.11 600.238,1692.9C600.508,1692.28 600.789,1691.73 601.079,1691.24C602.003,1689.06 603.604,1686.95 605.558,1685.69C608.519,1683.78 611.627,1684.27 614.085,1687.05C616.559,1689.85 616.779,1692.95 614.69,1695.57C613.752,1696.75 612.476,1697.68 611.099,1698.3C612.058,1701.85 610.837,1703.54 609.902,1704.28C609.105,1704.9 608.053,1705.2 606.916,1705.19C605.404,1705.17 603.743,1704.6 602.343,1703.52ZM607.775,1699.15C602.884,1700.42 601.201,1698.51 600.63,1697.25C600.411,1696.76 600.283,1696.22 600.235,1695.63C599.699,1698.54 600.604,1701.14 602.842,1702.87C605.007,1704.54 607.825,1704.87 609.397,1703.64C610.626,1702.67 610.939,1700.92 610.335,1698.61C609.485,1698.91 608.614,1699.1 607.775,1699.15ZM604.586,1698.53C603.242,1697.8 601.263,1695.75 603.106,1690.33L603.249,1689.9L603.657,1690.08C605.014,1690.68 605.69,1690.73 606.093,1690.76C606.885,1690.82 607.059,1690.95 607.729,1692.34C607.787,1691.66 607.819,1690.97 607.663,1690.56L608.427,1690.27C608.682,1690.94 608.588,1691.94 608.504,1692.83C608.466,1693.24 608.43,1693.62 608.433,1693.91L608.453,1695.77L607.373,1693.49C606.482,1691.61 606.482,1691.61 606.034,1691.57C605.622,1691.54 604.961,1691.5 603.743,1691.01C602.688,1694.39 603.121,1696.8 604.978,1697.82C605.729,1698.23 606.661,1698.38 607.655,1698.33C607.722,1698.32 607.789,1698.3 607.857,1698.28C608.661,1698.05 609.366,1697.77 609.964,1697.42C609.825,1697.04 609.664,1696.64 609.481,1696.24L610.227,1695.9C610.391,1696.27 610.537,1696.62 610.664,1696.96C611.85,1696.06 612.447,1694.86 612.385,1693.44C612.277,1691 610.185,1688.64 607.722,1688.18C605.474,1687.76 603.372,1689.01 601.798,1691.64C600.993,1693.57 600.757,1695.54 601.374,1696.91C601.95,1698.19 603.195,1698.81 605.054,1698.75C604.893,1698.69 604.736,1698.61 604.586,1698.53ZM606.001,1686.38C605.286,1686.84 604.619,1687.43 604.02,1688.1C605.602,1687.16 607.071,1687.23 607.871,1687.38C610.686,1687.9 613.077,1690.61 613.201,1693.41C613.261,1694.77 612.798,1695.98 611.876,1696.95C612.707,1696.44 613.459,1695.8 614.051,1695.06C615.119,1693.72 616.464,1690.97 613.473,1687.59C612.004,1685.93 610.527,1685.38 609.226,1685.36C607.905,1685.35 606.766,1685.88 606.001,1686.38Z" style="fill:rgb(255,248,227);fill-rule:nonzero;"/>
    </g>
    <g transform="matrix(1.08044,0,0,1.12166,-578.332,-1484.37)">
        <path d="M646.765,1650.29C646.933,1651.25 647.322,1652.16 647.871,1652.99C647.819,1653.61 647.941,1654.16 648.124,1654.61C648.353,1655.17 648.713,1655.68 649.166,1656.12C649.751,1656.86 650.538,1657.46 651.349,1657.88C652.381,1658.41 653.619,1658.74 654.808,1658.76C655.756,1658.77 656.672,1658.58 657.428,1658.13C659.207,1657.88 660.593,1657.41 661.605,1656.74C661.453,1656.51 661.3,1656.28 661.155,1656.05C660.648,1656.39 660.031,1656.67 659.293,1656.9C659.897,1656.53 660.396,1656.04 660.779,1655.43C660.618,1655.15 660.46,1654.88 660.308,1654.6C660.003,1655.23 659.594,1655.69 659.141,1656.01C659.927,1653.94 659.065,1651.6 657.54,1650.03C657.775,1649.98 658.019,1649.95 658.263,1649.94C658.171,1649.67 658.078,1649.4 657.992,1649.13C657.572,1649.17 657.161,1649.25 656.789,1649.36C655.03,1648.01 652.394,1647.35 649.981,1649.48C649.022,1650.32 648.456,1651.12 648.153,1651.85C647.874,1651.31 647.672,1650.74 647.569,1650.14C646.937,1646.51 647.431,1644.09 648.998,1643.16C649.543,1642.84 650.189,1642.7 650.895,1642.71C652.758,1642.73 655.042,1643.78 657.013,1645.17C656.974,1644.83 656.964,1644.49 656.969,1644.15C654.256,1642.37 650.866,1641.11 648.582,1642.46C646.67,1643.59 646.059,1646.22 646.765,1650.29ZM649.233,1654.61C650.822,1656.12 652.94,1657.17 654.958,1657.52L654.912,1657.52C652.953,1657.49 650.953,1656.7 649.768,1655.56C649.546,1655.26 649.363,1654.95 649.233,1654.61ZM649.026,1653.17C649.044,1652.95 649.086,1652.72 649.153,1652.49C649.919,1649.83 652.199,1649.2 653.921,1649.48C654.409,1649.55 654.904,1649.71 655.369,1649.95C655.311,1649.99 655.261,1650.03 655.222,1650.06L655.767,1650.67C655.833,1650.61 655.966,1650.53 656.148,1650.45C657.04,1651.16 657.694,1652.24 657.738,1653.66C657.223,1653.8 656.703,1653.98 656.197,1654.15C655.683,1654.33 655.154,1654.51 654.634,1654.65C654.547,1654.59 654.469,1654.53 654.4,1654.47C653.973,1653.97 653.864,1653.93 653.65,1654L653.394,1654.06L653.352,1654.33C653.315,1654.56 653.571,1654.84 653.832,1655.06C653.905,1655.15 653.991,1655.25 654.092,1655.38L654.25,1655.57L654.496,1655.52C655.162,1655.37 655.824,1655.14 656.464,1654.92C657.08,1654.71 657.661,1654.51 658.235,1654.38L658.546,1654.31L658.555,1654C658.558,1653.87 658.558,1653.75 658.555,1653.63C658.726,1654.65 658.556,1655.69 657.896,1656.61C657.339,1656.78 656.793,1656.82 656.349,1656.82C656.322,1656.82 656.294,1656.82 656.267,1656.82C653.788,1656.79 650.798,1655.34 649.026,1653.17Z" style="fill:rgb(255,248,227);fill-rule:nonzero;"/>
    </g>
    <g transform="matrix(1.08044,0,0,1.12166,-578.332,-1484.37)">
        <path d="M669.311,1693.86L669.312,1693.5L668.96,1693.45C667.342,1693.22 665.914,1693.48 664.753,1694.19C663.966,1693.26 662.657,1692.49 660.769,1692.41L660.442,1692.4L660.358,1692.72C659.582,1695.64 660.623,1697.17 661.385,1697.85C661.317,1697.88 661.249,1697.91 661.18,1697.94L660.274,1698.36L661.209,1698.7C661.411,1698.77 661.604,1698.83 661.787,1698.88C661.436,1700.61 661.547,1702.41 662.022,1703.87C662.293,1703.82 662.566,1703.79 662.838,1703.76C662.573,1702.99 662.415,1702.11 662.397,1701.18L662.503,1701.54C662.814,1701.44 663.113,1701.36 663.399,1701.28C665.459,1700.71 667.095,1700.25 667.439,1697.81C668.622,1696.89 669.305,1695.48 669.311,1693.86ZM662.399,1700.72C662.414,1700.16 662.476,1699.6 662.589,1699.04C663.261,1699.12 663.78,1699.04 664.179,1698.89C664.921,1698.91 665.732,1698.74 666.467,1698.4C666.468,1698.4 666.469,1698.4 666.47,1698.4C666.031,1699.7 664.939,1700.01 663.18,1700.5C662.929,1700.56 662.668,1700.64 662.399,1700.72ZM664.088,1694.67C663.28,1695.35 662.638,1696.29 662.197,1697.46C662.13,1697.41 662.066,1697.36 662.004,1697.31C660.999,1696.47 660.671,1695.03 661.068,1693.25C662.481,1693.38 663.473,1693.97 664.088,1694.67ZM664.805,1697.14C664.201,1697.14 663.673,1697.19 663.152,1697.29C663.454,1696.63 663.9,1695.92 664.555,1695.35C664.604,1695.44 664.646,1695.53 664.683,1695.62C664.897,1696.16 664.935,1696.69 664.805,1697.14ZM668.48,1694.22C668.386,1695.45 667.83,1696.49 666.902,1697.19C666.442,1697.17 666.026,1697.15 665.643,1697.14C665.756,1696.58 665.692,1695.95 665.441,1695.32C665.38,1695.17 665.307,1695.01 665.22,1694.86C666.037,1694.37 667.101,1694.08 668.48,1694.22Z" style="fill:rgb(255,248,227);fill-rule:nonzero;"/>
    </g>
    <g transform="matrix(1.08044,0,0,1.12166,-578.332,-1484.37)">
        <path d="M664.182,1697.98C664.132,1698.01 664.08,1698.04 664.026,1698.07C663.908,1698.06 663.791,1698.05 663.675,1698.03C663.84,1698.01 664.007,1697.99 664.182,1697.98Z" style="fill:rgb(255,248,227);fill-rule:nonzero;"/>
    </g>
</svg>
