<?xml version="1.0" encoding="UTF-8" standalone="no"?>
<!DOCTYPE svg PUBLIC "-//W3C//DTD SVG 1.1//EN" "http://www.w3.org/Graphics/SVG/1.1/DTD/svg11.dtd">
<svg width="100%" height="100%" viewBox="0 0 12025 9171" version="1.1" xmlns="http://www.w3.org/2000/svg" xmlns:xlink="http://www.w3.org/1999/xlink" xml:space="preserve" xmlns:serif="http://www.serif.com/" style="fill-rule:evenodd;clip-rule:evenodd;stroke-linejoin:round;stroke-miterlimit:2;">
    <g transform="matrix(11.4198,0,0,11.3239,10262.1,3553.01)">
        <path d="M0,33.296C20.358,-176.625 -357.196,-483.081 -361.568,-143.89C-549.815,-367.808 -863.789,-99.038 -879.902,122.095C-887.448,225.663 -904.403,378.634 -809.336,437.28C-681.116,516.377 131.107,465.251 120.797,467.336C120.797,467.336 189.908,-33.812 0,33.296" style="fill:rgb(227,231,234);fill-rule:nonzero;"/>
    </g>
    <g transform="matrix(-11.2575,1.90211,1.91822,11.163,8687.78,7866.61)">
        <path d="M-198.51,28.226C-165.392,-72.889 19.938,65.317 -140.458,100.906C-165.7,106.507 -190.983,91.741 -198.51,67.006C-198.577,66.789 -198.642,66.572 -198.707,66.357C-202.468,53.911 -202.557,40.582 -198.51,28.226" style="fill:rgb(222,214,206);fill-rule:nonzero;"/>
    </g>
    <g transform="matrix(11.4198,0,0,11.3239,1257.46,8192.65)">
        <path d="M0,1.144C24.327,70.648 112.628,53.484 113.602,0.22C113.996,-21.325 99.494,-40.337 78.855,-46.535C42.562,-57.435 -24.728,-69.504 0,1.144" style="fill:rgb(222,214,206);fill-rule:nonzero;"/>
    </g>
    <g transform="matrix(11.4198,0,0,11.3239,10622.5,7224.91)">
        <path d="M0,-9.024C-3.805,-2.276 -9.022,-0.518 -7.913,10.48C-28.376,0.71 -27.077,14.121 -33.048,-14.754C-9.932,-23.145 0,-9.024 0,-9.024" style="fill-rule:nonzero;"/>
    </g>
    <g transform="matrix(11.4198,0,0,11.3239,1789.07,7380.42)">
        <path d="M0,-25.21C0.079,-24.813 0.167,-24.418 0.252,-24.021L-4.441,-25.586C-2.506,-14.179 5.324,-13.127 1.289,0.503C-28.31,-6.465 -14.077,1.717 -23.728,-24.561C-14.794,-26.927 -6.94,-26.772 0,-25.21" style="fill-rule:nonzero;"/>
    </g>
    <g transform="matrix(11.4198,0,0,11.3239,6087,8326.18)">
        <path d="M0,16.467C8.392,16.467 16.917,15.729 25.446,14.235L24.67,9.809C-3.32,14.714 -31.261,11.23 -54.004,0L-55.992,4.029C-39.357,12.243 -20.068,16.467 0,16.467" style="fill-rule:nonzero;"/>
    </g>
</svg>
